<svg width="177" height="90" viewBox="0 0 177 90" fill="none" xmlns="http://www.w3.org/2000/svg">
<path d="M25.0235 44.5576C27.3294 46.1724 27.7095 47.9638 27.7602 48.4432C28.115 48.6702 28.4697 48.8469 28.7738 49.0235C28.2924 48.1909 27.8109 47.3582 27.4055 46.5004C26.6959 45.037 26.0878 43.5484 25.5556 42.0093C25.5049 41.8327 25.4543 41.6813 25.3782 41.5047C24.9728 40.2432 24.39 39.0321 23.6298 37.9724C23.5791 37.8967 23.5284 37.821 23.4777 37.7453C17.0413 34.1626 20.0061 26.8709 20.0061 26.8709C19.9048 28.4856 21.4505 29.722 23.0216 32.6487C24.3646 35.1466 23.9085 36.8875 23.7565 37.3669C24.0859 37.8715 24.39 38.3256 24.6687 38.7041C24.5674 38.2247 24.466 37.7706 24.3646 37.2912C24.0606 35.7016 23.8832 34.0869 23.8072 32.4721L23.7818 31.8666C23.7818 31.6647 23.7565 31.4629 23.7565 31.261V30.05C23.7565 29.6463 23.7818 29.2426 23.8072 28.8389C23.8072 28.637 23.8325 28.4352 23.8325 28.2333L23.8832 27.6278C23.9085 27.2241 23.9085 26.8204 23.8072 26.442L23.351 24.146C18.6631 18.4186 24.0859 12.7417 24.0859 12.7417C23.4017 14.205 24.39 15.9207 24.7954 19.226C25.1502 22.0518 24.0859 23.5152 23.7565 23.8936C23.8832 24.5749 24.0352 25.1552 24.1619 25.6346L24.2126 25.2561C24.2633 24.8524 24.3646 24.474 24.4153 24.0703L24.5167 23.4647C24.542 23.2629 24.5927 23.061 24.6434 22.8844C24.8461 22.1023 25.0235 21.3201 25.2515 20.5632L25.4289 19.9829L25.5049 19.7053L25.6063 19.4278L26.0117 18.2924C26.2651 17.6364 26.5439 16.9804 26.8226 16.3244C27.3548 15.1386 27.6842 13.877 27.7349 12.6155C27.7602 12.3127 27.7856 12.0352 27.8109 11.7577C25.2769 4.76874 32.2708 1.23643 32.2708 1.23643C31.1558 2.37182 31.5106 4.33981 30.7757 7.59458C30.1675 10.37 28.6725 11.3792 28.2417 11.6315C28.115 12.5903 28.039 13.3724 27.9883 13.9275C27.9883 13.9023 28.0136 13.877 28.0136 13.877L28.2924 13.3472C28.3937 13.1706 28.4951 12.994 28.5964 12.8173L29.2046 11.7829L29.8634 10.7737C29.9648 10.597 30.0915 10.4457 30.1929 10.269L30.5476 9.78966C30.9024 9.28504 31.3078 8.78043 31.7133 8.30104C32.2708 7.59458 33.031 6.56012 33.7151 5.8032C34.0192 5.44997 34.298 5.07151 34.5007 4.64258C37.4401 -1.51372 44.5354 0.227201 44.5354 0.227201C42.939 0.328124 41.9254 2.01858 39.2393 3.96135C37.1107 5.50043 35.4129 5.39951 34.8048 5.29858C34.7288 5.32381 34.6527 5.34904 34.5767 5.37427L33.7658 6.25735C32.7015 7.4432 31.6879 8.65427 30.801 9.96627L30.4716 10.4457C30.3702 10.6223 30.2689 10.7737 30.1422 10.9503L29.5087 11.9595L29.2299 12.4389C29.9395 11.8333 30.649 11.3035 31.3585 10.8493C35.1849 4.4912 42.2801 7.79643 42.2801 7.79643C40.6837 7.61981 39.3913 9.13366 36.4265 10.597C33.8925 11.8333 32.1694 11.3035 31.7133 11.1269C30.6997 11.7324 29.8634 12.3127 29.3566 12.666C29.0526 12.893 28.7992 13.1706 28.6218 13.5238L28.343 14.0537C27.6082 15.4666 27.0254 16.93 26.4932 18.4186L26.1131 19.554L26.0117 19.8315L25.9357 20.109L25.809 20.6893C25.581 21.4463 25.4289 22.2284 25.2515 23.0106C25.2009 23.2124 25.1755 23.389 25.1502 23.5909C25.6316 22.8592 26.1384 22.178 26.6453 21.5472C28.4444 14.3564 36.1985 15.4413 36.1985 15.4413C34.6274 15.7441 33.8418 17.5607 31.4092 19.8315C29.3566 21.7743 27.5575 21.7743 27.0507 21.7238C26.4932 22.3293 26.0371 22.8844 25.7077 23.2881C25.2515 23.8684 24.9221 24.5749 24.8714 25.3318L24.7447 26.5176L24.6941 27.1232L24.5927 28.2838C24.5674 28.4856 24.5927 28.6875 24.5674 28.8641C24.5674 29.2678 24.542 29.6463 24.542 30.05L24.5674 31.2358C24.5674 31.4376 24.5927 31.6395 24.5927 31.8161L24.6434 32.3964C24.6941 33.2543 24.7954 34.0869 24.9221 34.9447C25.0995 34.2383 25.2769 33.557 25.5049 32.9263C24.6434 25.5336 32.2708 23.7423 32.2708 23.7423C30.9024 24.6001 30.801 26.5681 29.3566 29.5706C28.115 32.1189 26.4425 32.7749 25.9611 32.901C25.7837 33.3552 25.6316 33.7841 25.4796 34.1626C25.1502 35.0961 25.0995 36.0801 25.3022 37.0389C25.3022 37.0389 25.3022 37.0389 25.3022 37.0641C25.6316 38.6032 26.0371 40.117 26.5946 41.6056C27.1267 43.069 27.7602 44.5072 28.4697 45.9201C28.6725 46.3238 28.9005 46.7275 29.1286 47.1059C29.0019 46.2733 28.9259 45.4659 28.9005 44.709C25.4289 38.149 31.8653 33.6832 31.8653 33.6832C30.9024 34.9699 31.5359 36.8623 31.2572 40.1927C31.0291 43.0186 29.7114 44.2549 29.306 44.5576C29.306 44.6586 29.306 44.7847 29.306 44.8856C29.306 46.677 29.8634 48.4432 30.9024 49.9318C30.9024 49.9318 30.9024 49.957 30.9277 49.957C31.8146 51.2438 32.8282 52.4296 33.8925 53.565C34.1713 53.8426 34.4247 54.1453 34.7034 54.3976L35.5396 55.205C35.565 55.205 35.5396 55.205 35.565 55.1798C35.3116 54.7256 35.0835 54.2715 34.8808 53.8173C29.1539 49.1244 33.3604 42.4887 33.3604 42.4887C32.9803 44.053 34.2726 45.5416 35.3116 48.7207C36.1985 51.4204 35.4383 53.0604 35.1849 53.4893C35.3623 53.893 35.5143 54.2715 35.6663 54.5995C36.0464 55.4069 36.5786 56.1386 37.2881 56.6936C38.5044 57.6776 39.7461 58.5859 41.0891 59.3681C41.8747 59.8222 42.6602 60.2512 43.4711 60.6549C43.1417 60.3016 42.8123 59.9484 42.5335 59.5952C37.0854 57.0973 39.1126 50.9662 39.1126 50.9662C39.1126 52.2782 40.4556 53.2118 41.9 55.5078C43.1417 57.4758 42.8629 58.9392 42.7616 59.3176C42.939 59.5447 43.1163 59.7718 43.2684 59.9736C43.8005 60.6296 44.4594 61.1595 45.2449 61.4875C46.664 62.093 48.1337 62.5976 49.6034 63.0013H49.6287C50.0342 63.1275 50.3383 63.4807 50.3383 63.9096C50.3636 64.6413 49.7048 65.0955 49.0713 64.8936C47.5255 64.4142 45.9798 63.8339 44.51 63.1779C43.0403 62.4967 41.5959 61.7145 40.2276 60.8315C39.3913 60.3016 38.6058 59.7465 37.8203 59.141C36.756 58.3336 35.489 57.8542 34.1713 57.7281C27.2788 60.4026 23.6805 53.3884 23.6805 53.3884C24.8461 54.4986 26.772 54.1201 30.0155 54.8013C32.7776 55.3816 33.8165 56.8702 34.0446 57.2992C34.7034 57.3749 35.2862 57.4506 35.7677 57.4758C35.3369 57.0973 34.9061 56.6936 34.4754 56.2899L33.6138 55.4321C33.335 55.1546 33.0563 54.8266 32.7776 54.5238C31.7133 53.3127 30.6997 52.0259 29.7874 50.6887C29.7621 50.6635 29.7621 50.6382 29.7367 50.613C29.306 49.957 28.6978 49.4272 27.9883 49.0487C27.8616 48.9982 27.7602 48.9226 27.6589 48.8721C20.3356 48.6198 19.7781 40.7478 19.7781 40.7478C20.3862 42.2364 22.3121 42.6401 25.0235 44.5576Z" fill="#CC950C"/>
<path d="M149.779 44.5576C147.473 46.1724 147.093 47.9638 147.042 48.4432C146.687 48.6702 146.332 48.8469 146.028 49.0235C146.51 48.1909 146.991 47.3582 147.397 46.5004C148.106 45.037 148.714 43.5484 149.247 42.0093C149.297 41.8327 149.348 41.6813 149.424 41.5047C149.829 40.2432 150.412 39.0321 151.172 37.9724C151.223 37.8967 151.274 37.821 151.324 37.7453C157.761 34.1626 154.796 26.8709 154.796 26.8709C154.897 28.4856 153.352 29.722 151.781 32.6487C150.437 35.1466 150.894 36.8875 151.046 37.3669C150.716 37.8715 150.412 38.3256 150.133 38.7041C150.235 38.2247 150.336 37.7706 150.437 37.2912C150.742 35.7016 150.919 34.0869 150.995 32.4721L151.02 31.8666C151.02 31.6647 151.046 31.4629 151.046 31.261V30.05C151.046 29.6463 151.02 29.2426 150.995 28.8389C150.995 28.637 150.97 28.4352 150.97 28.2333L150.919 27.6278C150.894 27.2241 150.894 26.8204 150.995 26.442L151.451 24.146C156.139 18.4186 150.716 12.7417 150.716 12.7417C151.4 14.205 150.412 15.9207 150.007 19.226C149.652 22.0518 150.716 23.5152 151.046 23.8936C150.919 24.5749 150.767 25.1552 150.64 25.6346L150.59 25.2561C150.539 24.8524 150.437 24.474 150.387 24.0703L150.285 23.4647C150.26 23.2629 150.209 23.061 150.159 22.8844C149.956 22.1023 149.779 21.3201 149.551 20.5632L149.373 19.9829L149.297 19.7053L149.196 19.4278L148.79 18.2924C148.537 17.6364 148.258 16.9804 147.98 16.3244C147.447 15.1386 147.118 13.877 147.067 12.6155C147.042 12.3127 147.017 12.0352 146.991 11.7577C149.525 4.76874 142.531 1.23643 142.531 1.23643C143.646 2.37182 143.292 4.33981 144.026 7.59458C144.635 10.37 146.13 11.3792 146.56 11.6315C146.687 12.5903 146.763 13.3724 146.814 13.9275C146.814 13.9023 146.789 13.877 146.789 13.877L146.51 13.3472C146.408 13.1706 146.307 12.994 146.206 12.8173L145.598 11.7829L144.939 10.7737C144.837 10.597 144.711 10.4457 144.609 10.269L144.255 9.78966C143.9 9.28504 143.494 8.78043 143.089 8.30104C142.531 7.59458 141.771 6.56012 141.087 5.8032C140.783 5.44997 140.504 5.07151 140.301 4.64258C137.362 -1.51372 130.267 0.227201 130.267 0.227201C131.863 0.328124 132.877 2.01858 135.563 3.96135C137.691 5.50043 139.389 5.39951 139.997 5.29858C140.073 5.32381 140.149 5.34904 140.225 5.37427L141.036 6.25735C142.101 7.4432 143.114 8.65427 144.001 9.96627L144.331 10.4457C144.432 10.6223 144.533 10.7737 144.66 10.9503L145.293 11.9595L145.572 12.4389C144.863 11.8333 144.153 11.3035 143.444 10.8493C139.617 4.4912 132.522 7.79643 132.522 7.79643C134.118 7.61981 135.411 9.13366 138.376 10.597C140.91 11.8333 142.633 11.3035 143.089 11.1269C144.102 11.7324 144.939 12.3127 145.445 12.666C145.75 12.893 146.003 13.1706 146.18 13.5238L146.459 14.0537C147.194 15.4666 147.777 16.93 148.309 18.4186L148.689 19.554L148.79 19.8315L148.866 20.109L148.993 20.6893C149.221 21.4463 149.373 22.2284 149.551 23.0106C149.601 23.2124 149.627 23.389 149.652 23.5909C149.17 22.8592 148.664 22.178 148.157 21.5472C146.358 14.3564 138.604 15.4413 138.604 15.4413C140.175 15.7441 140.96 17.5607 143.393 19.8315C145.445 21.7743 147.245 21.7743 147.751 21.7238C148.309 22.3293 148.765 22.8844 149.094 23.2881C149.551 23.8684 149.88 24.5749 149.931 25.3318L150.057 26.5176L150.108 27.1232L150.209 28.2838C150.235 28.4856 150.209 28.6875 150.235 28.8641C150.235 29.2678 150.26 29.6463 150.26 30.05L150.235 31.2358C150.235 31.4376 150.209 31.6395 150.209 31.8161L150.159 32.3964C150.108 33.2543 150.007 34.0869 149.88 34.9447C149.703 34.2383 149.525 33.557 149.297 32.9263C150.159 25.5336 142.531 23.7423 142.531 23.7423C143.9 24.6001 144.001 26.5681 145.445 29.5706C146.687 32.1189 148.36 32.7749 148.841 32.901C149.018 33.3552 149.17 33.7841 149.323 34.1626C149.652 35.0961 149.703 36.0801 149.5 37.0389C149.5 37.0389 149.5 37.0389 149.5 37.0641C149.17 38.6032 148.765 40.117 148.208 41.6056C147.675 43.069 147.042 44.5072 146.332 45.9201C146.13 46.3238 145.902 46.7275 145.674 47.1059C145.8 46.2733 145.876 45.4659 145.902 44.709C149.373 38.149 142.937 33.6832 142.937 33.6832C143.9 34.9699 143.266 36.8623 143.545 40.1927C143.773 43.0186 145.091 44.2549 145.496 44.5576C145.496 44.6586 145.496 44.7847 145.496 44.8856C145.496 46.677 144.939 48.4432 143.9 49.9318C143.9 49.9318 143.9 49.957 143.874 49.957C142.987 51.2438 141.974 52.4296 140.91 53.565C140.631 53.8426 140.377 54.1453 140.099 54.3976L139.262 55.205C139.237 55.205 139.262 55.205 139.237 55.1798C139.491 54.7256 139.719 54.2715 139.921 53.8173C145.648 49.1244 141.442 42.4887 141.442 42.4887C141.822 44.053 140.53 45.5416 139.491 48.7207C138.604 51.4204 139.364 53.0604 139.617 53.4893C139.44 53.893 139.288 54.2715 139.136 54.5995C138.756 55.4069 138.224 56.1386 137.514 56.6936C136.298 57.6776 135.056 58.5859 133.713 59.3681C132.927 59.8222 132.142 60.2512 131.331 60.6549C131.66 60.3016 131.99 59.9484 132.269 59.5952C137.717 57.0973 135.69 50.9662 135.69 50.9662C135.69 52.2782 134.347 53.2118 132.902 55.5078C131.66 57.4758 131.939 58.9392 132.041 59.3176C131.863 59.5447 131.686 59.7718 131.534 59.9736C131.002 60.6296 130.343 61.1595 129.557 61.4875C128.138 62.093 126.668 62.5976 125.199 63.0013H125.173C124.768 63.1275 124.464 63.4807 124.464 63.9096C124.439 64.6413 125.097 65.0955 125.731 64.8936C127.277 64.4142 128.822 63.8339 130.292 63.1779C131.762 62.4967 133.206 61.7145 134.575 60.8315C135.411 60.3016 136.196 59.7465 136.982 59.141C138.046 58.3336 139.313 57.8542 140.631 57.7281C147.523 60.4026 151.122 53.3884 151.122 53.3884C149.956 54.4986 148.03 54.1201 144.787 54.8013C142.025 55.3816 140.986 56.8702 140.758 57.2992C140.099 57.3749 139.516 57.4506 139.034 57.4758C139.465 57.0973 139.896 56.6936 140.327 56.2899L141.188 55.4321C141.467 55.1546 141.746 54.8266 142.025 54.5238C143.089 53.3127 144.102 52.0259 145.015 50.6887C145.04 50.6635 145.04 50.6382 145.065 50.613C145.496 49.957 146.104 49.4272 146.814 49.0487C146.941 48.9982 147.042 48.9226 147.143 48.8721C154.467 48.6198 155.024 40.7478 155.024 40.7478C154.416 42.2364 152.49 42.6401 149.779 44.5576Z" fill="#CC950C"/>
<path d="M118.505 22.8601C118.567 22.7423 118.567 22.6246 118.567 22.448C118.567 22.3891 118.567 22.3891 118.567 22.3303C118.567 22.2125 118.567 22.1537 118.505 22.0359C118.505 21.9771 118.442 21.9771 118.442 21.9182C118.38 21.8593 118.38 21.8005 118.318 21.7416V21.6827L105.072 7.4958C105.01 7.43693 104.947 7.37807 104.885 7.37807C104.822 7.3192 104.76 7.3192 104.635 7.3192H70.7093C70.6468 7.3192 70.5843 7.3192 70.4594 7.37807C70.3969 7.43693 70.3344 7.43693 70.2719 7.4958L57.0266 21.6827V21.7416C56.9641 21.8005 56.9641 21.8593 56.9016 21.9182C56.9016 21.9771 56.8392 21.9771 56.8392 22.0359C56.8392 22.0948 56.7767 22.2125 56.7767 22.3303C56.7767 22.3891 56.7767 22.3891 56.7767 22.448C56.7767 22.5657 56.7767 22.6835 56.8392 22.8012C56.9016 22.9189 56.9016 23.0367 56.9641 23.0955L77.2695 48.4672L87.141 60.8292C87.141 60.8292 87.141 60.8292 87.2035 60.8292C87.2659 60.8881 87.2659 60.8881 87.3284 60.947C87.3909 61.0058 87.4534 61.0058 87.5783 61.0058C87.6408 61.0058 87.7033 61.0058 87.8282 60.947C87.8907 60.8881 87.9532 60.8881 87.9532 60.8292C87.9532 60.8292 87.9532 60.8292 88.0157 60.8292L118.255 23.0955C118.442 23.0955 118.505 22.9778 118.505 22.8601ZM89.3277 56.8851L91.452 49.0558L104.76 29.5709L97.075 47.231L89.3277 56.8851ZM78.3316 47.231L70.6468 29.5709L83.9546 49.0558L86.0789 56.8851L78.3316 47.231ZM70.7718 9.37954L77.3944 13.9712L67.5229 20.8586L67.8353 12.5584L70.7718 9.37954ZM107.571 12.5584L107.884 20.8586L97.9497 13.9712L104.572 9.37954L107.571 12.5584ZM99.4492 21.5061L97.7622 16.0315L105.634 21.5061H99.4492ZM88.5155 23.4487H97.9497L91.1396 45.1706L88.5155 23.4487ZM84.267 45.1706L77.4569 23.4487H86.8911L84.267 45.1706ZM96.0753 15.4428L97.9497 21.5061H89.89L96.0753 15.4428ZM87.7033 21.2707L80.3934 14.1478L87.7033 9.37954L95.0132 14.1478L87.7033 21.2707ZM85.5166 21.5061H77.4569L79.3312 15.4428L85.5166 21.5061ZM75.8949 21.5061H69.7096L77.5819 16.0315L75.8949 21.5061ZM75.9574 23.4487L82.3927 43.8756L68.4601 23.4487H75.9574ZM87.7033 28.2758L90.1399 48.4083L87.7033 57.4738L85.2666 48.4083L87.7033 28.2758ZM99.4492 23.4487H107.009L93.0764 43.8756L99.4492 23.4487ZM96.3877 12.9116L90.8272 9.26181H101.698L96.3877 12.9116ZM79.0188 12.9116L73.7082 9.26181H84.5794L79.0188 12.9116ZM66.1484 21.5061H59.5257L66.3983 14.1478L66.1484 21.5061ZM66.3983 23.4487L74.8328 42.8748L59.2758 23.4487H66.3983ZM109.008 23.4487H116.131L100.574 42.8748L109.008 23.4487ZM109.258 21.5061L109.008 14.1478L115.881 21.5061H109.258Z" fill="#CC950C"/>
<path d="M13.9199 74.2087V74.6449C13.4254 74.674 13.0545 74.7612 12.8072 74.9066C12.56 75.052 12.3927 75.292 12.3054 75.6264C12.2327 75.9463 12.1963 76.4043 12.1963 77.0005V89.7383C12.08 89.7383 11.9636 89.7383 11.8472 89.7383C11.7309 89.7383 11.6072 89.7383 11.4763 89.7383L2.22545 76.3025V86.7719C2.22545 87.3827 2.26908 87.8625 2.35635 88.2115C2.44363 88.5459 2.63272 88.7858 2.92363 88.9312C3.21453 89.0767 3.65817 89.1712 4.25453 89.2148V89.651C3.97817 89.6219 3.6218 89.6074 3.18544 89.6074C2.76363 89.5929 2.36363 89.5856 1.98545 89.5856C1.62181 89.5856 1.25818 89.5929 0.894542 89.6074C0.530907 89.6074 0.232726 89.6219 0 89.651V89.2148C0.479998 89.1712 0.843633 89.0839 1.0909 88.9531C1.33818 88.8077 1.50545 88.5677 1.59272 88.2333C1.67999 87.8988 1.72363 87.4408 1.72363 86.8592V76.5207C1.72363 75.9827 1.67999 75.59 1.59272 75.3429C1.50545 75.0811 1.33818 74.9066 1.0909 74.8194C0.843633 74.7176 0.479998 74.6594 0 74.6449V74.2087C0.232726 74.2232 0.530907 74.2378 0.894542 74.2523C1.25818 74.2668 1.62181 74.2741 1.98545 74.2741C2.30545 74.2741 2.61817 74.2668 2.92363 74.2523C3.22908 74.2378 3.49817 74.2232 3.73089 74.2087L11.6945 85.5941V77.0878C11.6945 76.4625 11.6436 75.9826 11.5418 75.6482C11.4545 75.3138 11.2654 75.0739 10.9745 74.9284C10.6836 74.7685 10.2472 74.674 9.66542 74.6449V74.2087C9.92724 74.2232 10.2763 74.2378 10.7127 74.2523C11.149 74.2668 11.5563 74.2741 11.9345 74.2741C12.2981 74.2741 12.6618 74.2668 13.0254 74.2523C13.389 74.2378 13.6872 74.2232 13.9199 74.2087Z" fill="#CC950C"/>
<path d="M20.2774 78.0911C21.2519 78.0911 22.1174 78.2946 22.8737 78.7018C23.6301 79.1089 24.2337 79.7487 24.6846 80.6212C25.1355 81.4936 25.361 82.6351 25.361 84.0455C25.361 85.456 25.1355 86.5974 24.6846 87.4699C24.2337 88.3278 23.6301 88.9603 22.8737 89.3675C22.1174 89.7601 21.2519 89.9564 20.2774 89.9564C19.3174 89.9564 18.4519 89.7601 17.681 89.3675C16.9101 88.9603 16.2992 88.3278 15.8483 87.4699C15.4119 86.5974 15.1937 85.456 15.1937 84.0455C15.1937 82.6351 15.4119 81.4936 15.8483 80.6212C16.2992 79.7487 16.9101 79.1089 17.681 78.7018C18.4519 78.2946 19.3174 78.0911 20.2774 78.0911ZM20.2774 78.5273C19.521 78.5273 18.9028 78.9635 18.4228 79.836C17.9428 80.6939 17.7028 82.0971 17.7028 84.0455C17.7028 85.994 17.9428 87.3972 18.4228 88.2551C18.9028 89.0985 19.521 89.5202 20.2774 89.5202C21.0192 89.5202 21.6301 89.0985 22.1101 88.2551C22.6046 87.3972 22.8519 85.994 22.8519 84.0455C22.8519 82.0971 22.6046 80.6939 22.1101 79.836C21.6301 78.9635 21.0192 78.5273 20.2774 78.5273Z" fill="#CC950C"/>
<path d="M33.7328 78.0911C34.8965 78.0911 35.8637 78.5782 36.6346 79.5524C37.4201 80.5121 37.8128 81.9735 37.8128 83.9365C37.8128 85.3179 37.5874 86.452 37.1364 87.339C36.6855 88.226 36.0819 88.8876 35.3255 89.3238C34.5837 89.7455 33.7765 89.9564 32.9037 89.9564C32.2201 89.9564 31.5656 89.7892 30.9401 89.4547C30.3147 89.1057 29.8347 88.5823 29.5001 87.8843L29.8928 87.9934C30.2128 88.4878 30.6128 88.8585 31.0928 89.1057C31.5728 89.3529 32.0601 89.4765 32.5546 89.4765C33.471 89.4765 34.1546 89.033 34.6055 88.146C35.071 87.2591 35.3037 85.8922 35.3037 84.0455C35.3037 82.8386 35.2092 81.8499 35.0201 81.0792C34.8455 80.3085 34.5765 79.7487 34.2128 79.3997C33.8637 79.0362 33.4201 78.8545 32.8819 78.8545C32.2565 78.8545 31.6819 79.1235 31.1583 79.6615C30.6347 80.1995 30.3219 80.9774 30.2201 81.9953L30.0019 81.5372C30.2056 80.4467 30.6419 79.6033 31.311 79.0071C31.9946 78.3964 32.8019 78.0911 33.7328 78.0911ZM30.351 72.5728V88.7568C30.1037 88.844 29.8492 88.9531 29.5874 89.0839C29.3256 89.2148 29.0783 89.3602 28.8456 89.5202C28.6128 89.6656 28.3947 89.8255 28.191 90L27.8419 89.8255C27.9001 89.6219 27.9365 89.4184 27.951 89.2148C27.9801 89.0112 27.9947 88.8004 27.9947 88.5823V75.1902C27.9947 74.5358 27.8783 74.056 27.6456 73.7506C27.4274 73.4307 27.0201 73.2708 26.4238 73.2708V72.8128C26.8892 72.8564 27.3401 72.8782 27.7765 72.8782C28.2565 72.8782 28.7147 72.8564 29.151 72.8128C29.5874 72.7546 29.9874 72.6746 30.351 72.5728Z" fill="#CC950C"/>
<path d="M42.9515 72.551V87.6226C42.9515 88.2333 43.0678 88.6477 43.3006 88.8658C43.5478 89.0839 43.9551 89.193 44.5224 89.193V89.651C44.2751 89.6365 43.8897 89.6219 43.366 89.6074C42.8424 89.5783 42.3188 89.5638 41.7951 89.5638C41.2715 89.5638 40.7406 89.5783 40.2024 89.6074C39.6788 89.6219 39.286 89.6365 39.0242 89.651V89.193C39.5915 89.193 39.9915 89.0839 40.2242 88.8658C40.4715 88.6477 40.5951 88.2333 40.5951 87.6226V75.1684C40.5951 74.514 40.486 74.0342 40.2679 73.7288C40.0497 73.4089 39.6351 73.249 39.0242 73.249V72.7909C39.4897 72.8346 39.9406 72.8564 40.3769 72.8564C40.8569 72.8564 41.3151 72.8346 41.7515 72.7909C42.1878 72.7328 42.5878 72.6528 42.9515 72.551Z" fill="#CC950C"/>
<path d="M50.7663 78.0911C52.0463 78.0911 53.0499 78.4764 53.7772 79.2471C54.5044 80.0177 54.8681 81.2392 54.8681 82.9114H47.3408L47.2972 82.4969H52.5554C52.5699 81.7844 52.5117 81.1301 52.3808 80.5339C52.2499 79.9232 52.0463 79.4361 51.7699 79.0726C51.4936 78.7091 51.1299 78.5273 50.679 78.5273C50.0536 78.5273 49.5081 78.8617 49.0427 79.5306C48.5917 80.1849 48.3154 81.2392 48.2136 82.6932L48.279 82.8023C48.2645 83.0059 48.2499 83.2312 48.2354 83.4784C48.2208 83.7111 48.2136 83.9438 48.2136 84.1764C48.2136 85.1797 48.3663 86.0231 48.6717 86.7065C48.9772 87.3899 49.3772 87.9061 49.8717 88.2551C50.3663 88.5895 50.8681 88.7568 51.3772 88.7568C51.7699 88.7568 52.1481 88.6986 52.5117 88.5823C52.8899 88.4514 53.2463 88.2406 53.5808 87.9497C53.9154 87.6444 54.2135 87.23 54.4754 86.7065L54.9117 86.881C54.7372 87.3754 54.4681 87.8625 54.1044 88.3423C53.7408 88.8222 53.2754 89.2148 52.7081 89.5202C52.1408 89.811 51.479 89.9564 50.7226 89.9564C49.7045 89.9564 48.8172 89.731 48.0608 89.2802C47.3045 88.8149 46.7227 88.1533 46.3154 87.2954C45.9081 86.4375 45.7045 85.4196 45.7045 84.2418C45.7045 82.9477 45.9154 81.8426 46.3372 80.9265C46.759 80.0105 47.3481 79.3125 48.1045 78.8327C48.8754 78.3383 49.7626 78.0911 50.7663 78.0911Z" fill="#CC950C"/>
<path d="M67.6947 74.1214L73.0184 87.8189C73.222 88.3569 73.4547 88.7204 73.7165 88.9094C73.9929 89.0985 74.2474 89.2003 74.4802 89.2148V89.651C74.1311 89.6219 73.7165 89.6074 73.2365 89.6074C72.7711 89.5929 72.2984 89.5856 71.8184 89.5856C71.2074 89.5856 70.6402 89.5929 70.1165 89.6074C69.5929 89.6074 69.1711 89.6219 68.8511 89.651V89.2148C69.5929 89.1857 70.0584 89.0621 70.2475 88.844C70.4511 88.6113 70.4074 88.1242 70.1165 87.3827L66.1893 76.7824L66.5384 76.3898L62.9166 85.8559C62.6548 86.5102 62.4948 87.0555 62.4366 87.4917C62.3929 87.9279 62.4293 88.2696 62.5457 88.5168C62.6766 88.764 62.8948 88.9385 63.2002 89.0403C63.5057 89.1421 63.8838 89.2003 64.3348 89.2148V89.651C63.8984 89.6219 63.4548 89.6074 63.0038 89.6074C62.5675 89.5929 62.1529 89.5856 61.7602 89.5856C61.4111 89.5856 61.0984 89.5929 60.822 89.6074C60.5602 89.6074 60.3202 89.6219 60.102 89.651V89.2148C60.4075 89.1421 60.7129 88.9603 61.0184 88.6695C61.3239 88.3787 61.6148 87.8843 61.8911 87.1863L66.9529 74.1214C67.0693 74.1214 67.1929 74.1214 67.3238 74.1214C67.4547 74.1214 67.5784 74.1214 67.6947 74.1214ZM69.9856 83.3694V83.8056H63.4838L63.702 83.3694H69.9856Z" fill="#CC950C"/>
<path d="M80.4496 78.0911C80.9442 78.0911 81.4169 78.1565 81.8678 78.2874C82.3187 78.4037 82.7114 78.5709 83.046 78.789C83.3951 79.0071 83.6569 79.2689 83.8314 79.5742C84.0205 79.8796 84.1151 80.214 84.1151 80.5775C84.1151 81.0138 83.9914 81.3555 83.7442 81.6027C83.4969 81.8499 83.1769 81.9735 82.7842 81.9735C82.3914 81.9735 82.0642 81.8644 81.8024 81.6463C81.5405 81.4282 81.4096 81.1156 81.4096 80.7084C81.4096 80.3304 81.5187 80.025 81.7369 79.7923C81.9551 79.5452 82.2096 79.3852 82.5005 79.3125C82.3696 79.0944 82.1369 78.9126 81.8024 78.7672C81.4824 78.6073 81.1333 78.5273 80.7551 78.5273C80.3624 78.5273 79.9842 78.6291 79.6205 78.8327C79.2715 79.0362 78.9587 79.3489 78.6824 79.7705C78.406 80.1922 78.1806 80.7375 78.006 81.4064C77.846 82.0753 77.766 82.8823 77.766 83.8274C77.766 85.0488 77.9042 86.0231 78.1805 86.7501C78.4715 87.4626 78.8496 87.9716 79.3151 88.2769C79.7805 88.5823 80.2824 88.7349 80.8205 88.7349C81.1696 88.7349 81.526 88.6695 81.8896 88.5386C82.2678 88.4078 82.6242 88.1897 82.9587 87.8843C83.3078 87.579 83.6133 87.1645 83.8751 86.6411L84.2896 86.7937C84.1296 87.2736 83.8751 87.7607 83.526 88.2551C83.1914 88.7495 82.7478 89.1566 82.1951 89.4765C81.6424 89.7964 80.966 89.9564 80.166 89.9564C79.2496 89.9564 78.4205 89.731 77.6787 89.2802C76.9369 88.8295 76.3478 88.1751 75.9115 87.3172C75.4751 86.4448 75.2569 85.3833 75.2569 84.1328C75.2569 82.9114 75.4751 81.8499 75.9115 80.9483C76.3624 80.0323 76.9805 79.327 77.766 78.8327C78.5515 78.3383 79.446 78.0911 80.4496 78.0911Z" fill="#CC950C"/>
<path d="M91.1243 78.0911C91.6188 78.0911 92.0916 78.1565 92.5425 78.2874C92.9934 78.4037 93.3861 78.5709 93.7207 78.789C94.0697 79.0071 94.3316 79.2689 94.5061 79.5742C94.6952 79.8796 94.7897 80.214 94.7897 80.5775C94.7897 81.0138 94.6661 81.3555 94.4188 81.6027C94.1716 81.8499 93.8516 81.9735 93.4588 81.9735C93.0661 81.9735 92.7388 81.8644 92.477 81.6463C92.2152 81.4282 92.0843 81.1156 92.0843 80.7084C92.0843 80.3304 92.1934 80.025 92.4116 79.7923C92.6298 79.5452 92.8843 79.3852 93.1752 79.3125C93.0443 79.0944 92.8116 78.9126 92.477 78.7672C92.157 78.6073 91.8079 78.5273 91.4298 78.5273C91.037 78.5273 90.6589 78.6291 90.2952 78.8327C89.9461 79.0362 89.6334 79.3489 89.357 79.7705C89.0807 80.1922 88.8552 80.7375 88.6807 81.4064C88.5207 82.0753 88.4407 82.8823 88.4407 83.8274C88.4407 85.0488 88.5789 86.0231 88.8552 86.7501C89.1461 87.4626 89.5243 87.9716 89.9898 88.2769C90.4552 88.5823 90.957 88.7349 91.4952 88.7349C91.8443 88.7349 92.2007 88.6695 92.5643 88.5386C92.9425 88.4078 93.2988 88.1897 93.6334 87.8843C93.9825 87.579 94.2879 87.1645 94.5498 86.6411L94.9643 86.7937C94.8043 87.2736 94.5498 87.7607 94.2007 88.2551C93.8661 88.7495 93.4225 89.1566 92.8698 89.4765C92.317 89.7964 91.6407 89.9564 90.8407 89.9564C89.9243 89.9564 89.0952 89.731 88.3534 89.2802C87.6116 88.8295 87.0225 88.1751 86.5861 87.3172C86.1498 86.4448 85.9316 85.3833 85.9316 84.1328C85.9316 82.9114 86.1498 81.8499 86.5861 80.9483C87.0371 80.0323 87.6552 79.327 88.4407 78.8327C89.2261 78.3383 90.1207 78.0911 91.1243 78.0911Z" fill="#CC950C"/>
<path d="M101.668 78.0911C102.948 78.0911 103.952 78.4764 104.679 79.2471C105.406 80.0177 105.77 81.2392 105.77 82.9114H98.2426L98.199 82.4969H103.457C103.472 81.7844 103.414 81.1301 103.283 80.5339C103.152 79.9232 102.948 79.4361 102.672 79.0726C102.395 78.7091 102.032 78.5273 101.581 78.5273C100.955 78.5273 100.41 78.8617 99.9444 79.5306C99.4935 80.1849 99.2172 81.2392 99.1154 82.6932L99.1808 82.8023C99.1663 83.0059 99.1517 83.2312 99.1372 83.4784C99.1226 83.7111 99.1154 83.9438 99.1154 84.1764C99.1154 85.1797 99.2681 86.0231 99.5735 86.7065C99.879 87.3899 100.279 87.9061 100.774 88.2551C101.268 88.5895 101.77 88.7568 102.279 88.7568C102.672 88.7568 103.05 88.6986 103.414 88.5823C103.792 88.4514 104.148 88.2406 104.483 87.9497C104.817 87.6444 105.115 87.23 105.377 86.7065L105.814 86.881C105.639 87.3754 105.37 87.8625 105.006 88.3423C104.643 88.8222 104.177 89.2148 103.61 89.5202C103.043 89.811 102.381 89.9564 101.624 89.9564C100.606 89.9564 99.719 89.731 98.9626 89.2802C98.2063 88.8149 97.6245 88.1533 97.2172 87.2954C96.8099 86.4375 96.6063 85.4196 96.6063 84.2418C96.6063 82.9477 96.8172 81.8426 97.239 80.9265C97.6608 80.0105 98.2499 79.3125 99.0063 78.8327C99.7772 78.3383 100.664 78.0911 101.668 78.0911Z" fill="#CC950C"/>
<path d="M111.331 78.0911C111.913 78.0911 112.415 78.1856 112.836 78.3746C113.273 78.5491 113.585 78.7091 113.775 78.8545C114.255 79.2325 114.553 78.9853 114.669 78.1129H115.149C115.12 78.52 115.098 79.0144 115.084 79.596C115.069 80.1631 115.062 80.9193 115.062 81.8644H114.582C114.495 81.3264 114.342 80.8029 114.124 80.294C113.92 79.7851 113.615 79.3634 113.207 79.029C112.815 78.6945 112.298 78.5273 111.658 78.5273C111.178 78.5273 110.778 78.6654 110.458 78.9417C110.138 79.2034 109.978 79.596 109.978 80.1195C109.978 80.5557 110.109 80.9338 110.371 81.2537C110.633 81.5736 110.967 81.8717 111.375 82.148C111.796 82.4242 112.247 82.7223 112.727 83.0422C113.265 83.4057 113.745 83.7693 114.167 84.1328C114.604 84.4818 114.945 84.8744 115.193 85.3106C115.455 85.7468 115.585 86.2557 115.585 86.8374C115.585 87.5062 115.404 88.0733 115.04 88.5386C114.691 89.004 114.225 89.3602 113.644 89.6074C113.062 89.8401 112.422 89.9564 111.724 89.9564C111.375 89.9564 111.047 89.92 110.742 89.8473C110.436 89.7892 110.153 89.7092 109.891 89.6074C109.731 89.5202 109.571 89.4329 109.411 89.3457C109.265 89.2439 109.12 89.1494 108.975 89.0621C108.829 88.9603 108.698 88.9749 108.582 89.1057C108.465 89.2366 108.378 89.4693 108.32 89.8037H107.84C107.869 89.3384 107.891 88.7713 107.905 88.1024C107.92 87.4335 107.927 86.5466 107.927 85.4414H108.407C108.509 86.2412 108.662 86.9464 108.865 87.5571C109.069 88.1679 109.367 88.6477 109.76 88.9967C110.167 89.3311 110.72 89.4983 111.418 89.4983C111.695 89.4983 111.971 89.4402 112.247 89.3238C112.524 89.193 112.749 88.9894 112.924 88.7131C113.113 88.4369 113.207 88.0661 113.207 87.6008C113.207 86.961 112.982 86.4375 112.531 86.0304C112.095 85.6087 111.527 85.1652 110.829 84.6999C110.335 84.3509 109.862 84.0092 109.411 83.6747C108.975 83.3258 108.618 82.9404 108.342 82.5188C108.065 82.0825 107.927 81.5663 107.927 80.9702C107.927 80.3158 108.08 79.7778 108.385 79.3561C108.705 78.9344 109.127 78.6218 109.651 78.4182C110.175 78.2001 110.735 78.0911 111.331 78.0911Z" fill="#CC950C"/>
<path d="M121.196 78.0911C121.778 78.0911 122.28 78.1856 122.701 78.3746C123.138 78.5491 123.45 78.7091 123.64 78.8545C124.12 79.2325 124.418 78.9853 124.534 78.1129H125.014C124.985 78.52 124.963 79.0144 124.949 79.596C124.934 80.1631 124.927 80.9193 124.927 81.8644H124.447C124.36 81.3264 124.207 80.8029 123.989 80.294C123.785 79.7851 123.48 79.3634 123.072 79.029C122.68 78.6945 122.163 78.5273 121.523 78.5273C121.043 78.5273 120.643 78.6654 120.323 78.9417C120.003 79.2034 119.843 79.596 119.843 80.1195C119.843 80.5557 119.974 80.9338 120.236 81.2537C120.498 81.5736 120.832 81.8717 121.24 82.148C121.661 82.4242 122.112 82.7223 122.592 83.0422C123.13 83.4057 123.61 83.7693 124.032 84.1328C124.469 84.4818 124.81 84.8744 125.058 85.3106C125.32 85.7468 125.45 86.2557 125.45 86.8374C125.45 87.5062 125.269 88.0733 124.905 88.5386C124.556 89.004 124.09 89.3602 123.509 89.6074C122.927 89.8401 122.287 89.9564 121.589 89.9564C121.24 89.9564 120.912 89.92 120.607 89.8473C120.301 89.7892 120.018 89.7092 119.756 89.6074C119.596 89.5202 119.436 89.4329 119.276 89.3457C119.131 89.2439 118.985 89.1494 118.84 89.0621C118.694 88.9603 118.563 88.9749 118.447 89.1057C118.331 89.2366 118.243 89.4693 118.185 89.8037H117.705C117.734 89.3384 117.756 88.7713 117.771 88.1024C117.785 87.4335 117.792 86.5466 117.792 85.4414H118.272C118.374 86.2412 118.527 86.9464 118.731 87.5571C118.934 88.1679 119.232 88.6477 119.625 88.9967C120.032 89.3311 120.585 89.4983 121.283 89.4983C121.56 89.4983 121.836 89.4402 122.112 89.3238C122.389 89.193 122.614 88.9894 122.789 88.7131C122.978 88.4369 123.072 88.0661 123.072 87.6008C123.072 86.961 122.847 86.4375 122.396 86.0304C121.96 85.6087 121.392 85.1652 120.694 84.6999C120.2 84.3509 119.727 84.0092 119.276 83.6747C118.84 83.3258 118.483 82.9404 118.207 82.5188C117.931 82.0825 117.792 81.5663 117.792 80.9702C117.792 80.3158 117.945 79.7778 118.251 79.3561C118.571 78.9344 118.992 78.6218 119.516 78.4182C120.04 78.2001 120.6 78.0911 121.196 78.0911Z" fill="#CC950C"/>
<path d="M132.457 78.0911C133.432 78.0911 134.297 78.2946 135.054 78.7018C135.81 79.1089 136.414 79.7487 136.865 80.6212C137.315 81.4936 137.541 82.6351 137.541 84.0455C137.541 85.456 137.315 86.5974 136.865 87.4699C136.414 88.3278 135.81 88.9603 135.054 89.3675C134.297 89.7601 133.432 89.9564 132.457 89.9564C131.497 89.9564 130.632 89.7601 129.861 89.3675C129.09 88.9603 128.479 88.3278 128.028 87.4699C127.592 86.5974 127.374 85.456 127.374 84.0455C127.374 82.6351 127.592 81.4936 128.028 80.6212C128.479 79.7487 129.09 79.1089 129.861 78.7018C130.632 78.2946 131.497 78.0911 132.457 78.0911ZM132.457 78.5273C131.701 78.5273 131.083 78.9635 130.603 79.836C130.123 80.6939 129.883 82.0971 129.883 84.0455C129.883 85.994 130.123 87.3972 130.603 88.2551C131.083 89.0985 131.701 89.5202 132.457 89.5202C133.199 89.5202 133.81 89.0985 134.29 88.2551C134.785 87.3972 135.032 85.994 135.032 84.0455C135.032 82.0971 134.785 80.6939 134.29 79.836C133.81 78.9635 133.199 78.5273 132.457 78.5273Z" fill="#CC950C"/>
<path d="M146.109 78.0911C146.531 78.0911 146.887 78.1783 147.178 78.3528C147.484 78.5273 147.709 78.7527 147.855 79.029C148.015 79.2907 148.095 79.5888 148.095 79.9232C148.095 80.3449 147.964 80.7084 147.702 81.0138C147.455 81.3046 147.12 81.45 146.698 81.45C146.335 81.45 146.022 81.3409 145.76 81.1228C145.513 80.9047 145.389 80.6066 145.389 80.2286C145.389 79.9087 145.469 79.6397 145.629 79.4216C145.804 79.1889 146 79.0071 146.218 78.8763C146.073 78.7599 145.898 78.7091 145.695 78.7236C145.302 78.7381 144.938 78.869 144.604 79.1162C144.269 79.3489 143.986 79.6542 143.753 80.0323C143.52 80.3958 143.338 80.7884 143.207 81.2101C143.076 81.6318 143.011 82.0244 143.011 82.3879V87.4045C143.011 88.117 143.207 88.5968 143.6 88.844C143.993 89.0767 144.538 89.193 145.236 89.193V89.651C144.902 89.6365 144.422 89.6219 143.796 89.6074C143.186 89.5783 142.538 89.5638 141.855 89.5638C141.331 89.5638 140.807 89.5783 140.284 89.6074C139.76 89.6219 139.36 89.6365 139.084 89.651V89.193C139.651 89.193 140.051 89.0839 140.284 88.8658C140.531 88.6477 140.655 88.2333 140.655 87.6226V80.7739C140.655 80.1195 140.546 79.6397 140.327 79.3343C140.109 79.0144 139.695 78.8545 139.084 78.8545V78.3964C139.549 78.44 140 78.4619 140.436 78.4619C140.931 78.4619 141.389 78.44 141.811 78.3964C142.247 78.3383 142.647 78.2583 143.011 78.1565V80.6648C143.186 80.2431 143.418 79.836 143.709 79.4434C144 79.0508 144.349 78.7309 144.756 78.4837C145.164 78.2219 145.615 78.0911 146.109 78.0911Z" fill="#CC950C"/>
<path d="M151.567 72.9C152.018 72.9 152.396 73.0454 152.701 73.3362C153.007 73.6125 153.16 73.9615 153.16 74.3832C153.16 74.8048 153.007 75.1611 152.701 75.4519C152.396 75.7282 152.018 75.8663 151.567 75.8663C151.116 75.8663 150.738 75.7282 150.432 75.4519C150.127 75.1611 149.974 74.8048 149.974 74.3832C149.974 73.9615 150.127 73.6125 150.432 73.3362C150.738 73.0454 151.116 72.9 151.567 72.9ZM152.876 78.1565V87.6226C152.876 88.2333 152.992 88.6477 153.225 88.8658C153.472 89.0839 153.88 89.193 154.447 89.193V89.651C154.2 89.6365 153.814 89.6219 153.291 89.6074C152.781 89.5783 152.258 89.5638 151.72 89.5638C151.211 89.5638 150.687 89.5783 150.149 89.6074C149.611 89.6219 149.211 89.6365 148.949 89.651V89.193C149.516 89.193 149.916 89.0839 150.149 88.8658C150.396 88.6477 150.52 88.2333 150.52 87.6226V80.7739C150.52 80.1195 150.411 79.6397 150.192 79.3343C149.974 79.0144 149.56 78.8545 148.949 78.8545V78.3964C149.414 78.44 149.865 78.4619 150.301 78.4619C150.796 78.4619 151.254 78.44 151.676 78.3964C152.112 78.3383 152.512 78.2583 152.876 78.1565Z" fill="#CC950C"/>
<path d="M160.901 78.0911C162.181 78.0911 163.184 78.4764 163.912 79.2471C164.639 80.0177 165.003 81.2392 165.003 82.9114H157.475L157.432 82.4969H162.69C162.704 81.7844 162.646 81.1301 162.515 80.5339C162.384 79.9232 162.181 79.4361 161.904 79.0726C161.628 78.7091 161.264 78.5273 160.814 78.5273C160.188 78.5273 159.643 78.8617 159.177 79.5306C158.726 80.1849 158.45 81.2392 158.348 82.6932L158.414 82.8023C158.399 83.0059 158.384 83.2312 158.37 83.4784C158.355 83.7111 158.348 83.9438 158.348 84.1764C158.348 85.1797 158.501 86.0231 158.806 86.7065C159.112 87.3899 159.512 87.9061 160.006 88.2551C160.501 88.5895 161.003 88.7568 161.512 88.7568C161.904 88.7568 162.283 88.6986 162.646 88.5823C163.024 88.4514 163.381 88.2406 163.715 87.9497C164.05 87.6444 164.348 87.23 164.61 86.7065L165.046 86.881C164.872 87.3754 164.603 87.8625 164.239 88.3423C163.875 88.8222 163.41 89.2148 162.843 89.5202C162.275 89.811 161.614 89.9564 160.857 89.9564C159.839 89.9564 158.952 89.731 158.195 89.2802C157.439 88.8149 156.857 88.1533 156.45 87.2954C156.043 86.4375 155.839 85.4196 155.839 84.2418C155.839 82.9477 156.05 81.8426 156.472 80.9265C156.894 80.0105 157.483 79.3125 158.239 78.8327C159.01 78.3383 159.897 78.0911 160.901 78.0911Z" fill="#CC950C"/>
<path d="M171.698 73.9469C172.469 73.9469 173.058 74.0342 173.465 74.2087C173.873 74.3832 174.229 74.5722 174.535 74.7758C174.709 74.8776 174.847 74.9575 174.949 75.0157C175.065 75.0593 175.175 75.0811 175.276 75.0811C175.422 75.0811 175.524 75.0011 175.582 74.8412C175.655 74.6812 175.713 74.4413 175.756 74.1214H176.258C176.244 74.3832 176.222 74.6958 176.193 75.0593C176.178 75.4083 176.164 75.8736 176.149 76.4552C176.149 77.0369 176.149 77.8003 176.149 78.7454H175.647C175.604 78.0329 175.444 77.3422 175.167 76.6733C174.905 76.0045 174.513 75.4592 173.989 75.0375C173.48 74.6158 172.825 74.405 172.025 74.405C171.284 74.405 170.665 74.6304 170.171 75.0811C169.691 75.5173 169.451 76.099 169.451 76.826C169.451 77.4658 169.611 78.0038 169.931 78.44C170.251 78.8617 170.687 79.2616 171.24 79.6397C171.807 80.0032 172.447 80.4103 173.16 80.8611C173.887 81.3264 174.542 81.7917 175.124 82.257C175.705 82.7078 176.164 83.2094 176.498 83.762C176.833 84.3145 177 84.9834 177 85.7686C177 86.7138 176.775 87.499 176.324 88.1242C175.887 88.7349 175.298 89.193 174.556 89.4983C173.815 89.8037 173 89.9564 172.113 89.9564C171.298 89.9564 170.651 89.8691 170.171 89.6946C169.691 89.5202 169.284 89.3384 168.949 89.1494C168.629 88.9458 168.382 88.844 168.207 88.844C168.062 88.844 167.953 88.924 167.88 89.0839C167.822 89.2439 167.771 89.4838 167.727 89.8037H167.225C167.255 89.4838 167.269 89.113 167.269 88.6913C167.284 88.2551 167.291 87.688 167.291 86.9901C167.305 86.2921 167.313 85.4124 167.313 84.3509H167.815C167.873 85.2524 168.033 86.0958 168.295 86.881C168.571 87.6662 168.985 88.2987 169.538 88.7786C170.105 89.2439 170.855 89.4765 171.785 89.4765C172.28 89.4765 172.738 89.382 173.16 89.193C173.582 89.004 173.924 88.7059 174.185 88.2987C174.447 87.8916 174.578 87.3681 174.578 86.7283C174.578 86.1321 174.433 85.6087 174.142 85.1579C173.865 84.7071 173.473 84.2927 172.964 83.9147C172.469 83.5221 171.887 83.1222 171.218 82.715C170.535 82.2788 169.895 81.8426 169.298 81.4064C168.702 80.9702 168.222 80.4612 167.858 79.8796C167.509 79.298 167.335 78.6073 167.335 77.8075C167.335 76.9205 167.538 76.1935 167.945 75.6264C168.367 75.0593 168.905 74.6376 169.56 74.3614C170.229 74.0851 170.942 73.9469 171.698 73.9469Z" fill="#CC950C"/>
</svg>
