<svg xmlns="http://www.w3.org/2000/svg" width="96" height="92" fill="none"><g clip-path="url(#a)"><g fill="#676159" filter="url(#b)"><path d="m35.504 64.11-.23.275c-.644.736-1.564 1.104-2.805 1.104-1.104 0-1.932-.368-2.576-1.104-.643-.735-.92-1.747-.965-3.08v-1.978q0-2.14.828-3.173c.551-.69 1.425-1.058 2.529-1.058.966 0 1.701.276 2.253.782.552.551.828 1.287.92 2.299H34.17c-.046-.644-.23-1.104-.506-1.472s-.735-.551-1.333-.551c-.736 0-1.242.23-1.61.69-.322.46-.506 1.241-.506 2.253v2.07c0 1.011.184 1.793.598 2.345q.621.828 1.656.828c.69 0 1.195-.184 1.563-.506l.184-.184v-2.3h-1.84v-1.104h3.128zm7.772-.597-2.622-8.232-1.61-.046v10.118h1.289v-3.955l-.138-3.91 2.62 7.865h.967l2.62-7.864-.137 3.955v3.955h1.287V55.28h-1.655z"/><path fill-rule="evenodd" d="M51.14 65.393V55.275h2.897q1.38 0 2.07.69c.459.46.689 1.104.689 2.024 0 .46-.138.874-.368 1.241q-.345.552-.966.828c.46.138.828.414 1.104.874.276.414.414.966.414 1.564 0 .92-.23 1.61-.736 2.115s-1.196.782-2.115.782zm1.287-5.795h1.61c.46 0 .782-.138 1.057-.46.276-.276.414-.69.414-1.195 0-.552-.138-.966-.367-1.196-.23-.23-.598-.368-1.104-.368h-1.61zm0 1.058v3.633h1.748c.46 0 .874-.138 1.15-.46s.413-.782.413-1.333c0-1.196-.506-1.84-1.517-1.84z" clip-rule="evenodd"/><path d="M65.626 65.393h1.287V55.275h-1.287v4.323h-4.047v-4.323H60.29v10.118h1.288v-4.691h4.047z"/></g><g fill="#676159" filter="url(#c)"><path d="m86.475 59.237-.956-.334c1.09-3.136 1.757-6.45 2.024-9.809.022-.266.289-.511.534-.467l2.624.2c.133 0 .266.067.356.179a.46.46 0 0 1 .11.378c-.2 2.49-.6 4.982-1.223 7.384l1.58.422a44.4 44.4 0 0 0 1.379-10.12l-5.272-.066.023-1.001 5.782.067c.29 0 .512.222.49.511a45.5 45.5 0 0 1-1.557 11.366c-.067.267-.356.422-.623.355l-2.558-.689c-.267-.067-.422-.356-.356-.623a43.5 43.5 0 0 0 1.268-7.184l-1.602-.133c-.289 3.291-.955 6.494-2.023 9.564"/><path d="M85.692 71.934a.5.5 0 0 1-.29-.09l-2.201-1.49c-.111-.066-.178-.2-.222-.31a.56.56 0 0 1 .066-.379 41.6 41.6 0 0 0 3.537-6.383l-1.49-.645a39.3 39.3 0 0 1-5.05 8.362l-.8-.622c2.069-2.67 3.803-5.56 5.115-8.608a.45.45 0 0 1 .267-.267.55.55 0 0 1 .379 0l2.401 1.046c.268.11.379.4.268.667a44 44 0 0 1-3.56 6.583l1.358.912a44 44 0 0 0 4.604-9.119l-4.96-1.78.333-.956 5.45 1.936c.266.089.4.378.311.645-1.268 3.58-3.025 7.028-5.182 10.253-.067.111-.2.178-.312.222.045.023 0 .023-.022.023"/><path d="M75.396 82.816a.48.48 0 0 1-.4-.2l-1.602-2.113a.47.47 0 0 1-.089-.378.53.53 0 0 1 .2-.334 40.6 40.6 0 0 0 5.427-4.893l-1.201-1.09a40.8 40.8 0 0 1-7.473 6.295l-.556-.846a39.8 39.8 0 0 0 7.629-6.494.497.497 0 0 1 .711-.022l1.935 1.779c.2.178.223.512.023.712a44 44 0 0 1-5.494 5.07l1.001 1.313a44.5 44.5 0 0 0 7.317-7.14l-4.114-3.291.622-.779 4.515 3.603c.223.178.245.49.09.712a46 46 0 0 1-8.208 8.007c-.133.045-.222.09-.333.09M62.12 89.752c-.222 0-.4-.134-.49-.356l-.822-2.513a.55.55 0 0 1 .022-.379.62.62 0 0 1 .29-.245 41.5 41.5 0 0 0 6.716-2.868l-.778-1.424a40.5 40.5 0 0 1-9.119 3.514l-.245-.978a39 39 0 0 0 9.32-3.67c.11-.067.244-.067.377-.045a.57.57 0 0 1 .312.245l1.267 2.29a.45.45 0 0 1 .045.379.57.57 0 0 1-.245.311c-2.18 1.201-4.492 2.202-6.85 3.025l.512 1.557a44.4 44.4 0 0 0 9.23-4.382l-2.825-4.448.845-.534 3.114 4.871a.554.554 0 0 1 .066.378.46.46 0 0 1-.222.312 45.3 45.3 0 0 1-10.386 4.916c-.023.044-.067.044-.134.044"/><path d="M47.997 92h-.69c-.289 0-.511-.222-.489-.511l.044-2.647c0-.133.067-.266.156-.356a.55.55 0 0 1 .356-.133c2.447.022 4.893-.133 7.273-.512l-.267-1.601a41 41 0 0 1-9.764.356l.09-1.001c3.38.267 6.738.133 10.007-.445a.47.47 0 0 1 .379.09c.11.066.177.2.2.333l.444 2.58a.5.5 0 0 1-.422.578c-2.38.4-4.849.623-7.317.623h-.134l-.022 1.645c3.403-.021 6.828-.355 10.164-1.111l-1.223-5.116.978-.245 1.357 5.605a.505.505 0 0 1-.378.601A46 46 0 0 1 47.997 92"/><path d="M43.66 91.79h-.045a46.2 46.2 0 0 1-11.209-2.49.504.504 0 0 1-.311-.645l.89-2.49a.49.49 0 0 1 .266-.29.45.45 0 0 1 .378-.022 43 43 0 0 0 7.05 1.868l.267-1.602a39.4 39.4 0 0 1-9.34-2.824l.4-.912a39.5 39.5 0 0 0 9.608 2.825.52.52 0 0 1 .422.578l-.422 2.602c-.045.267-.29.445-.578.422-2.47-.4-4.893-1-7.25-1.823l-.557 1.557a45 45 0 0 0 9.986 2.224l.49-5.25 1 .09-.534 5.738c-.022.267-.244.445-.511.445"/><path d="M29.203 87.97a.648.648 0 0 1-.2-.044 46 46 0 0 1-9.764-6.005.5.5 0 0 1-.067-.712l1.668-2.068a.42.42 0 0 1 .334-.178.48.48 0 0 1 .378.11 43 43 0 0 0 6.072 4.071l.756-1.423a40.7 40.7 0 0 1-7.918-5.717l.69-.734a39.7 39.7 0 0 0 8.162 5.806c.111.066.2.178.245.289a.45.45 0 0 1-.045.378l-1.245 2.313a.6.6 0 0 1-.29.245.45.45 0 0 1-.377-.045 44.6 44.6 0 0 1-6.272-4.092l-1.023 1.29a46.4 46.4 0 0 0 8.696 5.36l2.18-4.804.911.422-2.38 5.25c-.066.11-.155.222-.289.266-.11 0-.178.023-.222.023M16.77 79.61a.55.55 0 0 1-.355-.133 45 45 0 0 1-7.295-8.852c-.156-.245-.09-.556.156-.69l2.246-1.423a.55.55 0 0 1 .378-.067.46.46 0 0 1 .311.222c1.313 2.047 2.78 4.004 4.426 5.805l1.179-1.09a41.3 41.3 0 0 1-5.65-7.962l.89-.49a39.6 39.6 0 0 0 5.85 8.141.5.5 0 0 1 .133.356.53.53 0 0 1-.155.356l-1.935 1.78c-.2.2-.534.177-.712-.023a43.7 43.7 0 0 1-4.604-5.894l-1.379.89a45 45 0 0 0 6.494 7.873l3.603-3.825.734.69-3.959 4.203a.5.5 0 0 1-.355.133"/><path d="M7.718 67.68a.49.49 0 0 1-.445-.267A46 46 0 0 1 3.248 56.67a.55.55 0 0 1 .066-.378.46.46 0 0 1 .312-.222l2.58-.623a.56.56 0 0 1 .378.067.46.46 0 0 1 .222.311 42 42 0 0 0 2.29 6.917l1.469-.667a41 41 0 0 1-2.758-9.364l1-.155a39.3 39.3 0 0 0 2.87 9.586.514.514 0 0 1-.245.667L9.03 63.877a.514.514 0 0 1-.667-.245 43 43 0 0 1-2.447-7.073l-1.6.378a44 44 0 0 0 3.602 9.564l4.67-2.446.468.89-5.116 2.69a.8.8 0 0 1-.222.045"/><path d="M3.025 53.475c-.111 0-.222-.023-.29-.09a.53.53 0 0 1-.2-.333 46 46 0 0 1-.31-11.477.49.49 0 0 1 .555-.444l2.647.244c.133.023.267.067.334.178a.48.48 0 0 1 .11.378 42 42 0 0 0-.066 7.296l1.601-.134a41 41 0 0 1 .445-9.764l1.001.156c-.556 3.292-.667 6.65-.378 10.008a.48.48 0 0 1-.111.379.42.42 0 0 1-.334.178l-2.624.222a.58.58 0 0 1-.378-.111.42.42 0 0 1-.178-.334 44 44 0 0 1-.023-7.473l-1.645-.156c-.29 3.403-.2 6.828.289 10.21l5.204-.802.156 1.001-5.716.868z"/><path d="m8.786 39.501-5.694-1a.53.53 0 0 1-.333-.2.57.57 0 0 1-.09-.379 45.2 45.2 0 0 1 3.426-10.965.514.514 0 0 1 .667-.245l2.424 1.112a.514.514 0 0 1 .245.667 43.5 43.5 0 0 0-2.446 6.873l1.556.378a41.8 41.8 0 0 1 3.581-9.096l.89.489a40.2 40.2 0 0 0-3.625 9.341.46.46 0 0 1-.223.312.55.55 0 0 1-.378.066l-2.558-.622a.46.46 0 0 1-.311-.223.55.55 0 0 1-.067-.378 41.5 41.5 0 0 1 2.424-7.073l-1.49-.69a45.2 45.2 0 0 0-3.047 9.765l5.182.912zm4.247-12.361-5.048-2.826a.51.51 0 0 1-.2-.689 47 47 0 0 1 6.783-9.253.53.53 0 0 1 .356-.155c.133 0 .267.044.356.133l1.935 1.824a.53.53 0 0 1 .155.356.5.5 0 0 1-.133.356 40.3 40.3 0 0 0-4.537 5.716l1.357.867a41.5 41.5 0 0 1 6.338-7.428l.69.733a40.2 40.2 0 0 0-6.45 7.652.53.53 0 0 1-.69.155l-2.202-1.423c-.222-.156-.31-.467-.155-.69a44 44 0 0 1 4.581-5.916l-1.2-1.134c-2.336 2.535-4.382 5.293-6.05 8.23l4.604 2.557z"/><path d="m21.062 16.813-3.87-4.292a.5.5 0 0 1-.133-.356c0-.134.066-.267.177-.356a46.5 46.5 0 0 1 9.43-6.561c.245-.134.556-.023.69.222l1.223 2.358a.56.56 0 0 1 .045.378.46.46 0 0 1-.245.289 41 41 0 0 0-6.138 3.937l1 1.267c2.625-2.001 5.45-3.692 8.407-4.982l.4.934a40.4 40.4 0 0 0-8.584 5.16.5.5 0 0 1-.712-.089l-1.623-2.068a.58.58 0 0 1-.112-.378.53.53 0 0 1 .2-.334 46.6 46.6 0 0 1 6.25-4.114l-.756-1.446a45 45 0 0 0-8.385 5.827l3.514 3.915z"/><path d="m31.984 9.652-2.269-5.315a.55.55 0 0 1 0-.378.45.45 0 0 1 .267-.267A46.5 46.5 0 0 1 41.036.556a.57.57 0 0 1 .378.089q.166.133.2.333l.4 2.625a.52.52 0 0 1-.422.578 41 41 0 0 0-7.095 1.713l.534 1.534a40.8 40.8 0 0 1 9.563-1.957l.089 1a39.3 39.3 0 0 0-9.786 2.07.45.45 0 0 1-.378-.023c-.111-.067-.222-.156-.267-.29l-.867-2.468a.45.45 0 0 1 .022-.378c.067-.111.156-.222.289-.267a43 43 0 0 1 7.25-1.846l-.244-1.624a45.5 45.5 0 0 0-9.83 2.78l2.068 4.85z"/><path d="M57.718 7.52a39.1 39.1 0 0 0-9.942-1.2c-.089.022-.267-.045-.356-.156a.53.53 0 0 1-.156-.356l-.022-2.625c0-.133.045-.267.156-.356.133-.133.334-.155.534-.155 2.446 0 4.893.2 7.272.6l.29-1.623a46 46 0 0 0-10.209-.556l.356 5.249-1 .066-.401-5.76a.514.514 0 0 1 .467-.534A46 46 0 0 1 56.16.737a.53.53 0 0 1 .333.2.56.56 0 0 1 .09.378l-.468 2.602a.503.503 0 0 1-.578.4 44 44 0 0 0-7.273-.667v1.602c3.292.022 6.54.445 9.697 1.245z"/><path d="M69.68 12.8a39.7 39.7 0 0 0-9.007-4.382.504.504 0 0 1-.31-.645l.844-2.491a.53.53 0 0 1 .245-.29.45.45 0 0 1 .378-.022 42.673 42.673 0 0 1 6.85 3.003l.8-1.424a44.6 44.6 0 0 0-9.474-3.847L58.65 7.795l-.98-.267 1.491-5.583a.49.49 0 0 1 .245-.311.45.45 0 0 1 .378-.044 45.8 45.8 0 0 1 10.63 4.314.51.51 0 0 1 .201.69l-1.29 2.313a.57.57 0 0 1-.311.245.45.45 0 0 1-.378-.045 40.6 40.6 0 0 0-6.65-3.002l-.512 1.534a40.7 40.7 0 0 1 8.763 4.337z"/><path d="M79.288 21.649a41 41 0 0 0-7.094-7.073.53.53 0 0 1-.2-.334.48.48 0 0 1 .11-.378l1.602-2.09a.53.53 0 0 1 .334-.2.48.48 0 0 1 .378.11 42.5 42.5 0 0 1 5.515 5.072l1.224-1.09c-2.291-2.514-4.893-4.76-7.718-6.717l-2.936 4.382-.845-.557 3.225-4.782c.067-.11.2-.177.312-.222a.55.55 0 0 1 .378.067 46 46 0 0 1 8.651 7.54c.178.2.178.534-.044.711l-1.98 1.78c-.2.178-.534.178-.711-.045a43.5 43.5 0 0 0-5.316-5.004l-.978 1.29a40.7 40.7 0 0 1 6.894 6.94z"/><path d="M85.517 33.118c-1.112-3.203-2.58-6.228-4.426-8.986-.067-.11-.111-.244-.067-.378a.46.46 0 0 1 .222-.311l2.18-1.446c.222-.155.556-.089.69.134a44 44 0 0 1 3.58 6.583l1.512-.645a46 46 0 0 0-5.115-8.852l-4.181 3.18-.6-.8 4.603-3.492a.5.5 0 0 1 .712.089 46.6 46.6 0 0 1 5.76 9.942.55.55 0 0 1 0 .378.45.45 0 0 1-.267.267l-2.446 1.023a.504.504 0 0 1-.667-.267 43.5 43.5 0 0 0-3.403-6.45l-1.357.89c1.757 2.713 3.18 5.671 4.27 8.785z"/><path d="M87.67 46.022c0-3.381-.421-6.717-1.245-9.942-.066-.267.09-.556.356-.623l2.536-.645c.134-.022.266-.022.378.044.111.067.2.178.223.312a43.4 43.4 0 0 1 1.222 7.384l1.647-.111A45 45 0 0 0 90.83 32.41l-5.005 1.646-.311-.957 5.493-1.801a.524.524 0 0 1 .645.311 46.3 46.3 0 0 1 2.202 11.277.514.514 0 0 1-.467.533l-2.647.178c-.245.023-.511-.2-.533-.467a41 41 0 0 0-1.112-7.206l-1.557.4a40.6 40.6 0 0 1 1.156 9.698z"/></g><path fill="#868B9D" d="M44.045 31.615c2.005 1.889 3.192 4.593 3.171 7.676-.02 3.042-1.227 5.727-3.212 7.616L41.855 44.8c1.433-1.412 2.333-3.36 2.333-5.508 0-2.168-.9-4.117-2.353-5.529z"/><path fill="#C2C4CA" d="m44.044 31.614-2.21 2.147a8.2 8.2 0 0 0-5.73-2.307h-4.399L28.8 28.77v-.02h7.796c2.946 0 5.565 1.074 7.448 2.864"/><path fill="#676159" d="m41.854 44.8 2.148 2.088c-1.902 1.83-4.542 2.943-7.488 2.943H28.8v-.02l2.905-2.645.02-.02h4.38a8.32 8.32 0 0 0 5.75-2.346"/><path fill="#B8BABC" d="M41.831 33.757c1.453 1.412 2.353 3.361 2.353 5.529 0 2.147-.88 4.096-2.332 5.508l-1.862-1.81c.88-.894 1.412-2.187 1.432-3.698 0-1.552-.511-2.844-1.412-3.739z"/><path fill="#C2C4CA" d="M41.857 44.801a8.22 8.22 0 0 1-5.75 2.327h-4.4l2.927-2.764h1.882c1.391 0 2.599-.517 3.458-1.392z"/><path fill="#676159" d="M36.107 31.456c2.25 0 4.276.875 5.729 2.307l-1.841 1.79c-.86-.856-2.047-1.353-3.417-1.353h-1.965l-2.905-2.744z"/><path fill="#868B9D" d="m34.654 44.382-2.946 2.744v-15.67l2.905 2.744v10.182z"/><path fill="#B8BABC" d="M31.705 31.455v15.69L28.8 49.79V28.77l2.905 2.665z"/><path fill="#676159" d="M67.2 49.81v.02H51.5l2.903-2.664h10.18z"/><path fill="#868B9D" d="m64.583 47.169-.02-.02 2.636-2.645v5.31z"/><path fill="#C2C4CA" d="m67.2 44.504-2.638 2.645.02.02h-10.18l2.944-2.665z"/><path fill="#868B9D" d="M67.2 28.753v5.33l-2.638-2.665-.02-.02z"/><path fill="#676159" d="M64.542 31.413v-.02l.02.02 2.638 2.665h-9.854l-2.943-2.665z"/><path fill="#C2C4CA" d="m54.403 31.418-2.924-2.645v-.02H67.2l-2.657 2.645v.02z"/><path fill="#676159" d="M65.237 41.364h-7.89v.02l-2.944-2.247h8.565v.02z"/><path fill="#868B9D" d="m62.967 39.133 2.249-2.247h.02v4.474l-2.269-2.207z"/><path fill="#C2C4CA" d="m65.217 36.889-2.249 2.248h-8.565l2.943-2.268v.02z"/><path fill="#868B9D" d="M57.346 34.08v2.784l-2.943 2.267v-7.716zm0 10.426-2.943 2.665v-8.034l2.943 2.247z"/><path fill="#B8BABC" d="M54.403 47.169 51.5 49.833h-.02v-21.06l2.923 2.645z"/></g><defs><filter id="b" width="41.985" height="14.394" x="26.928" y="55.096" color-interpolation-filters="sRGB" filterUnits="userSpaceOnUse"><feFlood flood-opacity="0" result="BackgroundImageFix"/><feColorMatrix in="SourceAlpha" result="hardAlpha" values="0 0 0 0 0 0 0 0 0 0 0 0 0 0 0 0 0 0 127 0"/><feOffset dy="2"/><feGaussianBlur stdDeviation="1"/><feComposite in2="hardAlpha" operator="out"/><feColorMatrix values="0 0 0 0 0.415686 0 0 0 0 0.439216 0 0 0 0 0.521569 0 0 0 0.2 0"/><feBlend in2="BackgroundImageFix" result="effect1_dropShadow_105_12"/><feBlend in="SourceGraphic" in2="effect1_dropShadow_105_12" result="shape"/></filter><filter id="c" width="95.924" height="96" x=".004" y="0" color-interpolation-filters="sRGB" filterUnits="userSpaceOnUse"><feFlood flood-opacity="0" result="BackgroundImageFix"/><feColorMatrix in="SourceAlpha" result="hardAlpha" values="0 0 0 0 0 0 0 0 0 0 0 0 0 0 0 0 0 0 127 0"/><feOffset dy="2"/><feGaussianBlur stdDeviation="1"/><feComposite in2="hardAlpha" operator="out"/><feColorMatrix values="0 0 0 0 0.415686 0 0 0 0 0.439216 0 0 0 0 0.521569 0 0 0 0.2 0"/><feBlend in2="BackgroundImageFix" result="effect1_dropShadow_105_12"/><feBlend in="SourceGraphic" in2="effect1_dropShadow_105_12" result="shape"/></filter><clipPath id="a"><path fill="#fff" d="M0 0h96v92H0z"/></clipPath></defs></svg>