<svg width="148" height="122" viewBox="0 0 148 122" fill="none" xmlns="http://www.w3.org/2000/svg">
<g clip-path="url(#clip0_3927_2)">
<path d="M148 109C127.388 103.603 101.75 100.377 74 100.377C46.25 100.377 20.6125 103.57 0 109C18.7561 100.97 45.0017 96 74 96C102.998 96 129.244 100.97 148 109Z" fill="#E0B443"/>
<path d="M138.114 34.0703C137.6 33.5579 137.022 33.0776 136.412 32.6934C136.316 32.6293 136.219 32.5653 136.091 32.5012C135.834 32.3411 135.545 32.181 135.256 32.0529C135.16 31.9889 135.031 31.9249 134.935 31.8928C134.838 31.8288 134.71 31.7968 134.582 31.7327C134.549 31.7007 134.132 31.5406 134.004 31.5086C133.361 31.2844 132.719 31.1243 132.045 30.9962C131.916 30.9642 131.788 30.9642 131.627 30.9322C131.499 30.9002 131.37 30.9002 131.242 30.9002C131.081 30.8682 130.953 30.8682 130.792 30.8682C130.632 30.8682 130.471 30.8682 130.279 30.8682C130.118 30.8682 129.957 30.8682 129.797 30.8682C129.636 30.8682 129.476 30.9002 129.283 30.9002C128.416 30.9962 127.549 31.2204 126.746 31.5726C125.943 31.9249 125.173 32.3732 124.498 32.9175C123.15 34.0382 122.122 35.5112 121.608 37.1763C121.351 38.0088 121.191 38.8734 121.191 39.706C121.159 40.5705 121.287 41.4991 121.576 42.3317C122.154 44.0288 123.374 45.4697 124.884 46.3343C125.654 46.7826 126.489 47.0708 127.324 47.1989C127.742 47.2629 128.191 47.2949 128.609 47.2949C128.801 47.2949 129.026 47.2629 129.251 47.2629C129.476 47.2309 129.701 47.1989 129.893 47.1348C131.627 46.7506 133.072 45.5018 133.747 43.9968C134.1 43.2283 134.26 42.4277 134.228 41.6272C134.196 40.8267 133.971 39.9941 133.522 39.3537C133.072 38.6813 132.494 38.169 131.82 37.8808C131.146 37.5926 130.407 37.4965 129.733 37.6246C131.081 37.8487 132.141 38.8094 132.494 39.8981C132.655 40.4424 132.687 40.9868 132.558 41.5312C132.462 42.0755 132.237 42.5879 131.916 43.0041C131.306 43.8367 130.343 44.349 129.412 44.413C128.962 44.4451 128.448 44.381 127.966 44.2209C127.485 44.0928 127.067 43.8367 126.682 43.5485C125.911 42.9721 125.397 42.1396 125.173 41.275C125.076 40.8267 125.044 40.4104 125.108 39.9301C125.141 39.4498 125.269 38.9695 125.43 38.5212C125.494 38.3611 125.558 38.201 125.654 38.0409C125.687 37.9768 125.719 37.9448 125.751 37.8808C126.425 36.6319 127.613 35.6713 129.026 35.3191C129.122 35.2871 129.219 35.2871 129.315 35.255C129.444 35.223 129.54 35.223 129.668 35.191C129.829 35.159 129.99 35.159 130.182 35.159C131.98 35.127 133.715 35.8634 134.999 37.1123C136.283 38.3931 136.99 40.0902 136.99 41.8834C137.022 46.5905 132.591 50.8813 126.489 50.8813H79.8626C77.7753 50.8813 76.1055 52.5464 76.1055 54.6277V91.8361C79.124 91.9963 82.1104 92.2204 85.0647 92.5086V58.054C85.0647 57.0934 85.8675 56.2928 86.8309 56.2928H90.6201C91.5835 56.2928 92.3863 57.0934 92.3863 58.054V92.4125C95.4369 92.7968 98.4234 93.2131 101.346 93.6934V57.7018C101.346 56.9333 101.988 56.2928 102.758 56.2928H107.254C108.025 56.2928 108.667 56.9333 108.667 57.7018V94.622C111.75 95.2624 114.736 95.9348 117.626 96.6713V62.4088C118.622 63.1774 119.906 63.5616 121.319 63.3695C123.342 63.0813 125.012 61.4482 125.333 59.4309C125.59 57.7978 125.044 56.2928 124.017 55.2361C124.017 55.2361 132.526 56.2608 137.472 51.3296C137.632 51.1695 137.761 51.0414 137.889 50.8813C140.137 48.4157 141.357 45.2776 141.325 41.9154C141.357 38.9375 140.201 36.1516 138.114 34.0703ZM120.613 60.9679C119.296 60.9679 118.237 59.9112 118.237 58.5984C118.237 57.1254 119.585 55.9726 121.127 56.2608C122.026 56.4529 122.764 57.1574 122.957 58.054C123.278 59.623 122.09 60.9679 120.613 60.9679Z" fill="#E0B443"/>
<path d="M7.12891 41.8834C7.12891 45.2456 8.34917 48.3836 10.5649 50.8493C10.6933 51.0094 10.8539 51.1695 10.9824 51.2976C15.9597 56.2608 24.4373 55.2041 24.4373 55.2041C23.4097 56.2608 22.8317 57.7658 23.1207 59.3989C23.4418 61.4162 25.1117 63.0493 27.1347 63.3375C28.5155 63.5296 29.8321 63.1453 30.8276 62.3768V96.7033C33.7177 95.9669 36.7041 95.2624 39.7869 94.654V57.7018C39.7869 56.9333 40.4291 56.2928 41.1998 56.2928H45.6955C46.4662 56.2928 47.1084 56.9333 47.1084 57.7018V93.7254C50.0306 93.2451 53.0171 92.7968 56.0677 92.4445V58.054C56.0677 57.0934 56.8705 56.2928 57.8339 56.2928H61.6552C62.6507 56.2928 63.4214 57.0934 63.4214 58.054V92.5086C66.3436 92.2204 69.33 92.0283 72.3806 91.8361V54.6277C72.3806 52.5464 70.7108 50.8813 68.6235 50.8813H21.9326C15.8313 50.8813 11.3998 46.5905 11.4319 41.8834C11.4319 40.0902 12.1384 38.3931 13.4229 37.1123C14.7074 35.8314 16.4093 35.127 18.2397 35.159C18.4002 35.159 18.5929 35.159 18.7535 35.191C18.8819 35.191 19.0104 35.223 19.1067 35.255C19.203 35.2871 19.2994 35.2871 19.3957 35.3191C20.8086 35.6393 21.9968 36.5999 22.6711 37.8808C22.7033 37.9448 22.7354 37.9768 22.7675 38.0409C22.8638 38.201 22.928 38.3611 22.9923 38.5212C23.1528 38.9695 23.2813 39.4498 23.3134 39.9301C23.3455 40.4104 23.3455 40.8267 23.2492 41.275C23.0244 42.1396 22.5106 42.9721 21.7399 43.5485C21.3546 43.8367 20.9371 44.0608 20.4554 44.2209C19.9737 44.349 19.4599 44.4451 19.0104 44.413C18.0791 44.381 17.1158 43.8687 16.5056 43.0041C16.1845 42.5878 15.9597 42.0755 15.8634 41.5312C15.7349 40.9868 15.7671 40.4424 15.9276 39.8981C16.2808 38.8094 17.3084 37.8487 18.6893 37.6246C18.0149 37.4965 17.2763 37.5926 16.602 37.8808C15.9276 38.169 15.3175 38.6813 14.9 39.3537C14.4505 39.9941 14.2257 40.8267 14.1936 41.6272C14.1614 42.4277 14.322 43.2603 14.6752 43.9968C15.3496 45.5018 16.7946 46.7506 18.5287 47.1348C18.7535 47.1668 18.9461 47.2309 19.1709 47.2629C19.3957 47.2949 19.6205 47.2949 19.8132 47.2949C20.2306 47.327 20.6802 47.2629 21.0977 47.1989C21.9326 47.0708 22.7675 46.7826 23.5382 46.3343C25.0474 45.4697 26.2677 44.0288 26.8457 42.3317C27.1347 41.4991 27.2632 40.5385 27.2311 39.706C27.2311 38.8414 27.0705 37.9768 26.8136 37.1763C26.2998 35.5112 25.2722 34.0382 23.9235 32.9175C23.2492 32.3732 22.4785 31.9249 21.6757 31.5726C20.8729 31.2524 20.0058 31.0283 19.1388 30.9002C18.9783 30.9002 18.7856 30.8682 18.625 30.8682C18.4645 30.8682 18.3039 30.8682 18.1433 30.8682C17.9828 30.8682 17.8222 30.8682 17.6296 30.8682C17.469 30.8682 17.3405 30.8682 17.18 30.9002C17.0515 30.9002 16.9231 30.9322 16.7946 30.9322C16.6662 30.9642 16.5377 30.9642 16.3772 30.9962C15.7028 31.0923 15.0606 31.2844 14.4183 31.5086C14.2899 31.5406 13.8724 31.7327 13.8403 31.7327C13.7119 31.7648 13.6155 31.8288 13.4871 31.8928C13.3908 31.9249 13.2623 31.9889 13.166 32.0529C12.877 32.181 12.6201 32.3411 12.3311 32.5012C12.2347 32.5653 12.1384 32.6293 12.0099 32.6934C11.3998 33.0776 10.8218 33.5579 10.308 34.0703C8.28494 36.1516 7.12891 38.9375 7.12891 41.8834ZM25.5612 58.054C25.7539 57.1574 26.4925 56.4529 27.3916 56.2608C28.933 55.9406 30.2817 57.1254 30.2817 58.5983C30.2817 59.9112 29.222 60.9679 27.9054 60.9679C26.3961 60.9679 25.2401 59.623 25.5612 58.054Z" fill="#E0B443"/>
<path d="M145.063 27.1948H2.93653C2.41982 27.1948 2 26.7785 2 26.2661V23.9286C2 23.4163 2.41982 23 2.93653 23H145.063C145.58 23 146 23.4163 146 23.9286V26.2661C145.968 26.7785 145.58 27.1948 145.063 27.1948Z" fill="#E0B443"/>
<path d="M115.989 45.4701H32.4977C31.9839 45.4701 31.5664 45.0539 31.5664 44.5415V42.204C31.5664 41.6917 31.9839 41.2754 32.4977 41.2754H115.989C116.503 41.2754 116.92 41.6917 116.92 42.204V44.5415C116.92 45.0539 116.503 45.4701 115.989 45.4701Z" fill="#E0B443"/>
<path d="M115.989 38.2973H32.4977C31.9839 38.2973 31.5664 37.881 31.5664 37.3687V35.0311C31.5664 34.5188 31.9839 34.1025 32.4977 34.1025H115.989C116.503 34.1025 116.92 34.5188 116.92 35.0311V37.3687C116.92 37.881 116.503 38.2973 115.989 38.2973Z" fill="#E0B443"/>
<path d="M16 121.819V121.718L16.2021 121.648C16.3369 121.608 16.4244 121.547 16.4649 121.467C16.512 121.386 16.5356 121.279 16.5356 121.145V115.875C16.5356 115.741 16.512 115.634 16.4649 115.553C16.4177 115.473 16.3268 115.409 16.192 115.362L16 115.282V115.181H18.4557C19.4595 115.181 20.1838 115.365 20.6284 115.734C21.0798 116.096 21.3055 116.576 21.3055 117.172C21.3055 117.555 21.2112 117.907 21.0226 118.228C20.8406 118.544 20.5375 118.795 20.113 118.983C19.6886 119.17 19.1159 119.264 18.3951 119.264H18.0515V121.115C18.0515 121.376 18.1828 121.547 18.4456 121.628L18.7488 121.718V121.819H16ZM18.0515 119.063H18.4355C18.7656 119.063 19.0351 119.01 19.2439 118.902C19.4528 118.795 19.6077 118.607 19.7088 118.339C19.8099 118.071 19.8604 117.699 19.8604 117.223C19.8604 116.74 19.8031 116.364 19.6886 116.096C19.5808 115.828 19.4191 115.644 19.2035 115.543C18.9879 115.436 18.7184 115.382 18.3951 115.382H18.0515V119.063Z" fill="#E0B443"/>
<path d="M21.6154 121.819V121.718L21.8276 121.648C21.9624 121.601 22.0499 121.541 22.0904 121.467C22.1308 121.386 22.151 121.276 22.151 121.135V115.875C22.151 115.741 22.1308 115.637 22.0904 115.563C22.0567 115.483 21.9758 115.419 21.8478 115.372L21.6154 115.282V115.181H24.5056C25.3006 115.181 25.9103 115.332 26.3348 115.634C26.7592 115.929 26.9714 116.341 26.9714 116.871C26.9714 117.166 26.8603 117.461 26.6379 117.756C26.4156 118.051 26.0653 118.279 25.5869 118.44L26.9916 121.216C27.0523 121.33 27.1196 121.423 27.1938 121.497C27.2746 121.564 27.379 121.625 27.507 121.678L27.6384 121.728V121.819H25.8295L24.3338 118.651H23.6466V121.135C23.6466 121.262 23.6669 121.366 23.7073 121.447C23.7477 121.527 23.8319 121.588 23.9599 121.628L24.2025 121.718V121.819H21.6154ZM23.6466 118.45H24.1317C24.6168 118.45 24.9671 118.322 25.1827 118.068C25.3983 117.806 25.5061 117.42 25.5061 116.911C25.5061 116.395 25.405 116.012 25.2029 115.764C25.0008 115.51 24.6606 115.382 24.1822 115.382H23.6466V118.45Z" fill="#E0B443"/>
<path d="M27.9611 121.819V121.718L28.1935 121.628C28.308 121.581 28.3855 121.521 28.4259 121.447C28.4731 121.366 28.4967 121.259 28.4967 121.125V115.875C28.4967 115.741 28.4765 115.637 28.4361 115.563C28.4024 115.483 28.3215 115.419 28.1935 115.372L27.9611 115.282V115.181H32.8017L32.8624 116.73H32.7613L32.3268 115.784C32.2661 115.664 32.2021 115.567 32.1348 115.493C32.0674 115.419 31.9663 115.382 31.8316 115.382H30.0125V118.289H31.0939C31.2286 118.289 31.3297 118.255 31.397 118.188C31.4711 118.114 31.5351 118.017 31.589 117.897L31.7912 117.494H31.8922V119.305H31.7912L31.589 118.882C31.5284 118.761 31.4644 118.668 31.397 118.601C31.3297 118.527 31.2286 118.49 31.0939 118.49H30.0125V121.618H32.0539C32.1886 121.618 32.2931 121.584 32.3672 121.517C32.4413 121.443 32.5019 121.343 32.5491 121.216L32.9634 120.27H33.0645L33.0038 121.819H27.9611Z" fill="#E0B443"/>
<path d="M36.9344 122C36.2809 122 35.688 121.869 35.1558 121.608C34.6303 121.34 34.2126 120.944 33.9027 120.421C33.5928 119.898 33.4378 119.258 33.4378 118.5C33.4378 117.923 33.5322 117.417 33.7208 116.981C33.9094 116.545 34.1655 116.18 34.4888 115.885C34.819 115.59 35.1962 115.369 35.6207 115.221C36.0519 115.074 36.5066 115 36.9849 115C37.369 115 37.7227 115.044 38.0461 115.131C38.3694 115.218 38.6726 115.339 38.9556 115.493L38.996 116.73H38.8949L38.3896 115.925C38.3223 115.798 38.2482 115.684 38.1673 115.583C38.0865 115.476 37.9854 115.396 37.8641 115.342C37.7631 115.295 37.662 115.261 37.561 115.241C37.4667 115.215 37.3454 115.201 37.1972 115.201C36.8064 115.201 36.4493 115.305 36.126 115.513C35.8093 115.721 35.5533 116.066 35.3579 116.549C35.1693 117.025 35.075 117.679 35.075 118.51C35.075 119.335 35.1659 119.989 35.3478 120.471C35.5297 120.947 35.7756 121.289 36.0855 121.497C36.4022 121.698 36.7559 121.799 37.1466 121.799C37.3622 121.799 37.534 121.785 37.662 121.759C37.79 121.725 37.918 121.678 38.0461 121.618C38.1741 121.564 38.2717 121.487 38.3391 121.386C38.4065 121.279 38.4671 121.165 38.521 121.045L38.9657 120.059H39.0667L39.0364 121.497C38.7535 121.645 38.4368 121.765 38.0865 121.859C37.7361 121.953 37.3521 122 36.9344 122Z" fill="#E0B443"/>
<path d="M39.5471 121.819V121.718L39.7493 121.638C39.884 121.591 39.9716 121.527 40.012 121.447C40.0592 121.366 40.0828 121.259 40.0828 121.125V115.875C40.0828 115.741 40.0625 115.634 40.0221 115.553C39.9817 115.473 39.8907 115.409 39.7493 115.362L39.5471 115.282V115.181H42.1443V115.282L41.9422 115.362C41.8075 115.409 41.7165 115.473 41.6694 115.553C41.6289 115.634 41.6087 115.741 41.6087 115.875V121.125C41.6087 121.259 41.6289 121.366 41.6694 121.447C41.7165 121.521 41.8075 121.584 41.9422 121.638L42.1443 121.718V121.819H39.5471Z" fill="#E0B443"/>
<path d="M45.5821 122C45.1711 122 44.7736 121.926 44.3896 121.779C44.0123 121.631 43.6721 121.413 43.3689 121.125C43.0725 120.83 42.8367 120.465 42.6615 120.029C42.4864 119.593 42.3988 119.083 42.3988 118.5C42.3988 117.923 42.4864 117.417 42.6615 116.981C42.8367 116.545 43.0759 116.183 43.379 115.895C43.6822 115.6 44.0224 115.379 44.3997 115.231C44.7837 115.077 45.1779 115 45.5821 115C45.9931 115 46.3872 115.074 46.7645 115.221C47.1485 115.362 47.4887 115.58 47.7851 115.875C48.0883 116.163 48.3275 116.529 48.5026 116.971C48.6778 117.407 48.7654 117.917 48.7654 118.5C48.7654 119.07 48.6778 119.576 48.5026 120.019C48.3275 120.455 48.0883 120.82 47.7851 121.115C47.4887 121.403 47.1485 121.625 46.7645 121.779C46.3872 121.926 45.9931 122 45.5821 122ZM45.5821 121.789C45.9526 121.789 46.2524 121.692 46.4815 121.497C46.7106 121.296 46.8756 120.957 46.9767 120.481C47.0845 119.999 47.1384 119.338 47.1384 118.5C47.1384 117.655 47.0845 116.995 46.9767 116.519C46.8756 116.036 46.7106 115.697 46.4815 115.503C46.2524 115.302 45.9526 115.201 45.5821 115.201C45.2183 115.201 44.9218 115.302 44.6928 115.503C44.4637 115.697 44.2953 116.036 44.1875 116.519C44.0864 116.995 44.0359 117.655 44.0359 118.5C44.0359 119.338 44.0864 119.999 44.1875 120.481C44.2953 120.957 44.4637 121.296 44.6928 121.497C44.9218 121.692 45.2183 121.789 45.5821 121.789Z" fill="#E0B443"/>
<path d="M52.1952 122C51.6832 122 51.2284 121.909 50.8309 121.728C50.4402 121.547 50.1336 121.262 49.9113 120.874C49.6957 120.478 49.5879 119.958 49.5879 119.315V115.845C49.5879 115.59 49.4565 115.422 49.1938 115.342L48.9715 115.282V115.181H51.7707V115.282L51.4777 115.362C51.2284 115.422 51.1038 115.59 51.1038 115.865V119.576C51.1038 120.2 51.2351 120.662 51.4979 120.964C51.7606 121.259 52.1379 121.407 52.6297 121.407C53.1418 121.407 53.546 121.249 53.8424 120.934C54.1456 120.619 54.2972 120.173 54.2972 119.596V115.905C54.2972 115.771 54.2736 115.654 54.2264 115.553C54.186 115.446 54.0984 115.375 53.9637 115.342L53.711 115.282V115.181H55.1258V115.282L54.853 115.352C54.725 115.379 54.6408 115.443 54.6003 115.543C54.5599 115.644 54.5397 115.761 54.5397 115.895V119.576C54.5397 120.066 54.442 120.495 54.2466 120.864C54.0513 121.226 53.7784 121.507 53.4281 121.708C53.0778 121.903 52.6668 122 52.1952 122Z" fill="#E0B443"/>
<path d="M57.5298 122C57.1593 122 56.782 121.953 56.398 121.859C56.014 121.772 55.694 121.655 55.4379 121.507L55.4885 120.139H55.5895L55.9028 120.793C55.9971 120.981 56.0982 121.148 56.206 121.296C56.3138 121.437 56.462 121.547 56.6506 121.628C56.7854 121.695 56.9134 121.742 57.0346 121.769C57.1627 121.789 57.3041 121.799 57.4591 121.799C57.8701 121.799 58.1934 121.688 58.4292 121.467C58.6718 121.246 58.793 120.961 58.793 120.612C58.793 120.284 58.7122 120.029 58.5505 119.848C58.3888 119.66 58.1294 119.479 57.7724 119.305L57.358 119.124C56.7786 118.869 56.3239 118.577 55.9938 118.249C55.6704 117.913 55.5087 117.471 55.5087 116.921C55.5087 116.525 55.6097 116.183 55.8119 115.895C56.0207 115.607 56.307 115.386 56.6708 115.231C57.0414 115.077 57.4726 115 57.9644 115C58.3214 115 58.6583 115.047 58.9749 115.141C59.2983 115.235 59.5779 115.362 59.8137 115.523L59.7531 116.73H59.652L59.2377 115.976C59.1232 115.741 59.0086 115.577 58.8941 115.483C58.7796 115.382 58.6482 115.312 58.5 115.272C58.4124 115.245 58.3315 115.228 58.2574 115.221C58.1833 115.208 58.089 115.201 57.9745 115.201C57.6309 115.201 57.3412 115.302 57.1054 115.503C56.8696 115.697 56.7517 115.962 56.7517 116.297C56.7517 116.639 56.8426 116.914 57.0245 117.122C57.2064 117.323 57.4726 117.504 57.8229 117.665L58.2878 117.866C58.9345 118.148 59.3994 118.45 59.6824 118.772C59.9653 119.087 60.1068 119.496 60.1068 119.999C60.1068 120.589 59.8811 121.071 59.4297 121.447C58.9851 121.816 58.3518 122 57.5298 122Z" fill="#E0B443"/>
<path d="M62.8076 121.819V121.718L63.0097 121.648C63.2388 121.574 63.3533 121.383 63.3533 121.075V115.925C63.3533 115.791 63.3365 115.684 63.3028 115.603C63.2759 115.523 63.1984 115.456 63.0704 115.402L62.8076 115.282V115.181H64.758L66.6276 120.049L68.386 115.181H70.3768V115.282L70.2151 115.342C70.0871 115.389 69.9995 115.456 69.9524 115.543C69.9052 115.624 69.8816 115.731 69.8816 115.865V121.125C69.8816 121.259 69.8985 121.363 69.9322 121.437C69.9659 121.511 70.0467 121.574 70.1747 121.628L70.3768 121.718V121.819H67.8605V121.718L68.0727 121.628C68.2007 121.574 68.2816 121.511 68.3152 121.437C68.3489 121.363 68.3658 121.259 68.3658 121.125V118.862L68.386 115.986L66.2739 121.819H65.7686L63.5656 116.056L63.5959 118.56V121.095C63.5959 121.242 63.6161 121.363 63.6565 121.457C63.7037 121.544 63.7912 121.608 63.9193 121.648L64.1416 121.718V121.819H62.8076Z" fill="#E0B443"/>
<path d="M70.8216 121.819V121.718L71.0541 121.628C71.1686 121.581 71.2461 121.521 71.2865 121.447C71.3337 121.366 71.3572 121.259 71.3572 121.125V115.875C71.3572 115.741 71.337 115.637 71.2966 115.563C71.2629 115.483 71.1821 115.419 71.0541 115.372L70.8216 115.282V115.181H75.6623L75.7229 116.73H75.6218L75.1873 115.784C75.1267 115.664 75.0627 115.567 74.9953 115.493C74.9279 115.419 74.8269 115.382 74.6921 115.382H72.8731V118.289H73.9544C74.0891 118.289 74.1902 118.255 74.2576 118.188C74.3317 118.114 74.3957 118.017 74.4496 117.897L74.6517 117.494H74.7528V119.305H74.6517L74.4496 118.882C74.389 118.761 74.325 118.668 74.2576 118.601C74.1902 118.527 74.0891 118.49 73.9544 118.49H72.8731V121.618H74.9145C75.0492 121.618 75.1536 121.584 75.2277 121.517C75.3018 121.443 75.3625 121.343 75.4096 121.216L75.824 120.27H75.925L75.8644 121.819H70.8216Z" fill="#E0B443"/>
<path d="M77.7813 121.819V121.718L78.1957 121.618C78.4719 121.557 78.61 121.39 78.61 121.115V115.382H77.751C77.5017 115.382 77.3232 115.449 77.2154 115.583C77.1076 115.711 76.9931 115.888 76.8718 116.116L76.508 116.82H76.4069L76.4575 115.181H82.2885L82.3289 116.82H82.2278L81.864 116.116C81.7495 115.888 81.6383 115.711 81.5305 115.583C81.4228 115.449 81.2442 115.382 80.9949 115.382H80.136V121.115C80.136 121.39 80.2741 121.557 80.5503 121.618L80.9646 121.718V121.819H77.7813Z" fill="#E0B443"/>
<path d="M81.8517 121.819V121.718L82.1044 121.628C82.2391 121.574 82.3435 121.511 82.4176 121.437C82.4917 121.356 82.5524 121.246 82.5995 121.105L84.6813 115.161H85.5403L87.5918 121.145C87.6457 121.293 87.7063 121.407 87.7737 121.487C87.841 121.561 87.9455 121.625 88.087 121.678L88.2082 121.718V121.819H85.6414V121.718L85.793 121.668C85.9344 121.614 86.0186 121.541 86.0456 121.447C86.0793 121.346 86.0759 121.229 86.0355 121.095L85.5605 119.647H83.317L82.832 121.065C82.7848 121.212 82.768 121.33 82.7814 121.417C82.8017 121.504 82.8825 121.574 83.024 121.628L83.2463 121.718V121.819H81.8517ZM83.3878 119.445H85.4999L84.4792 116.318L83.3878 119.445Z" fill="#E0B443"/>
<path d="M88.5264 121.819V121.718L88.7386 121.638C88.8801 121.584 88.9677 121.521 89.0014 121.447C89.0418 121.366 89.062 121.259 89.062 121.125V115.875C89.062 115.741 89.0418 115.634 89.0014 115.553C88.9609 115.473 88.8734 115.409 88.7386 115.362L88.5264 115.282V115.181H91.1034V115.282L90.9215 115.362C90.7935 115.409 90.7059 115.476 90.6587 115.563C90.6115 115.644 90.588 115.751 90.588 115.885V121.618H92.1442C92.3935 121.618 92.5754 121.557 92.69 121.437C92.8112 121.316 92.9258 121.142 93.0336 120.914L93.4277 120.069H93.5287L93.4378 121.819H88.5264Z" fill="#E0B443"/>
<path d="M96.0678 122C95.6973 122 95.32 121.953 94.936 121.859C94.5519 121.772 94.2319 121.655 93.9759 121.507L94.0264 120.139H94.1275L94.4408 120.793C94.5351 120.981 94.6362 121.148 94.744 121.296C94.8517 121.437 95 121.547 95.1886 121.628C95.3233 121.695 95.4513 121.742 95.5726 121.769C95.7006 121.789 95.8421 121.799 95.9971 121.799C96.408 121.799 96.7314 121.688 96.9672 121.467C97.2098 121.246 97.331 120.961 97.331 120.612C97.331 120.284 97.2502 120.029 97.0885 119.848C96.9268 119.66 96.6674 119.479 96.3103 119.305L95.896 119.124C95.3166 118.869 94.8618 118.577 94.5317 118.249C94.2083 117.913 94.0467 117.471 94.0467 116.921C94.0467 116.525 94.1477 116.183 94.3498 115.895C94.5587 115.607 94.845 115.386 95.2088 115.231C95.5794 115.077 96.0105 115 96.5023 115C96.8594 115 97.1963 115.047 97.5129 115.141C97.8363 115.235 98.1159 115.362 98.3517 115.523L98.2911 116.73H98.19L97.7757 115.976C97.6611 115.741 97.5466 115.577 97.4321 115.483C97.3175 115.382 97.1862 115.312 97.038 115.272C96.9504 115.245 96.8695 115.228 96.7954 115.221C96.7213 115.208 96.627 115.201 96.5125 115.201C96.1689 115.201 95.8792 115.302 95.6434 115.503C95.4076 115.697 95.2897 115.962 95.2897 116.297C95.2897 116.639 95.3806 116.914 95.5625 117.122C95.7444 117.323 96.0105 117.504 96.3609 117.665L96.8257 117.866C97.4725 118.148 97.9374 118.45 98.2203 118.772C98.5033 119.087 98.6448 119.496 98.6448 119.999C98.6448 120.589 98.4191 121.071 97.9677 121.447C97.523 121.816 96.8897 122 96.0678 122Z" fill="#E0B443"/>
<path d="M102.631 121.819V121.718L103.045 121.618C103.322 121.557 103.46 121.39 103.46 121.115V115.382H102.601C102.352 115.382 102.173 115.449 102.065 115.583C101.957 115.711 101.843 115.888 101.722 116.116L101.358 116.82H101.257L101.307 115.181H107.138L107.179 116.82H107.078L106.714 116.116C106.599 115.888 106.488 115.711 106.38 115.583C106.273 115.449 106.094 115.382 105.845 115.382H104.986V121.115C104.986 121.39 105.124 121.557 105.4 121.618L105.814 121.718V121.819H102.631Z" fill="#E0B443"/>
<path d="M107.613 121.819V121.718L107.825 121.648C107.96 121.601 108.047 121.541 108.088 121.467C108.128 121.386 108.148 121.276 108.148 121.135V115.875C108.148 115.741 108.128 115.637 108.088 115.563C108.054 115.483 107.973 115.419 107.845 115.372L107.613 115.282V115.181H110.503C111.298 115.181 111.908 115.332 112.332 115.634C112.757 115.929 112.969 116.341 112.969 116.871C112.969 117.166 112.858 117.461 112.635 117.756C112.413 118.051 112.063 118.279 111.584 118.44L112.989 121.216C113.05 121.33 113.117 121.423 113.191 121.497C113.272 121.564 113.376 121.625 113.504 121.678L113.636 121.728V121.819H111.827L110.331 118.651H109.644V121.135C109.644 121.262 109.664 121.366 109.705 121.447C109.745 121.527 109.829 121.588 109.957 121.628L110.2 121.718V121.819H107.613ZM109.644 118.45H110.129C110.614 118.45 110.965 118.322 111.18 118.068C111.396 117.806 111.504 117.42 111.504 116.911C111.504 116.395 111.402 116.012 111.2 115.764C110.998 115.51 110.658 115.382 110.18 115.382H109.644V118.45Z" fill="#E0B443"/>
<path d="M113.916 121.819V121.718L114.168 121.628C114.303 121.574 114.408 121.511 114.482 121.437C114.556 121.356 114.616 121.246 114.664 121.105L116.745 115.161H117.604L119.656 121.145C119.71 121.293 119.77 121.407 119.838 121.487C119.905 121.561 120.009 121.625 120.151 121.678L120.272 121.718V121.819H117.705V121.718L117.857 121.668C117.998 121.614 118.083 121.541 118.11 121.447C118.143 121.346 118.14 121.229 118.099 121.095L117.625 119.647H115.381L114.896 121.065C114.849 121.212 114.832 121.33 114.845 121.417C114.866 121.504 114.946 121.574 115.088 121.628L115.31 121.718V121.819H113.916ZM115.452 119.445H117.564L116.543 116.318L115.452 119.445Z" fill="#E0B443"/>
<path d="M120.59 121.819V121.718L120.803 121.638C121.018 121.551 121.126 121.38 121.126 121.125V115.875C121.126 115.607 121.018 115.436 120.803 115.362L120.59 115.282V115.181H123.258C123.972 115.181 124.586 115.315 125.098 115.583C125.616 115.845 126.014 116.224 126.29 116.72C126.573 117.209 126.714 117.799 126.714 118.49C126.714 119.194 126.563 119.794 126.26 120.29C125.957 120.786 125.532 121.165 124.986 121.427C124.447 121.688 123.811 121.819 123.076 121.819H120.59ZM122.642 121.618H123.076C123.561 121.618 123.952 121.524 124.249 121.336C124.545 121.142 124.761 120.82 124.895 120.371C125.037 119.915 125.108 119.291 125.108 118.5C125.108 117.709 125.037 117.089 124.895 116.639C124.761 116.183 124.548 115.862 124.259 115.674C123.969 115.479 123.588 115.382 123.117 115.382H122.642V121.618Z" fill="#E0B443"/>
<path d="M126.897 121.819V121.718L127.129 121.628C127.244 121.581 127.321 121.521 127.361 121.447C127.409 121.366 127.432 121.259 127.432 121.125V115.875C127.432 115.741 127.412 115.637 127.372 115.563C127.338 115.483 127.257 115.419 127.129 115.372L126.897 115.282V115.181H131.737L131.798 116.73H131.697L131.262 115.784C131.202 115.664 131.138 115.567 131.07 115.493C131.003 115.419 130.902 115.382 130.767 115.382H128.948V118.289H130.029C130.164 118.289 130.265 118.255 130.333 118.188C130.407 118.114 130.471 118.017 130.525 117.897L130.727 117.494H130.828V119.305H130.727L130.525 118.882C130.464 118.761 130.4 118.668 130.333 118.601C130.265 118.527 130.164 118.49 130.029 118.49H128.948V121.618H130.989C131.124 121.618 131.229 121.584 131.303 121.517C131.377 121.443 131.437 121.343 131.485 121.216L131.899 120.27H132L131.939 121.819H126.897Z" fill="#E0B443"/>
<path d="M40.9902 20C39.9291 20 38.8488 19.8659 37.7491 19.5977C36.6495 19.3487 35.7331 19.0134 35 18.592L35.1447 14.6839H35.4341L36.3312 16.5517C36.6012 17.0881 36.8906 17.5671 37.1993 17.9885C37.508 18.3908 37.9324 18.7069 38.4726 18.9368C38.8584 19.1284 39.225 19.2625 39.5722 19.3391C39.9388 19.3966 40.3439 19.4253 40.7876 19.4253C41.9645 19.4253 42.8905 19.1092 43.5657 18.477C44.2602 17.8448 44.6075 17.0307 44.6075 16.0345C44.6075 15.0958 44.376 14.3678 43.913 13.8506C43.45 13.3142 42.7072 12.7969 41.6847 12.2989L40.4983 11.7816C38.8391 11.0536 37.5369 10.2203 36.5916 9.28161C35.6656 8.32375 35.2026 7.05939 35.2026 5.48851C35.2026 4.35824 35.4919 3.38123 36.0707 2.55747C36.6688 1.73372 37.4887 1.10153 38.5305 0.66092C39.5915 0.220307 40.8262 0 42.2346 0C43.257 0 44.2216 0.1341 45.1284 0.402299C46.0544 0.670498 46.855 1.03448 47.5302 1.49425L47.3566 4.94253H47.0672L45.8808 2.78736C45.5528 2.11686 45.2248 1.64751 44.8969 1.37931C44.5689 1.09195 44.1927 0.890805 43.7683 0.775862C43.5175 0.699234 43.286 0.651341 43.0738 0.632184C42.8615 0.59387 42.5915 0.574712 42.2635 0.574712C41.2796 0.574712 40.45 0.862069 39.7748 1.43678C39.0996 1.99234 38.762 2.74904 38.762 3.7069C38.762 4.68391 39.0224 5.46935 39.5433 6.06322C40.0642 6.63793 40.8262 7.15517 41.8294 7.61494L43.1606 8.18966C45.0126 8.99425 46.3438 9.85632 47.154 10.7759C47.9643 11.6762 48.3695 12.8448 48.3695 14.2816C48.3695 15.9674 47.7232 17.3467 46.4306 18.4195C45.1573 19.4732 43.3439 20 40.9902 20Z" fill="#E0B443"/>
<path d="M55.3456 19.569L50.2235 2.47127C50.0885 2.03065 49.9438 1.71456 49.7895 1.52299C49.6351 1.31226 49.365 1.12069 48.9792 0.948276L48.6319 0.804598V0.517242H56.3006V0.804598L55.6929 1.03448C55.2491 1.2069 54.9501 1.41763 54.7958 1.66667C54.6414 1.91571 54.6318 2.26054 54.7668 2.70115L57.9211 14.6552L61.3358 4.62644L60.6702 2.58621C60.5352 2.18391 60.4098 1.87739 60.294 1.66667C60.1783 1.45594 59.9854 1.28352 59.7153 1.14943L59.0786 0.804598V0.517242H66.3421V0.804598L65.445 1.14943C65.0592 1.28352 64.8373 1.48467 64.7795 1.75287C64.7409 2.00192 64.7891 2.32759 64.9241 2.72989L68.5993 14.9425L72.0719 2.95977C72.2069 2.5 72.2552 2.0977 72.2166 1.75287C72.178 1.40805 71.9368 1.159 71.4931 1.00575L70.8854 0.804598V0.517242H74.9078V0.804598L74.1554 1.09195C73.7696 1.22605 73.4995 1.43678 73.3452 1.72414C73.1908 2.01149 73.0558 2.3659 72.94 2.78736L68.1363 19.569H66.1395L61.7988 6.06322L57.3423 19.569H55.3456Z" fill="#E0B443"/>
<path d="M75.802 19.4828V19.1954L76.3807 18.9655C76.7666 18.8314 77.0174 18.6494 77.1331 18.4195C77.2682 18.1897 77.3357 17.8831 77.3357 17.5V2.5C77.3357 2.11686 77.2778 1.81035 77.1621 1.58046C77.0463 1.35057 76.7859 1.16858 76.3807 1.03448L75.802 0.804598V0.517242H83.2391V0.804598L82.6603 1.03448C82.2745 1.16858 82.014 1.35057 81.879 1.58046C81.7632 1.81035 81.7054 2.11686 81.7054 2.5V17.5C81.7054 17.8831 81.7632 18.1897 81.879 18.4195C82.014 18.6303 82.2745 18.8123 82.6603 18.9655L83.2391 19.1954V19.4828H75.802Z" fill="#E0B443"/>
<path d="M90.7278 20C89.6667 20 88.5863 19.8659 87.4867 19.5977C86.387 19.3487 85.4706 19.0134 84.7375 18.592L84.8822 14.6839H85.1716L86.0687 16.5517C86.3388 17.0881 86.6282 17.5671 86.9369 17.9885C87.2455 18.3908 87.67 18.7069 88.2101 18.9368C88.596 19.1284 88.9625 19.2625 89.3098 19.3391C89.6763 19.3966 90.0815 19.4253 90.5252 19.4253C91.702 19.4253 92.628 19.1092 93.3033 18.477C93.9978 17.8448 94.345 17.0307 94.345 16.0345C94.345 15.0958 94.1135 14.3678 93.6505 13.8506C93.1875 13.3142 92.4448 12.7969 91.4223 12.2989L90.2358 11.7816C88.5767 11.0536 87.2745 10.2203 86.3291 9.28161C85.4031 8.32375 84.9401 7.05939 84.9401 5.48851C84.9401 4.35824 85.2295 3.38123 85.8083 2.55747C86.4063 1.73372 87.2262 1.10153 88.268 0.66092C89.3291 0.220307 90.5638 0 91.9721 0C92.9946 0 93.9592 0.1341 94.8659 0.402299C95.7919 0.670498 96.5926 1.03448 97.2678 1.49425L97.0942 4.94253H96.8048L95.6183 2.78736C95.2903 2.11686 94.9624 1.64751 94.6344 1.37931C94.3064 1.09195 93.9302 0.890805 93.5058 0.775862C93.255 0.699234 93.0235 0.651341 92.8113 0.632184C92.5991 0.59387 92.329 0.574712 92.001 0.574712C91.0171 0.574712 90.1876 0.862069 89.5123 1.43678C88.8371 1.99234 88.4995 2.74904 88.4995 3.7069C88.4995 4.68391 88.76 5.46935 89.2808 6.06322C89.8017 6.63793 90.5638 7.15517 91.567 7.61494L92.8981 8.18966C94.7502 8.99425 96.0813 9.85632 96.8916 10.7759C97.7019 11.6762 98.107 12.8448 98.107 14.2816C98.107 15.9674 97.4607 17.3467 96.1681 18.4195C94.8949 19.4732 93.0814 20 90.7278 20Z" fill="#E0B443"/>
<path d="M105.621 20C104.56 20 103.479 19.8659 102.38 19.5977C101.28 19.3487 100.364 19.0134 99.6305 18.592L99.7752 14.6839H100.065L100.962 16.5517C101.232 17.0881 101.521 17.5671 101.83 17.9885C102.139 18.3908 102.563 18.7069 103.103 18.9368C103.489 19.1284 103.856 19.2625 104.203 19.3391C104.569 19.3966 104.974 19.4253 105.418 19.4253C106.595 19.4253 107.521 19.1092 108.196 18.477C108.891 17.8448 109.238 17.0307 109.238 16.0345C109.238 15.0958 109.007 14.3678 108.544 13.8506C108.081 13.3142 107.338 12.7969 106.315 12.2989L105.129 11.7816C103.47 11.0536 102.167 10.2203 101.222 9.28161C100.296 8.32375 99.8331 7.05939 99.8331 5.48851C99.8331 4.35824 100.122 3.38123 100.701 2.55747C101.299 1.73372 102.119 1.10153 103.161 0.66092C104.222 0.220307 105.457 0 106.865 0C107.888 0 108.852 0.1341 109.759 0.402299C110.685 0.670498 111.486 1.03448 112.161 1.49425L111.987 4.94253H111.698L110.511 2.78736C110.183 2.11686 109.855 1.64751 109.527 1.37931C109.199 1.09195 108.823 0.890805 108.399 0.775862C108.148 0.699234 107.917 0.651341 107.704 0.632184C107.492 0.59387 107.222 0.574712 106.894 0.574712C105.91 0.574712 105.081 0.862069 104.405 1.43678C103.73 1.99234 103.393 2.74904 103.393 3.7069C103.393 4.68391 103.653 5.46935 104.174 6.06322C104.695 6.63793 105.457 7.15517 106.46 7.61494L107.791 8.18966C109.643 8.99425 110.974 9.85632 111.785 10.7759C112.595 11.6762 113 12.8448 113 14.2816C113 15.9674 112.354 17.3467 111.061 18.4195C109.788 19.4732 107.974 20 105.621 20Z" fill="#E0B443"/>
</g>
<defs>
<clipPath id="clip0_3927_2">
<rect width="148" height="122" fill="white"/>
</clipPath>
</defs>
</svg>
