<svg width="183" height="90" viewBox="0 0 183 90" fill="none" xmlns="http://www.w3.org/2000/svg">
<path d="M29.0233 44.5576C31.3292 46.1724 31.7093 47.9638 31.76 48.4432C32.1147 48.6702 32.4695 48.8469 32.7736 49.0235C32.2921 48.1909 31.8107 47.3583 31.4052 46.5004C30.6957 45.037 30.0875 43.5484 29.5554 42.0093C29.5047 41.8327 29.454 41.6813 29.378 41.5047C28.9726 40.2432 28.3898 39.0321 27.6295 37.9724C27.5789 37.8967 27.5282 37.821 27.4775 37.7453C21.0411 34.1626 24.0059 26.8709 24.0059 26.8709C23.9045 28.4856 25.4503 29.722 27.0214 32.6487C28.3644 35.1466 27.9083 36.8875 27.7562 37.3669C28.0857 37.8715 28.3897 38.3256 28.6685 38.7041C28.5671 38.2247 28.4658 37.7706 28.3644 37.2912C28.0603 35.7016 27.8829 34.0869 27.8069 32.4721L27.7816 31.8666C27.7816 31.6647 27.7562 31.4629 27.7562 31.261V30.05C27.7562 29.6463 27.7816 29.2426 27.8069 28.8389C27.8069 28.637 27.8323 28.4352 27.8323 28.2333L27.8829 27.6278C27.9083 27.2241 27.9083 26.8204 27.8069 26.442L27.3508 24.146C22.6629 18.4186 28.0857 12.7417 28.0857 12.7417C27.4015 14.205 28.3898 15.9207 28.7952 19.226C29.15 22.0518 28.0857 23.5152 27.7562 23.8936C27.8829 24.5749 28.035 25.1552 28.1617 25.6346L28.2124 25.2561C28.263 24.8524 28.3644 24.474 28.4151 24.0703L28.5165 23.4647C28.5418 23.2629 28.5925 23.061 28.6432 22.8844C28.8459 22.1023 29.0233 21.3201 29.2513 20.5632L29.4287 19.9829L29.5047 19.7053L29.6061 19.4278L30.0115 18.2924C30.2649 17.6364 30.5437 16.9804 30.8224 16.3244C31.3545 15.1386 31.684 13.877 31.7346 12.6155C31.76 12.3127 31.7853 12.0352 31.8107 11.7577C29.2767 4.76874 36.2705 1.23643 36.2705 1.23643C35.1556 2.37182 35.5103 4.33981 34.7755 7.59458C34.1673 10.37 32.6722 11.3792 32.2415 11.6315C32.1148 12.5903 32.0387 13.3724 31.988 13.9275C31.988 13.9023 32.0134 13.877 32.0134 13.877L32.2921 13.3472C32.3935 13.1706 32.4949 12.994 32.5962 12.8173L33.2044 11.7829L33.8632 10.7737C33.9646 10.597 34.0913 10.4457 34.1926 10.269L34.5474 9.78966C34.9022 9.28504 35.3076 8.78043 35.7131 8.30104C36.2705 7.59458 37.0307 6.56012 37.7149 5.8032C38.019 5.44997 38.2977 5.07151 38.5005 4.64258C41.4399 -1.51372 48.5352 0.227201 48.5352 0.227201C46.9387 0.328124 45.9251 2.01859 43.2391 3.96135C41.1105 5.50043 39.4127 5.39951 38.8045 5.29858C38.7285 5.32381 38.6525 5.34904 38.5765 5.37427L37.7656 6.25735C36.7013 7.4432 35.6877 8.65427 34.8008 9.96627L34.4714 10.4457C34.37 10.6223 34.2687 10.7737 34.142 10.9503L33.5085 11.9595L33.2297 12.4389C33.9392 11.8333 34.6488 11.3035 35.3583 10.8493C39.1846 4.4912 46.2799 7.79643 46.2799 7.79643C44.6835 7.61981 43.3911 9.13366 40.4263 10.597C37.8923 11.8333 36.1692 11.3035 35.7131 11.1269C34.6994 11.7324 33.8632 12.3127 33.3564 12.666C33.0523 12.893 32.7989 13.1706 32.6216 13.5238L32.3428 14.0537C31.6079 15.4666 31.0251 16.93 30.493 18.4186L30.1129 19.554L30.0115 19.8315L29.9355 20.109L29.8088 20.6893C29.5807 21.4463 29.4287 22.2284 29.2513 23.0106C29.2006 23.2124 29.1753 23.389 29.15 23.5909C29.6314 22.8592 30.1382 22.178 30.645 21.5472C32.4442 14.3564 40.1982 15.4413 40.1982 15.4413C38.6272 15.7441 37.8416 17.5607 35.409 19.8315C33.3564 21.7743 31.5573 21.7743 31.0505 21.7238C30.493 22.3293 30.0369 22.8844 29.7074 23.2881C29.2513 23.8684 28.9219 24.5749 28.8712 25.3318L28.7445 26.5176L28.6938 27.1232L28.5925 28.2838C28.5671 28.4856 28.5925 28.6875 28.5671 28.8641C28.5671 29.2678 28.5418 29.6463 28.5418 30.05L28.5671 31.2358C28.5671 31.4376 28.5925 31.6395 28.5925 31.8161L28.6432 32.3964C28.6938 33.2543 28.7952 34.0869 28.9219 34.9447C29.0993 34.2383 29.2767 33.557 29.5047 32.9263C28.6432 25.5336 36.2705 23.7423 36.2705 23.7423C34.9022 24.6001 34.8008 26.5681 33.3564 29.5706C32.1148 32.1189 30.4423 32.7749 29.9608 32.901C29.7835 33.3552 29.6314 33.7841 29.4794 34.1626C29.15 35.0961 29.0993 36.0801 29.302 37.0389C29.302 37.0389 29.302 37.0389 29.302 37.0641C29.6314 38.6032 30.0369 40.117 30.5943 41.6056C31.1265 43.069 31.76 44.5072 32.4695 45.9201C32.6722 46.3238 32.9003 46.7275 33.1284 47.1059C33.0017 46.2733 32.9256 45.4659 32.9003 44.709C29.4287 38.149 35.8651 33.6832 35.8651 33.6832C34.9022 34.97 35.5357 36.8623 35.2569 40.1927C35.0289 43.0186 33.7112 44.2549 33.3057 44.5576C33.3057 44.6586 33.3057 44.7847 33.3057 44.8856C33.3057 46.677 33.8632 48.4432 34.9022 49.9318C34.9022 49.9318 34.9022 49.957 34.9275 49.957C35.8144 51.2438 36.828 52.4296 37.8923 53.565C38.171 53.8426 38.4244 54.1453 38.7032 54.3976L39.5394 55.205C39.5647 55.205 39.5394 55.205 39.5647 55.1798C39.3113 54.7256 39.0833 54.2715 38.8806 53.8173C33.1537 49.1244 37.3602 42.4887 37.3602 42.4887C36.9801 44.053 38.2724 45.5416 39.3113 48.7207C40.1983 51.4204 39.438 53.0604 39.1846 53.4893C39.362 53.893 39.5141 54.2715 39.6661 54.5995C40.0462 55.4069 40.5784 56.1385 41.2879 56.6936C42.5042 57.6776 43.7459 58.5859 45.0889 59.3681C45.8744 59.8222 46.66 60.2512 47.4709 60.6549C47.1414 60.3016 46.812 59.9484 46.5333 59.5952C41.0852 57.0973 43.1124 50.9662 43.1124 50.9662C43.1124 52.2782 44.4554 53.2118 45.8998 55.5078C47.1414 57.4758 46.8627 58.9392 46.7613 59.3176C46.9387 59.5447 47.1161 59.7718 47.2681 59.9736C47.8003 60.6296 48.4591 61.1595 49.2447 61.4875C50.6637 62.093 52.1335 62.5976 53.6032 63.0013H53.6285C54.034 63.1275 54.338 63.4807 54.338 63.9096C54.3634 64.6413 53.7045 65.0955 53.071 64.8936C51.5253 64.4142 49.9795 63.8339 48.5098 63.1779C47.0401 62.4967 45.5957 61.7146 44.2273 60.8315C43.3911 60.3016 42.6056 59.7465 41.82 59.141C40.7557 58.3336 39.4887 57.8542 38.171 57.7281C31.2785 60.4026 27.6802 53.3884 27.6802 53.3884C28.8459 54.4986 30.7717 54.1201 34.0153 54.8013C36.7773 55.3816 37.8163 56.8702 38.0443 57.2992C38.7032 57.3749 39.286 57.4506 39.7675 57.4758C39.3367 57.0973 38.9059 56.6936 38.4751 56.2899L37.6136 55.4321C37.3348 55.1545 37.0561 54.8266 36.7773 54.5238C35.713 53.3127 34.6994 52.0259 33.7872 50.6887C33.7619 50.6635 33.7619 50.6382 33.7365 50.613C33.3057 49.957 32.6976 49.4272 31.988 49.0487C31.8613 48.9982 31.76 48.9226 31.6586 48.8721C24.3353 48.6198 23.7778 40.7478 23.7778 40.7478C24.386 42.2364 26.3119 42.6401 29.0233 44.5576Z" fill="#CC950C"/>
<path d="M153.778 44.5576C151.472 46.1724 151.092 47.9638 151.042 48.4432C150.687 48.6702 150.332 48.8469 150.028 49.0235C150.51 48.1909 150.991 47.3583 151.396 46.5004C152.106 45.037 152.714 43.5484 153.246 42.0093C153.297 41.8327 153.348 41.6813 153.424 41.5047C153.829 40.2432 154.412 39.0321 155.172 37.9724C155.223 37.8967 155.273 37.821 155.324 37.7453C161.761 34.1626 158.796 26.8709 158.796 26.8709C158.897 28.4856 157.351 29.722 155.78 32.6487C154.437 35.1466 154.893 36.8875 155.045 37.3669C154.716 37.8715 154.412 38.3256 154.133 38.7041C154.235 38.2247 154.336 37.7706 154.437 37.2912C154.741 35.7016 154.919 34.0869 154.995 32.4721L155.02 31.8666C155.02 31.6647 155.045 31.4629 155.045 31.261V30.05C155.045 29.6463 155.02 29.2426 154.995 28.8389C154.995 28.637 154.969 28.4352 154.969 28.2333L154.919 27.6278C154.893 27.2241 154.893 26.8204 154.995 26.442L155.451 24.146C160.139 18.4186 154.716 12.7417 154.716 12.7417C155.4 14.205 154.412 15.9207 154.006 19.226C153.652 22.0518 154.716 23.5152 155.045 23.8936C154.919 24.5749 154.767 25.1552 154.64 25.6346L154.589 25.2561C154.539 24.8524 154.437 24.474 154.387 24.0703L154.285 23.4647C154.26 23.2629 154.209 23.061 154.159 22.8844C153.956 22.1023 153.778 21.3201 153.55 20.5632L153.373 19.9829L153.297 19.7053L153.196 19.4278L152.79 18.2924C152.537 17.6364 152.258 16.9804 151.979 16.3244C151.447 15.1386 151.118 13.877 151.067 12.6155C151.042 12.3127 151.016 12.0352 150.991 11.7577C153.525 4.76874 146.531 1.23643 146.531 1.23643C147.646 2.37182 147.291 4.33981 148.026 7.59458C148.634 10.37 150.129 11.3792 150.56 11.6315C150.687 12.5903 150.763 13.3724 150.814 13.9275C150.814 13.9023 150.788 13.877 150.788 13.877L150.51 13.3472C150.408 13.1706 150.307 12.994 150.205 12.8173L149.597 11.7829L148.938 10.7737C148.837 10.597 148.71 10.4457 148.609 10.269L148.254 9.78966C147.9 9.28504 147.494 8.78043 147.089 8.30104C146.531 7.59458 145.771 6.56012 145.087 5.8032C144.783 5.44997 144.504 5.07151 144.301 4.64258C141.362 -1.51372 134.267 0.227201 134.267 0.227201C135.863 0.328124 136.877 2.01859 139.563 3.96135C141.691 5.50043 143.389 5.39951 143.997 5.29858C144.073 5.32381 144.149 5.34904 144.225 5.37427L145.036 6.25735C146.1 7.4432 147.114 8.65427 148.001 9.96627L148.33 10.4457C148.432 10.6223 148.533 10.7737 148.66 10.9503L149.293 11.9595L149.572 12.4389C148.862 11.8333 148.153 11.3035 147.443 10.8493C143.617 4.4912 136.522 7.79643 136.522 7.79643C138.118 7.61981 139.411 9.13366 142.375 10.597C144.909 11.8333 146.633 11.3035 147.089 11.1269C148.102 11.7324 148.938 12.3127 149.445 12.666C149.749 12.893 150.003 13.1706 150.18 13.5238L150.459 14.0537C151.194 15.4666 151.777 16.93 152.309 18.4186L152.689 19.554L152.79 19.8315L152.866 20.109L152.993 20.6893C153.221 21.4463 153.373 22.2284 153.55 23.0106C153.601 23.2124 153.626 23.389 153.652 23.5909C153.17 22.8592 152.663 22.178 152.157 21.5472C150.357 14.3564 142.603 15.4413 142.603 15.4413C144.175 15.7441 144.96 17.5607 147.393 19.8315C149.445 21.7743 151.244 21.7743 151.751 21.7238C152.309 22.3293 152.765 22.8844 153.094 23.2881C153.55 23.8684 153.88 24.5749 153.93 25.3318L154.057 26.5176L154.108 27.1232L154.209 28.2838C154.235 28.4856 154.209 28.6875 154.235 28.8641C154.235 29.2678 154.26 29.6463 154.26 30.05L154.235 31.2358C154.235 31.4376 154.209 31.6395 154.209 31.8161L154.159 32.3964C154.108 33.2543 154.006 34.0869 153.88 34.9447C153.702 34.2383 153.525 33.557 153.297 32.9263C154.159 25.5336 146.531 23.7423 146.531 23.7423C147.9 24.6001 148.001 26.5681 149.445 29.5706C150.687 32.1189 152.359 32.7749 152.841 32.901C153.018 33.3552 153.17 33.7841 153.322 34.1626C153.652 35.0961 153.702 36.0801 153.5 37.0389C153.5 37.0389 153.5 37.0389 153.5 37.0641C153.17 38.6032 152.765 40.117 152.207 41.6056C151.675 43.069 151.042 44.5072 150.332 45.9201C150.129 46.3238 149.901 46.7275 149.673 47.1059C149.8 46.2733 149.876 45.4659 149.901 44.709C153.373 38.149 146.937 33.6832 146.937 33.6832C147.9 34.97 147.266 36.8623 147.545 40.1927C147.773 43.0186 149.09 44.2549 149.496 44.5576C149.496 44.6586 149.496 44.7847 149.496 44.8856C149.496 46.677 148.938 48.4432 147.9 49.9318C147.9 49.9318 147.9 49.957 147.874 49.957C146.987 51.2438 145.974 52.4296 144.909 53.565C144.631 53.8426 144.377 54.1453 144.098 54.3976L143.262 55.205C143.237 55.205 143.262 55.205 143.237 55.1798C143.49 54.7256 143.718 54.2715 143.921 53.8173C149.648 49.1244 145.442 42.4887 145.442 42.4887C145.822 44.053 144.529 45.5416 143.49 48.7207C142.603 51.4204 143.364 53.0604 143.617 53.4893C143.44 53.893 143.288 54.2715 143.136 54.5995C142.755 55.4069 142.223 56.1385 141.514 56.6936C140.297 57.6776 139.056 58.5859 137.713 59.3681C136.927 59.8222 136.142 60.2512 135.331 60.6549C135.66 60.3016 135.99 59.9484 136.268 59.5952C141.717 57.0973 139.689 50.9662 139.689 50.9662C139.689 52.2782 138.346 53.2118 136.902 55.5078C135.66 57.4758 135.939 58.9392 136.04 59.3176C135.863 59.5447 135.686 59.7718 135.534 59.9736C135.001 60.6296 134.343 61.1595 133.557 61.4875C132.138 62.093 130.668 62.5976 129.199 63.0013H129.173C128.768 63.1275 128.464 63.4807 128.464 63.9096C128.438 64.6413 129.097 65.0955 129.731 64.8936C131.276 64.4142 132.822 63.8339 134.292 63.1779C135.762 62.4967 137.206 61.7146 138.574 60.8315C139.411 60.3016 140.196 59.7465 140.982 59.141C142.046 58.3336 143.313 57.8542 144.631 57.7281C151.523 60.4026 155.121 53.3884 155.121 53.3884C153.956 54.4986 152.03 54.1201 148.786 54.8013C146.024 55.3816 144.985 56.8702 144.757 57.2992C144.098 57.3749 143.516 57.4506 143.034 57.4758C143.465 57.0973 143.896 56.6936 144.327 56.2899L145.188 55.4321C145.467 55.1545 145.746 54.8266 146.024 54.5238C147.089 53.3127 148.102 52.0259 149.014 50.6887C149.04 50.6635 149.04 50.6382 149.065 50.613C149.496 49.957 150.104 49.4272 150.814 49.0487C150.94 48.9982 151.042 48.9226 151.143 48.8721C158.466 48.6198 159.024 40.7478 159.024 40.7478C158.416 42.2364 156.49 42.6401 153.778 44.5576Z" fill="#CC950C"/>
<path d="M122.505 22.8601C122.567 22.7423 122.567 22.6246 122.567 22.448C122.567 22.3891 122.567 22.3891 122.567 22.3303C122.567 22.2125 122.567 22.1537 122.505 22.0359C122.505 21.9771 122.442 21.9771 122.442 21.9182C122.38 21.8593 122.38 21.8005 122.317 21.7416V21.6827L109.072 7.4958C109.009 7.43693 108.947 7.37807 108.885 7.37807C108.822 7.3192 108.76 7.3192 108.635 7.3192H74.709C74.6466 7.3192 74.5841 7.3192 74.4591 7.37807C74.3967 7.43693 74.3342 7.43693 74.2717 7.4958L61.0264 21.6827V21.7416C60.9639 21.8005 60.9639 21.8593 60.9014 21.9182C60.9014 21.9771 60.8389 21.9771 60.8389 22.0359C60.8389 22.0948 60.7765 22.2125 60.7765 22.3303C60.7765 22.3891 60.7765 22.3891 60.7765 22.448C60.7765 22.5657 60.7765 22.6835 60.8389 22.8012C60.9014 22.9189 60.9014 23.0367 60.9639 23.0955L81.2692 48.4672L91.1408 60.8292C91.1408 60.8292 91.1408 60.8292 91.2032 60.8292C91.2657 60.8881 91.2657 60.8881 91.3282 60.947C91.3907 61.0058 91.4532 61.0058 91.5781 61.0058C91.6406 61.0058 91.7031 61.0058 91.828 60.947C91.8905 60.8881 91.953 60.8881 91.953 60.8292C91.953 60.8292 91.953 60.8292 92.0155 60.8292L122.255 23.0955C122.442 23.0955 122.505 22.9778 122.505 22.8601ZM93.3275 56.8851L95.4517 49.0558L108.76 29.5709L101.075 47.231L93.3275 56.8851ZM82.3314 47.231L74.6466 29.5709L87.9544 49.0558L90.0786 56.8851L82.3314 47.231ZM74.7715 9.37954L81.3942 13.9712L71.5227 20.8586L71.8351 12.5584L74.7715 9.37954ZM111.571 12.5584L111.883 20.8586L101.949 13.9712L108.572 9.37954L111.571 12.5584ZM103.449 21.5061L101.762 16.0315L109.634 21.5061H103.449ZM92.5153 23.4487H101.949L95.1394 45.1706L92.5153 23.4487ZM88.2668 45.1706L81.4567 23.4487H90.8908L88.2668 45.1706ZM100.075 15.4428L101.949 21.5061H93.8898L100.075 15.4428ZM91.7031 21.2707L84.3931 14.1478L91.7031 9.37954L99.013 14.1478L91.7031 21.2707ZM89.5163 21.5061H81.4567L83.331 15.4428L89.5163 21.5061ZM79.8947 21.5061H73.7094L81.5816 16.0315L79.8947 21.5061ZM79.9572 23.4487L86.3924 43.8756L72.4598 23.4487H79.9572ZM91.7031 28.2758L94.1397 48.4083L91.7031 57.4738L89.2664 48.4083L91.7031 28.2758ZM103.449 23.4487H111.009L97.0762 43.8756L103.449 23.4487ZM100.388 12.9116L94.827 9.26181H105.698L100.388 12.9116ZM83.0186 12.9116L77.708 9.26181H88.5792L83.0186 12.9116ZM70.1482 21.5061H63.5255L70.3981 14.1478L70.1482 21.5061ZM70.3981 23.4487L78.8326 42.8748L63.2756 23.4487H70.3981ZM113.008 23.4487H120.131L104.574 42.8748L113.008 23.4487ZM113.258 21.5061L113.008 14.1478L119.881 21.5061H113.258Z" fill="#CC950C"/>
<path d="M7.37444 74.53L12.545 87.875C12.7428 88.3992 12.9688 88.7533 13.2231 88.9375C13.4916 89.1217 13.7388 89.2208 13.9648 89.235V89.66C13.6258 89.6317 13.2231 89.6175 12.7569 89.6175C12.3049 89.6033 11.8457 89.5963 11.3795 89.5963C10.7862 89.5963 10.2352 89.6033 9.72663 89.6175C9.21805 89.6175 8.80836 89.6317 8.49756 89.66V89.235C9.21805 89.2067 9.67012 89.0862 9.85378 88.8737C10.0516 88.6471 10.0092 88.1725 9.72663 87.45L5.91227 77.1225L6.25132 76.74L2.73363 85.9625C2.47934 86.6 2.32394 87.1313 2.26743 87.5563C2.22505 87.9813 2.26037 88.3142 2.37338 88.555C2.50053 88.7958 2.71244 88.9658 3.00911 89.065C3.30578 89.1642 3.67309 89.2208 4.11104 89.235V89.66C3.68722 89.6317 3.25634 89.6175 2.81839 89.6175C2.39457 89.6033 1.99195 89.5963 1.61051 89.5963C1.27146 89.5963 0.967719 89.6033 0.6993 89.6175C0.445009 89.6175 0.211909 89.6317 0 89.66V89.235C0.296673 89.1642 0.593346 88.9871 0.890019 88.7038C1.18669 88.4204 1.46924 87.9388 1.73766 87.2588L6.65395 74.53C6.76697 74.53 6.88705 74.53 7.0142 74.53C7.14134 74.53 7.26142 74.53 7.37444 74.53ZM9.59949 83.54V83.965H3.28459L3.4965 83.54H9.59949Z" fill="#CC950C"/>
<path d="M19.7627 78.3975C20.243 78.3975 20.7022 78.4613 21.1401 78.5888C21.578 78.7021 21.9595 78.865 22.2844 79.0775C22.6235 79.29 22.8778 79.545 23.0473 79.8425C23.2309 80.14 23.3228 80.4658 23.3228 80.82C23.3228 81.245 23.2027 81.5779 22.9625 81.8187C22.7224 82.0596 22.4116 82.18 22.0301 82.18C21.6487 82.18 21.3308 82.0738 21.0765 81.8613C20.8222 81.6488 20.6951 81.3442 20.6951 80.9475C20.6951 80.5792 20.801 80.2817 21.013 80.055C21.2249 79.8142 21.4721 79.6583 21.7546 79.5875C21.6275 79.375 21.4015 79.1979 21.0765 79.0563C20.7657 78.9004 20.4267 78.8225 20.0594 78.8225C19.6779 78.8225 19.3106 78.9217 18.9574 79.12C18.6184 79.3183 18.3146 79.6229 18.0462 80.0338C17.7778 80.4446 17.5588 80.9758 17.3893 81.6275C17.2339 82.2792 17.1562 83.0654 17.1562 83.9863C17.1562 85.1763 17.2904 86.1254 17.5588 86.8337C17.8414 87.5279 18.2087 88.0238 18.6608 88.3213C19.1128 88.6188 19.6002 88.7675 20.1229 88.7675C20.462 88.7675 20.8081 88.7037 21.1613 88.5762C21.5286 88.4487 21.8747 88.2363 22.1996 87.9388C22.5387 87.6413 22.8354 87.2375 23.0897 86.7275L23.4923 86.8763C23.3369 87.3438 23.0897 87.8183 22.7506 88.3C22.4257 88.7817 21.9948 89.1783 21.458 89.49C20.9211 89.8017 20.2642 89.9575 19.4872 89.9575C18.5972 89.9575 17.7919 89.7379 17.0714 89.2988C16.3509 88.8596 15.7788 88.2221 15.355 87.3863C14.9312 86.5363 14.7192 85.5021 14.7192 84.2838C14.7192 83.0938 14.9312 82.0596 15.355 81.1813C15.7929 80.2888 16.3933 79.6017 17.1562 79.12C17.9191 78.6383 18.7879 78.3975 19.7627 78.3975Z" fill="#CC950C"/>
<path d="M30.1305 78.3975C30.6108 78.3975 31.07 78.4613 31.5079 78.5888C31.9459 78.7021 32.3273 78.865 32.6522 79.0775C32.9913 79.29 33.2456 79.545 33.4151 79.8425C33.5988 80.14 33.6906 80.4658 33.6906 80.82C33.6906 81.245 33.5705 81.5779 33.3303 81.8187C33.0902 82.0596 32.7794 82.18 32.3979 82.18C32.0165 82.18 31.6986 82.0738 31.4443 81.8613C31.1901 81.6488 31.0629 81.3442 31.0629 80.9475C31.0629 80.5792 31.1689 80.2817 31.3808 80.055C31.5927 79.8142 31.8399 79.6583 32.1225 79.5875C31.9953 79.375 31.7693 79.1979 31.4443 79.0563C31.1335 78.9004 30.7945 78.8225 30.4272 78.8225C30.0457 78.8225 29.6784 78.9217 29.3253 79.12C28.9862 79.3183 28.6825 79.6229 28.414 80.0338C28.1456 80.4446 27.9267 80.9758 27.7571 81.6275C27.6017 82.2792 27.524 83.0654 27.524 83.9863C27.524 85.1763 27.6582 86.1254 27.9267 86.8337C28.2092 87.5279 28.5765 88.0238 29.0286 88.3213C29.4807 88.6188 29.968 88.7675 30.4908 88.7675C30.8298 88.7675 31.1759 88.7037 31.5291 88.5762C31.8964 88.4487 32.2425 88.2363 32.5675 87.9388C32.9065 87.6413 33.2032 87.2375 33.4575 86.7275L33.8601 86.8763C33.7047 87.3438 33.4575 87.8183 33.1184 88.3C32.7935 88.7817 32.3626 89.1783 31.8258 89.49C31.2889 89.8017 30.632 89.9575 29.855 89.9575C28.965 89.9575 28.1598 89.7379 27.4393 89.2988C26.7188 88.8596 26.1466 88.2221 25.7228 87.3863C25.299 86.5363 25.0871 85.5021 25.0871 84.2838C25.0871 83.0938 25.299 82.0596 25.7228 81.1813C26.1607 80.2888 26.7612 79.6017 27.524 79.12C28.2869 78.6383 29.1557 78.3975 30.1305 78.3975Z" fill="#CC950C"/>
<path d="M40.3712 78.3975C41.6144 78.3975 42.5892 78.7729 43.2955 79.5238C44.0019 80.2746 44.3551 81.4646 44.3551 83.0938H37.0442L37.0018 82.69H42.1088C42.123 81.9958 42.0665 81.3583 41.9393 80.7775C41.8122 80.1825 41.6144 79.7079 41.346 79.3538C41.0776 78.9996 40.7244 78.8225 40.2864 78.8225C39.679 78.8225 39.1492 79.1483 38.6971 79.8C38.2592 80.4375 37.9907 81.4646 37.8918 82.8812L37.9554 82.9875C37.9413 83.1858 37.9272 83.4054 37.913 83.6462C37.8989 83.8729 37.8918 84.0996 37.8918 84.3262C37.8918 85.3037 38.0402 86.1254 38.3369 86.7913C38.6335 87.4571 39.022 87.96 39.5024 88.3C39.9827 88.6258 40.4701 88.7887 40.9645 88.7887C41.346 88.7887 41.7133 88.7321 42.0665 88.6188C42.4338 88.4913 42.7799 88.2858 43.1048 88.0025C43.4297 87.705 43.7194 87.3013 43.9736 86.7913L44.3975 86.9613C44.2279 87.4429 43.9666 87.9175 43.6134 88.385C43.2602 88.8525 42.8081 89.235 42.2572 89.5325C41.7062 89.8158 41.0634 89.9575 40.3288 89.9575C39.3399 89.9575 38.4781 89.7379 37.7435 89.2988C37.0089 88.8454 36.4438 88.2008 36.0482 87.365C35.6527 86.5292 35.4549 85.5375 35.4549 84.39C35.4549 83.1292 35.6597 82.0525 36.0694 81.16C36.4791 80.2675 37.0513 79.5875 37.7859 79.12C38.5346 78.6383 39.3964 78.3975 40.3712 78.3975Z" fill="#CC950C"/>
<path d="M49.7563 78.3975C50.3214 78.3975 50.8088 78.4896 51.2185 78.6738C51.6423 78.8438 51.946 78.9996 52.1297 79.1413C52.5959 79.5096 52.8855 79.2687 52.9985 78.4187H53.4647C53.4364 78.8154 53.4153 79.2971 53.4011 79.8637C53.387 80.4162 53.3799 81.1529 53.3799 82.0738H52.9137C52.829 81.5496 52.6806 81.0396 52.4687 80.5437C52.2709 80.0479 51.9743 79.6371 51.5787 79.3112C51.1973 78.9854 50.6958 78.8225 50.0742 78.8225C49.6079 78.8225 49.2194 78.9571 48.9086 79.2262C48.5978 79.4812 48.4424 79.8637 48.4424 80.3737C48.4424 80.7987 48.5696 81.1671 48.8239 81.4788C49.0782 81.7904 49.4031 82.0808 49.7987 82.35C50.2084 82.6192 50.6463 82.9096 51.1125 83.2213C51.6352 83.5754 52.1014 83.9296 52.5111 84.2838C52.9349 84.6238 53.2669 85.0063 53.5071 85.4313C53.7614 85.8563 53.8885 86.3521 53.8885 86.9187C53.8885 87.5704 53.7119 88.1229 53.3587 88.5762C53.0197 89.0296 52.5676 89.3767 52.0025 89.6175C51.4374 89.8442 50.8158 89.9575 50.1377 89.9575C49.7987 89.9575 49.4808 89.9221 49.1841 89.8512C48.8875 89.7946 48.612 89.7167 48.3577 89.6175C48.2023 89.5325 48.0469 89.4475 47.8915 89.3625C47.7502 89.2633 47.6089 89.1713 47.4677 89.0863C47.3264 88.9871 47.1992 89.0013 47.0862 89.1288C46.9732 89.2563 46.8884 89.4829 46.8319 89.8087H46.3657C46.394 89.3554 46.4152 88.8029 46.4293 88.1513C46.4434 87.4996 46.4505 86.6354 46.4505 85.5588H46.9167C47.0156 86.3379 47.1639 87.025 47.3617 87.62C47.5595 88.215 47.8491 88.6825 48.2305 89.0225C48.6261 89.3483 49.1629 89.5113 49.841 89.5113C50.1095 89.5113 50.3779 89.4546 50.6463 89.3412C50.9147 89.2137 51.1337 89.0154 51.3032 88.7462C51.4869 88.4771 51.5787 88.1158 51.5787 87.6625C51.5787 87.0392 51.3597 86.5292 50.9218 86.1325C50.498 85.7217 49.947 85.2896 49.2689 84.8363C48.7886 84.4963 48.3294 84.1633 47.8915 83.8375C47.4677 83.4975 47.1215 83.1221 46.8531 82.7113C46.5847 82.2863 46.4505 81.7833 46.4505 81.2025C46.4505 80.565 46.5988 80.0408 46.8955 79.63C47.2063 79.2192 47.616 78.9146 48.1246 78.7162C48.6332 78.5037 49.1771 78.3975 49.7563 78.3975Z" fill="#CC950C"/>
<path d="M59.3377 78.3975C59.9028 78.3975 60.3902 78.4896 60.7999 78.6738C61.2237 78.8438 61.5275 78.9996 61.7111 79.1413C62.1773 79.5096 62.4669 79.2687 62.5799 78.4187H63.0461C63.0179 78.8154 62.9967 79.2971 62.9826 79.8637C62.9684 80.4162 62.9614 81.1529 62.9614 82.0738H62.4952C62.4104 81.5496 62.2621 81.0396 62.0502 80.5437C61.8524 80.0479 61.5557 79.6371 61.1601 79.3112C60.7787 78.9854 60.2772 78.8225 59.6556 78.8225C59.1894 78.8225 58.8009 78.9571 58.4901 79.2262C58.1793 79.4812 58.0239 79.8637 58.0239 80.3737C58.0239 80.7987 58.151 81.1671 58.4053 81.4788C58.6596 81.7904 58.9845 82.0808 59.3801 82.35C59.7898 82.6192 60.2277 82.9096 60.6939 83.2213C61.2167 83.5754 61.6829 83.9296 62.0925 84.2838C62.5164 84.6238 62.8484 85.0063 63.0885 85.4313C63.3428 85.8563 63.47 86.3521 63.47 86.9187C63.47 87.5704 63.2934 88.1229 62.9402 88.5762C62.6011 89.0296 62.1491 89.3767 61.584 89.6175C61.0189 89.8442 60.3973 89.9575 59.7192 89.9575C59.3801 89.9575 59.0622 89.9221 58.7656 89.8512C58.4689 89.7946 58.1934 89.7167 57.9391 89.6175C57.7837 89.5325 57.6283 89.4475 57.4729 89.3625C57.3317 89.2633 57.1904 89.1713 57.0491 89.0863C56.9078 88.9871 56.7807 89.0013 56.6677 89.1288C56.5546 89.2563 56.4699 89.4829 56.4134 89.8087H55.9472C55.9754 89.3554 55.9966 88.8029 56.0108 88.1513C56.0249 87.4996 56.0319 86.6354 56.0319 85.5588H56.4981C56.597 86.3379 56.7454 87.025 56.9432 87.62C57.1409 88.215 57.4305 88.6825 57.812 89.0225C58.2075 89.3483 58.7444 89.5113 59.4225 89.5113C59.6909 89.5113 59.9593 89.4546 60.2277 89.3412C60.4962 89.2137 60.7151 89.0154 60.8847 88.7462C61.0683 88.4771 61.1601 88.1158 61.1601 87.6625C61.1601 87.0392 60.9412 86.5292 60.5032 86.1325C60.0794 85.7217 59.5284 85.2896 58.8503 84.8363C58.37 84.4963 57.9109 84.1633 57.4729 83.8375C57.0491 83.4975 56.703 83.1221 56.4346 82.7113C56.1662 82.2863 56.0319 81.7833 56.0319 81.2025C56.0319 80.565 56.1803 80.0408 56.477 79.63C56.7878 79.2192 57.1974 78.9146 57.706 78.7162C58.2146 78.5037 58.7585 78.3975 59.3377 78.3975Z" fill="#CC950C"/>
<path d="M70.2754 78.3975C71.2219 78.3975 72.0625 78.5958 72.7971 78.9925C73.5317 79.3892 74.118 80.0125 74.5559 80.8625C74.9939 81.7125 75.2129 82.8246 75.2129 84.1988C75.2129 85.5729 74.9939 86.685 74.5559 87.535C74.118 88.3708 73.5317 88.9871 72.7971 89.3838C72.0625 89.7663 71.2219 89.9575 70.2754 89.9575C69.343 89.9575 68.5024 89.7663 67.7537 89.3838C67.0049 88.9871 66.4116 88.3708 65.9736 87.535C65.5498 86.685 65.3379 85.5729 65.3379 84.1988C65.3379 82.8246 65.5498 81.7125 65.9736 80.8625C66.4116 80.0125 67.0049 79.3892 67.7537 78.9925C68.5024 78.5958 69.343 78.3975 70.2754 78.3975ZM70.2754 78.8225C69.5408 78.8225 68.9404 79.2475 68.4742 80.0975C68.008 80.9333 67.7749 82.3004 67.7749 84.1988C67.7749 86.0971 68.008 87.4642 68.4742 88.3C68.9404 89.1217 69.5408 89.5325 70.2754 89.5325C70.9959 89.5325 71.5892 89.1217 72.0554 88.3C72.5358 87.4642 72.7759 86.0971 72.7759 84.1988C72.7759 82.3004 72.5358 80.9333 72.0554 80.0975C71.5892 79.2475 70.9959 78.8225 70.2754 78.8225Z" fill="#CC950C"/>
<path d="M79.2542 73.34C79.6922 73.34 80.0595 73.4817 80.3561 73.765C80.6528 74.0342 80.8011 74.3742 80.8011 74.785C80.8011 75.1958 80.6528 75.5429 80.3561 75.8262C80.0595 76.0954 79.6922 76.23 79.2542 76.23C78.8163 76.23 78.449 76.0954 78.1523 75.8262C77.8556 75.5429 77.7073 75.1958 77.7073 74.785C77.7073 74.3742 77.8556 74.0342 78.1523 73.765C78.449 73.4817 78.8163 73.34 79.2542 73.34ZM80.5257 78.4613V87.6837C80.5257 88.2787 80.6387 88.6825 80.8647 88.895C81.1049 89.1075 81.5005 89.2138 82.0514 89.2138V89.66C81.8113 89.6458 81.4369 89.6317 80.9283 89.6175C80.4338 89.5892 79.9253 89.575 79.4025 89.575C78.9081 89.575 78.3995 89.5892 77.8768 89.6175C77.3541 89.6317 76.9656 89.6458 76.7113 89.66V89.2138C77.2623 89.2138 77.6508 89.1075 77.8768 88.895C78.117 88.6825 78.237 88.2787 78.237 87.6837V81.0113C78.237 80.3738 78.1311 79.9062 77.9192 79.6087C77.7073 79.2971 77.3046 79.1413 76.7113 79.1413V78.695C77.1634 78.7375 77.6013 78.7588 78.0251 78.7588C78.5055 78.7588 78.9505 78.7375 79.3602 78.695C79.784 78.6383 80.1725 78.5604 80.5257 78.4613Z" fill="#CC950C"/>
<path d="M89.8879 78.3975C90.2976 78.3975 90.6437 78.4825 90.9263 78.6525C91.2229 78.8225 91.4419 79.0421 91.5832 79.3112C91.7386 79.5662 91.8163 79.8567 91.8163 80.1825C91.8163 80.5933 91.6891 80.9475 91.4349 81.245C91.1947 81.5283 90.8698 81.67 90.4601 81.67C90.1069 81.67 89.8032 81.5637 89.5489 81.3512C89.3087 81.1387 89.1886 80.8483 89.1886 80.48C89.1886 80.1683 89.2663 79.9062 89.4217 79.6937C89.5912 79.4671 89.782 79.29 89.9939 79.1625C89.8526 79.0492 89.6831 78.9996 89.4853 79.0137C89.1039 79.0279 88.7507 79.1554 88.4257 79.3962C88.1008 79.6229 87.8253 79.9204 87.5993 80.2887C87.3733 80.6429 87.1967 81.0254 87.0695 81.4362C86.9424 81.8471 86.8788 82.2296 86.8788 82.5837V87.4713C86.8788 88.1654 87.0695 88.6329 87.451 88.8737C87.8324 89.1004 88.3622 89.2138 89.0403 89.2138V89.66C88.7153 89.6458 88.2492 89.6317 87.6417 89.6175C87.0483 89.5892 86.4197 89.575 85.7557 89.575C85.2471 89.575 84.7385 89.5892 84.2299 89.6175C83.7214 89.6317 83.3329 89.6458 83.0644 89.66V89.2138C83.6154 89.2138 84.0039 89.1075 84.2299 88.895C84.4701 88.6825 84.5902 88.2787 84.5902 87.6837V81.0113C84.5902 80.3738 84.4842 79.9062 84.2723 79.6087C84.0604 79.2971 83.6578 79.1413 83.0644 79.1413V78.695C83.5165 78.7375 83.9545 78.7588 84.3783 78.7588C84.8586 78.7588 85.3036 78.7375 85.7133 78.695C86.1371 78.6383 86.5256 78.5604 86.8788 78.4613V80.905C87.0483 80.4942 87.2744 80.0975 87.5569 79.715C87.8395 79.3325 88.1785 79.0208 88.5741 78.78C88.9696 78.525 89.4076 78.3975 89.8879 78.3975Z" fill="#CC950C"/>
<path d="M97.5287 78.3975C98.7719 78.3975 99.7467 78.7729 100.453 79.5238C101.159 80.2746 101.513 81.4646 101.513 83.0938H94.2018L94.1594 82.69H99.2664C99.2805 81.9958 99.224 81.3583 99.0969 80.7775C98.9697 80.1825 98.7719 79.7079 98.5035 79.3538C98.2351 78.9996 97.8819 78.8225 97.444 78.8225C96.8365 78.8225 96.3067 79.1483 95.8547 79.8C95.4167 80.4375 95.1483 81.4646 95.0494 82.8812L95.113 82.9875C95.0988 83.1858 95.0847 83.4054 95.0706 83.6462C95.0565 83.8729 95.0494 84.0996 95.0494 84.3262C95.0494 85.3037 95.1977 86.1254 95.4944 86.7913C95.7911 87.4571 96.1796 87.96 96.6599 88.3C97.1402 88.6258 97.6276 88.7887 98.1221 88.7887C98.5035 88.7887 98.8708 88.7321 99.224 88.6188C99.5913 88.4913 99.9374 88.2858 100.262 88.0025C100.587 87.705 100.877 87.3013 101.131 86.7913L101.555 86.9613C101.385 87.4429 101.124 87.9175 100.771 88.385C100.418 88.8525 99.9657 89.235 99.4147 89.5325C98.8638 89.8158 98.221 89.9575 97.4864 89.9575C96.4974 89.9575 95.6357 89.7379 94.9011 89.2988C94.1664 88.8454 93.6013 88.2008 93.2058 87.365C92.8102 86.5292 92.6124 85.5375 92.6124 84.39C92.6124 83.1292 92.8173 82.0525 93.227 81.16C93.6367 80.2675 94.2088 79.5875 94.9434 79.12C95.6922 78.6383 96.554 78.3975 97.5287 78.3975Z" fill="#CC950C"/>
<path d="M108.016 74.36C108.765 74.36 109.337 74.445 109.732 74.615C110.128 74.785 110.474 74.9692 110.771 75.1675C110.94 75.2667 111.074 75.3446 111.173 75.4013C111.286 75.4438 111.392 75.465 111.491 75.465C111.632 75.465 111.731 75.3871 111.788 75.2312C111.858 75.0754 111.915 74.8417 111.957 74.53H112.445C112.431 74.785 112.409 75.0896 112.381 75.4437C112.367 75.7837 112.353 76.2371 112.339 76.8037C112.339 77.3704 112.339 78.1142 112.339 79.035H111.851C111.809 78.3408 111.654 77.6679 111.385 77.0163C111.131 76.3646 110.749 75.8333 110.241 75.4225C109.746 75.0117 109.111 74.8063 108.334 74.8063C107.613 74.8063 107.013 75.0258 106.532 75.465C106.066 75.89 105.833 76.4567 105.833 77.165C105.833 77.7883 105.988 78.3125 106.299 78.7375C106.61 79.1483 107.034 79.5379 107.571 79.9062C108.122 80.2604 108.743 80.6571 109.436 81.0963C110.142 81.5496 110.778 82.0029 111.343 82.4563C111.908 82.8954 112.353 83.3842 112.678 83.9225C113.003 84.4608 113.165 85.1125 113.165 85.8775C113.165 86.7983 112.946 87.5633 112.508 88.1725C112.084 88.7675 111.512 89.2138 110.792 89.5113C110.071 89.8088 109.28 89.9575 108.418 89.9575C107.627 89.9575 106.999 89.8725 106.532 89.7025C106.066 89.5325 105.671 89.3554 105.346 89.1712C105.035 88.9729 104.795 88.8737 104.625 88.8737C104.484 88.8737 104.378 88.9517 104.307 89.1075C104.251 89.2633 104.201 89.4971 104.159 89.8087H103.672C103.7 89.4971 103.714 89.1358 103.714 88.725C103.728 88.3 103.735 87.7475 103.735 87.0675C103.749 86.3875 103.756 85.5304 103.756 84.4962H104.244C104.3 85.3746 104.456 86.1963 104.71 86.9613C104.978 87.7263 105.381 88.3425 105.918 88.81C106.469 89.2633 107.196 89.49 108.101 89.49C108.581 89.49 109.026 89.3979 109.436 89.2138C109.845 89.0296 110.177 88.7392 110.432 88.3425C110.686 87.9458 110.813 87.4358 110.813 86.8125C110.813 86.2317 110.672 85.7217 110.389 85.2825C110.121 84.8433 109.739 84.4396 109.245 84.0713C108.765 83.6888 108.199 83.2992 107.55 82.9025C106.886 82.4775 106.264 82.0525 105.685 81.6275C105.106 81.2025 104.639 80.7067 104.286 80.14C103.947 79.5733 103.778 78.9004 103.778 78.1212C103.778 77.2571 103.975 76.5488 104.371 75.9963C104.781 75.4438 105.303 75.0329 105.939 74.7637C106.589 74.4946 107.281 74.36 108.016 74.36Z" fill="#CC950C"/>
<path d="M133.696 74.615V75.04C133.215 75.0683 132.855 75.1533 132.615 75.295C132.375 75.4367 132.212 75.6704 132.127 75.9963C132.057 76.3079 132.021 76.7542 132.021 77.335V89.745C131.908 89.745 131.795 89.745 131.682 89.745C131.569 89.745 131.449 89.745 131.322 89.745L122.337 76.655V86.855C122.337 87.45 122.38 87.9175 122.464 88.2575C122.549 88.5833 122.733 88.8171 123.015 88.9587C123.298 89.1004 123.729 89.1925 124.308 89.235V89.66C124.04 89.6317 123.693 89.6175 123.27 89.6175C122.86 89.6033 122.471 89.5963 122.104 89.5963C121.751 89.5963 121.398 89.6033 121.045 89.6175C120.691 89.6175 120.402 89.6317 120.176 89.66V89.235C120.642 89.1925 120.995 89.1075 121.235 88.98C121.475 88.8383 121.638 88.6046 121.723 88.2787C121.807 87.9529 121.85 87.5067 121.85 86.94V76.8675C121.85 76.3433 121.807 75.9608 121.723 75.72C121.638 75.465 121.475 75.295 121.235 75.21C120.995 75.1108 120.642 75.0542 120.176 75.04V74.615C120.402 74.6292 120.691 74.6433 121.045 74.6575C121.398 74.6717 121.751 74.6787 122.104 74.6787C122.415 74.6787 122.719 74.6717 123.015 74.6575C123.312 74.6433 123.573 74.6292 123.799 74.615L131.534 85.7075V77.42C131.534 76.8108 131.485 76.3433 131.386 76.0175C131.301 75.6917 131.117 75.4579 130.835 75.3163C130.552 75.1604 130.128 75.0683 129.563 75.04V74.615C129.818 74.6292 130.157 74.6433 130.58 74.6575C131.004 74.6717 131.4 74.6787 131.767 74.6787C132.12 74.6787 132.474 74.6717 132.827 74.6575C133.18 74.6433 133.469 74.6292 133.696 74.615Z" fill="#CC950C"/>
<path d="M139.87 78.3975C140.817 78.3975 141.657 78.5958 142.392 78.9925C143.127 79.3892 143.713 80.0125 144.151 80.8625C144.589 81.7125 144.808 82.8246 144.808 84.1988C144.808 85.5729 144.589 86.685 144.151 87.535C143.713 88.3708 143.127 88.9871 142.392 89.3838C141.657 89.7663 140.817 89.9575 139.87 89.9575C138.938 89.9575 138.097 89.7663 137.348 89.3838C136.6 88.9871 136.006 88.3708 135.568 87.535C135.145 86.685 134.933 85.5729 134.933 84.1988C134.933 82.8246 135.145 81.7125 135.568 80.8625C136.006 80.0125 136.6 79.3892 137.348 78.9925C138.097 78.5958 138.938 78.3975 139.87 78.3975ZM139.87 78.8225C139.136 78.8225 138.535 79.2475 138.069 80.0975C137.603 80.9333 137.37 82.3004 137.37 84.1988C137.37 86.0971 137.603 87.4642 138.069 88.3C138.535 89.1217 139.136 89.5325 139.87 89.5325C140.591 89.5325 141.184 89.1217 141.65 88.3C142.131 87.4642 142.371 86.0971 142.371 84.1988C142.371 82.3004 142.131 80.9333 141.65 80.0975C141.184 79.2475 140.591 78.8225 139.87 78.8225Z" fill="#CC950C"/>
<path d="M152.939 78.3975C154.069 78.3975 155.009 78.8721 155.757 79.8213C156.52 80.7563 156.902 82.18 156.902 84.0925C156.902 85.4383 156.683 86.5433 156.245 87.4075C155.807 88.2717 155.22 88.9162 154.486 89.3412C153.765 89.7521 152.981 89.9575 152.134 89.9575C151.47 89.9575 150.834 89.7946 150.226 89.4688C149.619 89.1288 149.153 88.6188 148.828 87.9388L149.209 88.045C149.52 88.5267 149.909 88.8879 150.375 89.1288C150.841 89.3696 151.314 89.49 151.795 89.49C152.685 89.49 153.349 89.0579 153.786 88.1937C154.239 87.3296 154.465 85.9979 154.465 84.1988C154.465 83.0229 154.373 82.0596 154.189 81.3087C154.02 80.5579 153.758 80.0125 153.405 79.6725C153.066 79.3183 152.635 79.1413 152.112 79.1413C151.505 79.1413 150.947 79.4033 150.438 79.9275C149.93 80.4517 149.626 81.2096 149.527 82.2012L149.315 81.755C149.513 80.6925 149.937 79.8708 150.587 79.29C151.251 78.695 152.035 78.3975 152.939 78.3975ZM149.654 73.0212V88.7887C149.414 88.8737 149.167 88.98 148.913 89.1075C148.658 89.235 148.418 89.3767 148.192 89.5325C147.966 89.6742 147.754 89.83 147.556 90L147.217 89.83C147.274 89.6317 147.309 89.4333 147.323 89.235C147.352 89.0367 147.366 88.8313 147.366 88.6188V75.5713C147.366 74.9338 147.253 74.4662 147.027 74.1687C146.815 73.8571 146.419 73.7012 145.84 73.7012V73.255C146.292 73.2975 146.73 73.3187 147.154 73.3187C147.62 73.3187 148.065 73.2975 148.489 73.255C148.913 73.1983 149.301 73.1204 149.654 73.0212Z" fill="#CC950C"/>
<path d="M161.893 73V87.6837C161.893 88.2787 162.006 88.6825 162.232 88.895C162.472 89.1075 162.867 89.2138 163.418 89.2138V89.66C163.178 89.6458 162.804 89.6317 162.295 89.6175C161.787 89.5892 161.278 89.575 160.769 89.575C160.261 89.575 159.745 89.5892 159.222 89.6175C158.714 89.6317 158.332 89.6458 158.078 89.66V89.2138C158.629 89.2138 159.018 89.1075 159.244 88.895C159.484 88.6825 159.604 88.2787 159.604 87.6837V75.55C159.604 74.9125 159.498 74.445 159.286 74.1475C159.074 73.8358 158.672 73.68 158.078 73.68V73.2337C158.53 73.2762 158.968 73.2975 159.392 73.2975C159.858 73.2975 160.303 73.2762 160.727 73.2337C161.151 73.1771 161.539 73.0992 161.893 73Z" fill="#CC950C"/>
<path d="M169.483 78.3975C170.726 78.3975 171.701 78.7729 172.407 79.5238C173.113 80.2746 173.467 81.4646 173.467 83.0938H166.156L166.113 82.69H171.22C171.234 81.9958 171.178 81.3583 171.051 80.7775C170.924 80.1825 170.726 79.7079 170.457 79.3538C170.189 78.9996 169.836 78.8225 169.398 78.8225C168.79 78.8225 168.261 79.1483 167.809 79.8C167.371 80.4375 167.102 81.4646 167.003 82.8812L167.067 82.9875C167.053 83.1858 167.039 83.4054 167.025 83.6462C167.01 83.8729 167.003 84.0996 167.003 84.3262C167.003 85.3037 167.152 86.1254 167.448 86.7913C167.745 87.4571 168.134 87.96 168.614 88.3C169.094 88.6258 169.582 88.7887 170.076 88.7887C170.457 88.7887 170.825 88.7321 171.178 88.6188C171.545 88.4913 171.891 88.2858 172.216 88.0025C172.541 87.705 172.831 87.3013 173.085 86.7913L173.509 86.9613C173.339 87.4429 173.078 87.9175 172.725 88.385C172.372 88.8525 171.92 89.235 171.369 89.5325C170.818 89.8158 170.175 89.9575 169.44 89.9575C168.451 89.9575 167.59 89.7379 166.855 89.2988C166.12 88.8454 165.555 88.2008 165.16 87.365C164.764 86.5292 164.566 85.5375 164.566 84.39C164.566 83.1292 164.771 82.0525 165.181 81.16C165.591 80.2675 166.163 79.5875 166.897 79.12C167.646 78.6383 168.508 78.3975 169.483 78.3975Z" fill="#CC950C"/>
<path d="M178.868 78.3975C179.433 78.3975 179.92 78.4896 180.33 78.6738C180.754 78.8438 181.057 78.9996 181.241 79.1413C181.707 79.5096 181.997 79.2687 182.11 78.4187H182.576C182.548 78.8154 182.527 79.2971 182.513 79.8637C182.498 80.4162 182.491 81.1529 182.491 82.0738H182.025C181.94 81.5496 181.792 81.0396 181.58 80.5437C181.382 80.0479 181.086 79.6371 180.69 79.3112C180.309 78.9854 179.807 78.8225 179.186 78.8225C178.719 78.8225 178.331 78.9571 178.02 79.2262C177.709 79.4812 177.554 79.8637 177.554 80.3737C177.554 80.7987 177.681 81.1671 177.935 81.4788C178.19 81.7904 178.515 82.0808 178.91 82.35C179.32 82.6192 179.758 82.9096 180.224 83.2213C180.747 83.5754 181.213 83.9296 181.623 84.2838C182.046 84.6238 182.378 85.0063 182.619 85.4313C182.873 85.8563 183 86.3521 183 86.9187C183 87.5704 182.823 88.1229 182.47 88.5762C182.131 89.0296 181.679 89.3767 181.114 89.6175C180.549 89.8442 179.927 89.9575 179.249 89.9575C178.91 89.9575 178.592 89.9221 178.296 89.8512C177.999 89.7946 177.723 89.7167 177.469 89.6175C177.314 89.5325 177.158 89.4475 177.003 89.3625C176.862 89.2633 176.72 89.1713 176.579 89.0863C176.438 88.9871 176.311 89.0013 176.198 89.1288C176.085 89.2563 176 89.4829 175.943 89.8087H175.477C175.505 89.3554 175.527 88.8029 175.541 88.1513C175.555 87.4996 175.562 86.6354 175.562 85.5588H176.028C176.127 86.3379 176.275 87.025 176.473 87.62C176.671 88.215 176.961 88.6825 177.342 89.0225C177.738 89.3483 178.274 89.5113 178.953 89.5113C179.221 89.5113 179.489 89.4546 179.758 89.3412C180.026 89.2137 180.245 89.0154 180.415 88.7462C180.598 88.4771 180.69 88.1158 180.69 87.6625C180.69 87.0392 180.471 86.5292 180.033 86.1325C179.609 85.7217 179.058 85.2896 178.38 84.8363C177.9 84.4963 177.441 84.1633 177.003 83.8375C176.579 83.4975 176.233 83.1221 175.965 82.7113C175.696 82.2863 175.562 81.7833 175.562 81.2025C175.562 80.565 175.71 80.0408 176.007 79.63C176.318 79.2192 176.727 78.9146 177.236 78.7162C177.745 78.5037 178.289 78.3975 178.868 78.3975Z" fill="#CC950C"/>
</svg>
