<svg xmlns="http://www.w3.org/2000/svg" width="90" height="90" fill="none"><circle cx="45" cy="45" r="44.75" fill="url(#a)" stroke="url(#b)" stroke-width=".5"/><circle cx="45" cy="45" r="44.75" stroke="url(#c)" stroke-width=".5"/><circle cx="45" cy="45" r="44.75" stroke="url(#d)" stroke-width=".5" transform="matrix(-1 0 0 1 90 0)"/><g filter="url(#e)"><circle cx="45" cy="45" r="36" fill="#0E2930"/></g><circle cx="36" cy="36" r="35.75" stroke="url(#f)" stroke-width=".5" transform="matrix(-1 0 0 1 81 9)"/><circle cx="36" cy="36" r="35.75" stroke="url(#g)" stroke-width=".5" transform="matrix(-1 0 0 1 81 9)"/><path fill="#000" d="m23.226 25.65.037.097 4.7 12.146 4.796-12.147.037-.096h4.68l-.086.208-6.98 16.8-.038.093h-4.991l-.038-.094-6.882-16.8-.085-.207zm29.095 0v2.99l-.035.042-8.571 10.193h8.68v3.876H37.772v-2.99l.035-.041 8.595-10.194h-8.557V25.65zm12.297 0 .038.094 6.882 16.8.085.207h-4.85l-.037-.097-1.518-3.96h-6.434l-1.543 3.961-.038.096h-4.68l.086-.208 6.98-16.8.038-.093zm-4.452 9.456h3.696L62.036 30.3z"/><path fill="url(#h)" d="m23.226 25.65.037.097 4.7 12.146 4.796-12.147.037-.096h4.68l-.086.208-6.98 16.8-.038.093h-4.991l-.038-.094-6.882-16.8-.085-.207zm29.095 0v2.99l-.035.042-8.571 10.193h8.68v3.876H37.772v-2.99l.035-.041 8.595-10.194h-8.557V25.65zm12.297 0 .038.094 6.882 16.8.085.207h-4.85l-.037-.097-1.518-3.96h-6.434l-1.543 3.961-.038.096h-4.68l.086-.208 6.98-16.8.038-.093zm-4.452 9.456h3.696L62.036 30.3z"/><path stroke="#B5B5AF" stroke-width=".3" d="m23.226 25.65.037.097 4.7 12.146 4.796-12.147.037-.096h4.68l-.086.208-6.98 16.8-.038.093h-4.991l-.038-.094-6.882-16.8-.085-.207zm29.095 0v2.99l-.035.042-8.571 10.193h8.68v3.876H37.772v-2.99l.035-.041 8.595-10.194h-8.557V25.65zm12.297 0 .038.094 6.882 16.8.085.207h-4.85l-.037-.097-1.518-3.96h-6.434l-1.543 3.961-.038.096h-4.68l.086-.208 6.98-16.8.038-.093zm-4.452 9.456h3.696L62.036 30.3z"/><path fill="#B5B5AF" d="m25.2 63.494 3.79-8.248h1.039l3.803 8.248h-1.28l-1.038-2.34.568.328h-5.144l.555-.328-1.026 2.34zm4.298-6.903-1.824 4.189-.301-.281h4.262l-.278.28-1.835-4.188zm5.316 6.903v-5.71h1.184v1.217h-.133q.266-.654.833-.982.567-.34 1.304-.34.7 0 1.16.258.47.246.7.76.228.503.229 1.275v3.522h-1.22v-3.451q0-.492-.133-.796a.94.94 0 0 0-.398-.468q-.266-.152-.688-.152a1.8 1.8 0 0 0-.858.199q-.361.2-.567.573-.193.374-.193.866v3.229zm6.957 0v-8.248h1.22v5.03h.024l2.56-2.491h1.509l-3.103 3.018v-.55l3.32 3.24H45.78l-2.765-2.608h-.024v2.609zm8.051.106q-.615 0-1.111-.235a1.93 1.93 0 0 1-.76-.632 1.54 1.54 0 0 1-.279-.9q0-.632.327-.995.338-.375 1.098-.526.773-.164 2.077-.164h.568v.725h-.556q-.652 0-1.099.047a2.8 2.8 0 0 0-.712.152.75.75 0 0 0-.386.27.8.8 0 0 0-.11.42q0 .446.315.726.314.27.87.269.446 0 .784-.199.338-.21.531-.562a1.57 1.57 0 0 0 .206-.807v-1.345q0-.668-.29-.96t-.954-.292q-.507 0-1.014.152a4.3 4.3 0 0 0-1.039.456l-.374-.83q.314-.21.724-.363.411-.152.858-.234.46-.093.881-.094.81 0 1.328.246.532.246.785.749.254.503.254 1.298v3.522h-1.147v-1.275h.108a1.7 1.7 0 0 1-.362.749q-.253.303-.64.467a2.2 2.2 0 0 1-.881.164m6.702.001q-.712 0-1.195-.258a1.66 1.66 0 0 1-.712-.76q-.23-.516-.23-1.288v-3.51h1.22v3.522q0 .457.12.76a.88.88 0 0 0 .399.445q.277.14.688.14.46 0 .809-.198.35-.2.543-.574.195-.375.194-.865v-3.23h1.22v5.71h-1.184v-1.252h.157q-.242.655-.773 1.006t-1.256.351m5.124-.105v-4.797H60.5v-.912h1.497l-.35.316v-.422q0-1.17.616-1.766.627-.609 1.92-.679l.53-.035.085.89-.555.035q-.495.022-.797.187-.302.163-.447.468-.133.292-.133.737v.456l-.169-.187h1.824v.912h-1.655v4.797zM14.93 52.733l-2.33-5.265h.831l1.993 4.608h-.277l1.984-4.608h.794l-2.33 5.265zm4.753.067q-.6 0-1.033-.224a1.67 1.67 0 0 1-.667-.65q-.232-.425-.232-1.008 0-.568.232-.993.233-.425.636-.665.405-.24.922-.239.51 0 .869.224.366.217.562.62.194.403.194.964v.254H18.35v-.463h2.307l-.127.104q0-.56-.248-.866-.247-.307-.711-.307-.352 0-.6.165-.24.165-.366.455-.128.291-.128.68v.045q0 .434.135.732a1 1 0 0 0 .412.44q.27.15.667.15.315 0 .614-.097a1.9 1.9 0 0 0 .577-.321l.224.522q-.247.225-.636.351-.39.127-.787.127m2.308-.067v-3.645h.734v.874h-.075q.12-.448.427-.68.315-.23.832-.268l.247-.015.052.642-.456.045q-.487.045-.742.306t-.255.717v2.024zm4.039.067a3 3 0 0 1-.57-.052 2.5 2.5 0 0 1-.509-.15 1.8 1.8 0 0 1-.412-.238l.217-.508a3 3 0 0 0 .398.224q.21.09.434.134.232.045.45.045.396 0 .599-.142a.44.44 0 0 0 .202-.38.36.36 0 0 0-.135-.3.96.96 0 0 0-.405-.171l-.711-.142q-.465-.098-.704-.344a.86.86 0 0 1-.24-.627.98.98 0 0 1 .187-.598q.188-.253.525-.388.336-.142.779-.142.255 0 .494.052.24.053.45.15.216.097.367.246l-.218.508a1.681 1.681 0 0 0-.704-.351 1.5 1.5 0 0 0-.39-.052q-.396 0-.599.15a.46.46 0 0 0-.194.388q0 .186.12.306t.374.172l.712.141q.486.097.734.33.255.231.255.627 0 .343-.188.597-.187.255-.532.388a2.2 2.2 0 0 1-.786.127m2.28-4.556v-.784h.884v.784zm.067 4.49v-3.646h.757v3.645zm3.013.066q-.6 0-.9-.336-.291-.343-.291-.986v-4.01h.756v3.966q0 .239.068.41a.5.5 0 0 0 .202.247q.135.082.337.082a2 2 0 0 0 .172-.008 1 1 0 0 0 .158-.03l-.015.606q-.128.03-.247.044-.12.015-.24.015m3.06 0q-.479 0-.83-.239a1.2 1.2 0 0 1-.472-.65h.082v.822h-.742v-5.265h.757v2.42h-.09a1.12 1.12 0 0 1 .472-.628q.353-.24.824-.239.494 0 .854.232.36.23.554.65.202.417.202 1.008 0 .575-.202 1.008-.195.426-.562.657-.36.224-.846.224m-.186-.582q.471 0 .749-.336.285-.336.284-.971 0-.642-.284-.971-.277-.33-.75-.329-.464 0-.748.329-.285.329-.285.97 0 .636.285.972t.749.336m4.365.582q-.6 0-1.034-.224a1.67 1.67 0 0 1-.667-.65q-.232-.425-.232-1.008 0-.568.232-.993t.637-.665.921-.239q.51 0 .869.224.367.217.562.62t.195.964v.254h-2.817v-.463h2.307l-.127.104q0-.56-.247-.866-.247-.307-.712-.307-.352 0-.6.165-.239.165-.366.455-.128.291-.128.68v.045q0 .434.135.732a1 1 0 0 0 .412.44q.27.15.667.15.315 0 .614-.097a1.9 1.9 0 0 0 .577-.321l.225.522q-.247.225-.637.351-.39.127-.787.127m2.308-.067v-3.645h.735v.874h-.075q.12-.448.426-.68.315-.23.832-.268l.247-.015.053.642-.457.045q-.487.045-.742.306t-.255.717v2.024zm4.558.067q-.682 0-1.027-.35-.337-.352-.337-1.016V49.67h-.711v-.583h.711V47.99h.757v1.098h1.131v.583h-1.131v1.703q0 .396.165.597.172.202.554.202.112 0 .225-.03l.232-.06.12.568a1 1 0 0 1-.315.105q-.195.044-.374.044m2.856 0q-.6 0-1.033-.224a1.67 1.67 0 0 1-.667-.65q-.232-.425-.232-1.008 0-.568.232-.993t.637-.665.92-.239q.51 0 .87.224.367.217.562.62t.194.964v.254h-2.816v-.463h2.307l-.127.104q0-.56-.248-.866-.247-.307-.711-.307-.352 0-.6.165-.24.165-.366.455-.128.291-.128.68v.045q0 .434.135.732a1 1 0 0 0 .412.44q.27.15.667.15.315 0 .614-.097a1.9 1.9 0 0 0 .577-.321l.225.522q-.248.225-.637.351-.39.127-.787.127m3.589 0a3 3 0 0 1-.57-.052 2.5 2.5 0 0 1-.509-.15 1.8 1.8 0 0 1-.411-.238l.217-.508a3 3 0 0 0 .397.224q.21.09.434.134.233.045.45.045.396 0 .599-.142a.44.44 0 0 0 .202-.38.36.36 0 0 0-.135-.3.96.96 0 0 0-.404-.171l-.712-.142q-.464-.098-.704-.344a.86.86 0 0 1-.24-.627q0-.344.188-.598.187-.253.524-.388.337-.142.779-.142.255 0 .494.052.24.053.45.15.217.097.367.246l-.217.508a1.68 1.68 0 0 0-.704-.351 1.5 1.5 0 0 0-.39-.052q-.397 0-.6.15a.46.46 0 0 0-.194.388q0 .186.12.306t.374.172l.712.141q.488.097.734.33.255.231.255.627a.98.98 0 0 1-.187.597q-.188.255-.532.388a2.2 2.2 0 0 1-.787.127m5.978 0q-.54 0-.936-.171a1.4 1.4 0 0 1-.6-.478 1.24 1.24 0 0 1-.21-.717q0-.336.12-.613.128-.276.368-.515.247-.24.599-.456l.247-.157-.105.165a3 3 0 0 1-.494-.658 1.35 1.35 0 0 1-.142-.597q0-.359.164-.628.172-.276.48-.425.315-.15.726-.15.383 0 .66.135t.434.38q.157.248.157.59 0 .27-.112.516-.105.246-.352.478a3.7 3.7 0 0 1-.674.478l.007-.187 1.349 1.472h-.165q.18-.306.285-.74.105-.432.127-.91h.636q-.015.619-.18 1.164a3.4 3.4 0 0 1-.434.949l-.007-.202 1.168 1.21h-.921l-.66-.717h.18q-.314.366-.764.575-.441.21-.95.21m.038-.605q.404 0 .711-.156.308-.166.555-.478l-.023.209-1.565-1.666.307.023-.225.141q-.285.187-.465.352-.172.164-.254.35-.075.18-.075.404 0 .38.262.605.27.216.772.216m.18-4.242q-.3 0-.488.172a.6.6 0 0 0-.18.463q0 .15.046.284.045.126.164.291.128.157.338.388h-.188q.345-.209.54-.366.194-.157.284-.313a.67.67 0 0 0 .09-.336q0-.277-.172-.426a.6.6 0 0 0-.435-.157m5.218 4.779v-.567l3.109-4.31v.261h-3.109v-.65h3.835v.568l-3.116 4.31v-.262h3.229v.65zm4.567-4.489v-.784h.884v.784zm.068 4.49v-3.646h.756v3.645zm1.821-.001v-3.645h.734v.777h-.082q.165-.418.517-.627.351-.217.809-.217.435 0 .719.164.293.158.434.486.143.32.143.814v2.248h-.757V50.53q0-.315-.082-.508a.6.6 0 0 0-.248-.299.83.83 0 0 0-.426-.097q-.3 0-.532.127a.9.9 0 0 0-.352.366q-.12.24-.12.553v2.061zm4.316 0v-3.645h.734v.777h-.082q.165-.418.517-.627.351-.217.809-.217.435 0 .719.164.293.158.434.486.143.32.143.814v2.248h-.757V50.53q0-.315-.082-.508a.6.6 0 0 0-.248-.299.83.83 0 0 0-.427-.097q-.3 0-.531.127a.9.9 0 0 0-.352.366q-.12.24-.12.553v2.061z"/><defs><linearGradient id="a" x1="68.1" x2="21.9" y1="6.9" y2="83.1" gradientUnits="userSpaceOnUse"><stop stop-color="#0E2930"/><stop offset=".5" stop-color="#53696A"/><stop offset="1" stop-color="#0E2930"/></linearGradient><linearGradient id="b" x1="85.8" x2="12" y1="60.3" y2="75.9" gradientUnits="userSpaceOnUse"><stop stop-color="#0E2930"/><stop offset="1" stop-color="#fff" stop-opacity="0"/></linearGradient><linearGradient id="c" x1="85.8" x2="12" y1="60.3" y2="75.9" gradientUnits="userSpaceOnUse"><stop stop-color="#0E2930"/><stop offset="1" stop-color="#fff" stop-opacity="0"/></linearGradient><linearGradient id="d" x1="85.8" x2="12" y1="60.3" y2="75.9" gradientUnits="userSpaceOnUse"><stop stop-color="#0E2930"/><stop offset="1" stop-color="#fff" stop-opacity="0"/></linearGradient><linearGradient id="f" x1="57.6" x2="9.6" y1="7.2" y2="60.72" gradientUnits="userSpaceOnUse"><stop stop-color="#0E2930"/><stop offset="1" stop-color="#fff" stop-opacity="0"/></linearGradient><linearGradient id="g" x1="57.6" x2="9.6" y1="7.2" y2="60.72" gradientUnits="userSpaceOnUse"><stop stop-color="#0E2930"/><stop offset="1" stop-color="#fff" stop-opacity="0"/></linearGradient><linearGradient id="h" x1="45" x2="45" y1="25.801" y2="42.601" gradientUnits="userSpaceOnUse"><stop stop-color="#3A4B53"/><stop offset=".197" stop-color="#D0D0D0"/><stop offset=".505" stop-color="#fff"/><stop offset=".798" stop-color="#2D3E46"/><stop offset="1" stop-color="#556369"/></linearGradient><filter id="e" width="72" height="72" x="9" y="9" color-interpolation-filters="sRGB" filterUnits="userSpaceOnUse"><feFlood flood-opacity="0" result="BackgroundImageFix"/><feBlend in="SourceGraphic" in2="BackgroundImageFix" result="shape"/><feColorMatrix in="SourceAlpha" result="hardAlpha" values="0 0 0 0 0 0 0 0 0 0 0 0 0 0 0 0 0 0 127 0"/><feOffset/><feGaussianBlur stdDeviation="2.5"/><feComposite in2="hardAlpha" k2="-1" k3="1" operator="arithmetic"/><feColorMatrix values="0 0 0 0 0 0 0 0 0 0.0823529 0 0 0 0 0.0980392 0 0 0 0.5 0"/><feBlend in2="shape" result="effect1_innerShadow_105_88"/></filter></defs></svg>