<?xml version="1.0" encoding="utf-8"?>
<!-- Generator: Adobe Illustrator 26.0.1, SVG Export Plug-In . SVG Version: 6.00 Build 0)  -->
<svg version="1.1" id="Layer_1" xmlns="http://www.w3.org/2000/svg" xmlns:xlink="http://www.w3.org/1999/xlink" x="0px" y="0px"
	 viewBox="0 0 464 381" style="enable-background:new 0 0 464 381;" xml:space="preserve">
<style type="text/css">
	.st0{fill:#E0B443;}
</style>
<path class="st0" d="M462.5,340.4C398,323.9,318,314.2,231.2,314.2S64.4,323.9,0,340.4c58.6-24.4,140.6-39.5,231.2-39.5
	S403.8,316,462.5,340.4z"/>
<path class="st0" d="M430.1,106.4c-1.6-1.6-3.4-3-5.3-4.3c-0.3-0.2-0.7-0.4-1-0.6c-0.8-0.5-1.7-1-2.6-1.4c-0.3-0.2-0.7-0.4-1-0.5
	c-0.4-0.2-0.7-0.3-1.1-0.5c-0.1-0.1-1.4-0.6-1.8-0.7c-2-0.7-4-1.2-6.1-1.6l-1.3-0.2c-0.4,0-0.8-0.1-1.2-0.1c-0.4,0-0.9-0.1-1.4-0.1
	c-0.5,0-1,0-1.6,0s-1,0-1.5,0l-1.6,0.1l0,0c-2.7,0.3-5.4,1-7.9,2.1c-2.5,1.1-4.9,2.5-7,4.2c-4.2,3.5-7.3,8.1-9,13.3
	c-0.8,2.6-1.3,5.2-1.3,7.9c-0.1,2.8,0.3,5.6,1.2,8.2c1.8,5.3,5.5,9.8,10.3,12.6c2.4,1.4,4.9,2.3,7.6,2.7c1.3,0.2,2.7,0.3,4,0.3
	c0.7,0,1.3-0.1,2-0.1c0.7-0.1,1.3-0.2,2-0.4c5.3-1.3,9.7-4.9,12-9.8c1.1-2.3,1.6-4.9,1.5-7.4c0-2.5-0.8-5-2.2-7.1
	c-1.3-2-3.2-3.6-5.3-4.6c-2-0.9-4.3-1.2-6.5-0.8c3.9,0.6,7.2,3.3,8.5,7.1c0.5,1.6,0.6,3.4,0.2,5.1c-0.3,1.7-1,3.2-2,4.6
	c-1.8,2.5-4.7,4.1-7.8,4.4c-1.5,0.1-3-0.1-4.5-0.6c-1.4-0.4-2.8-1.1-4-2.1c-3.6-2.6-5.4-6.9-4.9-11.3c0.1-1.5,0.4-3,1-4.4
	c0.2-0.5,0.4-1,0.7-1.5c0.1-0.2,0.2-0.3,0.2-0.5c2.1-4,5.8-6.9,10.2-8c0.3-0.1,0.6-0.1,0.9-0.2c0.4-0.1,0.7-0.1,1.1-0.2
	c0.5-0.1,1.1-0.1,1.6-0.1c11.7-0.1,21.2,9.3,21.3,21c0,0,0,0.1,0,0.1c0.1,14.7-13.7,28.1-32.7,28.1H248.7c-6.5,0-11.7,5.2-11.7,11.7
	c0,0,0,0,0,0v116.1c9.4,0.5,18.7,1.2,27.9,2.1V181.3c0-3,2.5-5.5,5.5-5.5c0,0,0,0,0,0h11.8c3,0,5.5,2.5,5.5,5.5v107.3
	c9.5,1.2,18.8,2.5,27.9,4V180.2c0-2.4,2-4.4,4.4-4.4c0,0,0,0,0,0h14c2.4,0,4.4,2,4.4,4.4v0v115.3c9.6,2,18.9,4.1,27.9,6.5V194.9
	c6.4,5.3,15.8,4.5,21.1-1.9c5.1-6.1,4.5-15.1-1.3-20.6c0,0,26.5,3.2,41.9-12.2c0.5-0.4,0.9-0.9,1.3-1.4c7-7.7,10.8-17.6,10.7-28
	C440.2,121.6,436.6,112.8,430.1,106.4z M375.6,190.4c-4.1,0-7.4-3.3-7.4-7.4c0-4.1,3.3-7.4,7.4-7.4c3.5,0,6.4,2.4,7.2,5.7
	c1,4-1.5,8-5.5,9C376.8,190.4,376.2,190.4,375.6,190.4L375.6,190.4z"/>
<path class="st0" d="M22.2,130.8c-0.1,10.4,3.8,20.3,10.7,28c0.4,0.5,0.9,0.9,1.3,1.4c15.5,15.5,41.9,12.2,41.9,12.2
	c-5.9,5.8-6,15.3-0.3,21.2c5.4,5.5,14.1,6.1,20.1,1.2V302c9-2.3,18.3-4.5,27.9-6.5V180.2c0-2.4,2-4.4,4.4-4.4c0,0,0,0,0,0h14
	c2.4,0,4.4,2,4.4,4.4c0,0,0,0,0,0v112.5c9.1-1.5,18.4-2.9,27.9-4V181.3c0-3,2.5-5.5,5.5-5.5H192c3,0,5.5,2.5,5.5,5.5c0,0,0,0,0,0
	v107.6c9.1-0.9,18.4-1.5,27.9-2.1V170.6c0-6.5-5.2-11.7-11.7-11.7c0,0,0,0,0,0H68.3c-19,0-32.8-13.4-32.7-28.1
	c0-11.7,9.5-21.1,21.2-21.1c0,0,0,0,0,0c0.5,0,1.1,0,1.6,0.1c0.4,0,0.8,0.1,1.1,0.2c0.3,0,0.6,0.1,0.9,0.2c4.4,1.1,8.1,4,10.2,8
	c0.1,0.2,0.2,0.3,0.3,0.5c0.3,0.5,0.5,1,0.7,1.5c0.6,1.4,0.9,2.9,1,4.4c0.2,1.4,0.1,2.8-0.2,4.2c-0.7,2.8-2.4,5.3-4.7,7
	c-1.2,0.9-2.6,1.6-4,2.1c-1.5,0.4-3,0.6-4.5,0.6c-3.1-0.2-6-1.8-7.8-4.4c-1-1.3-1.7-2.9-2-4.6c-0.4-1.7-0.3-3.4,0.2-5.1
	c1.3-3.8,4.6-6.5,8.6-7.1c-2.2-0.4-4.5-0.1-6.5,0.8c-2.2,1-4.1,2.6-5.4,4.6c-1.4,2.1-2.1,4.6-2.2,7.1c-0.1,2.6,0.4,5.1,1.5,7.4
	c2.3,4.9,6.7,8.5,12,9.8c0.7,0.2,1.3,0.3,2,0.4c0.7,0.1,1.3,0.1,2,0.1c1.3,0,2.7-0.1,4-0.3c2.7-0.4,5.3-1.3,7.7-2.6
	c4.8-2.8,8.5-7.2,10.3-12.5c0.9-2.7,1.4-5.5,1.3-8.3c0-2.7-0.5-5.4-1.3-7.9c-1.7-5.2-4.8-9.8-9-13.3c-2.1-1.7-4.5-3.1-7-4.2
	c-2.5-1-5.2-1.7-7.9-2.1l0,0l-1.6-0.1c-0.5,0-1,0-1.5,0s-1,0-1.6,0s-0.9,0-1.4,0.1s-0.8,0.1-1.2,0.1l-1.3,0.2
	c-2.1,0.3-4.1,0.9-6.1,1.6c-0.4,0.1-1.7,0.6-1.8,0.7c-0.4,0.1-0.7,0.3-1.1,0.5c-0.3,0.2-0.7,0.3-1,0.5c-0.9,0.4-1.7,0.9-2.6,1.4
	c-0.3,0.2-0.7,0.4-1,0.6c-1.9,1.2-3.7,2.7-5.3,4.3C25.9,112.8,22.2,121.6,22.2,130.8z M79.6,181.3c0.9-4,4.9-6.5,8.9-5.5
	c4,0.9,6.5,4.9,5.5,8.9c-0.8,3.4-3.8,5.7-7.2,5.7c-4.1,0-7.4-3.2-7.4-7.3C79.4,182.5,79.5,181.9,79.6,181.3z"/>
<path class="st0" d="M11.2,73h440.1c1.6,0,2.9,1.3,2.9,2.9v7.3c0,1.6-1.3,2.9-2.9,2.9H11.2c-1.6,0-2.9-1.3-2.9-2.9v-7.3
	C8.3,74.3,9.6,73,11.2,73z"/>
<path class="st0" d="M101.2,128.9h260c1.6,0,2.9,1.3,2.9,2.9v7.3c0,1.6-1.3,2.9-2.9,2.9h-260c-1.6,0-2.9-1.3-2.9-2.9v-7.3
	C98.4,130.2,99.6,128.9,101.2,128.9z"/>
<path class="st0" d="M101.2,106.5h260c1.6,0,2.9,1.3,2.9,2.9v7.3c0,1.6-1.3,2.9-2.9,2.9h-260c-1.6,0-2.9-1.3-2.9-2.9v-7.3
	C98.4,107.8,99.6,106.5,101.2,106.5z"/>
<path class="st0" d="M13.9,381c-1.8,0-3.7-0.4-5.3-1.2c-1.6-0.8-2.9-2.1-3.8-3.6c-1-1.8-1.4-3.8-1.4-5.8c0-1.6,0.3-3.1,0.8-4.5
	c0.5-1.3,1.3-2.4,2.3-3.3c1-0.9,2.1-1.6,3.4-2c1.3-0.5,2.7-0.7,4.1-0.7c1.1,0,2.1,0.1,3.1,0.4c1,0.3,1.9,0.6,2.8,1.1l0.1,4h-0.8
	l-1.3-2.5c-0.2-0.4-0.4-0.7-0.7-1.1c-0.2-0.3-0.5-0.6-0.9-0.7c-0.6-0.3-1.2-0.4-1.8-0.4c-1.2,0-2.3,0.3-3.3,0.9
	c-1.1,0.7-1.9,1.8-2.4,3c-0.7,1.8-1,3.8-0.9,5.8c-0.1,2,0.2,3.9,0.8,5.8c0.7,2.4,3,4,5.5,3.9c0.4,0,0.9,0,1.3-0.1
	c0.3-0.1,0.7-0.2,1-0.3c0.4-0.1,0.7-0.4,1-0.7c0.2-0.3,0.4-0.7,0.6-1.1l1.2-2.8h0.8l-0.1,4.4c-0.9,0.5-1.9,0.9-2.9,1.1
	C16.2,380.9,15,381,13.9,381z"/>
<path class="st0" d="M31.2,381c-1.2,0-2.4-0.2-3.6-0.7c-1.1-0.5-2.2-1.1-3.1-2c-0.9-0.9-1.7-2.1-2.2-3.3c-0.6-1.5-0.8-3.1-0.8-4.6
	c0-1.6,0.2-3.1,0.8-4.6c0.5-1.2,1.2-2.4,2.2-3.3c0.9-0.9,1.9-1.5,3.1-2c2.3-0.9,4.8-0.9,7.1,0c1.1,0.5,2.2,1.1,3.1,2
	c0.9,0.9,1.6,2,2.1,3.3c1.1,3,1.1,6.2,0,9.2c-0.5,1.2-1.2,2.4-2.1,3.3c-0.9,0.9-1.9,1.5-3,2C33.6,380.8,32.4,381,31.2,381z
	 M31.2,380.1c1,0,2-0.3,2.8-0.9c0.8-0.8,1.4-1.9,1.5-3c0.7-3.8,0.7-7.7,0-11.5c-0.2-1.1-0.7-2.2-1.5-3c-1.7-1.2-3.9-1.2-5.6,0
	c-0.8,0.8-1.4,1.9-1.6,3c-0.7,3.8-0.7,7.7,0,11.5c0.2,1.1,0.7,2.2,1.6,3C29.2,379.8,30.2,380.1,31.2,380.1z"/>
<path class="st0" d="M41.4,380.5v-0.7l0.6-0.2c0.3-0.1,0.6-0.3,0.8-0.6c0.2-0.3,0.2-0.7,0.2-1.1v-15.1c0-0.3,0-0.7-0.2-1
	c-0.2-0.3-0.4-0.5-0.8-0.6l-0.7-0.3v-0.7h5.8l5.7,14.9l5.4-14.9h5.9v0.7l-0.5,0.1c-0.3,0.1-0.6,0.3-0.8,0.6c-0.2,0.3-0.2,0.7-0.2,1
	c0,1.2,0,2.4,0,3.5v8.3c0,1.2,0,2.4,0,3.5c0,0.3,0,0.7,0.2,1c0.2,0.3,0.4,0.5,0.7,0.5l0.6,0.2v0.7h-7.3v-0.7l0.7-0.2
	c0.3-0.1,0.6-0.3,0.7-0.6c0.1-0.3,0.1-0.7,0.1-1v-6.6l0.1-8.2l-6.2,17.2h-1.7l-6.5-17l0.1,6.9v7.5c0,0.4,0,0.7,0.2,1.1
	c0.2,0.3,0.4,0.5,0.8,0.5l0.6,0.2v0.7L41.4,380.5z"/>
<path class="st0" d="M65.6,380.5v-0.7l0.6-0.2c0.3-0.1,0.6-0.3,0.8-0.6c0.2-0.3,0.2-0.7,0.2-1.1v-15.1c0-0.3,0-0.7-0.2-1
	c-0.2-0.3-0.4-0.5-0.8-0.6l-0.7-0.3v-0.7h5.8l5.7,14.9l5.4-14.9h5.9v0.7l-0.5,0.1c-0.3,0.1-0.6,0.3-0.8,0.6c-0.2,0.3-0.2,0.7-0.2,1
	c0,1.2,0,2.4,0,3.5v8.3c0,1.2,0,2.4,0,3.5c0,0.3,0,0.7,0.2,1c0.2,0.3,0.4,0.5,0.7,0.5l0.6,0.2v0.7h-7.4v-0.7l0.7-0.2
	c0.3-0.1,0.6-0.3,0.7-0.6c0.1-0.3,0.1-0.7,0.1-1v-6.6l0.1-8.2l-6.2,17.2h-1.7l-6.6-17l0.1,6.9v7.5c0,0.4,0,0.7,0.2,1.1
	c0.2,0.3,0.4,0.5,0.8,0.5l0.6,0.2v0.7L65.6,380.5z"/>
<path class="st0" d="M89.9,380.5v-0.6l0.6-0.2c0.3-0.1,0.6-0.3,0.8-0.5c0.2-0.3,0.2-0.7,0.2-1v-15.3c0-0.3-0.1-0.7-0.2-1
	c-0.2-0.3-0.4-0.5-0.8-0.5l-0.6-0.2v-0.6h14.5l0.2,4.9h-0.8l-1.2-2.7c-0.1-0.3-0.3-0.6-0.6-0.9c-0.2-0.2-0.6-0.3-0.9-0.3h-5.2
	c0,1.3,0,2.5,0,3.9v4.5h3c0.3,0,0.7-0.1,0.9-0.3c0.2-0.3,0.4-0.5,0.6-0.9l0.5-1.1h0.7v5.6h-0.7l-0.6-1.2c-0.1-0.3-0.3-0.6-0.6-0.9
	c-0.2-0.2-0.6-0.4-0.9-0.3h-3v3.8c0,1,0,2,0,2.8s0,1.6,0,2.4h5.8c0.3,0,0.7-0.1,0.9-0.3c0.2-0.3,0.4-0.6,0.6-0.9l1.1-2.7h0.8
	l-0.2,4.9L89.9,380.5z"/>
<path class="st0" d="M106.7,380.5v-0.6l0.6-0.2c0.3-0.1,0.6-0.3,0.8-0.5c0.1-0.3,0.2-0.7,0.2-1c0-1.2,0-2.4,0-3.5v-8.3
	c0-1.2,0-2.4,0-3.5c0-0.3,0-0.7-0.2-1c-0.2-0.3-0.4-0.5-0.8-0.5l-0.7-0.2v-0.6h8.5c1.9-0.1,3.8,0.4,5.5,1.4c1.3,0.8,2,2.3,1.9,3.8
	c0,1-0.4,1.9-1.1,2.7c-0.8,1-2,1.7-3.2,2.1l4.1,8.1c0.3,0.7,0.9,1.2,1.6,1.4l0.6,0.1v0.6h-5.4l-4.5-9.5h-2.2v3.9c0,1.1,0,2.2,0,3.2
	c0,0.3,0,0.7,0.2,1c0.2,0.3,0.5,0.5,0.8,0.5l0.7,0.2v0.6L106.7,380.5z M112.6,370.1h1.6c1.2,0.1,2.3-0.3,3.2-1.1
	c0.7-1,1.1-2.1,1-3.4c0.1-1.2-0.3-2.4-1-3.3c-0.8-0.8-2-1.2-3.1-1.1h-1.7c0,0.8,0,1.6,0,2.4s0,1.8,0,2.8L112.6,370.1z"/>
<path class="st0" d="M135.5,381c-1.8,0-3.7-0.4-5.3-1.2c-1.6-0.8-2.9-2.1-3.8-3.6c-1-1.8-1.4-3.8-1.4-5.8c0-1.5,0.2-3.1,0.8-4.5
	c0.5-1.3,1.3-2.4,2.3-3.3c1-0.9,2.1-1.6,3.4-2c1.3-0.5,2.7-0.7,4.1-0.7c1.1,0,2.1,0.1,3.1,0.4c1,0.3,1.9,0.6,2.8,1.1l0.1,4h-0.9
	l-1.2-2.5c-0.2-0.4-0.4-0.7-0.7-1.1c-0.2-0.3-0.5-0.6-0.9-0.7c-0.6-0.3-1.2-0.4-1.8-0.4c-1.2,0-2.3,0.3-3.3,0.9
	c-1.1,0.7-1.9,1.8-2.4,3c-0.7,1.8-1,3.8-0.9,5.8c-0.1,2,0.2,3.9,0.8,5.8c0.7,2.4,3,4,5.5,3.9c0.4,0,0.9,0,1.3-0.1
	c0.3-0.1,0.7-0.2,1-0.3c0.4-0.1,0.7-0.4,0.9-0.7c0.2-0.3,0.4-0.7,0.6-1.1l1.2-2.8h0.8l-0.1,4.4c-0.9,0.5-1.9,0.9-2.9,1.1
	C137.9,380.9,136.7,381,135.5,381z"/>
<path class="st0" d="M143.5,380.5v-0.6l0.6-0.2c0.3-0.1,0.6-0.3,0.8-0.5c0.2-0.3,0.2-0.7,0.2-1v-15.3c0-0.3-0.1-0.7-0.2-1
	c-0.2-0.3-0.4-0.5-0.8-0.5l-0.6-0.2v-0.6H158l0.2,4.9h-0.9l-1.2-2.7c-0.1-0.3-0.3-0.6-0.5-0.9c-0.3-0.2-0.6-0.3-0.9-0.3h-5.2
	c0,1.3,0,2.5,0,3.9v4.5h3c0.3,0,0.7-0.1,0.9-0.3c0.2-0.3,0.4-0.5,0.6-0.9l0.5-1.1h0.7v5.6h-0.7l-0.6-1.2c-0.1-0.3-0.3-0.6-0.5-0.9
	c-0.2-0.2-0.6-0.4-0.9-0.3h-3v3.8c0,1,0,2,0,2.8s0,1.6,0,2.4h5.8c0.3,0,0.7-0.1,0.9-0.3c0.2-0.3,0.4-0.6,0.5-0.9l1.1-2.7h0.9
	l-0.2,4.9L143.5,380.5z"/>
<path class="st0" d="M167,380.5v-0.6l0.6-0.2c0.7-0.2,1.1-0.8,1-1.5c0-1.1,0-2.3,0-3.5v-8.3c0-1.2,0-2.4,0-3.5
	c0.1-0.7-0.3-1.3-0.9-1.5l-0.6-0.2v-0.6h8c1.9,0,3.8,0.4,5.5,1.2c1.5,0.8,2.7,2,3.6,3.4c0.9,1.7,1.3,3.5,1.2,5.4
	c0.1,1.9-0.4,3.8-1.4,5.5c-0.9,1.5-2.2,2.7-3.8,3.4c-1.8,0.8-3.7,1.2-5.7,1.2L167,380.5z M173,379.6h1.6c1.2,0.1,2.5-0.2,3.5-0.9
	c1-0.7,1.7-1.7,2-2.9c0.9-3.6,0.9-7.3,0-10.9c-0.3-1.2-1-2.2-2-2.9c-1-0.6-2.2-0.9-3.4-0.9H173c0,1.4,0,2.8,0,4.2v9.8
	C173,376.7,173,378.2,173,379.6L173,379.6z"/>
<path class="st0" d="M185.9,380.5v-0.6l0.6-0.2c0.3-0.1,0.6-0.3,0.8-0.5c0.2-0.3,0.3-0.7,0.2-1v-15.3c0-0.3-0.1-0.7-0.2-1
	c-0.2-0.3-0.5-0.5-0.8-0.5l-0.6-0.2v-0.6h14.5l0.2,4.9h-0.9l-1.2-2.7c-0.1-0.3-0.3-0.6-0.6-0.9c-0.2-0.2-0.6-0.3-0.9-0.3h-5.2
	c0,1.3,0,2.5,0,3.9v4.5h3c0.3,0,0.7-0.1,0.9-0.3c0.2-0.3,0.4-0.5,0.6-0.9l0.5-1.1h0.7v5.6H197l-0.5-1.2c-0.1-0.3-0.3-0.6-0.5-0.9
	c-0.2-0.2-0.6-0.4-0.9-0.3h-3v3.8c0,1,0,2,0,2.8s0,1.6,0,2.4h5.9c0.3,0,0.7-0.1,0.9-0.3c0.2-0.3,0.4-0.6,0.6-0.9l1.1-2.7h0.9
	l-0.2,4.9L185.9,380.5z"/>
<path class="st0" d="M209.4,380.5v-0.7l0.6-0.2c0.3-0.1,0.6-0.3,0.8-0.6c0.2-0.3,0.2-0.7,0.2-1.1v-15.1c0-0.3,0-0.7-0.1-1
	c-0.2-0.3-0.4-0.5-0.8-0.6l-0.7-0.3v-0.7h5.8l5.7,14.9l5.4-14.9h5.9v0.7l-0.5,0.1c-0.3,0.1-0.6,0.3-0.8,0.6c-0.2,0.3-0.2,0.7-0.2,1
	c0,1.2,0,2.4,0,3.5v8.3c0,1.2,0,2.4,0,3.5c0,0.3,0,0.7,0.1,1c0.2,0.3,0.4,0.5,0.7,0.5l0.6,0.2v0.7h-7.4v-0.7l0.7-0.2
	c0.3-0.1,0.6-0.3,0.7-0.6c0.1-0.3,0.2-0.7,0.1-1v-6.6l0.1-8.2l-6.2,17.2h-1.7l-6.6-17l0.1,6.9v7.5c0,0.4,0,0.7,0.2,1.1
	c0.2,0.3,0.4,0.5,0.8,0.5l0.6,0.2v0.7L209.4,380.5z"/>
<path class="st0" d="M233.7,380.5v-0.6l0.6-0.2c0.3-0.1,0.6-0.3,0.8-0.5c0.2-0.3,0.3-0.7,0.2-1v-15.3c0-0.3-0.1-0.7-0.2-1
	c-0.2-0.3-0.4-0.5-0.8-0.5l-0.6-0.2v-0.6h14.5l0.2,4.9h-0.9l-1.2-2.7c-0.1-0.3-0.3-0.6-0.5-0.9c-0.2-0.2-0.6-0.3-0.9-0.3h-5.2
	c0,1.3,0,2.5,0,3.9v4.5h3c0.3,0,0.7-0.1,0.9-0.3c0.2-0.3,0.4-0.5,0.6-0.9l0.5-1.1h0.7v5.6h-0.7l-0.5-1.2c-0.1-0.3-0.3-0.6-0.5-0.9
	c-0.2-0.2-0.6-0.4-0.9-0.3h-3v3.8c0,1,0,2,0,2.8s0,1.6,0,2.4h5.9c0.3,0,0.7-0.1,0.9-0.3c0.2-0.3,0.4-0.6,0.5-0.9l1.1-2.7h0.9
	l-0.2,4.9L233.7,380.5z M239,358.3c0.5-0.5,1.1-1.1,1.6-1.6l1.6-1.6c0.3-0.4,0.7-0.8,1.2-1c0.3-0.2,0.6-0.3,0.9-0.3
	c0.4,0,0.7,0.1,0.9,0.4c0.2,0.2,0.4,0.5,0.4,0.9c0,0.4-0.2,0.7-0.4,0.9c-0.4,0.4-0.9,0.7-1.4,0.9c-0.8,0.3-1.5,0.6-2.2,1
	s-1.4,0.6-2.2,1L239,358.3z"/>
<path class="st0" d="M254.7,380.5v-0.6l1.2-0.2c0.8-0.1,1.3-0.7,1.3-1.5v-12.6c0-1.4,0-2.8,0-4.3h-2.4c-0.5,0-1.1,0.1-1.4,0.5
	c-0.4,0.4-0.7,0.9-0.9,1.5l-1.1,2.2h-0.9l0.1-5.1h17.5l0.1,5.1h-0.8l-1.1-2.2c-0.2-0.5-0.5-1-0.9-1.5c-0.4-0.4-0.9-0.6-1.4-0.5h-2.4
	v16.8c-0.1,0.8,0.5,1.4,1.3,1.5c0,0,0,0,0,0l1.2,0.2v0.6H254.7z"/>
<path class="st0" d="M266.8,380.5v-0.6l0.8-0.2c0.4-0.1,0.7-0.3,1-0.5c0.3-0.3,0.5-0.6,0.6-1l6.1-17.8h2.6l6.1,17.9
	c0.1,0.4,0.3,0.7,0.5,1c0.3,0.3,0.6,0.5,1,0.6l0.5,0.1v0.6h-7.7v-0.6l0.5-0.1c0.4-0.1,0.7-0.3,0.8-0.7c0.1-0.4,0.1-0.8-0.1-1.1
	l-1.3-3.9h-6.7l-1.4,3.9c-0.1,0.3-0.2,0.7-0.1,1.1c0.1,0.3,0.3,0.5,0.8,0.7l0.7,0.2v0.6L266.8,380.5z M271.8,373.1h6.1l-3-9.2
	L271.8,373.1z"/>
<path class="st0" d="M294.8,381c-1.4,0-2.7-0.3-4-0.8c-1.2-0.5-2.1-1.5-2.7-2.6c-0.7-1.5-1.1-3.1-1-4.7v-6.7c0-1.2,0-2.3,0-3.5
	c0.1-0.7-0.4-1.4-1.1-1.5l-0.7-0.1v-0.6h8.2v0.6l-0.9,0.2c-0.7,0.1-1.2,0.8-1.2,1.5c0,1.1,0,2.3,0,3.4v7.3c-0.1,1.5,0.3,3,1.2,4.3
	c0.9,0.9,2.1,1.4,3.4,1.3c1.4,0.1,2.7-0.4,3.7-1.4c1-1.2,1.4-2.7,1.3-4.2v-10.6c0-0.4-0.1-0.7-0.2-1.1c-0.2-0.3-0.5-0.5-0.8-0.6
	l-0.7-0.1v-0.6h4.6v0.6l-0.9,0.2c-0.3,0-0.6,0.2-0.8,0.5c-0.1,0.3-0.2,0.7-0.2,1v10.4c0.1,2.1-0.6,4.2-2,5.8
	C298.6,380.4,296.7,381.1,294.8,381z"/>
<path class="st0" d="M304.6,380.5v-0.6l0.5-0.1c0.4-0.1,0.8-0.3,1.1-0.5c0.3-0.3,0.6-0.6,0.8-1l4.6-7l-5.1-8.5
	c-0.2-0.3-0.4-0.6-0.6-0.9c-0.2-0.2-0.6-0.4-0.9-0.5l-0.5-0.2v-0.6h8v0.6l-0.6,0.1c-0.4,0.1-0.7,0.3-0.7,0.6c0,0.4,0.1,0.8,0.3,1.1
	l3,5.1l3.2-5c0.2-0.3,0.4-0.7,0.4-1.1c0-0.3-0.2-0.5-0.7-0.6l-0.5-0.1v-0.6h4.5v0.6l-0.7,0.2c-0.4,0.1-0.7,0.2-1,0.5
	c-0.3,0.3-0.5,0.6-0.7,1l-4,6.2l5.5,9.3c0.2,0.4,0.4,0.7,0.7,0.9c0.3,0.2,0.6,0.4,1,0.5l0.6,0.2v0.6h-8.3v-0.7l0.6-0.1
	c0.4,0,0.7-0.3,0.8-0.6c0.1-0.4,0-0.8-0.3-1.2l-3.5-5.8l-3.7,5.8c-0.2,0.3-0.4,0.7-0.3,1.2c0,0.3,0.2,0.5,0.7,0.6l0.4,0.1v0.6
	L304.6,380.5z"/>
<path class="st0" d="M330.4,380.5v-0.6l0.6-0.1c0.3-0.1,0.6-0.3,0.8-0.5c0.1-0.3,0.2-0.7,0.2-1c0-1.1,0-2.3,0-3.5v-8.4
	c0-1.2,0-2.4,0-3.5c0-0.3,0-0.7-0.2-1c-0.2-0.3-0.5-0.5-0.8-0.6l-0.6-0.2v-0.6h7.3c3,0,5.1,0.6,6.5,1.7c1.3,1.1,2.1,2.7,2,4.4
	c0,1.1-0.3,2.2-0.8,3.1c-0.6,1-1.6,1.8-2.8,2.3c-1.7,0.6-3.4,0.9-5.2,0.9h-1.1v2.6c0,0.9,0,1.8,0,2.8c-0.1,0.7,0.4,1.4,1.1,1.5
	l0.9,0.2v0.6L330.4,380.5z M336.4,371.8h1.3c0.9,0,1.7-0.1,2.5-0.5c0.7-0.3,1.2-0.9,1.4-1.6c0.4-1,0.5-2.1,0.5-3.2
	c0-1.1-0.1-2.2-0.5-3.2c-0.3-0.7-0.8-1.3-1.5-1.6c-0.8-0.3-1.6-0.5-2.5-0.5h-1.1c0,1.4,0,2.8,0,4.2L336.4,371.8L336.4,371.8z"/>
<path class="st0" d="M347.2,380.5v-0.6l0.6-0.2c0.3-0.1,0.6-0.3,0.8-0.5c0.1-0.3,0.2-0.7,0.2-1c0-1.2,0-2.4,0-3.5v-8.3
	c0-1.2,0-2.4,0-3.5c0-0.3,0-0.7-0.2-1c-0.2-0.3-0.4-0.5-0.8-0.5l-0.7-0.2v-0.6h8.5c1.9-0.1,3.8,0.4,5.5,1.4c1.3,0.8,2,2.3,1.9,3.8
	c0,1-0.4,1.9-1,2.7c-0.8,1-2,1.7-3.2,2.1l4.1,8.1c0.3,0.7,0.9,1.1,1.6,1.4l0.6,0.1v0.6h-5.4l-4.5-9.5h-2.2v3.9c0,1.1,0,2.2,0,3.2
	c0,0.3,0,0.7,0.2,1c0.2,0.3,0.5,0.5,0.8,0.5l0.7,0.2v0.6L347.2,380.5z M353.1,370.1h1.6c1.2,0.1,2.3-0.3,3.2-1.1
	c0.7-1,1.1-2.1,1-3.4c0.1-1.2-0.3-2.4-1-3.3c-0.8-0.8-2-1.2-3.1-1.1h-1.7c0,0.8,0,1.6,0,2.4s0,1.8,0,2.8L353.1,370.1z"/>
<path class="st0" d="M366.2,380.5v-0.6l0.6-0.2c0.3-0.1,0.6-0.3,0.8-0.5c0.2-0.3,0.2-0.7,0.2-1v-15.3c0-0.3-0.1-0.7-0.2-1
	c-0.2-0.3-0.4-0.5-0.8-0.5l-0.6-0.2v-0.6h14.5l0.2,4.9h-0.9l-1.2-2.7c-0.1-0.3-0.3-0.6-0.5-0.9c-0.2-0.2-0.6-0.3-0.9-0.3h-5.2
	c0,1.3,0,2.5,0,3.9v4.5h3c0.3,0,0.7-0.1,0.9-0.3c0.2-0.3,0.4-0.5,0.6-0.9l0.5-1.1h0.6v5.6h-0.7l-0.5-1.2c-0.1-0.3-0.3-0.6-0.5-0.9
	c-0.2-0.2-0.6-0.4-0.9-0.3h-3v3.8c0,1,0,2,0,2.8s0,1.6,0,2.4h5.8c0.3,0,0.7-0.1,0.9-0.3c0.2-0.3,0.4-0.6,0.5-0.9l1.1-2.7h0.9
	l-0.2,4.9L366.2,380.5z M371.5,358.3l1.6-1.6l1.5-1.6c0.3-0.4,0.8-0.8,1.2-1c0.3-0.2,0.6-0.3,0.9-0.3c0.4,0,0.7,0.1,0.9,0.4
	c0.2,0.2,0.4,0.5,0.4,0.9c0,0.4-0.2,0.7-0.4,0.9c-0.4,0.4-0.9,0.7-1.4,0.9c-0.8,0.3-1.5,0.6-2.2,1s-1.4,0.6-2.2,1L371.5,358.3z"/>
<path class="st0" d="M393.2,381c-1.8,0-3.7-0.4-5.3-1.2c-1.6-0.8-2.9-2.1-3.8-3.6c-1-1.8-1.4-3.8-1.4-5.8c0-1.6,0.3-3.1,0.8-4.5
	c0.5-1.3,1.3-2.4,2.3-3.3c1-0.9,2.1-1.6,3.4-2c1.3-0.5,2.7-0.7,4.1-0.7c1.1,0,2.1,0.1,3.1,0.4c1,0.2,1.9,0.6,2.8,1.1l0.1,4h-0.8
	l-1.3-2.5c-0.2-0.4-0.4-0.7-0.7-1.1c-0.2-0.3-0.5-0.6-0.9-0.7c-0.6-0.3-1.2-0.4-1.8-0.4c-2.5-0.1-4.8,1.5-5.6,3.9
	c-0.7,1.8-1,3.8-0.9,5.8c-0.1,2,0.2,3.9,0.8,5.8c0.7,2.4,3,4,5.5,3.9c0.4,0,0.9,0,1.3-0.1c0.3-0.1,0.7-0.2,1-0.3
	c0.4-0.1,0.7-0.4,0.9-0.7c0.2-0.3,0.4-0.7,0.6-1.1l1.2-2.8h0.8l-0.1,4.4c-0.9,0.5-1.9,0.9-2.9,1.1C395.5,380.9,394.3,381,393.2,381z
	"/>
<path class="st0" d="M401.1,380.5v-0.6l0.6-0.2c0.3-0.1,0.6-0.3,0.8-0.6c0.1-0.3,0.2-0.7,0.2-1v-15.4c0-0.3,0-0.7-0.2-1
	c-0.2-0.3-0.5-0.5-0.8-0.6l-0.6-0.2v-0.6h7.6v0.6l-0.6,0.2c-0.3,0.1-0.6,0.3-0.8,0.6c-0.2,0.3-0.2,0.7-0.2,1v15.4
	c0,0.3,0.1,0.7,0.2,1c0.2,0.3,0.5,0.5,0.8,0.6l0.6,0.2v0.6L401.1,380.5z"/>
<path class="st0" d="M410.1,380.5v-0.6l0.6-0.2c0.3-0.1,0.6-0.3,0.8-0.5c0.2-0.3,0.2-0.7,0.2-1v-15.3c0-0.3-0.1-0.7-0.2-1
	c-0.2-0.3-0.4-0.5-0.8-0.5l-0.6-0.2v-0.6h14.5l0.2,4.9H424l-1.2-2.7c-0.1-0.3-0.3-0.6-0.5-0.9c-0.3-0.2-0.6-0.3-0.9-0.3h-5.2
	c0,1.3,0,2.5,0,3.9v4.5h3c0.3,0,0.7-0.1,0.9-0.3c0.2-0.3,0.4-0.5,0.6-0.9l0.5-1.1h0.7v5.6h-0.7l-0.5-1.2c-0.1-0.3-0.3-0.6-0.5-0.9
	c-0.2-0.2-0.6-0.4-0.9-0.3h-3v3.8c0,1,0,2,0,2.8s0,1.6,0,2.4h5.8c0.3,0,0.7-0.1,1-0.3c0.2-0.3,0.4-0.6,0.5-0.9l1.1-2.7h0.8l-0.2,4.9
	L410.1,380.5z"/>
<path class="st0" d="M435.9,381c-1.4,0-2.7-0.3-4-0.8c-1.2-0.5-2.1-1.5-2.7-2.6c-0.7-1.5-1.1-3.1-1-4.7v-6.7c0-1.2,0-2.3,0-3.5
	c0.1-0.7-0.4-1.4-1.1-1.5l-0.7-0.1v-0.6h8.2v0.6l-0.9,0.2c-0.7,0.1-1.2,0.8-1.2,1.5c0,1.1,0,2.3,0,3.4v7.3c-0.1,1.5,0.3,3,1.2,4.3
	c0.9,0.9,2.1,1.4,3.4,1.3c1.4,0.1,2.7-0.4,3.7-1.4c1-1.2,1.4-2.7,1.3-4.2v-10.6c0-0.4-0.1-0.7-0.2-1.1c-0.2-0.3-0.5-0.5-0.8-0.6
	l-0.7-0.1v-0.6h4.7v0.6l-0.8,0.2c-0.3,0-0.6,0.2-0.8,0.5c-0.1,0.3-0.2,0.7-0.2,1v10.4c0.1,2.1-0.6,4.2-2,5.8
	C439.8,380.4,437.9,381.1,435.9,381z"/>
<path class="st0" d="M445.8,380.5v-0.6l0.5-0.1c0.4-0.1,0.7-0.3,1-0.5c0.3-0.3,0.6-0.6,0.8-1l4.6-7l-5.1-8.5
	c-0.2-0.3-0.4-0.6-0.6-0.9c-0.2-0.2-0.5-0.4-0.9-0.5l-0.5-0.2v-0.6h8v0.6l-0.6,0.1c-0.4,0.1-0.7,0.3-0.7,0.6c0,0.4,0.1,0.8,0.3,1.1
	l3,5.1l3.2-5c0.2-0.3,0.4-0.7,0.4-1.1c0-0.3-0.2-0.5-0.6-0.6l-0.5-0.1v-0.6h4.5v0.6l-0.7,0.2c-0.4,0.1-0.7,0.2-1,0.5
	c-0.3,0.3-0.5,0.6-0.7,1l-4,6.2l5.5,9.3c0.2,0.4,0.4,0.7,0.7,0.9c0.3,0.2,0.6,0.4,1,0.5l0.6,0.2v0.6h-8.3v-0.7l0.6-0.1
	c0.4,0,0.7-0.3,0.8-0.6c0.1-0.4,0-0.8-0.3-1.2l-3.5-5.8l-3.7,5.8c-0.2,0.3-0.4,0.7-0.4,1.2c0,0.3,0.2,0.5,0.7,0.6l0.4,0.1v0.6
	L445.8,380.5z"/>
<path class="st0" d="M115.8,62.7c-3.4,0-6.8-0.4-10.1-1.2c-3-0.6-5.9-1.7-8.5-3.2l0.5-12.5h2.6l2.8,6.2c0.7,1.5,1.6,3,2.6,4.3
	c1,1.2,2.2,2.1,3.6,2.6c0.9,0.4,1.9,0.7,2.9,0.9c1,0.2,2.1,0.2,3.1,0.2c3.7,0,6.6-0.9,8.7-2.8c3.9-3.8,4.3-9.9,1-14.2
	c-2-2-4.4-3.6-7.1-4.7l-3.7-1.6c-4.4-1.8-8.5-4.4-11.9-7.7C99.5,26,98,22.1,98,17.2c-0.1-3.3,0.9-6.5,2.8-9.2
	c1.9-2.6,4.6-4.7,7.6-5.9c3.6-1.5,7.5-2.2,11.4-2.1c3,0,6.1,0.4,9,1.3c2.6,0.8,5.1,1.9,7.3,3.4l-0.7,11.2h-2.6l-3.3-6.8
	c-0.7-1.5-1.6-3-2.7-4.2c-0.9-0.9-2-1.5-3.2-1.7c-0.7-0.1-1.3-0.2-1.9-0.3c-0.7-0.1-1.3-0.1-2-0.1c-2.8-0.1-5.5,0.8-7.6,2.6
	c-2.1,1.7-3.3,4.3-3.2,7.1c-0.1,2.6,0.8,5.1,2.4,7c2,2.1,4.4,3.7,7,4.8l4.1,1.7c5.8,2.5,10,5.2,12.5,8.1c2.6,3.1,4,7,3.8,11
	c0.1,5-2.1,9.7-6,12.8C128.7,61.1,123,62.7,115.8,62.7z"/>
<path class="st0" d="M169.4,62.7c-4.1,0.1-8.2-0.7-11.9-2.4c-3.5-1.6-6.3-4.3-8.1-7.7c-2-3.5-2.9-8.2-2.9-13.9V18.8
	c0-3.4,0-6.9-0.1-10.4c0.2-2.1-1.3-4-3.3-4.4l-2-0.5V1.6h24.3v1.9l-2.5,0.5c-2.2,0.4-3.7,2.3-3.4,4.5c-0.1,3.4-0.1,6.7-0.1,10.1
	v21.7c0,5.8,1.2,10,3.6,12.6s5.8,3.9,10.2,3.9c4.6,0,8.2-1.4,10.9-4.2c2.6-2.8,3.9-7,3.9-12.5V8.9c0-1.1-0.2-2.2-0.7-3.2
	c-0.5-0.9-1.5-1.6-2.5-1.7l-2.2-0.5V1.6h13.9v1.9l-2.5,0.5c-1,0.1-1.9,0.7-2.3,1.6c-0.4,1-0.7,2-0.6,3.1v30.9c0,7.4-2,13.2-5.9,17.1
	C181,60.8,175.8,62.7,169.4,62.7z"/>
<path class="st0" d="M198.8,61.2v-1.9l1.8-0.5c1-0.3,1.8-0.8,2.4-1.7c0.4-0.9,0.6-1.9,0.6-2.9V8.7c0.1-1-0.1-2-0.6-2.9
	c-0.6-0.8-1.4-1.4-2.4-1.7l-1.8-0.5V1.6h22.5v1.9l-1.8,0.5c-0.9,0.3-1.8,0.9-2.4,1.7c-0.5,0.9-0.7,1.9-0.6,2.9v45.5
	c-0.1,1,0.2,2,0.6,2.9c0.6,0.8,1.4,1.4,2.4,1.7l1.8,0.5v1.9L198.8,61.2z"/>
<path class="st0" d="M244.6,62.7c-3.4,0-6.8-0.4-10.1-1.2c-3-0.7-5.8-1.7-8.5-3.2l0.5-12.5h2.6L232,52c0.7,1.5,1.6,3,2.6,4.3
	c0.9,1.2,2.2,2.1,3.6,2.6c0.9,0.4,1.9,0.7,2.9,0.9c1,0.2,2.1,0.2,3.1,0.2c3.7,0,6.6-0.9,8.7-2.8c3.9-3.8,4.3-9.9,1-14.2
	c-2-2-4.4-3.6-7.1-4.7l-3.7-1.6c-4.4-1.8-8.5-4.4-11.9-7.7c-2.9-2.9-4.4-6.8-4.4-11.7c-0.1-3.3,0.9-6.5,2.8-9.2
	c1.9-2.6,4.6-4.7,7.6-5.9c3.6-1.5,7.5-2.2,11.4-2.1c3,0,6.1,0.4,9,1.3c2.6,0.8,5,1.9,7.3,3.4l-0.6,11.2h-2.6l-3.3-6.8
	c-0.7-1.5-1.6-3-2.8-4.2c-0.9-0.9-2-1.5-3.2-1.7c-0.7-0.1-1.3-0.2-1.9-0.3c-0.7-0.1-1.3-0.1-2-0.1c-2.8-0.1-5.5,0.8-7.6,2.5
	c-2.1,1.7-3.3,4.3-3.2,7.1c-0.1,2.6,0.8,5.1,2.4,7c2,2.1,4.4,3.7,7,4.8l4.1,1.7c5.8,2.5,10,5.2,12.5,8.1c2.6,3.1,4,7,3.8,11
	c0.1,5-2.1,9.7-6,12.8C257.5,61.1,251.9,62.7,244.6,62.7z"/>
<path class="st0" d="M290.7,62.7c-3.4,0-6.8-0.4-10-1.2c-3-0.6-5.8-1.7-8.5-3.2l0.5-12.5h2.6l2.8,6.2c0.7,1.5,1.6,3,2.6,4.3
	c0.9,1.2,2.2,2.1,3.6,2.6c0.9,0.4,1.9,0.7,2.9,0.9c1,0.2,2.1,0.2,3.1,0.2c3.7,0,6.6-0.9,8.7-2.8c3.9-3.8,4.3-9.9,1-14.2
	c-2-2-4.5-3.6-7.1-4.7l-3.7-1.6c-4.4-1.8-8.5-4.4-11.9-7.7c-2.9-2.9-4.4-6.8-4.4-11.7c-0.1-3.3,0.9-6.5,2.8-9.2
	c1.9-2.6,4.6-4.7,7.6-5.9c3.6-1.5,7.5-2.2,11.4-2.1c3,0,6.1,0.4,9,1.3c2.6,0.8,5.1,1.9,7.3,3.4l-0.6,11.2h-2.6l-3.3-6.8
	c-0.7-1.6-1.6-3-2.8-4.2c-0.9-0.9-2-1.5-3.2-1.7c-0.7-0.1-1.3-0.2-1.9-0.3c-0.7-0.1-1.3-0.1-2-0.1c-2.8-0.1-5.5,0.8-7.6,2.6
	c-2.1,1.7-3.3,4.3-3.2,7.1c-0.1,2.6,0.8,5.1,2.4,7c2,2.1,4.4,3.7,7,4.8l4.1,1.7c5.8,2.5,10,5.2,12.5,8.1c2.6,3.1,4,7,3.8,11
	c0.1,5-2.1,9.7-6,12.8C303.6,61.1,297.9,62.7,290.7,62.7z"/>
<path class="st0" d="M317.8,61.2v-1.9l1.8-0.6c0.9-0.2,1.7-0.8,2.2-1.6c0.5-1,0.7-2,0.7-3.1V8.7c0-1-0.2-2-0.6-2.9
	c-0.5-0.8-1.3-1.4-2.2-1.6l-1.9-0.6V1.6h42.9l0.6,14.4h-2.5l-3.6-8.1c-0.4-1-0.9-1.9-1.6-2.7c-0.7-0.7-1.7-1-2.7-1h-15.3
	c-0.1,3.7-0.1,7.6-0.1,11.5v13.3h8.9c1,0.1,2-0.3,2.8-0.9c0.7-0.8,1.3-1.6,1.8-2.6l1.5-3.4h2v16.7h-2l-1.6-3.4
	c-0.4-1-0.9-1.8-1.6-2.6c-0.7-0.7-1.7-1.1-2.7-1h-9V43c0,3.1,0,5.9,0,8.3s0,4.8,0,7.2h17.4c1,0.1,2-0.3,2.8-0.9
	c0.7-0.8,1.3-1.7,1.6-2.7l3.3-8.1h2.5l-0.6,14.4H317.8z"/>
</svg>
