<svg xmlns="http://www.w3.org/2000/svg" width="112" height="68" fill="none"><g clip-path="url(#a)"><mask id="b" width="112" height="68" x="0" y="0" maskUnits="userSpaceOnUse" style="mask-type:luminance"><path fill="#fff" d="M112 0H0v68h112z"/></mask><g fill="#000" mask="url(#b)"><path d="M14.726 32.947H72.34l4.8-13.762 4.802 13.762h14.82L84.655 41.55l4.697 13.863L77.14 46.81l-21.5 21.15 21.5-15.18 21.5 15.078-8.246-24.59L112 28.09H85.385L77.14 3.501l-8.246 24.59H.114z"/><path d="M27.252 35.984h30.267l8.35 4.858H43.951zm-.453-13.769q-.345.182-.439.91l-.146 1.417v.02c-.041.89.126 1.579.522 2.085.167.324.355.506.605.587.126.425.293.749.501.95-1.085.062-1.628.143-1.628.203 0 .122 1.378.223 4.112.304s6.054.121 9.916.121c3.882 0 7.18-.04 9.915-.121s4.112-.182 4.112-.304c0-.08-.605-.162-1.837-.222h.063c.522-.122.918-.506 1.19-1.174q.312-.273.5-.607c.23-1.68.21-3.016-.02-4.007-.188-.81-.752-1.316-1.691-1.498l-1.253-.263c-1.064-.283-2.4-.465-4.007-.506-.126-.081-.23-.182-.355-.263-1.17-.85-2.234-1.396-3.194-1.68-.751-.263-1.753-.445-3.027-.526a30 30 0 0 0-4.467.02c-1.837.122-3.528.607-5.072 1.478-1.107.607-2.317 1.477-3.611 2.59q-.408.395-.69.486m1.002-.263 1.398-.264-1.19.061c1.086-.951 2.338-1.8 3.737-2.57 1.252-.688 2.693-1.073 4.3-1.153 2.046-.102 3.778-.081 5.177.02-1.587-.02-3.173.06-4.739.243-.334.06-.396.242-.208.546l.96 1.316c.188.242.459.364.856.384l3.632-.06c1.628-.021 3.235 0 4.8.04h.335c1.983.04 3.57.243 4.738.627l-.042-.06c1.148.08 1.816.364 2.046.83-.063-.143-.48-.203-1.21-.183-.147-.202-.251-.324-.355-.364a.6.6 0 0 1 .166.344c.084.485.167 1.133.23 1.943.021.344-.146.506-.522.485l-4.175-.04c-.354.04-.584-.122-.668-.445a8 8 0 0 0-.208-.89 5.5 5.5 0 0 0-.418-.972c-.188-.203-.48-.385-.856-.506l.188.202c-1.169-.465-2.797-.728-4.926-.79 1.9.183 3.465.487 4.738.891h-2.191c-.188.02-.25.142-.21.365l.293.89h2.943l.167.324-2.296.04q-.501.06-.626.668l3.215-.02c.104.283.292.445.542.486h-4.05a7.4 7.4 0 0 0-.605-2.45c-.23-.404-.689-.647-1.377-.748-1.19-.101-3.131-.101-5.866.02.46-.06.793-.182 1.002-.344l.647-.06-1.398-1.943c-.251-.284-.627-.405-1.107-.344-.647.06-1.273.243-1.941.506a9.4 9.4 0 0 0-1.9 1.093c-.396.343-.73.728-.96 1.153-.083.182 0 .263.272.223a44 44 0 0 1 4.592-.486c.104.101.23.142.396.162v-.547l.167-.08-.02.688q-1.848.06-3.946.303c-.125.263-.23.587-.313.931-.02.081-.02.162-.041.243-.084.546-.084 1.174 0 1.902v.04c0-.02 0-.04-.021-.04a6.2 6.2 0 0 1-.167-1.882c0-.08.02-.162.02-.243.042-.344.147-.647.272-.91a33 33 0 0 0-4.008.85zm1.523 2.084c.084.162.167.344.251.526q.282.759.376 1.822c-.167-.75-.355-1.356-.585-1.822a4.89 4.89 0 0 0-.188-.344c-.292-.465-.605-.708-.918-.708s-.564.223-.793.668a2 2 0 0 0-.146.405c-.147.425-.23.97-.272 1.619-.02-.628.021-1.154.125-1.62.063-.242.126-.465.23-.647.25-.486.543-.729.919-.708.375 0 .71.283 1.001.81m2.63-3.218.502-1.477c-1.044.445-1.775 1.052-2.171 1.801 1.857-.263 3.298-.425 4.3-.506l.271.101a112 112 0 0 0-4.592.527c-.167 0-.209-.041-.167-.142.5-.83 1.336-1.498 2.526-1.983 1.67-.668 2.692-.709 3.047-.122-.5-.526-1.524-.425-3.027.263l-.5 1.498zm2.61-1.234.73-.06c.272-.021.397.12.397.424q-.095-.334-.438-.303l-.73.08c-.314.061-.544.284-.669.628-.02-.405.209-.668.71-.77m-.209 2.125a7 7 0 0 1 1.148-.081l.146.202v-.222h.73c.105.02.147.06.147.161s-.063.162-.167.203l-1.92.101c-.105-.02-.167-.081-.167-.142-.021-.121 0-.182.083-.222m-3.799 4.816 7.39.04.083.163-6.617.02c-.376 0-.668-.081-.856-.223m.355 1.134h7.598c.063.121.125.222.23.324-3.069 0-5.762.04-8.058.12.105-.14.188-.282.23-.444m-3.048-3.076c.167-.203.334-.284.543-.284s.376.101.543.284c.062.08.104.161.167.242.188.365.292.81.292 1.316 0 .526-.104.951-.292 1.315-.188.365-.439.547-.71.547s-.501-.182-.71-.547c-.188-.364-.292-.81-.292-1.315 0-.526.104-.951.292-1.316.063-.1.105-.182.167-.242m18.724-.931h-1.9c-.354-.02-.584.02-.709.06q.156-.334.501-.364h2.213c.041.182 0 .283-.105.304m6.638-1.62c.25.061.376.183.418.345l.083.364c0 .04-.041.06-.083.06-.042.02-.084.02-.167 0l-.981-.02-.105-.748c.334-.081.606-.081.835 0m.522 1.012c.084 0 .167-.04.23-.141.042.202.083.486.083.89-.083-.283-.271-.445-.584-.465l-.877-.02-.02-.304 1.022.04zm.313.911c.042.243 0 .466-.083.688.02-.162.02-.263-.021-.324l-.042-.04-1.628-.06c.209-.021.334-.122.334-.325l1.44.04zm-.188-.182-1.21-.06q-.095-.061-.063-.244l.898.04c.188.041.313.122.375.264m-1.711 1.599c.083-.243.23-.385.417-.425l1.19.02q.22 0 .188.304l-.042.425-.062-.142v-.223c0-.121-.063-.162-.147-.162l-1.043-.02c-.105.02-.188.04-.272.06a.6.6 0 0 0-.23.163m1.67.364-1.754-.02c-.062-.081-.02-.142.167-.142l1.44.02c.063 0 .126.061.147.142m-.355.81-.501.242h-9.811c-.438.02-.668-.141-.668-.465.084.162.25.243.543.283l9.748.061zm-5.908-.87-3.61.02c0-.142.083-.223.25-.223h3.34c.167.08.167.142.02.202m-.354-.608c-.042-.101-.126-.141-.25-.141l-2.548.06c-.187 0-.313.04-.354.142l-.543.81q-.126.242.313.242h.083l7.87.02-8.12.122c-.397-.02-.522-.142-.355-.405l.668-.971c.063-.122.23-.162.501-.162l2.588-.04q.251-.03.313.242c.042.162.272.243.648.263h-.501c-.146-.04-.25-.08-.313-.182m1.336-.749 3.047.04c.209 0 .313.062.334.203l-.02.547c0 .182-.126.283-.335.263l-2.86-.02c-.25.02-.375-.04-.396-.183v-.627c0-.142.063-.202.23-.223m.918 3.745c-1.962-.061-4.196-.081-6.7-.102a2.3 2.3 0 0 0 .354-.546l5.72-.142q.188.577.626.79m-10.855-4.291a7 7 0 0 0-.23.79c-.083.445-.145.93-.187 1.477a8.7 8.7 0 0 1 0-1.478q.063-.638.25-1.153c.23-.607.543-1.012.96-1.154.397-.142.815-.06 1.211.284.418.364.752.91 1.002 1.68-.375-.689-.772-1.175-1.169-1.438q-.563-.394-1.064-.121c-.292.182-.564.546-.773 1.113m1.629-.263c.438 0 .793.223 1.106.648.083.12.167.263.23.404.146.344.23.729.23 1.174 0 .607-.147 1.133-.46 1.579-.292.425-.647.627-1.065.647h-.104c-.418-.02-.772-.222-1.065-.647-.313-.446-.459-.952-.459-1.579 0-.425.084-.83.23-1.174.062-.141.146-.283.23-.404.333-.425.688-.648 1.127-.648m-4.384-1.214c.146.566.23 1.295.209 2.185-.063-.85-.188-1.578-.397-2.185l-.062-.183.208-.02c0 .081.021.142.042.203m9.915-2.206-4.509-.081a1.83 1.83 0 0 0-.814-1.053c.814-.222 1.837-.242 3.048-.06.084 0 .188.02.355.08.5.142 1.148.527 1.92 1.114m.355 1.983.209.567h-2.651l-.188-.547c-.02-.162.042-.263.146-.303h1.92c.251.02.439.121.564.283m-3.695.364c0 .101-.041.142-.125.162l-.689-.02c-.188-.121-.188-.243 0-.344h.752c.042.04.062.101.062.202M40.43 26.08l-1.503-.141c.021.465.168.85.397 1.194.042.08.105.141.167.202l.94-1.113c.041-.081.041-.122 0-.142m-1.252-1.497a2.2 2.2 0 0 0-.23.708l1.378.142c.125-.02.188-.081.167-.162l-.605-1.437c-.209.08-.418.263-.585.506-.02.08-.083.162-.125.243m1.774 1.82L39.95 27.64c.126.04.23.06.355.06.292 0 .564-.121.793-.344zm0-.99c-.083 0-.146.04-.208.12a.4.4 0 0 0-.084.264c0 .101.021.202.084.283.062.081.125.122.208.122.084 0 .146-.04.21-.122a.42.42 0 0 0 .083-.283c0-.101-.021-.203-.084-.263a.23.23 0 0 0-.209-.122m.647-.385-.271.668c.02.1.02.222 0 .323l.104.85a2.46 2.46 0 0 0 .25-1.133c0-.263-.02-.486-.083-.708m-.313-.688c-.271-.385-.605-.567-.98-.567l.646 1.295c.063.081.105.081.146 0l.293-.566c-.042-.04-.063-.102-.105-.162M28.448 27.8q.282 0 .5-.303l-.104-.79-.626 1.033a.43.43 0 0 0 .23.06m.647-1.416.063.708c.104-.283.166-.587.166-.951q0-.334-.062-.607l-.167.566a.65.65 0 0 1 0 .284m-.585.06-.96-.121c.021.385.105.708.25.992.042.06.063.121.105.162l.584-.931c.063-.061.063-.102.021-.102m.21-.465a.4.4 0 0 0-.063.223c0 .08.02.161.062.222.042.06.084.101.146.101.042 0 .105-.04.126-.1a.4.4 0 0 0 .062-.223.4.4 0 0 0-.062-.223c-.042-.06-.084-.101-.126-.101-.062 0-.104.02-.146.1m-.272-1.477.417 1.092c.042.061.063.061.084 0l.188-.465c-.021-.04-.042-.101-.063-.142a1 1 0 0 0-.355-.404.47.47 0 0 0-.271-.081m-.626.485a1.85 1.85 0 0 0-.23.79l.877.121c.083-.02.125-.06.104-.142l-.376-1.194s-.02 0-.02.02c-.147.061-.251.203-.355.405m19.684-1.356c.041.203.188.304.417.324l4.008.06c.209 0 .313-.1.292-.323a11 11 0 0 0-.187-1.619c-1.316-.121-2.881-.162-4.739-.121zm4.488-2.023c-.48-.223-1.211-.365-2.192-.385-1.002-.04-1.858.06-2.568.263-.041.081-.041.162.021.283 0-.1.021-.182.063-.222 1.983-.263 3.507-.243 4.571.08a.583.583 0 0 1 .188.284c-.041-.182-.062-.283-.083-.303m4.031 2.289.203-.023a1.7 1.7 0 0 0-.077.424l-.078.008c-.062.007-.106.043-.114.105l-.1 1.04c-.008.063.047.118.11.126l.192.01a5 5 0 0 0-.048.527c-.019 1.185.43 2.165 1 2.163 0 0 .37.05.85-.172.362-.163.56-.492.693-.845l.626-.069c.217-.04.397-.12.479-.1.082.022.325.072.544.048.203-.023.273-.107.35-.116.079-.009.649-.01.966-.276 0 0 .341.07.478.024.106-.043.217-.178.258-.229.648 1.188 2.034 1.925 3.55 1.756 1.955-.217 3.345-1.86 3.132-3.665-.16-1.365-1.19-2.433-2.532-2.79a.58.58 0 0 0 .332-.284s-.375-.219-1.156-.255c-.462-.026-1.115.078-1.764.35l-.042-.088c.041-.05.097-.118.101-.211.009-.062-.112-.28-.25-.51.127-.137.231-.456.251-.826.035-.511-.11-.925-.302-.95 0 0-.162-.028-.43-.014-.041.051-.31.327-.245.873l-.142-.261c.015-.278.117-.49.2-.59a2.81 2.81 0 0 0-.481.083l-.184-.348c.041-.05.109-.15.123-.167a1 1 0 0 0-.067-.162.6.6 0 0 0 .125-.152.35.35 0 0 0-.04-.333c-.096-.143-.344-.5-.426-.66-.062-.116-.083-.297-.11-.387.046-.02.073-.054.068-.1a.107.107 0 0 0-.122-.093.105.105 0 0 0-.097.118c.006.045.04.072.074.084-.005.093.014.26.04.349.03.12.326.609.384.694.04.073-.01.186-.036.235-.04-.073-.08-.145-.096-.143-.035-.027-.087-.067-.134-.062l-.062.007c-.062-.116-.123-.232-.14-.246s-.05-.01-.112-.003a23 23 0 0 1-.402-.861c-.018-.014-.15-.06-.344.038-.195.098-.188.159-.17.172.002.015.34.608.498.867a.3.3 0 0 0-.034.111c.023.059.285.537.336.562.015-.002.032.012.046-.005l.47.884c-.184-.071-.578-.197-.94-.172l-.062.007c-.47.052-1.04.315-1.369.89-.304.51-.536 1.364-.588 1.724a.9.9 0 0 0-.367-.021 2.4 2.4 0 0 0-.294.063c-.442.142-1.355.596-1.471.686-.114.105-.149.216-.149.216s-.378.15-.65.671c-.025.05-.036.096-.063.13l-.25.028a.285.285 0 0 0-.293-.198.26.26 0 0 0-.236.287.264.264 0 0 0 .297.229c.177.026.276-.077.293-.202m5.137-6.806c-.106.042-.155.032-.19.005s.038-.08.144-.123.172-.02.172-.02c.038.058-.02.095-.126.137m-1.92 6.142s-.093.025-.198.068c-.032.003-.061.022-.09.04-.03.02-.061.023-.09.041-.03.019-.062.022-.091.04-.03.02-.06.023-.075.04l-.015.002c-.016.001-.033-.012-.051-.026-.02-.028-.005-.045.024-.063.016-.002.03-.02.045-.02 0 0 .016-.003.03-.02l.015-.001c.016-.002.016-.002.03-.019l.016-.002c.015-.001.015-.001.03-.018l.015-.002c.015-.002.015-.002.03-.019l.015-.001.031-.004.031-.003.016-.002c.016-.002.03-.019.045-.02l.016-.002c.015-.002.015-.002.03-.019.09-.04.166-.064.182-.066.03-.004.048.01.066.023-.014.017-.026.05-.057.053m.117.325s-.227.086-.423.17l-.016.001c-.03.019-.045.02-.075.04-.014.016-.045.02-.059.036l-.015.002c-.014.017-.045.02-.06.037l-.015.002-.016.002c-.015.002-.032-.012-.034-.027-.02-.029-.006-.045.008-.062.016-.002.014-.017.03-.019a5 5 0 0 1 .633-.27c.031-.003.049.01.066.023a.1.1 0 0 1-.024.064m.118.324s-.288.11-.585.28c-.03.019-.043.036-.075.04l-.03.003c-.018-.014-.022-.044-.04-.057-.001-.016.014-.017.028-.034.03-.019.044-.036.075-.04h.016c.03-.02.045-.021.074-.04.267-.152.51-.241.51-.241.032-.003.049.01.067.024.003.03-.01.062-.04.065m1.069-2.883c-.106.042-.425.155-.625.346a4 4 0 0 0-.439.57c-.054-.055.006-.353.207-.929.227-.624.587-1.063.8-1.148.12-.044.2-.038.251-.013.02.029.039.057.044.103.033.15-.134 1.013-.238 1.07m2.14.407c.062-.007.245.065.278.077l-.356 1.145c-.18.22-.313.434-.429.662.108-.426.444-1.877.506-1.884m-.44-2.639c-.042.036-.133.076-.17.034-.073-.084-.078-.13-.035-.165a.5.5 0 0 0 .1-.088zm.795 1.494c-.06.022-.186.036-.26-.063-.11-.126-.54-.939-.517-1.018.009-.062.083-.101.142-.139zm.566-.309c-.027.172-.137.185-.201.176-.006-.045.005-.092 0-.138a1.116 1.116 0 0 1 .052-.359c.07.054.176.15.149.322m.044.779c-.02-.044-.057-.086-.078-.13.053-.082.125-.275.154-.57a1.41 1.41 0 0 0-.147-.705c.04-.066.083-.102.099-.104.049.01.206.27.175.81-.039.343-.122.582-.203.699m.164.58c-.047.006-.11.013-.231.057-.198.068-.312.173-.352.239l-.04-.073c.146-.23.458-.28.458-.28s.01-.048-.039-.058c-.047.005-.245.073-.343-.085-.115-.171-.217-.498-.153-.628 0 0-.274.092-.315.281l-.04-.073c-.002-.015.018-.109.197-.206.177-.111.305-.095.339-.083.232.358.472.777.519.91m-.58.45a1 1 0 0 0 .145.03l.061.115q-.155.087-.306.218c.034-.11.079-.27.1-.364m2.112 2.867c.002.015.03.12-.058.176a.1.1 0 0 1-.094.01.228.228 0 0 1-.106-.096l-1.57-2.959c.016-.002.03-.018.045-.02.186.363 1.573 2.99 1.589 2.988s.063-.008.005-.093c0 0-1.487-2.8-1.475-2.832a1 1 0 0 1 .116-.09zm-1.204.672c.272.553.849.612.849.612-.478-.423-.417-.845-.318-1.086.05.286.328.501.64.466a.567.567 0 0 0 .513-.625.56.56 0 0 0-.321-.44c.749-.099.988.581.988.581.042-.174-.033-.81-.6-1.177-.29-.183-.692-.23-1.032-.162l-.002-.016c.092-.025.2-.052.31-.065.781-.086 1.496.464 1.587 1.237s-.477 1.466-1.258 1.553c-.782.087-1.497-.464-1.588-1.237a1.352 1.352 0 0 1 .131-.767 1.53 1.53 0 0 0 .101 1.126m-1.277-.09c-.108-.909.362-1.76 1.128-2.244l.063.131c-.707.448-1.137 1.232-1.039 2.066.142 1.198 1.304 2.052 2.602 1.908s2.231-1.23 2.09-2.429c-.142-1.197-1.304-2.051-2.602-1.907a3 3 0 0 0-.556.123l-.063-.131c.212-.085.427-.14.662-.166 1.407-.156 2.674.778 2.828 2.082s-.862 2.492-2.27 2.648-2.69-.776-2.843-2.08m-.913-.343s.01-.047.02-.11c-.003-.015.011-.032.008-.062-.002-.015-.002-.015.012-.032-.002-.015-.002-.015.012-.032-.002-.015.012-.032.012-.032-.002-.015-.002-.015.012-.032s.01-.048.024-.064l-.002-.016c-.002-.015.01-.047.009-.062 0 0-.002-.015.014-.017.014-.017.01-.047.024-.064l-.002-.015c.012-.032.008-.063.022-.08l-.002-.015c.014-.017.01-.047.023-.079-.002-.015-.002-.015.012-.032.012-.032.01-.047.022-.08l-.002-.014.037-.096c-.002-.016-.002-.016.011-.033.013-.032.01-.047.023-.079-.002-.015.014-.017.012-.032l.036-.096c.024-.064.05-.113.074-.177.226-.502.59-.91.81-1.058.132-.091.208-.115.257-.105q.05.017.052.04l.002.015c-.01.047-.475.268-.793.795s-.59 1.31-.62 1.466c.003.015-.011.032-.01.047l.002.016c.002.015-.014.016-.012.032.002.015-.014.017-.012.032l-.014.017-.014.017s-.015.001-.013.016c-.03.019-.045.02-.045.02m-1.291-2.084c-.049-.01-.07-.054-.044-.103.01-.047.055-.067.106-.042.511.174.92.143.92.143.047-.005.082.022.087.068.005.045-.022.079-.07.084-.032-.012-.454.035-1-.15m.89.562a2.75 2.75 0 0 1-1.345-.25c-.035-.027-.055-.071-.043-.103.027-.034.073-.054.106-.042.672.324 1.262.228 1.262.228.047-.005.082.022.087.067.006.046-.022.08-.069.085.018.013.018.013.002.015m-1.414.234c-.033-.012-.056-.071-.044-.103s.073-.054.106-.043c.686.308 1.277.212 1.277.212.046-.005.081.022.102.065.006.046-.022.08-.067.1l-.047.005c-.174.004-.71.033-1.327-.236m-.83 2.089c-.02-.03-.038-.18-.07-.315 0 0-.03-.396-.017-.551.123-.03.325-.067.434-.08.08-.27.233-.44.407-.444.285 0 .527.433.544.984s-.198 1.005-.481 1.021c-.111-.003-.23-.066-.324-.194-.018-.014-.021-.044-.039-.057 0 0-.002-.015-.019-.029a1.5 1.5 0 0 1-.18-.717c.002-.123.003-.246.022-.356 0 0-.065.391-.077.562.006.183-.18.22-.2.175m-.554 1.351c.012-.032.026-.049.023-.08.011-.031.023-.063.02-.093.188-.021.506-.01.57-.002.08.006.073.084.073.084-.198.068-.512.087-.686.091m-.547-1.951c.036-.096.394-.151.444-.126l.006.045c.02.167.046.794.057 1.023l.005.046.006.045s.005.045-.022.08h-.016l-.016.003-.031.003c-.108.027-.328.037-.367-.02-.087-.068-.104-1.018-.066-1.1m-.8-2.338c.313-.173.898-.453 1.235-.552.031-.003.06-.022.092-.026-.075.04-.163.095-.207.13-.085.087-.15.202-.504.287-.214.07-.462.113-.615.16m-.3 3.75c-.112-.003-.198-.193-.195-.439.002-.246.09-.44.184-.45.111.003.197.193.195.439.013.244-.074.453-.185.45m-.67-.432c.02-.77.246-1.41.514-1.547-.2.314-.311.848-.327 1.388-.012.431.036.84.137 1.152.1.311.248.495.425.521-.07.07-.145.108-.225.102-.317.004-.545-.723-.524-1.616m.094-2.422c.225-.378.525-.52.73-.527.206-.007.3.259.3.259.026.089-.108.027-.406.183s-.607.498-.7.646c-.078.147-.131.23-.15.201-.035-.027.002-.384.226-.762m3.257 1.681c.008.337.136.615.278.614.143 0 .236-.287.227-.624s-.136-.615-.278-.614c-.143 0-.237.272-.227.624M25.08 15.772s-7.076-.91-18.995 7.832l-.292 1.053.334-.243.167-.526S17.9 15.954 24.413 16.4l-.21 1.477s-6.157-.121-19.704 7.67l-.209 3.926s7.306-2.125 14.988-.991c0 0 2.358-2.105 3.715-6.962 0 0-.23 3.46-3.068 6.962 0-.02 8.6-7.347 5.156-12.71m.168 4.088s-.48-.607-.731-.769c0 0-7.327-.101-19.1 7.003 0 0 10.416-7.59 19.267-7.489 0 0 .355.223.71.79 0 0-.042.283-.146.465m-.564-1.882.271-1.275c.71.688.501 2.226.501 2.226-.334-.748-.772-.95-.772-.95"/><path d="M8.318 23.099c5.74-3.259 11.314-4.878 11.314-4.878l-.46-.607c.022 0-5.844 2.085-10.854 5.485m7.411-5.485h-4.572C8.59 19.213 7.88 21.945 7.88 21.945c4.029-2.833 7.849-4.33 7.849-4.33m-1.357.324c-1.127.445-1.796.87-1.796.87l-1.001-.728zm-3.298.344 1.085.79c-.751.283-1.44.789-1.44.789l-1.274-.203c.647-.769 1.629-1.376 1.629-1.376m-3.527 3.662c.23-1.073.793-2.004.793-2.004-1.816.709-2.505 2.227-2.505 2.227.877-.405 1.712-.223 1.712-.223M25.506 4.462a.3.3 0 0 0 .111.108c.038.018.056.018.093.036l.131.018.559.126 1.136.25 2.272.521c.857.198 1.714.378 2.57.576l.448.107 1.173.27c.056.018.112.018.167.036s.094.018.15.036l1.62.377.224.054.223.054c.26.054.54.126.801.18a56 56 0 0 1 1.658.395c.465.036.93.018 1.397 0 .465-.018.95-.072 1.415-.143.913-.144 1.788-.36 2.645-.737.019 0 .019 0 .037-.018h.019c-.82.467-1.732.755-2.645.952-.465.108-.95.162-1.434.198s-.969.054-1.471.054h-.02l-2.514-.54a.4.4 0 0 1-.13-.035c-.037 0-.075-.018-.112-.018a4.938 4.938 0 0 0-.242-.054c-.521-.108-1.024-.216-1.546-.324a3 3 0 0 1-.093.378c-.056-.144-.075-.288-.112-.432-.428-.09-.875-.18-1.303-.287l-.448-.108a3 3 0 0 0-.055.809h.596c.82.018 1.62.054 2.44.108.111 0 .205.018.316.018q-1.368.161-2.738.215h-.056a1 1 0 0 0-.242.018h-.018c-.075 0-.15 0-.224.018-.28.018-.559.018-.838.036a8 8 0 0 0-1.304.18 7 7 0 0 0-.633.18l-.168.108-.037.017v.018h.186l.335.018c.224 0 .466.018.69.018.689.036 1.397.072 2.086.126.093 0 .186.018.26.018h.056c.112.018.224.018.336.036-.094 0-.187.018-.28.018h-.056c-.074 0-.167.018-.242.036l.112.108a.5.5 0 0 0 .112.09c.559.45 1.285.485 1.509.485h.093l11.492-.665c2.346-.144 4.172-.575 5.438-1.276l.466-.072-.13-.126c-.038-.036-.075-.09-.112-.126-.019-.018-.019-.036-.037-.036l-.056-.053c-.038-.036-.056-.09-.093-.126a3.4 3.4 0 0 1-.56-1.312c.206.431.466.826.764 1.186.038.036.056.072.094.108.018.018.037.036.056.072l.037.036.13.125.056.054c.019.018.056.036.075.054.037.018.055.036.093.072.018.018.037.036.055.036.056.036.094.072.15.09.167.09.372.162.577.198.019 0 .037.018.056.018.316.036.615-.018.875-.162a2.1 2.1 0 0 0 .578-.485v-.018h.093l1.918-.306c.931-.144 1.807-.54 2.59-1.042a.36.36 0 0 0 .148-.432.38.38 0 0 0-.39-.251l-5.235.431c.559-.917.69-1.708.633-1.887-.111-.432-2.123-1.438-4.47-1.438-.82 0-1.601.126-2.347.36-.111.035-.242.071-.353.107-.28-.09-2.496-.737-4.843.198-.782.305-1.863.917-2.943 1.582l.391.036.317.017h.168l.204.018h.075l.205.018h.242l.223.018.41.036.54.036h.093l4.6.378-3.52-.701c1.64-.503 3.223-.97 4.36-1.33a7.5 7.5 0 0 1 2.197-.324c.968 0 1.825.18 2.496.396.018 0 .018 0 .037-.018v.018h.019l-.056.054c-.056.053-.093.125-.13.197a1.3 1.3 0 0 0-.13.665c0 .144.036.288.092.432.019.054.037.09.075.143a.964.964 0 0 0 .074.126.5.5 0 0 0 .093.108.74.74 0 0 0 .28.18.61.61 0 0 1-.466-.09c-.708.395-1.49.7-2.291.953a20 20 0 0 1-1.77.449c.392-.108.764-.216 1.155-.342.075-.018.15-.054.224-.072.633-.215 1.23-.485 1.825-.79.224-.126.429-.252.652-.378-.037-.054-.074-.09-.112-.144-.223.108-.428.216-.652.306-.651.306-1.34.54-2.03.737-.689.216-1.397.36-2.123.521l-.838.162c.912-.54 1.527-1.079 1.527-1.079-1.546 0-3.11-.053-4.656-.125l-1.975-.09h-.056L40.5 4.57h-.316l-.187-.018-.52-.036-.82-.036-.187-.018-2.998-.162c-.094 0-.168-.018-.261-.018s-.168-.018-.261-.018a9 9 0 0 0-.69-.036h-.185c-.187-.018-.373-.018-.578-.036-.093 0-.168-.018-.26-.018-.094 0-.168-.018-.261-.018-1.267-.071-2.533-.161-3.819-.251l-2.328-.144c-.205-.018-.372-.036-.54-.018a1.4 1.4 0 0 0-.466.144c-.074.036-.149.09-.205.126l-.018.036-.037.036c-.02.018-.038.036-.038.053a.29.29 0 0 0-.018.324m20.73-1.905c-1.155.36-2.551.773-3.93 1.204l-.056-.018 2.925-1.15-3.837.97h-.02a4.21 4.21 0 0 1 .69-.467c.15-.072.298-.126.428-.18 1.51-.593 2.962-.503 3.8-.36m7.6.827c-.28.251-.578.467-.895.683a.7.7 0 0 1-.223-.126c-.019-.018-.056-.036-.075-.072.187-.126.354-.27.522-.414-.186.126-.391.234-.578.342a.6.6 0 0 1-.13-.27 1.06 1.06 0 0 1-.037-.539c.018-.09.037-.198.093-.287.69.27 1.174.539 1.322.683m-1.51 3.36c.15.09.299.144.448.18.112.018.223.036.316.036h.093c.02 0 .056 0 .075-.018.056-.018.112-.018.168-.036.205-.054.41-.18.577-.341.354-.324.596-.755.8-1.204a3 3 0 0 1-.278.97l-.168.216a1.8 1.8 0 0 1-.391.341c-.26.162-.559.252-.857.198-.074 0-.13-.018-.205-.036a2.5 2.5 0 0 1-.577-.305M34.28 8.759h.037zm-.224-.036c.019 0 .056 0 .074.018-.037 0-.055-.018-.074-.018m-.13-.018c.018 0 .037.018.055.018-.018-.018-.037-.018-.055-.018m-.13-.036c.018 0 .036.018.055.018 0 0-.037-.018-.056-.018m10.951-.827c.615-.126 1.21-.27 1.807-.431a99 99 0 0 0 2.198-.575c.745-.198 1.527-.288 2.29-.198-.763.09-1.49.233-2.197.467a43.92 43.92 0 0 1-2.198.611q-1.118.27-2.235.432c-.075.018-.13.018-.205.036-.037 0-.056 0-.093.017-.652.09-1.322.144-1.974.144.093-.018.167-.018.26-.036.67-.108 1.323-.233 1.974-.377.112-.036.243-.054.373-.09m-14.752-3.38c.56.018 1.118.054 1.677.072l1.099.072.484.036h.075l.67.054c.037 0 .093 0 .13.018.038 0 .093 0 .13.018l.839.054c.093 0 .168.018.26.018.094 0 .168.017.261.017.354.036.708.054 1.062.09l1.1.108c.074 0 .167.018.241.018.037 0 .093 0 .13.018.13.018.261.018.373.036.037 0 .075 0 .093.018l.596.054c.093.018.187.018.28.036l.521.054 1.676.18 1.677.215c-.559-.018-1.118-.054-1.677-.072l-1.676-.107c-.354-.018-.726-.054-1.08-.072-.13-.018-.26-.018-.391-.036-.13-.018-.261-.018-.41-.036-.075 0-.168-.018-.242-.018-.056 0-.093 0-.15-.018-.13-.018-.26-.018-.39-.036h-.112l-.615-.054c-.316-.036-.633-.054-.95-.09-.074 0-.167-.018-.242-.018s-.167-.018-.242-.018c-.298-.036-.596-.054-.913-.09-.056 0-.093-.018-.149-.018s-.093-.018-.149-.018a10 10 0 0 1-.689-.072l-.13-.018-.484-.036-1.062-.125c-.503-.09-1.062-.144-1.62-.234"/><path d="M48.397 2.7a6.8 6.8 0 0 1 1.714-.125c.279.018.577.053.856.09.28.053.56.125.82.215a8.8 8.8 0 0 0-1.676-.126 7.3 7.3 0 0 0-1.658.18c-.54.108-1.08.288-1.62.431s-1.08.288-1.64.414c.522-.216 1.062-.396 1.584-.575.521-.198 1.042-.396 1.62-.504M34.69 3.743c-.15-.018-.317-.018-.467-.036a.858.858 0 0 0-.037-.215c0-.054-.019-.108-.019-.144 0 .054-.018.108-.018.162-.019.072-.019.126-.019.197-.093 0-.186-.018-.279-.018s-.205-.018-.298-.018-.186-.018-.28-.018c.28-.395.597-.593.969-.629h.075c.428 0 .726.324.968.755-.093 0-.186-.018-.28-.018-.13 0-.223 0-.316-.018M53.09.454a1.5 1.5 0 0 0-.558-.108c-.205 0-.373.054-.559.144-.354.18-.652.485-.894.845.112-.414.354-.81.745-1.079.186-.144.447-.216.67-.252q.392-.026.727.108c.447.18.801.504 1.062.863.26.36.428.773.502 1.186a7 7 0 0 0-.744-1.024c-.261-.27-.578-.54-.95-.683M.56 22.127C-1.772 7.973 17.41 6.027 27.982 6.941 4.506 6.596-.181 15.581.56 22.127c.162.983.427 2.026.807 3.13a11.6 11.6 0 0 1-.807-3.13M0 55.999v-12.65h3.737q1.467 0 2.208.762.742.755.742 2.214v5.922q0 1.797-.68 2.774-.672.978-2.363.977zm2.733-2.236h.471q.75 0 .75-.675v-6.526q0-.632-.186-.812-.177-.187-.734-.187h-.3zm4.994 2.236v-9.866h3.6q.918 0 1.4.36.49.36.666.993.177.627.177 1.436 0 1.018-.299 1.613-.299.594-.965.816.605.087.856.505.259.418.259 1.1V56h-2.372v-3.19q0-.487-.217-.6-.21-.12-.687-.12v3.908zm2.432-5.838h.578q.496 0 .496-.986 0-.595-.109-.784-.108-.196-.408-.196h-.557zm4.199 5.838v-9.866h4.784v2.15H16.79v1.632h2.256v2.093H16.79v1.822h2.507v2.169zm5.409 0 1.155-9.866h4.056l1.135 9.866H23.85l-.156-1.796h-1.468l-.136 1.796zm3.098-8.095-.442 4.522h1.047l-.496-4.522zm3.982 8.095v-9.866h3.642l1.005 5.882 1-5.882h3.675v9.866h-2.188V49.2L32.61 56h-2.15l-1.454-6.812V56zm10.455 0v-12.65h4.17q1.042.001 1.575.446.532.438.71 1.236.185.79.185 1.862 0 1.034-.286 1.653-.278.618-1.057.855.64.122.895.596.263.468.263 1.215v4.786h-2.68v-4.951q0-.555-.247-.683-.24-.137-.78-.137V56zm2.764-7.964h.656q.564 0 .564-1.142 0-.74-.124-.97-.123-.23-.463-.23h-.633zm4.59 7.964v-9.866h2.31v9.866zm3.262 0v-9.866h3.295q1.292 0 1.937.67.652.664.652 1.948v3.947q0 1.58-.59 2.44-.592.86-2.08.86zm2.405-1.967h.415q.66 0 .659-.594V48.96q0-.557-.163-.715-.157-.164-.646-.164h-.265zm4.458 1.967v-9.866h4.784v2.15h-2.351v1.632h2.256v2.093h-2.256v1.822h2.507v2.169zm8.575.101q-1.637 0-2.364-.76-.72-.758-.72-2.415v-.36h2.364v.663q0 .387.122.608.13.215.442.215.326 0 .448-.159.13-.164.13-.474 0-.411-.3-.696-.291-.285-.971-.771l-1.033-.746q-.66-.475-.93-1.05-.272-.576-.272-1.398 0-1.284.706-2.005.714-.72 2.059-.72 1.644 0 2.33.796.694.797.694 2.34h-2.426v-.544q0-.543-.544-.544-.27 0-.4.152a.55.55 0 0 0-.13.38q0 .234.116.442.122.202.557.532l1.38 1.043q.754.57 1.14 1.195.389.627.388 1.626 0 .696-.272 1.303a2.14 2.14 0 0 1-.876.98q-.612.367-1.638.367"/></g></g><defs><clipPath id="a"><path fill="#fff" d="M0 0h112v68H0z"/></clipPath></defs></svg>