<svg width="155" height="90" viewBox="0 0 155 90" fill="none" xmlns="http://www.w3.org/2000/svg">
<path d="M15.0233 44.5576C17.3292 46.1724 17.7093 47.9638 17.76 48.4432C18.1147 48.6702 18.4695 48.8469 18.7736 49.0235C18.2921 48.1909 17.8107 47.3583 17.4052 46.5004C16.6957 45.037 16.0875 43.5484 15.5554 42.0093C15.5047 41.8327 15.454 41.6813 15.378 41.5047C14.9726 40.2432 14.3898 39.0321 13.6295 37.9724C13.5789 37.8967 13.5282 37.821 13.4775 37.7453C7.04111 34.1626 10.0059 26.8709 10.0059 26.8709C9.90455 28.4856 11.4503 29.722 13.0214 32.6487C14.3644 35.1466 13.9083 36.8875 13.7562 37.3669C14.0857 37.8715 14.3897 38.3256 14.6685 38.7041C14.5671 38.2247 14.4658 37.7706 14.3644 37.2912C14.0603 35.7016 13.8829 34.0869 13.8069 32.4721L13.7816 31.8666C13.7816 31.6647 13.7562 31.4629 13.7562 31.261V30.05C13.7562 29.6463 13.7816 29.2426 13.8069 28.8389C13.8069 28.637 13.8323 28.4352 13.8323 28.2333L13.8829 27.6278C13.9083 27.2241 13.9083 26.8204 13.8069 26.442L13.3508 24.146C8.66288 18.4186 14.0857 12.7417 14.0857 12.7417C13.4015 14.205 14.3898 15.9207 14.7952 19.226C15.15 22.0518 14.0857 23.5152 13.7562 23.8936C13.8829 24.5749 14.035 25.1552 14.1617 25.6346L14.2124 25.2561C14.263 24.8524 14.3644 24.474 14.4151 24.0703L14.5165 23.4647C14.5418 23.2629 14.5925 23.061 14.6432 22.8844C14.8459 22.1023 15.0233 21.3201 15.2513 20.5632L15.4287 19.9829L15.5047 19.7053L15.6061 19.4278L16.0115 18.2924C16.2649 17.6364 16.5437 16.9804 16.8224 16.3244C17.3545 15.1386 17.684 13.877 17.7346 12.6155C17.76 12.3127 17.7853 12.0352 17.8107 11.7577C15.2767 4.76874 22.2705 1.23643 22.2705 1.23643C21.1556 2.37182 21.5103 4.33981 20.7755 7.59458C20.1673 10.37 18.6722 11.3792 18.2415 11.6315C18.1148 12.5903 18.0387 13.3724 17.988 13.9275C17.988 13.9023 18.0134 13.877 18.0134 13.877L18.2921 13.3472C18.3935 13.1706 18.4949 12.994 18.5962 12.8173L19.2044 11.7829L19.8632 10.7737C19.9646 10.597 20.0913 10.4457 20.1926 10.269L20.5474 9.78966C20.9022 9.28504 21.3076 8.78043 21.7131 8.30104C22.2705 7.59458 23.0307 6.56012 23.7149 5.8032C24.019 5.44997 24.2977 5.07151 24.5005 4.64258C27.4399 -1.51372 34.5352 0.227201 34.5352 0.227201C32.9387 0.328124 31.9251 2.01859 29.2391 3.96135C27.1105 5.50043 25.4127 5.39951 24.8045 5.29858C24.7285 5.32381 24.6525 5.34904 24.5765 5.37427L23.7656 6.25735C22.7013 7.4432 21.6877 8.65427 20.8008 9.96627L20.4714 10.4457C20.37 10.6223 20.2687 10.7737 20.142 10.9503L19.5085 11.9595L19.2297 12.4389C19.9392 11.8333 20.6488 11.3035 21.3583 10.8493C25.1846 4.4912 32.2799 7.79643 32.2799 7.79643C30.6835 7.61981 29.3911 9.13366 26.4263 10.597C23.8923 11.8333 22.1692 11.3035 21.7131 11.1269C20.6994 11.7324 19.8632 12.3127 19.3564 12.666C19.0523 12.893 18.7989 13.1706 18.6216 13.5238L18.3428 14.0537C17.6079 15.4666 17.0251 16.93 16.493 18.4186L16.1129 19.554L16.0115 19.8315L15.9355 20.109L15.8088 20.6893C15.5807 21.4463 15.4287 22.2284 15.2513 23.0106C15.2006 23.2124 15.1753 23.389 15.15 23.5909C15.6314 22.8592 16.1382 22.178 16.645 21.5472C18.4442 14.3564 26.1982 15.4413 26.1982 15.4413C24.6272 15.7441 23.8416 17.5607 21.409 19.8315C19.3564 21.7743 17.5573 21.7743 17.0505 21.7238C16.493 22.3293 16.0369 22.8844 15.7074 23.2881C15.2513 23.8684 14.9219 24.5749 14.8712 25.3318L14.7445 26.5176L14.6938 27.1232L14.5925 28.2838C14.5671 28.4856 14.5925 28.6875 14.5671 28.8641C14.5671 29.2678 14.5418 29.6463 14.5418 30.05L14.5671 31.2358C14.5671 31.4376 14.5925 31.6395 14.5925 31.8161L14.6432 32.3964C14.6938 33.2543 14.7952 34.0869 14.9219 34.9447C15.0993 34.2383 15.2767 33.557 15.5047 32.9263C14.6432 25.5336 22.2705 23.7423 22.2705 23.7423C20.9022 24.6001 20.8008 26.5681 19.3564 29.5706C18.1148 32.1189 16.4423 32.7749 15.9608 32.901C15.7835 33.3552 15.6314 33.7841 15.4794 34.1626C15.15 35.0961 15.0993 36.0801 15.302 37.0389C15.302 37.0389 15.302 37.0389 15.302 37.0641C15.6314 38.6032 16.0369 40.117 16.5943 41.6056C17.1265 43.069 17.76 44.5072 18.4695 45.9201C18.6722 46.3238 18.9003 46.7275 19.1284 47.1059C19.0017 46.2733 18.9256 45.4659 18.9003 44.709C15.4287 38.149 21.8651 33.6832 21.8651 33.6832C20.9022 34.97 21.5357 36.8623 21.2569 40.1927C21.0289 43.0186 19.7112 44.2549 19.3057 44.5576C19.3057 44.6586 19.3057 44.7847 19.3057 44.8856C19.3057 46.677 19.8632 48.4432 20.9022 49.9318C20.9022 49.9318 20.9022 49.957 20.9275 49.957C21.8144 51.2438 22.828 52.4296 23.8923 53.565C24.171 53.8426 24.4244 54.1453 24.7032 54.3976L25.5394 55.205C25.5647 55.205 25.5394 55.205 25.5647 55.1798C25.3113 54.7256 25.0833 54.2715 24.8806 53.8173C19.1537 49.1244 23.3602 42.4887 23.3602 42.4887C22.9801 44.053 24.2724 45.5416 25.3113 48.7207C26.1983 51.4204 25.438 53.0604 25.1846 53.4893C25.362 53.893 25.5141 54.2715 25.6661 54.5995C26.0462 55.4069 26.5784 56.1385 27.2879 56.6936C28.5042 57.6776 29.7459 58.5859 31.0889 59.3681C31.8744 59.8222 32.66 60.2512 33.4709 60.6549C33.1414 60.3016 32.812 59.9484 32.5333 59.5952C27.0852 57.0973 29.1124 50.9662 29.1124 50.9662C29.1124 52.2782 30.4554 53.2118 31.8998 55.5078C33.1414 57.4758 32.8627 58.9392 32.7613 59.3176C32.9387 59.5447 33.1161 59.7718 33.2681 59.9736C33.8003 60.6296 34.4591 61.1595 35.2447 61.4875C36.6637 62.093 38.1335 62.5976 39.6032 63.0013H39.6285C40.034 63.1275 40.338 63.4807 40.338 63.9096C40.3634 64.6413 39.7045 65.0955 39.071 64.8936C37.5253 64.4142 35.9795 63.8339 34.5098 63.1779C33.0401 62.4967 31.5957 61.7146 30.2273 60.8315C29.3911 60.3016 28.6056 59.7465 27.82 59.141C26.7557 58.3336 25.4887 57.8542 24.171 57.7281C17.2785 60.4026 13.6802 53.3884 13.6802 53.3884C14.8459 54.4986 16.7717 54.1201 20.0153 54.8013C22.7773 55.3816 23.8163 56.8702 24.0443 57.2992C24.7032 57.3749 25.286 57.4506 25.7675 57.4758C25.3367 57.0973 24.9059 56.6936 24.4751 56.2899L23.6136 55.4321C23.3348 55.1545 23.0561 54.8266 22.7773 54.5238C21.713 53.3127 20.6994 52.0259 19.7872 50.6887C19.7619 50.6635 19.7619 50.6382 19.7365 50.613C19.3057 49.957 18.6976 49.4272 17.988 49.0487C17.8613 48.9982 17.76 48.9226 17.6586 48.8721C10.3353 48.6198 9.77785 40.7478 9.77785 40.7478C10.386 42.2364 12.3119 42.6401 15.0233 44.5576Z" fill="#CC950C"/>
<path d="M139.778 44.5576C137.472 46.1724 137.092 47.9638 137.042 48.4432C136.687 48.6702 136.332 48.8469 136.028 49.0235C136.51 48.1909 136.991 47.3583 137.396 46.5004C138.106 45.037 138.714 43.5484 139.246 42.0093C139.297 41.8327 139.348 41.6813 139.424 41.5047C139.829 40.2432 140.412 39.0321 141.172 37.9724C141.223 37.8967 141.273 37.821 141.324 37.7453C147.761 34.1626 144.796 26.8709 144.796 26.8709C144.897 28.4856 143.351 29.722 141.78 32.6487C140.437 35.1466 140.893 36.8875 141.045 37.3669C140.716 37.8715 140.412 38.3256 140.133 38.7041C140.235 38.2247 140.336 37.7706 140.437 37.2912C140.741 35.7016 140.919 34.0869 140.995 32.4721L141.02 31.8666C141.02 31.6647 141.045 31.4629 141.045 31.261V30.05C141.045 29.6463 141.02 29.2426 140.995 28.8389C140.995 28.637 140.969 28.4352 140.969 28.2333L140.919 27.6278C140.893 27.2241 140.893 26.8204 140.995 26.442L141.451 24.146C146.139 18.4186 140.716 12.7417 140.716 12.7417C141.4 14.205 140.412 15.9207 140.006 19.226C139.652 22.0518 140.716 23.5152 141.045 23.8936C140.919 24.5749 140.767 25.1552 140.64 25.6346L140.589 25.2561C140.539 24.8524 140.437 24.474 140.387 24.0703L140.285 23.4647C140.26 23.2629 140.209 23.061 140.159 22.8844C139.956 22.1023 139.778 21.3201 139.55 20.5632L139.373 19.9829L139.297 19.7053L139.196 19.4278L138.79 18.2924C138.537 17.6364 138.258 16.9804 137.979 16.3244C137.447 15.1386 137.118 13.877 137.067 12.6155C137.042 12.3127 137.016 12.0352 136.991 11.7577C139.525 4.76874 132.531 1.23643 132.531 1.23643C133.646 2.37182 133.291 4.33981 134.026 7.59458C134.634 10.37 136.129 11.3792 136.56 11.6315C136.687 12.5903 136.763 13.3724 136.814 13.9275C136.814 13.9023 136.788 13.877 136.788 13.877L136.51 13.3472C136.408 13.1706 136.307 12.994 136.205 12.8173L135.597 11.7829L134.938 10.7737C134.837 10.597 134.71 10.4457 134.609 10.269L134.254 9.78966C133.9 9.28504 133.494 8.78043 133.089 8.30104C132.531 7.59458 131.771 6.56012 131.087 5.8032C130.783 5.44997 130.504 5.07151 130.301 4.64258C127.362 -1.51372 120.267 0.227201 120.267 0.227201C121.863 0.328124 122.877 2.01859 125.563 3.96135C127.691 5.50043 129.389 5.39951 129.997 5.29858C130.073 5.32381 130.149 5.34904 130.225 5.37427L131.036 6.25735C132.1 7.4432 133.114 8.65427 134.001 9.96627L134.33 10.4457C134.432 10.6223 134.533 10.7737 134.66 10.9503L135.293 11.9595L135.572 12.4389C134.862 11.8333 134.153 11.3035 133.443 10.8493C129.617 4.4912 122.522 7.79643 122.522 7.79643C124.118 7.61981 125.411 9.13366 128.375 10.597C130.909 11.8333 132.633 11.3035 133.089 11.1269C134.102 11.7324 134.938 12.3127 135.445 12.666C135.749 12.893 136.003 13.1706 136.18 13.5238L136.459 14.0537C137.194 15.4666 137.777 16.93 138.309 18.4186L138.689 19.554L138.79 19.8315L138.866 20.109L138.993 20.6893C139.221 21.4463 139.373 22.2284 139.55 23.0106C139.601 23.2124 139.626 23.389 139.652 23.5909C139.17 22.8592 138.663 22.178 138.157 21.5472C136.357 14.3564 128.603 15.4413 128.603 15.4413C130.175 15.7441 130.96 17.5607 133.393 19.8315C135.445 21.7743 137.244 21.7743 137.751 21.7238C138.309 22.3293 138.765 22.8844 139.094 23.2881C139.55 23.8684 139.88 24.5749 139.93 25.3318L140.057 26.5176L140.108 27.1232L140.209 28.2838C140.235 28.4856 140.209 28.6875 140.235 28.8641C140.235 29.2678 140.26 29.6463 140.26 30.05L140.235 31.2358C140.235 31.4376 140.209 31.6395 140.209 31.8161L140.159 32.3964C140.108 33.2543 140.006 34.0869 139.88 34.9447C139.702 34.2383 139.525 33.557 139.297 32.9263C140.159 25.5336 132.531 23.7423 132.531 23.7423C133.9 24.6001 134.001 26.5681 135.445 29.5706C136.687 32.1189 138.359 32.7749 138.841 32.901C139.018 33.3552 139.17 33.7841 139.322 34.1626C139.652 35.0961 139.702 36.0801 139.5 37.0389C139.5 37.0389 139.5 37.0389 139.5 37.0641C139.17 38.6032 138.765 40.117 138.207 41.6056C137.675 43.069 137.042 44.5072 136.332 45.9201C136.129 46.3238 135.901 46.7275 135.673 47.1059C135.8 46.2733 135.876 45.4659 135.901 44.709C139.373 38.149 132.937 33.6832 132.937 33.6832C133.9 34.97 133.266 36.8623 133.545 40.1927C133.773 43.0186 135.09 44.2549 135.496 44.5576C135.496 44.6586 135.496 44.7847 135.496 44.8856C135.496 46.677 134.938 48.4432 133.9 49.9318C133.9 49.9318 133.9 49.957 133.874 49.957C132.987 51.2438 131.974 52.4296 130.909 53.565C130.631 53.8426 130.377 54.1453 130.098 54.3976L129.262 55.205C129.237 55.205 129.262 55.205 129.237 55.1798C129.49 54.7256 129.718 54.2715 129.921 53.8173C135.648 49.1244 131.442 42.4887 131.442 42.4887C131.822 44.053 130.529 45.5416 129.49 48.7207C128.603 51.4204 129.364 53.0604 129.617 53.4893C129.44 53.893 129.288 54.2715 129.136 54.5995C128.755 55.4069 128.223 56.1385 127.514 56.6936C126.297 57.6776 125.056 58.5859 123.713 59.3681C122.927 59.8222 122.142 60.2512 121.331 60.6549C121.66 60.3016 121.99 59.9484 122.268 59.5952C127.717 57.0973 125.689 50.9662 125.689 50.9662C125.689 52.2782 124.346 53.2118 122.902 55.5078C121.66 57.4758 121.939 58.9392 122.04 59.3176C121.863 59.5447 121.686 59.7718 121.534 59.9736C121.001 60.6296 120.343 61.1595 119.557 61.4875C118.138 62.093 116.668 62.5976 115.199 63.0013H115.173C114.768 63.1275 114.464 63.4807 114.464 63.9096C114.438 64.6413 115.097 65.0955 115.731 64.8936C117.276 64.4142 118.822 63.8339 120.292 63.1779C121.762 62.4967 123.206 61.7146 124.574 60.8315C125.411 60.3016 126.196 59.7465 126.982 59.141C128.046 58.3336 129.313 57.8542 130.631 57.7281C137.523 60.4026 141.121 53.3884 141.121 53.3884C139.956 54.4986 138.03 54.1201 134.786 54.8013C132.024 55.3816 130.985 56.8702 130.757 57.2992C130.098 57.3749 129.516 57.4506 129.034 57.4758C129.465 57.0973 129.896 56.6936 130.327 56.2899L131.188 55.4321C131.467 55.1545 131.746 54.8266 132.024 54.5238C133.089 53.3127 134.102 52.0259 135.014 50.6887C135.04 50.6635 135.04 50.6382 135.065 50.613C135.496 49.957 136.104 49.4272 136.814 49.0487C136.94 48.9982 137.042 48.9226 137.143 48.8721C144.466 48.6198 145.024 40.7478 145.024 40.7478C144.416 42.2364 142.49 42.6401 139.778 44.5576Z" fill="#CC950C"/>
<path d="M108.505 22.8601C108.567 22.7423 108.567 22.6246 108.567 22.448C108.567 22.3891 108.567 22.3891 108.567 22.3303C108.567 22.2125 108.567 22.1537 108.505 22.0359C108.505 21.9771 108.442 21.9771 108.442 21.9182C108.38 21.8593 108.38 21.8005 108.317 21.7416V21.6827L95.072 7.4958C95.0095 7.43693 94.947 7.37807 94.8845 7.37807C94.822 7.3192 94.7596 7.3192 94.6346 7.3192H60.709C60.6466 7.3192 60.5841 7.3192 60.4591 7.37807C60.3967 7.43693 60.3342 7.43693 60.2717 7.4958L47.0264 21.6827V21.7416C46.9639 21.8005 46.9639 21.8593 46.9014 21.9182C46.9014 21.9771 46.8389 21.9771 46.8389 22.0359C46.8389 22.0948 46.7765 22.2125 46.7765 22.3303C46.7765 22.3891 46.7765 22.3891 46.7765 22.448C46.7765 22.5657 46.7765 22.6835 46.8389 22.8012C46.9014 22.9189 46.9014 23.0367 46.9639 23.0955L67.2692 48.4672L77.1408 60.8292C77.1408 60.8292 77.1408 60.8292 77.2032 60.8292C77.2657 60.8881 77.2657 60.8881 77.3282 60.947C77.3907 61.0058 77.4532 61.0058 77.5781 61.0058C77.6406 61.0058 77.7031 61.0058 77.828 60.947C77.8905 60.8881 77.953 60.8881 77.953 60.8292C77.953 60.8292 77.953 60.8292 78.0155 60.8292L108.255 23.0955C108.442 23.0955 108.505 22.9778 108.505 22.8601ZM79.3275 56.8851L81.4517 49.0558L94.7596 29.5709L87.0748 47.231L79.3275 56.8851ZM68.3314 47.231L60.6466 29.5709L73.9544 49.0558L76.0786 56.8851L68.3314 47.231ZM60.7715 9.37954L67.3942 13.9712L57.5227 20.8586L57.8351 12.5584L60.7715 9.37954ZM97.5711 12.5584L97.8835 20.8586L87.9494 13.9712L94.5721 9.37954L97.5711 12.5584ZM89.4489 21.5061L87.762 16.0315L95.6342 21.5061H89.4489ZM78.5153 23.4487H87.9494L81.1394 45.1706L78.5153 23.4487ZM74.2668 45.1706L67.4567 23.4487H76.8908L74.2668 45.1706ZM86.0751 15.4428L87.9494 21.5061H79.8898L86.0751 15.4428ZM77.7031 21.2707L70.3931 14.1478L77.7031 9.37954L85.013 14.1478L77.7031 21.2707ZM75.5163 21.5061H67.4567L69.331 15.4428L75.5163 21.5061ZM65.8947 21.5061H59.7094L67.5816 16.0315L65.8947 21.5061ZM65.9572 23.4487L72.3924 43.8756L58.4598 23.4487H65.9572ZM77.7031 28.2758L80.1397 48.4083L77.7031 57.4738L75.2664 48.4083L77.7031 28.2758ZM89.4489 23.4487H97.0088L83.0762 43.8756L89.4489 23.4487ZM86.3875 12.9116L80.827 9.26181H91.6981L86.3875 12.9116ZM69.0186 12.9116L63.708 9.26181H74.5792L69.0186 12.9116ZM56.1482 21.5061H49.5255L56.3981 14.1478L56.1482 21.5061ZM56.3981 23.4487L64.8326 42.8748L49.2756 23.4487H56.3981ZM99.0081 23.4487H106.131L90.5735 42.8748L99.0081 23.4487ZM99.258 21.5061L99.0081 14.1478L105.881 21.5061H99.258Z" fill="#CC950C"/>
<path d="M7.41012 74.53L12.6057 87.875C12.8045 88.3992 13.0316 88.7533 13.2871 88.9375C13.5568 89.1217 13.8053 89.2208 14.0324 89.235V89.66C13.6917 89.6317 13.2871 89.6175 12.8187 89.6175C12.3644 89.6033 11.903 89.5963 11.4346 89.5963C10.8384 89.5963 10.2847 89.6033 9.77369 89.6175C9.26265 89.6175 8.85098 89.6317 8.53867 89.66V89.235C9.26265 89.2067 9.71691 89.0862 9.90145 88.8737C10.1002 88.6471 10.0576 88.1725 9.77369 87.45L5.94087 77.1225L6.28157 76.74L2.74685 85.9625C2.49133 86.6 2.33518 87.1313 2.2784 87.5563C2.23581 87.9813 2.2713 88.3142 2.38487 88.555C2.51263 88.7958 2.72556 88.9658 3.02367 89.065C3.32178 89.1642 3.69086 89.2208 4.13093 89.235V89.66C3.70506 89.6317 3.27209 89.6175 2.83203 89.6175C2.40616 89.6033 2.00158 89.5963 1.6183 89.5963C1.27761 89.5963 0.972401 89.6033 0.702684 89.6175C0.447162 89.6175 0.212934 89.6317 0 89.66V89.235C0.298108 89.1642 0.596217 88.9871 0.894325 88.7038C1.19243 88.4204 1.47635 87.9388 1.74606 87.2588L6.68614 74.53C6.79971 74.53 6.92037 74.53 7.04813 74.53C7.17589 74.53 7.29656 74.53 7.41012 74.53ZM9.64593 83.54V83.965H3.30048L3.51342 83.54H9.64593Z" fill="#CC950C"/>
<path d="M19.8583 78.3975C20.341 78.3975 20.8023 78.4613 21.2424 78.5888C21.6824 78.7021 22.0657 78.865 22.3922 79.0775C22.7329 79.29 22.9884 79.545 23.1588 79.8425C23.3433 80.14 23.4356 80.4658 23.4356 80.82C23.4356 81.245 23.3149 81.5779 23.0736 81.8187C22.8323 82.0596 22.52 82.18 22.1367 82.18C21.7534 82.18 21.434 82.0738 21.1785 81.8613C20.923 81.6488 20.7952 81.3442 20.7952 80.9475C20.7952 80.5792 20.9017 80.2817 21.1146 80.055C21.3276 79.8142 21.576 79.6583 21.8599 79.5875C21.7321 79.375 21.505 79.1979 21.1785 79.0563C20.8662 78.9004 20.5255 78.8225 20.1564 78.8225C19.7731 78.8225 19.404 78.9217 19.0492 79.12C18.7085 79.3183 18.4033 79.6229 18.1335 80.0338C17.8638 80.4446 17.6438 80.9758 17.4734 81.6275C17.3173 82.2792 17.2392 83.0654 17.2392 83.9863C17.2392 85.1763 17.3741 86.1254 17.6438 86.8337C17.9277 87.5279 18.2968 88.0238 18.751 88.3213C19.2053 88.6188 19.6951 88.7675 20.2203 88.7675C20.561 88.7675 20.9088 88.7037 21.2637 88.5762C21.6328 88.4487 21.9806 88.2363 22.3071 87.9388C22.6477 87.6413 22.9459 87.2375 23.2014 86.7275L23.606 86.8763C23.4498 87.3438 23.2014 87.8183 22.8607 88.3C22.5342 88.7817 22.1012 89.1783 21.5618 89.49C21.0223 89.8017 20.3622 89.9575 19.5815 89.9575C18.6872 89.9575 17.878 89.7379 17.154 89.2988C16.4301 88.8596 15.8551 88.2221 15.4293 87.3863C15.0034 86.5363 14.7905 85.5021 14.7905 84.2838C14.7905 83.0938 15.0034 82.0596 15.4293 81.1813C15.8693 80.2888 16.4726 79.6017 17.2392 79.12C18.0058 78.6383 18.8788 78.3975 19.8583 78.3975Z" fill="#CC950C"/>
<path d="M30.2763 78.3975C30.7589 78.3975 31.2203 78.4613 31.6604 78.5888C32.1004 78.7021 32.4837 78.865 32.8102 79.0775C33.1509 79.29 33.4064 79.545 33.5768 79.8425C33.7613 80.14 33.8536 80.4658 33.8536 80.82C33.8536 81.245 33.7329 81.5779 33.4916 81.8187C33.2503 82.0596 32.938 82.18 32.5547 82.18C32.1714 82.18 31.852 82.0738 31.5965 81.8613C31.341 81.6488 31.2132 81.3442 31.2132 80.9475C31.2132 80.5792 31.3197 80.2817 31.5326 80.055C31.7455 79.8142 31.994 79.6583 32.2779 79.5875C32.1501 79.375 31.923 79.1979 31.5965 79.0563C31.2842 78.9004 30.9435 78.8225 30.5744 78.8225C30.1911 78.8225 29.822 78.9217 29.4671 79.12C29.1264 79.3183 28.8212 79.6229 28.5515 80.0338C28.2818 80.4446 28.0618 80.9758 27.8914 81.6275C27.7353 82.2792 27.6572 83.0654 27.6572 83.9863C27.6572 85.1763 27.7921 86.1254 28.0618 86.8337C28.3457 87.5279 28.7148 88.0238 29.169 88.3213C29.6233 88.6188 30.113 88.7675 30.6383 88.7675C30.979 88.7675 31.3268 88.7037 31.6817 88.5762C32.0507 88.4487 32.3985 88.2363 32.725 87.9388C33.0657 87.6413 33.3638 87.2375 33.6194 86.7275L34.0239 86.8763C33.8678 87.3438 33.6194 87.8183 33.2787 88.3C32.9522 88.7817 32.5192 89.1783 31.9798 89.49C31.4403 89.8017 30.7802 89.9575 29.9995 89.9575C29.1051 89.9575 28.296 89.7379 27.572 89.2988C26.848 88.8596 26.2731 88.2221 25.8473 87.3863C25.4214 86.5363 25.2084 85.5021 25.2084 84.2838C25.2084 83.0938 25.4214 82.0596 25.8473 81.1813C26.2873 80.2888 26.8906 79.6017 27.6572 79.12C28.4238 78.6383 29.2968 78.3975 30.2763 78.3975Z" fill="#CC950C"/>
<path d="M40.5665 78.3975C41.8157 78.3975 42.7952 78.7729 43.505 79.5238C44.2148 80.2746 44.5697 81.4646 44.5697 83.0938H37.2234L37.1809 82.69H42.3126C42.3268 81.9958 42.27 81.3583 42.1422 80.7775C42.0145 80.1825 41.8157 79.7079 41.546 79.3538C41.2763 78.9996 40.9214 78.8225 40.4813 78.8225C39.8709 78.8225 39.3386 79.1483 38.8843 79.8C38.4443 80.4375 38.1745 81.4646 38.0752 82.8812L38.1391 82.9875C38.1249 83.1858 38.1107 83.4054 38.0965 83.6462C38.0823 83.8729 38.0752 84.0996 38.0752 84.3262C38.0752 85.3037 38.2242 86.1254 38.5223 86.7913C38.8205 87.4571 39.2108 87.96 39.6935 88.3C40.1761 88.6258 40.6659 88.7887 41.1627 88.7887C41.546 88.7887 41.9151 88.7321 42.27 88.6188C42.6391 88.4913 42.9869 88.2858 43.3134 88.0025C43.6399 87.705 43.9309 87.3013 44.1864 86.7913L44.6123 86.9613C44.4419 87.4429 44.1793 87.9175 43.8244 88.385C43.4695 88.8525 43.0153 89.235 42.4616 89.5325C41.908 89.8158 41.2621 89.9575 40.5239 89.9575C39.5302 89.9575 38.6643 89.7379 37.9261 89.2988C37.188 88.8454 36.6201 88.2008 36.2227 87.365C35.8252 86.5292 35.6264 85.5375 35.6264 84.39C35.6264 83.1292 35.8323 82.0525 36.2439 81.16C36.6556 80.2675 37.2305 79.5875 37.9687 79.12C38.7211 78.6383 39.587 78.3975 40.5665 78.3975Z" fill="#CC950C"/>
<path d="M49.997 78.3975C50.5648 78.3975 51.0546 78.4896 51.4663 78.6738C51.8921 78.8438 52.1973 78.9996 52.3819 79.1413C52.8503 79.5096 53.1413 79.2687 53.2549 78.4187H53.7234C53.695 78.8154 53.6737 79.2971 53.6595 79.8637C53.6453 80.4162 53.6382 81.1529 53.6382 82.0738H53.1697C53.0846 81.5496 52.9355 81.0396 52.7226 80.5437C52.5238 80.0479 52.2257 79.6371 51.8283 79.3112C51.445 78.9854 50.941 78.8225 50.3164 78.8225C49.848 78.8225 49.4576 78.9571 49.1453 79.2262C48.833 79.4812 48.6768 79.8637 48.6768 80.3737C48.6768 80.7987 48.8046 81.1671 49.0601 81.4788C49.3156 81.7904 49.6421 82.0808 50.0396 82.35C50.4513 82.6192 50.8913 82.9096 51.3598 83.2213C51.885 83.5754 52.3535 83.9296 52.7652 84.2838C53.191 84.6238 53.5246 85.0063 53.766 85.4313C54.0215 85.8563 54.1492 86.3521 54.1492 86.9187C54.1492 87.5704 53.9718 88.1229 53.6169 88.5762C53.2762 89.0296 52.8219 89.3767 52.2541 89.6175C51.6863 89.8442 51.0617 89.9575 50.3803 89.9575C50.0396 89.9575 49.7202 89.9221 49.4221 89.8512C49.124 89.7946 48.8472 89.7167 48.5916 89.6175C48.4355 89.5325 48.2793 89.4475 48.1232 89.3625C47.9812 89.2633 47.8393 89.1713 47.6973 89.0863C47.5554 88.9871 47.4276 89.0013 47.314 89.1288C47.2005 89.2563 47.1153 89.4829 47.0585 89.8087H46.5901C46.6185 89.3554 46.6398 88.8029 46.6539 88.1513C46.6681 87.4996 46.6752 86.6354 46.6752 85.5588H47.1437C47.2431 86.3379 47.3921 87.025 47.5909 87.62C47.7896 88.215 48.0806 88.6825 48.4639 89.0225C48.8614 89.3483 49.4008 89.5113 50.0822 89.5113C50.3519 89.5113 50.6216 89.4546 50.8913 89.3412C51.1611 89.2137 51.3811 89.0154 51.5514 88.7462C51.736 88.4771 51.8283 88.1158 51.8283 87.6625C51.8283 87.0392 51.6082 86.5292 51.1682 86.1325C50.7423 85.7217 50.1887 85.2896 49.5073 84.8363C49.0246 84.4963 48.5633 84.1633 48.1232 83.8375C47.6973 83.4975 47.3495 83.1221 47.0798 82.7113C46.8101 82.2863 46.6752 81.7833 46.6752 81.2025C46.6752 80.565 46.8243 80.0408 47.1224 79.63C47.4347 79.2192 47.8464 78.9146 48.3574 78.7162C48.8685 78.5037 49.415 78.3975 49.997 78.3975Z" fill="#CC950C"/>
<path d="M59.6248 78.3975C60.1926 78.3975 60.6824 78.4896 61.0941 78.6738C61.5199 78.8438 61.8251 78.9996 62.0097 79.1413C62.4781 79.5096 62.7691 79.2687 62.8827 78.4187H63.3512C63.3228 78.8154 63.3015 79.2971 63.2873 79.8637C63.2731 80.4162 63.266 81.1529 63.266 82.0738H62.7975C62.7124 81.5496 62.5633 81.0396 62.3504 80.5437C62.1516 80.0479 61.8535 79.6371 61.4561 79.3112C61.0728 78.9854 60.5688 78.8225 59.9442 78.8225C59.4758 78.8225 59.0854 78.9571 58.7731 79.2262C58.4608 79.4812 58.3046 79.8637 58.3046 80.3737C58.3046 80.7987 58.4324 81.1671 58.6879 81.4788C58.9434 81.7904 59.2699 82.0808 59.6674 82.35C60.0791 82.6192 60.5191 82.9096 60.9876 83.2213C61.5128 83.5754 61.9813 83.9296 62.393 84.2838C62.8188 84.6238 63.1524 85.0063 63.3938 85.4313C63.6493 85.8563 63.777 86.3521 63.777 86.9187C63.777 87.5704 63.5996 88.1229 63.2447 88.5762C62.904 89.0296 62.4497 89.3767 61.8819 89.6175C61.3141 89.8442 60.6895 89.9575 60.0081 89.9575C59.6674 89.9575 59.348 89.9221 59.0499 89.8512C58.7518 89.7946 58.475 89.7167 58.2194 89.6175C58.0633 89.5325 57.9071 89.4475 57.751 89.3625C57.609 89.2633 57.4671 89.1713 57.3251 89.0863C57.1832 88.9871 57.0554 89.0013 56.9418 89.1288C56.8283 89.2563 56.7431 89.4829 56.6863 89.8087H56.2179C56.2463 89.3554 56.2676 88.8029 56.2817 88.1513C56.2959 87.4996 56.303 86.6354 56.303 85.5588H56.7715C56.8709 86.3379 57.0199 87.025 57.2187 87.62C57.4174 88.215 57.7084 88.6825 58.0917 89.0225C58.4892 89.3483 59.0286 89.5113 59.71 89.5113C59.9797 89.5113 60.2494 89.4546 60.5191 89.3412C60.7889 89.2137 61.0089 89.0154 61.1792 88.7462C61.3638 88.4771 61.4561 88.1158 61.4561 87.6625C61.4561 87.0392 61.236 86.5292 60.796 86.1325C60.3701 85.7217 59.8165 85.2896 59.1351 84.8363C58.6524 84.4963 58.1911 84.1633 57.751 83.8375C57.3251 83.4975 56.9773 83.1221 56.7076 82.7113C56.4379 82.2863 56.303 81.7833 56.303 81.2025C56.303 80.565 56.4521 80.0408 56.7502 79.63C57.0625 79.2192 57.4742 78.9146 57.9852 78.7162C58.4963 78.5037 59.0428 78.3975 59.6248 78.3975Z" fill="#CC950C"/>
<path d="M70.6154 78.3975C71.5665 78.3975 72.4111 78.5958 73.1493 78.9925C73.8875 79.3892 74.4766 80.0125 74.9167 80.8625C75.3567 81.7125 75.5768 82.8246 75.5768 84.1988C75.5768 85.5729 75.3567 86.685 74.9167 87.535C74.4766 88.3708 73.8875 88.9871 73.1493 89.3838C72.4111 89.7663 71.5665 89.9575 70.6154 89.9575C69.6785 89.9575 68.8338 89.7663 68.0815 89.3838C67.3291 88.9871 66.7329 88.3708 66.2928 87.535C65.867 86.685 65.654 85.5729 65.654 84.1988C65.654 82.8246 65.867 81.7125 66.2928 80.8625C66.7329 80.0125 67.3291 79.3892 68.0815 78.9925C68.8338 78.5958 69.6785 78.3975 70.6154 78.3975ZM70.6154 78.8225C69.8772 78.8225 69.2739 79.2475 68.8055 80.0975C68.337 80.9333 68.1028 82.3004 68.1028 84.1988C68.1028 86.0971 68.337 87.4642 68.8055 88.3C69.2739 89.1217 69.8772 89.5325 70.6154 89.5325C71.3394 89.5325 71.9356 89.1217 72.404 88.3C72.8867 87.4642 73.128 86.0971 73.128 84.1988C73.128 82.3004 72.8867 80.9333 72.404 80.0975C71.9356 79.2475 71.3394 78.8225 70.6154 78.8225Z" fill="#CC950C"/>
<path d="M83.9389 78.3975C84.3506 78.3975 84.6984 78.4825 84.9823 78.6525C85.2804 78.8225 85.5005 79.0421 85.6424 79.3112C85.7986 79.5662 85.8766 79.8567 85.8766 80.1825C85.8766 80.5933 85.7489 80.9475 85.4934 81.245C85.252 81.5283 84.9255 81.67 84.5139 81.67C84.159 81.67 83.8538 81.5637 83.5982 81.3512C83.3569 81.1387 83.2363 80.8483 83.2363 80.48C83.2363 80.1683 83.3143 79.9062 83.4705 79.6937C83.6408 79.4671 83.8325 79.29 84.0454 79.1625C83.9034 79.0492 83.7331 78.9996 83.5344 79.0137C83.1511 79.0279 82.7962 79.1554 82.4697 79.3962C82.1432 79.6229 81.8664 79.9204 81.6393 80.2887C81.4121 80.6429 81.2347 81.0254 81.1069 81.4362C80.9792 81.8471 80.9153 82.2296 80.9153 82.5837V87.4713C80.9153 88.1654 81.1069 88.6329 81.4902 88.8737C81.8735 89.1004 82.4058 89.2138 83.0872 89.2138V89.66C82.7607 89.6458 82.2923 89.6317 81.6818 89.6175C81.0856 89.5892 80.4539 89.575 79.7867 89.575C79.2757 89.575 78.7646 89.5892 78.2536 89.6175C77.7425 89.6317 77.3522 89.6458 77.0825 89.66V89.2138C77.6361 89.2138 78.0265 89.1075 78.2536 88.895C78.4949 88.6825 78.6156 88.2787 78.6156 87.6837V81.0113C78.6156 80.3738 78.5091 79.9062 78.2962 79.6087C78.0832 79.2971 77.6787 79.1413 77.0825 79.1413V78.695C77.5367 78.7375 77.9768 78.7588 78.4026 78.7588C78.8853 78.7588 79.3325 78.7375 79.7441 78.695C80.17 78.6383 80.5604 78.5604 80.9153 78.4613V80.905C81.0856 80.4942 81.3128 80.0975 81.5967 79.715C81.8806 79.3325 82.2213 79.0208 82.6187 78.78C83.0162 78.525 83.4563 78.3975 83.9389 78.3975Z" fill="#CC950C"/>
<path d="M89.2655 73.34C89.7055 73.34 90.0746 73.4817 90.3727 73.765C90.6708 74.0342 90.8199 74.3742 90.8199 74.785C90.8199 75.1958 90.6708 75.5429 90.3727 75.8262C90.0746 76.0954 89.7055 76.23 89.2655 76.23C88.8254 76.23 88.4563 76.0954 88.1582 75.8262C87.8601 75.5429 87.711 75.1958 87.711 74.785C87.711 74.3742 87.8601 74.0342 88.1582 73.765C88.4563 73.4817 88.8254 73.34 89.2655 73.34ZM90.5431 78.4613V87.6837C90.5431 88.2787 90.6566 88.6825 90.8838 88.895C91.1251 89.1075 91.5226 89.2138 92.0762 89.2138V89.66C91.8349 89.6458 91.4587 89.6317 90.9476 89.6175C90.4508 89.5892 89.9398 89.575 89.4145 89.575C88.9177 89.575 88.4066 89.5892 87.8814 89.6175C87.3561 89.6317 86.9658 89.6458 86.7103 89.66V89.2138C87.2639 89.2138 87.6543 89.1075 87.8814 88.895C88.1227 88.6825 88.2434 88.2787 88.2434 87.6837V81.0113C88.2434 80.3738 88.1369 79.9062 87.924 79.6087C87.711 79.2971 87.3065 79.1413 86.7103 79.1413V78.695C87.1645 78.7375 87.6046 78.7588 88.0304 78.7588C88.5131 78.7588 88.9603 78.7375 89.3719 78.695C89.7978 78.6383 90.1882 78.5604 90.5431 78.4613Z" fill="#CC950C"/>
<path d="M112.155 74.615V75.04C111.672 75.0683 111.31 75.1533 111.069 75.295C110.827 75.4367 110.664 75.6704 110.579 75.9963C110.508 76.3079 110.473 76.7542 110.473 77.335V89.745C110.359 89.745 110.245 89.745 110.132 89.745C110.018 89.745 109.898 89.745 109.77 89.745L100.741 76.655V86.855C100.741 87.45 100.784 87.9175 100.869 88.2575C100.954 88.5833 101.139 88.8171 101.423 88.9587C101.707 89.1004 102.14 89.1925 102.722 89.235V89.66C102.452 89.6317 102.104 89.6175 101.678 89.6175C101.267 89.6033 100.876 89.5963 100.507 89.5963C100.152 89.5963 99.7975 89.6033 99.4426 89.6175C99.0877 89.6175 98.7967 89.6317 98.5695 89.66V89.235C99.038 89.1925 99.3929 89.1075 99.6342 88.98C99.8755 88.8383 100.039 88.6046 100.124 88.2787C100.209 87.9529 100.252 87.5067 100.252 86.94V76.8675C100.252 76.3433 100.209 75.9608 100.124 75.72C100.039 75.465 99.8755 75.295 99.6342 75.21C99.3929 75.1108 99.038 75.0542 98.5695 75.04V74.615C98.7967 74.6292 99.0877 74.6433 99.4426 74.6575C99.7975 74.6717 100.152 74.6787 100.507 74.6787C100.82 74.6787 101.125 74.6717 101.423 74.6575C101.721 74.6433 101.984 74.6292 102.211 74.615L109.983 85.7075V77.42C109.983 76.8108 109.933 76.3433 109.834 76.0175C109.749 75.6917 109.564 75.4579 109.28 75.3163C108.996 75.1604 108.57 75.0683 108.003 75.04V74.615C108.258 74.6292 108.599 74.6433 109.025 74.6575C109.45 74.6717 109.848 74.6787 110.217 74.6787C110.572 74.6787 110.927 74.6717 111.282 74.6575C111.637 74.6433 111.928 74.6292 112.155 74.615Z" fill="#CC950C"/>
<path d="M118.359 78.3975C119.31 78.3975 120.155 78.5958 120.893 78.9925C121.631 79.3892 122.221 80.0125 122.661 80.8625C123.101 81.7125 123.321 82.8246 123.321 84.1988C123.321 85.5729 123.101 86.685 122.661 87.535C122.221 88.3708 121.631 88.9871 120.893 89.3838C120.155 89.7663 119.31 89.9575 118.359 89.9575C117.422 89.9575 116.578 89.7663 115.825 89.3838C115.073 88.9871 114.477 88.3708 114.037 87.535C113.611 86.685 113.398 85.5729 113.398 84.1988C113.398 82.8246 113.611 81.7125 114.037 80.8625C114.477 80.0125 115.073 79.3892 115.825 78.9925C116.578 78.5958 117.422 78.3975 118.359 78.3975ZM118.359 78.8225C117.621 78.8225 117.018 79.2475 116.549 80.0975C116.081 80.9333 115.847 82.3004 115.847 84.1988C115.847 86.0971 116.081 87.4642 116.549 88.3C117.018 89.1217 117.621 89.5325 118.359 89.5325C119.083 89.5325 119.679 89.1217 120.148 88.3C120.631 87.4642 120.872 86.0971 120.872 84.1988C120.872 82.3004 120.631 80.9333 120.148 80.0975C119.679 79.2475 119.083 78.8225 118.359 78.8225Z" fill="#CC950C"/>
<path d="M131.491 78.3975C132.627 78.3975 133.571 78.8721 134.323 79.8213C135.09 80.7563 135.473 82.18 135.473 84.0925C135.473 85.4383 135.253 86.5433 134.813 87.4075C134.373 88.2717 133.784 88.9162 133.046 89.3412C132.322 89.7521 131.534 89.9575 130.682 89.9575C130.015 89.9575 129.376 89.7946 128.766 89.4688C128.155 89.1288 127.687 88.6188 127.36 87.9388L127.744 88.045C128.056 88.5267 128.446 88.8879 128.915 89.1288C129.383 89.3696 129.859 89.49 130.341 89.49C131.236 89.49 131.903 89.0579 132.343 88.1937C132.797 87.3296 133.024 85.9979 133.024 84.1988C133.024 83.0229 132.932 82.0596 132.748 81.3087C132.577 80.5579 132.315 80.0125 131.96 79.6725C131.619 79.3183 131.186 79.1413 130.661 79.1413C130.05 79.1413 129.49 79.4033 128.979 79.9275C128.468 80.4517 128.162 81.2096 128.063 82.2012L127.85 81.755C128.049 80.6925 128.475 79.8708 129.128 79.29C129.795 78.695 130.583 78.3975 131.491 78.3975ZM128.191 73.0212V88.7887C127.949 88.8737 127.701 88.98 127.445 89.1075C127.19 89.235 126.949 89.3767 126.721 89.5325C126.494 89.6742 126.281 89.83 126.083 90L125.742 89.83C125.799 89.6317 125.834 89.4333 125.848 89.235C125.877 89.0367 125.891 88.8313 125.891 88.6188V75.5713C125.891 74.9338 125.777 74.4662 125.55 74.1687C125.337 73.8571 124.94 73.7012 124.358 73.7012V73.255C124.812 73.2975 125.252 73.3187 125.678 73.3187C126.147 73.3187 126.594 73.2975 127.02 73.255C127.445 73.1983 127.836 73.1204 128.191 73.0212Z" fill="#CC950C"/>
<path d="M139.546 73.34C139.986 73.34 140.355 73.4817 140.654 73.765C140.952 74.0342 141.101 74.3742 141.101 74.785C141.101 75.1958 140.952 75.5429 140.654 75.8262C140.355 76.0954 139.986 76.23 139.546 76.23C139.106 76.23 138.737 76.0954 138.439 75.8262C138.141 75.5429 137.992 75.1958 137.992 74.785C137.992 74.3742 138.141 74.0342 138.439 73.765C138.737 73.4817 139.106 73.34 139.546 73.34ZM140.824 78.4613V87.6837C140.824 88.2787 140.937 88.6825 141.165 88.895C141.406 89.1075 141.803 89.2138 142.357 89.2138V89.66C142.116 89.6458 141.739 89.6317 141.228 89.6175C140.732 89.5892 140.221 89.575 139.695 89.575C139.198 89.575 138.687 89.5892 138.162 89.6175C137.637 89.6317 137.247 89.6458 136.991 89.66V89.2138C137.545 89.2138 137.935 89.1075 138.162 88.895C138.404 88.6825 138.524 88.2787 138.524 87.6837V81.0113C138.524 80.3738 138.418 79.9062 138.205 79.6087C137.992 79.2971 137.587 79.1413 136.991 79.1413V78.695C137.445 78.7375 137.885 78.7588 138.311 78.7588C138.794 78.7588 139.241 78.7375 139.653 78.695C140.079 78.6383 140.469 78.5604 140.824 78.4613Z" fill="#CC950C"/>
<path d="M147.08 73V87.6837C147.08 88.2787 147.194 88.6825 147.421 88.895C147.662 89.1075 148.059 89.2138 148.613 89.2138V89.66C148.372 89.6458 147.996 89.6317 147.485 89.6175C146.974 89.5892 146.462 89.575 145.951 89.575C145.44 89.575 144.922 89.5892 144.397 89.6175C143.886 89.6317 143.503 89.6458 143.247 89.66V89.2138C143.801 89.2138 144.191 89.1075 144.418 88.895C144.66 88.6825 144.78 88.2787 144.78 87.6837V75.55C144.78 74.9125 144.674 74.445 144.461 74.1475C144.248 73.8358 143.843 73.68 143.247 73.68V73.2337C143.701 73.2762 144.142 73.2975 144.567 73.2975C145.036 73.2975 145.483 73.2762 145.909 73.2337C146.335 73.1771 146.725 73.0992 147.08 73Z" fill="#CC950C"/>
<path d="M152.189 73.34C152.629 73.34 152.998 73.4817 153.297 73.765C153.595 74.0342 153.744 74.3742 153.744 74.785C153.744 75.1958 153.595 75.5429 153.297 75.8262C152.998 76.0954 152.629 76.23 152.189 76.23C151.749 76.23 151.38 76.0954 151.082 75.8262C150.784 75.5429 150.635 75.1958 150.635 74.785C150.635 74.3742 150.784 74.0342 151.082 73.765C151.38 73.4817 151.749 73.34 152.189 73.34ZM153.467 78.4613V87.6837C153.467 88.2787 153.58 88.6825 153.808 88.895C154.049 89.1075 154.446 89.2138 155 89.2138V89.66C154.759 89.6458 154.382 89.6317 153.871 89.6175C153.375 89.5892 152.864 89.575 152.338 89.575C151.841 89.575 151.33 89.5892 150.805 89.6175C150.28 89.6317 149.89 89.6458 149.634 89.66V89.2138C150.188 89.2138 150.578 89.1075 150.805 88.895C151.047 88.6825 151.167 88.2787 151.167 87.6837V81.0113C151.167 80.3738 151.061 79.9062 150.848 79.6087C150.635 79.2971 150.23 79.1413 149.634 79.1413V78.695C150.088 78.7375 150.528 78.7588 150.954 78.7588C151.437 78.7588 151.884 78.7375 152.296 78.695C152.722 78.6383 153.112 78.5604 153.467 78.4613Z" fill="#CC950C"/>
</svg>
