<svg width="148" height="122" viewBox="0 0 148 122" fill="none" xmlns="http://www.w3.org/2000/svg">
<path d="M148 109C127.388 103.603 101.75 100.377 74 100.377C46.25 100.377 20.6125 103.57 0 109C18.7561 100.97 45.0017 96 74 96C102.998 96 129.244 100.97 148 109Z" fill="#E0B443"/>
<path d="M138.114 34.0703C137.6 33.5579 137.022 33.0776 136.412 32.6934C136.316 32.6293 136.219 32.5653 136.091 32.5012C135.834 32.3411 135.545 32.181 135.256 32.0529C135.16 31.9889 135.031 31.9249 134.935 31.8928C134.838 31.8288 134.71 31.7968 134.582 31.7327C134.549 31.7007 134.132 31.5406 134.004 31.5086C133.361 31.2844 132.719 31.1243 132.045 30.9962C131.916 30.9642 131.788 30.9642 131.627 30.9322C131.499 30.9002 131.37 30.9002 131.242 30.9002C131.081 30.8682 130.953 30.8682 130.792 30.8682C130.632 30.8682 130.471 30.8682 130.279 30.8682C130.118 30.8682 129.957 30.8682 129.797 30.8682C129.636 30.8682 129.476 30.9002 129.283 30.9002C128.416 30.9962 127.549 31.2204 126.746 31.5726C125.943 31.9249 125.173 32.3732 124.498 32.9175C123.15 34.0382 122.122 35.5112 121.608 37.1763C121.351 38.0088 121.191 38.8734 121.191 39.706C121.159 40.5705 121.287 41.4991 121.576 42.3317C122.154 44.0288 123.374 45.4697 124.884 46.3343C125.654 46.7826 126.489 47.0708 127.324 47.1989C127.742 47.2629 128.191 47.2949 128.609 47.2949C128.801 47.2949 129.026 47.2629 129.251 47.2629C129.476 47.2309 129.701 47.1989 129.893 47.1348C131.627 46.7506 133.072 45.5018 133.747 43.9968C134.1 43.2283 134.26 42.4277 134.228 41.6272C134.196 40.8267 133.971 39.9941 133.522 39.3537C133.072 38.6813 132.494 38.169 131.82 37.8808C131.146 37.5926 130.407 37.4965 129.733 37.6246C131.081 37.8487 132.141 38.8094 132.494 39.8981C132.655 40.4424 132.687 40.9868 132.558 41.5312C132.462 42.0755 132.237 42.5879 131.916 43.0041C131.306 43.8367 130.343 44.349 129.412 44.413C128.962 44.4451 128.448 44.381 127.966 44.2209C127.485 44.0928 127.067 43.8367 126.682 43.5485C125.911 42.9721 125.397 42.1396 125.173 41.275C125.076 40.8267 125.044 40.4104 125.108 39.9301C125.141 39.4498 125.269 38.9695 125.43 38.5212C125.494 38.3611 125.558 38.201 125.654 38.0409C125.687 37.9768 125.719 37.9448 125.751 37.8808C126.425 36.6319 127.613 35.6713 129.026 35.3191C129.122 35.2871 129.219 35.2871 129.315 35.255C129.444 35.223 129.54 35.223 129.668 35.191C129.829 35.159 129.99 35.159 130.182 35.159C131.98 35.127 133.715 35.8634 134.999 37.1123C136.283 38.3931 136.99 40.0902 136.99 41.8834C137.022 46.5905 132.591 50.8813 126.489 50.8813H79.8626C77.7753 50.8813 76.1055 52.5464 76.1055 54.6277V91.8361C79.124 91.9963 82.1104 92.2204 85.0647 92.5086V58.054C85.0647 57.0934 85.8675 56.2928 86.8309 56.2928H90.6201C91.5835 56.2928 92.3863 57.0934 92.3863 58.054V92.4125C95.4369 92.7968 98.4234 93.2131 101.346 93.6934V57.7018C101.346 56.9333 101.988 56.2928 102.758 56.2928H107.254C108.025 56.2928 108.667 56.9333 108.667 57.7018V94.622C111.75 95.2624 114.736 95.9348 117.626 96.6713V62.4088C118.622 63.1774 119.906 63.5616 121.319 63.3695C123.342 63.0813 125.012 61.4482 125.333 59.4309C125.59 57.7978 125.044 56.2928 124.017 55.2361C124.017 55.2361 132.526 56.2608 137.472 51.3296C137.632 51.1695 137.761 51.0414 137.889 50.8813C140.137 48.4157 141.357 45.2776 141.325 41.9154C141.357 38.9375 140.201 36.1516 138.114 34.0703ZM120.613 60.9679C119.296 60.9679 118.237 59.9112 118.237 58.5984C118.237 57.1254 119.585 55.9726 121.127 56.2608C122.026 56.4529 122.764 57.1574 122.957 58.054C123.278 59.623 122.09 60.9679 120.613 60.9679Z" fill="#E0B443"/>
<path d="M7.12891 41.8834C7.12891 45.2456 8.34917 48.3836 10.5649 50.8493C10.6933 51.0094 10.8539 51.1695 10.9824 51.2976C15.9597 56.2608 24.4373 55.2041 24.4373 55.2041C23.4097 56.2608 22.8317 57.7658 23.1207 59.3989C23.4418 61.4162 25.1117 63.0493 27.1347 63.3375C28.5155 63.5296 29.8321 63.1453 30.8276 62.3768V96.7033C33.7177 95.9669 36.7041 95.2624 39.7869 94.654V57.7018C39.7869 56.9333 40.4291 56.2928 41.1998 56.2928H45.6955C46.4662 56.2928 47.1084 56.9333 47.1084 57.7018V93.7254C50.0306 93.2451 53.0171 92.7968 56.0677 92.4445V58.054C56.0677 57.0934 56.8705 56.2928 57.8339 56.2928H61.6552C62.6507 56.2928 63.4214 57.0934 63.4214 58.054V92.5086C66.3436 92.2204 69.33 92.0283 72.3806 91.8361V54.6277C72.3806 52.5464 70.7108 50.8813 68.6235 50.8813H21.9326C15.8313 50.8813 11.3998 46.5905 11.4319 41.8834C11.4319 40.0902 12.1384 38.3931 13.4229 37.1123C14.7074 35.8314 16.4093 35.127 18.2397 35.159C18.4002 35.159 18.5929 35.159 18.7535 35.191C18.8819 35.191 19.0104 35.223 19.1067 35.255C19.203 35.2871 19.2994 35.2871 19.3957 35.3191C20.8086 35.6393 21.9968 36.5999 22.6711 37.8808C22.7033 37.9448 22.7354 37.9768 22.7675 38.0409C22.8638 38.201 22.928 38.3611 22.9923 38.5212C23.1528 38.9695 23.2813 39.4498 23.3134 39.9301C23.3455 40.4104 23.3455 40.8267 23.2492 41.275C23.0244 42.1396 22.5106 42.9721 21.7399 43.5485C21.3546 43.8367 20.9371 44.0608 20.4554 44.2209C19.9737 44.349 19.4599 44.4451 19.0104 44.413C18.0791 44.381 17.1158 43.8687 16.5056 43.0041C16.1845 42.5878 15.9597 42.0755 15.8634 41.5312C15.7349 40.9868 15.7671 40.4424 15.9276 39.8981C16.2808 38.8094 17.3084 37.8487 18.6893 37.6246C18.0149 37.4965 17.2763 37.5926 16.602 37.8808C15.9276 38.169 15.3175 38.6813 14.9 39.3537C14.4505 39.9941 14.2257 40.8267 14.1936 41.6272C14.1614 42.4277 14.322 43.2603 14.6752 43.9968C15.3496 45.5018 16.7946 46.7506 18.5287 47.1348C18.7535 47.1668 18.9461 47.2309 19.1709 47.2629C19.3957 47.2949 19.6205 47.2949 19.8132 47.2949C20.2306 47.327 20.6802 47.2629 21.0977 47.1989C21.9326 47.0708 22.7675 46.7826 23.5382 46.3343C25.0474 45.4697 26.2677 44.0288 26.8457 42.3317C27.1347 41.4991 27.2632 40.5385 27.2311 39.706C27.2311 38.8414 27.0705 37.9768 26.8136 37.1763C26.2998 35.5112 25.2722 34.0382 23.9235 32.9175C23.2492 32.3732 22.4785 31.9249 21.6757 31.5726C20.8729 31.2524 20.0058 31.0283 19.1388 30.9002C18.9783 30.9002 18.7856 30.8682 18.625 30.8682C18.4645 30.8682 18.3039 30.8682 18.1433 30.8682C17.9828 30.8682 17.8222 30.8682 17.6296 30.8682C17.469 30.8682 17.3405 30.8682 17.18 30.9002C17.0515 30.9002 16.9231 30.9322 16.7946 30.9322C16.6662 30.9642 16.5377 30.9642 16.3772 30.9962C15.7028 31.0923 15.0606 31.2844 14.4183 31.5086C14.2899 31.5406 13.8724 31.7327 13.8403 31.7327C13.7119 31.7648 13.6155 31.8288 13.4871 31.8928C13.3908 31.9249 13.2623 31.9889 13.166 32.0529C12.877 32.181 12.6201 32.3411 12.3311 32.5012C12.2347 32.5653 12.1384 32.6293 12.0099 32.6934C11.3998 33.0776 10.8218 33.5579 10.308 34.0703C8.28494 36.1516 7.12891 38.9375 7.12891 41.8834ZM25.5612 58.054C25.7539 57.1574 26.4925 56.4529 27.3916 56.2608C28.933 55.9406 30.2817 57.1254 30.2817 58.5983C30.2817 59.9112 29.222 60.9679 27.9054 60.9679C26.3961 60.9679 25.2401 59.623 25.5612 58.054Z" fill="#E0B443"/>
<path d="M145.063 27.1948H2.93653C2.41982 27.1948 2 26.7785 2 26.2661V23.9286C2 23.4163 2.41982 23 2.93653 23H145.063C145.58 23 146 23.4163 146 23.9286V26.2661C145.968 26.7785 145.58 27.1948 145.063 27.1948Z" fill="#E0B443"/>
<path d="M115.989 45.4701H32.4977C31.9839 45.4701 31.5664 45.0539 31.5664 44.5415V42.204C31.5664 41.6917 31.9839 41.2754 32.4977 41.2754H115.989C116.503 41.2754 116.92 41.6917 116.92 42.204V44.5415C116.92 45.0539 116.503 45.4701 115.989 45.4701Z" fill="#E0B443"/>
<path d="M115.989 38.2973H32.4977C31.9839 38.2973 31.5664 37.881 31.5664 37.3687V35.0311C31.5664 34.5188 31.9839 34.1025 32.4977 34.1025H115.989C116.503 34.1025 116.92 34.5188 116.92 35.0311V37.3687C116.92 37.881 116.503 38.2973 115.989 38.2973Z" fill="#E0B443"/>
<path d="M11.9187 19C10.2518 19 8.73956 18.6638 7.382 17.9914C6.04162 17.3017 4.97619 16.2845 4.18572 14.9397C3.39524 13.5948 3 11.9483 3 10C3 8.51724 3.24058 7.21552 3.72174 6.09483C4.2029 4.97414 4.8559 4.03448 5.68075 3.27586C6.52278 2.51724 7.4851 1.94828 8.56771 1.56897C9.66751 1.18966 10.8274 1 12.0475 1C13.027 1 13.9292 1.11207 14.7541 1.33621C15.5789 1.56035 16.3522 1.87069 17.0739 2.26724L17.177 5.44828H16.9193L15.6305 3.37931C15.4586 3.05172 15.2696 2.75862 15.0634 2.5C14.8572 2.22414 14.5994 2.01724 14.2901 1.87931C14.0323 1.75862 13.7746 1.67241 13.5168 1.62069C13.2762 1.55172 12.9669 1.51724 12.5888 1.51724C11.5921 1.51724 10.6814 1.78448 9.85653 2.31897C9.04887 2.85345 8.39587 3.74138 7.89752 4.98276C7.41636 6.2069 7.17578 7.88793 7.17578 10.0259C7.17578 12.1466 7.40777 13.8276 7.87175 15.069C8.33572 16.2931 8.96295 17.1724 9.75343 17.7069C10.5611 18.2241 11.4633 18.4828 12.46 18.4828C13.0099 18.4828 13.4481 18.4483 13.7746 18.3793C14.1011 18.2931 14.4276 18.1724 14.7541 18.0172C15.0806 17.8793 15.3297 17.681 15.5016 17.4224C15.6734 17.1466 15.8281 16.8534 15.9656 16.5431L17.0997 14.0086H17.3575L17.2801 17.7069C16.5584 18.0862 15.7507 18.3966 14.8572 18.6379C13.9636 18.8793 12.9841 19 11.9187 19Z" fill="#E0B443"/>
<path d="M26.4999 19C25.4516 19 24.4377 18.8103 23.4582 18.431C22.4959 18.0517 21.6281 17.4914 20.8548 16.75C20.0987 15.9914 19.4973 15.0517 19.0505 13.931C18.6037 12.8103 18.3803 11.5 18.3803 10C18.3803 8.51724 18.6037 7.21552 19.0505 6.09483C19.4973 4.97414 20.1073 4.0431 20.8806 3.30172C21.6539 2.5431 22.5217 1.97414 23.484 1.59483C24.4635 1.19828 25.4688 1 26.4999 1C27.5481 1 28.5534 1.18966 29.5157 1.56897C30.4952 1.93103 31.363 2.49138 32.1191 3.25C32.8924 3.99138 33.5025 4.93103 33.9493 6.06897C34.396 7.18966 34.6194 8.5 34.6194 10C34.6194 11.4655 34.396 12.7672 33.9493 13.9052C33.5025 15.0259 32.8924 15.9655 32.1191 16.7241C31.363 17.4655 30.4952 18.0345 29.5157 18.431C28.5534 18.8103 27.5481 19 26.4999 19ZM26.4999 18.4569C27.445 18.4569 28.2097 18.2069 28.794 17.7069C29.3782 17.1897 29.7992 16.319 30.057 15.0948C30.332 13.8534 30.4694 12.1552 30.4694 10C30.4694 7.82759 30.332 6.12931 30.057 4.90517C29.7992 3.66379 29.3782 2.7931 28.794 2.2931C28.2097 1.77586 27.445 1.51724 26.4999 1.51724C25.5719 1.51724 24.8158 1.77586 24.2315 2.2931C23.6473 2.7931 23.2177 3.66379 22.9427 4.90517C22.6849 6.12931 22.5561 7.82759 22.5561 10C22.5561 12.1552 22.6849 13.8534 22.9427 15.0948C23.2177 16.319 23.6473 17.1897 24.2315 17.7069C24.8158 18.2069 25.5719 18.4569 26.4999 18.4569Z" fill="#E0B443"/>
<path d="M35.145 18.5345V18.2759L35.6606 18.0948C36.2448 17.9052 36.537 17.4138 36.537 16.6207V3.37931C36.537 3.03448 36.494 2.75862 36.4081 2.55172C36.3393 2.34483 36.1417 2.17241 35.8152 2.03448L35.145 1.72414V1.46552H40.1199L44.8885 13.9828L49.3736 1.46552H54.4516V1.72414L54.0392 1.87931C53.7127 2 53.4893 2.17241 53.369 2.39655C53.2487 2.60345 53.1885 2.87931 53.1885 3.22414V16.75C53.1885 17.0948 53.2315 17.3621 53.3174 17.5517C53.4034 17.7414 53.6096 17.9052 53.9361 18.0431L54.4516 18.2759V18.5345H48.0333V18.2759L48.5746 18.0431C48.9011 17.9052 49.1073 17.7414 49.1932 17.5517C49.2791 17.3621 49.3221 17.0948 49.3221 16.75V10.931L49.3736 3.53448L43.9864 18.5345H42.6975L37.0783 3.71552L37.1556 10.1552V16.6724C37.1556 17.0517 37.2072 17.3621 37.3103 17.6034C37.4305 17.8276 37.6539 17.9914 37.9804 18.0948L38.5475 18.2759V18.5345H35.145Z" fill="#E0B443"/>
<path d="M55.5346 18.5345V18.2759L56.0501 18.0948C56.6344 17.9052 56.9265 17.4138 56.9265 16.6207V3.37931C56.9265 3.03448 56.8836 2.75862 56.7977 2.55172C56.7289 2.34483 56.5313 2.17241 56.2048 2.03448L55.5346 1.72414V1.46552H60.5095L65.2781 13.9828L69.7632 1.46552H74.8412V1.72414L74.4287 1.87931C74.1022 2 73.8788 2.17241 73.7586 2.39655C73.6383 2.60345 73.5781 2.87931 73.5781 3.22414V16.75C73.5781 17.0948 73.6211 17.3621 73.707 17.5517C73.7929 17.7414 73.9991 17.9052 74.3256 18.0431L74.8412 18.2759V18.5345H68.4228V18.2759L68.9641 18.0431C69.2906 17.9052 69.4968 17.7414 69.5828 17.5517C69.6687 17.3621 69.7117 17.0948 69.7117 16.75V10.931L69.7632 3.53448L64.3759 18.5345H63.0871L57.4678 3.71552L57.5452 10.1552V16.6724C57.5452 17.0517 57.5967 17.3621 57.6998 17.6034C57.8201 17.8276 58.0435 17.9914 58.37 18.0948L58.9371 18.2759V18.5345H55.5346Z" fill="#E0B443"/>
<path d="M75.9757 18.5345V18.2759L76.5686 18.0431C76.8607 17.9224 77.0583 17.7672 77.1614 17.5776C77.2817 17.3707 77.3419 17.0948 77.3419 16.75V3.25C77.3419 2.90517 77.2903 2.63793 77.1872 2.44828C77.1013 2.24138 76.8951 2.07759 76.5686 1.9569L75.9757 1.72414V1.46552H88.3226L88.4773 5.44828H88.2195L87.1112 3.01724C86.9565 2.7069 86.7932 2.4569 86.6214 2.26724C86.4496 2.07759 86.1918 1.98276 85.8481 1.98276H81.2083V9.4569H83.9664C84.3101 9.4569 84.5679 9.37069 84.7397 9.19828C84.9287 9.00862 85.092 8.75862 85.2295 8.44828L85.745 7.41379H86.0028V12.069H85.745L85.2295 10.9828C85.0748 10.6724 84.9116 10.431 84.7397 10.2586C84.5679 10.069 84.3101 9.97414 83.9664 9.97414H81.2083V18.0172H86.4152C86.7589 18.0172 87.0252 17.931 87.2143 17.7586C87.4033 17.569 87.5579 17.3103 87.6782 16.9828L88.7351 14.5517H88.9928L88.8382 18.5345H75.9757Z" fill="#E0B443"/>
<path d="M90.2736 18.5345V18.2759L90.8149 18.0948C91.1586 17.9741 91.382 17.819 91.4851 17.6293C91.5882 17.4224 91.6398 17.1379 91.6398 16.7759V3.25C91.6398 2.90517 91.5882 2.63793 91.4851 2.44828C91.3992 2.24138 91.193 2.07759 90.8665 1.9569L90.2736 1.72414V1.46552H97.6457C99.6734 1.46552 101.229 1.85345 102.311 2.62931C103.394 3.38793 103.935 4.44828 103.935 5.81035C103.935 6.56897 103.652 7.32759 103.084 8.08621C102.517 8.84483 101.624 9.43104 100.404 9.84483L103.987 16.9828C104.141 17.2759 104.313 17.5172 104.502 17.7069C104.708 17.8793 104.975 18.0345 105.301 18.1724L105.636 18.3017V18.5345H101.022L97.2075 10.3879H95.4547V16.7759C95.4547 17.1034 95.5062 17.3707 95.6093 17.5776C95.7124 17.7845 95.9272 17.9397 96.2537 18.0431L96.8724 18.2759V18.5345H90.2736ZM95.4547 9.87069H96.6919C97.9292 9.87069 98.8228 9.5431 99.3727 8.88793C99.9226 8.21552 100.198 7.22414 100.198 5.91379C100.198 4.58621 99.9398 3.60345 99.4242 2.96552C98.9087 2.31034 98.0409 1.98276 96.8208 1.98276H95.4547V9.87069Z" fill="#E0B443"/>
<path d="M114.823 19C113.156 19 111.644 18.6638 110.286 17.9914C108.946 17.3017 107.881 16.2845 107.09 14.9397C106.3 13.5948 105.904 11.9483 105.904 10C105.904 8.51724 106.145 7.21552 106.626 6.09483C107.107 4.97414 107.76 4.03448 108.585 3.27586C109.427 2.51724 110.389 1.94828 111.472 1.56897C112.572 1.18966 113.732 1 114.952 1C115.931 1 116.834 1.11207 117.658 1.33621C118.483 1.56035 119.257 1.87069 119.978 2.26724L120.081 5.44828H119.824L118.535 3.37931C118.363 3.05172 118.174 2.75862 117.968 2.5C117.762 2.22414 117.504 2.01724 117.194 1.87931C116.937 1.75862 116.679 1.67241 116.421 1.62069C116.181 1.55172 115.871 1.51724 115.493 1.51724C114.497 1.51724 113.586 1.78448 112.761 2.31897C111.953 2.85345 111.3 3.74138 110.802 4.98276C110.321 6.2069 110.08 7.88793 110.08 10.0259C110.08 12.1466 110.312 13.8276 110.776 15.069C111.24 16.2931 111.867 17.1724 112.658 17.7069C113.465 18.2241 114.368 18.4828 115.364 18.4828C115.914 18.4828 116.352 18.4483 116.679 18.3793C117.005 18.2931 117.332 18.1724 117.658 18.0172C117.985 17.8793 118.234 17.681 118.406 17.4224C118.578 17.1466 118.732 16.8534 118.87 16.5431L120.004 14.0086H120.262L120.185 17.7069C119.463 18.0862 118.655 18.3966 117.762 18.6379C116.868 18.8793 115.888 19 114.823 19Z" fill="#E0B443"/>
<path d="M121.487 18.5345V18.2759L122.003 18.069C122.346 17.9483 122.57 17.7845 122.673 17.5776C122.793 17.3707 122.853 17.0948 122.853 16.75V3.25C122.853 2.90517 122.802 2.62931 122.699 2.42241C122.596 2.21552 122.364 2.05172 122.003 1.93103L121.487 1.72414V1.46552H128.112V1.72414L127.596 1.93103C127.253 2.05172 127.021 2.21552 126.9 2.42241C126.797 2.62931 126.746 2.90517 126.746 3.25V16.75C126.746 17.0948 126.797 17.3707 126.9 17.5776C127.021 17.7672 127.253 17.931 127.596 18.069L128.112 18.2759V18.5345H121.487Z" fill="#E0B443"/>
<path d="M136.88 19C135.832 19 134.818 18.8103 133.839 18.431C132.876 18.0517 132.009 17.4914 131.235 16.75C130.479 15.9914 129.878 15.0517 129.431 13.931C128.984 12.8103 128.761 11.5 128.761 10C128.761 8.51724 128.984 7.21552 129.431 6.09483C129.878 4.97414 130.488 4.0431 131.261 3.30172C132.034 2.5431 132.902 1.97414 133.865 1.59483C134.844 1.19828 135.849 1 136.88 1C137.929 1 138.934 1.18966 139.896 1.56897C140.876 1.93103 141.744 2.49138 142.5 3.25C143.273 3.99138 143.883 4.93103 144.33 6.06897C144.777 7.18966 145 8.5 145 10C145 11.4655 144.777 12.7672 144.33 13.9052C143.883 15.0259 143.273 15.9655 142.5 16.7241C141.744 17.4655 140.876 18.0345 139.896 18.431C138.934 18.8103 137.929 19 136.88 19ZM136.88 18.4569C137.826 18.4569 138.59 18.2069 139.175 17.7069C139.759 17.1897 140.18 16.319 140.438 15.0948C140.713 13.8534 140.85 12.1552 140.85 10C140.85 7.82759 140.713 6.12931 140.438 4.90517C140.18 3.66379 139.759 2.7931 139.175 2.2931C138.59 1.77586 137.826 1.51724 136.88 1.51724C135.952 1.51724 135.196 1.77586 134.612 2.2931C134.028 2.7931 133.598 3.66379 133.323 4.90517C133.066 6.12931 132.937 7.82759 132.937 10C132.937 12.1552 133.066 13.8534 133.323 15.0948C133.598 16.319 134.028 17.1897 134.612 17.7069C135.196 18.2069 135.952 18.4569 136.88 18.4569Z" fill="#E0B443"/>
<path d="M7.07227 122C6.70521 122 6.33146 121.953 5.95104 121.859C5.57063 121.772 5.25361 121.655 5 121.507L5.05005 120.139H5.15016L5.46051 120.793C5.55394 120.981 5.65405 121.148 5.76084 121.296C5.86762 121.437 6.01445 121.547 6.20132 121.628C6.3348 121.695 6.4616 121.742 6.58174 121.769C6.70854 121.789 6.8487 121.799 7.0022 121.799C7.40931 121.799 7.72966 121.688 7.96325 121.467C8.20352 121.246 8.32365 120.961 8.32365 120.612C8.32365 120.284 8.24356 120.029 8.08338 119.848C7.92321 119.66 7.66626 119.479 7.31254 119.305L6.90209 119.124C6.32812 118.869 5.87763 118.577 5.5506 118.249C5.23025 117.913 5.07008 117.471 5.07008 116.921C5.07008 116.525 5.17019 116.183 5.37041 115.895C5.5773 115.607 5.86095 115.386 6.22134 115.231C6.58841 115.077 7.01555 115 7.50275 115C7.85647 115 8.19017 115.047 8.50385 115.141C8.8242 115.235 9.10117 115.362 9.33476 115.523L9.27469 116.73H9.17458L8.76413 115.976C8.65067 115.741 8.53722 115.577 8.42376 115.483C8.3103 115.382 8.18016 115.312 8.03333 115.272C7.94657 115.245 7.86648 115.228 7.79307 115.221C7.71965 115.208 7.62622 115.201 7.51276 115.201C7.17238 115.201 6.8854 115.302 6.65181 115.503C6.41822 115.697 6.30143 115.962 6.30143 116.297C6.30143 116.639 6.39153 116.914 6.57173 117.122C6.75192 117.323 7.01555 117.504 7.36259 117.665L7.8231 117.866C8.4638 118.148 8.92431 118.45 9.20462 118.772C9.48492 119.087 9.62508 119.496 9.62508 119.999C9.62508 120.589 9.4015 121.071 8.95434 121.447C8.51386 121.816 7.8865 122 7.07227 122Z" fill="#E0B443"/>
<path d="M12.519 121.849L10.3766 115.855C10.3299 115.721 10.2665 115.617 10.1864 115.543C10.113 115.463 10.0095 115.402 9.87606 115.362L9.63579 115.282V115.181H12.519V115.282L12.2086 115.372C12.0551 115.412 11.9684 115.483 11.9483 115.583C11.935 115.684 11.9517 115.808 11.9984 115.955L13.48 120.371L14.9716 115.945C15.025 115.791 15.0484 115.664 15.0417 115.563C15.0417 115.463 14.965 115.392 14.8115 115.352L14.5512 115.282V115.181H15.9527V115.282L15.6824 115.362C15.5556 115.396 15.4655 115.456 15.4121 115.543C15.3587 115.624 15.3087 115.731 15.262 115.865L13.2598 121.849H12.519Z" fill="#E0B443"/>
<path d="M16.2214 121.819V121.718L16.4216 121.638C16.5551 121.591 16.6418 121.527 16.6819 121.447C16.7286 121.366 16.752 121.259 16.752 121.125V115.875C16.752 115.741 16.7319 115.634 16.6919 115.553C16.6519 115.473 16.5618 115.409 16.4216 115.362L16.2214 115.282V115.181H18.7942V115.282L18.594 115.362C18.4605 115.409 18.3704 115.473 18.3237 115.553C18.2836 115.634 18.2636 115.741 18.2636 115.875V121.125C18.2636 121.259 18.2836 121.366 18.3237 121.447C18.3704 121.521 18.4605 121.584 18.594 121.638L18.7942 121.718V121.819H16.2214Z" fill="#E0B443"/>
<path d="M19.2125 121.819V121.698L22.6863 115.382H20.7842C20.564 115.382 20.3838 115.432 20.2436 115.533C20.1101 115.634 19.99 115.781 19.8832 115.976L19.4227 116.79H19.3226L19.3927 115.181H24.288V115.302L20.8142 121.618H22.9966C23.2169 121.618 23.3904 121.568 23.5172 121.467C23.6507 121.36 23.7708 121.209 23.8776 121.014L24.3081 120.21H24.4082L24.3381 121.819H19.2125Z" fill="#E0B443"/>
<path d="M24.8143 121.819V121.698L28.2881 115.382H26.3861C26.1658 115.382 25.9856 115.432 25.8455 115.533C25.712 115.634 25.5918 115.781 25.4851 115.976L25.0246 116.79H24.9244L24.9945 115.181H29.8899V115.302L26.4161 121.618H28.5985C28.8187 121.618 28.9922 121.568 29.1191 121.467C29.2525 121.36 29.3727 121.209 29.4794 121.014L29.9099 120.21H30.01L29.94 121.819H24.8143Z" fill="#E0B443"/>
<path d="M30.4362 121.819V121.718L30.6665 121.628C30.7799 121.581 30.8567 121.521 30.8967 121.447C30.9434 121.366 30.9668 121.259 30.9668 121.125V115.875C30.9668 115.741 30.9468 115.637 30.9067 115.563C30.8733 115.483 30.7933 115.419 30.6665 115.372L30.4362 115.282V115.181H35.2315L35.2915 116.73H35.1914L34.7609 115.784C34.7009 115.664 34.6375 115.567 34.5707 115.493C34.504 115.419 34.4039 115.382 34.2704 115.382H32.4684V118.289H33.5396C33.6731 118.289 33.7732 118.255 33.8399 118.188C33.9134 118.114 33.9768 118.017 34.0301 117.897L34.2304 117.494H34.3305V119.305H34.2304L34.0301 118.882C33.9701 118.761 33.9067 118.668 33.8399 118.601C33.7732 118.527 33.6731 118.49 33.5396 118.49H32.4684V121.618H34.4907C34.6241 121.618 34.7276 121.584 34.801 121.517C34.8744 121.443 34.9345 121.343 34.9812 121.216L35.3916 120.27H35.4918L35.4317 121.819H30.4362Z" fill="#E0B443"/>
<path d="M35.9892 121.819V121.718L36.1994 121.648C36.3329 121.601 36.4196 121.541 36.4597 121.467C36.4997 121.386 36.5198 121.276 36.5198 121.135V115.875C36.5198 115.741 36.4997 115.637 36.4597 115.563C36.4263 115.483 36.3462 115.419 36.2194 115.372L35.9892 115.282V115.181H38.8523C39.6398 115.181 40.2438 115.332 40.6643 115.634C41.0848 115.929 41.295 116.341 41.295 116.871C41.295 117.166 41.1849 117.461 40.9646 117.756C40.7444 118.051 40.3973 118.279 39.9235 118.44L41.315 121.216C41.3751 121.33 41.4418 121.423 41.5152 121.497C41.5953 121.564 41.6988 121.625 41.8256 121.678L41.9557 121.728V121.819H40.1638L38.6821 118.651H38.0014V121.135C38.0014 121.262 38.0214 121.366 38.0614 121.447C38.1015 121.527 38.1849 121.588 38.3117 121.628L38.552 121.718V121.819H35.9892ZM38.0014 118.45H38.4819C38.9624 118.45 39.3095 118.322 39.523 118.068C39.7366 117.806 39.8434 117.42 39.8434 116.911C39.8434 116.395 39.7433 116.012 39.5431 115.764C39.3429 115.51 39.0058 115.382 38.532 115.382H38.0014V118.45Z" fill="#E0B443"/>
<path d="M45.2133 122C44.8062 122 44.4124 121.926 44.032 121.779C43.6582 121.631 43.3212 121.413 43.0209 121.125C42.7272 120.83 42.4936 120.465 42.3201 120.029C42.1466 119.593 42.0598 119.083 42.0598 118.5C42.0598 117.923 42.1466 117.417 42.3201 116.981C42.4936 116.545 42.7306 116.183 43.0309 115.895C43.3312 115.6 43.6683 115.379 44.042 115.231C44.4224 115.077 44.8128 115 45.2133 115C45.6204 115 46.0108 115.074 46.3846 115.221C46.765 115.362 47.102 115.58 47.3957 115.875C47.696 116.163 47.9329 116.529 48.1065 116.971C48.28 117.407 48.3667 117.917 48.3667 118.5C48.3667 119.07 48.28 119.576 48.1065 120.019C47.9329 120.455 47.696 120.82 47.3957 121.115C47.102 121.403 46.765 121.625 46.3846 121.779C46.0108 121.926 45.6204 122 45.2133 122ZM45.2133 121.789C45.5803 121.789 45.8773 121.692 46.1043 121.497C46.3312 121.296 46.4947 120.957 46.5948 120.481C46.7016 119.999 46.755 119.338 46.755 118.5C46.755 117.655 46.7016 116.995 46.5948 116.519C46.4947 116.036 46.3312 115.697 46.1043 115.503C45.8773 115.302 45.5803 115.201 45.2133 115.201C44.8529 115.201 44.5592 115.302 44.3323 115.503C44.1054 115.697 43.9385 116.036 43.8318 116.519C43.7317 116.995 43.6816 117.655 43.6816 118.5C43.6816 119.338 43.7317 119.999 43.8318 120.481C43.9385 120.957 44.1054 121.296 44.3323 121.497C44.5592 121.692 44.8529 121.789 45.2133 121.789Z" fill="#E0B443"/>
<path d="M50.9665 121.819V121.718L51.1768 121.638C51.3903 121.551 51.4971 121.38 51.4971 121.125V115.875C51.4971 115.607 51.3903 115.436 51.1768 115.362L50.9665 115.282V115.181H53.6094C54.3169 115.181 54.9242 115.315 55.4314 115.583C55.9453 115.845 56.3391 116.224 56.6127 116.72C56.8931 117.209 57.0332 117.799 57.0332 118.49C57.0332 119.194 56.883 119.794 56.5827 120.29C56.2824 120.786 55.8619 121.165 55.3213 121.427C54.7874 121.688 54.1567 121.819 53.4292 121.819H50.9665ZM52.9988 121.618H53.4292C53.9098 121.618 54.2969 121.524 54.5905 121.336C54.8842 121.142 55.0977 120.82 55.2312 120.371C55.3714 119.915 55.4415 119.291 55.4415 118.5C55.4415 117.709 55.3714 117.089 55.2312 116.639C55.0977 116.183 54.8875 115.862 54.6005 115.674C54.3136 115.479 53.9365 115.382 53.4693 115.382H52.9988V121.618Z" fill="#E0B443"/>
<path d="M57.2136 121.819V121.718L57.4139 121.638C57.5473 121.591 57.6341 121.527 57.6741 121.447C57.7209 121.366 57.7442 121.259 57.7442 121.125V115.875C57.7442 115.741 57.7242 115.634 57.6842 115.553C57.6441 115.473 57.554 115.409 57.4139 115.362L57.2136 115.282V115.181H59.7865V115.282L59.5862 115.362C59.4528 115.409 59.3627 115.473 59.3159 115.553C59.2759 115.634 59.2559 115.741 59.2559 115.875V121.125C59.2559 121.259 59.2759 121.366 59.3159 121.447C59.3627 121.521 59.4528 121.584 59.5862 121.638L59.7865 121.718V121.819H57.2136Z" fill="#E0B443"/>
<path d="M62.3849 121.819V121.718L62.5851 121.648C62.812 121.574 62.9255 121.383 62.9255 121.075V115.925C62.9255 115.791 62.9088 115.684 62.8754 115.603C62.8487 115.523 62.772 115.456 62.6451 115.402L62.3849 115.282V115.181H64.317L66.169 120.049L67.9109 115.181H69.8831V115.282L69.7229 115.342C69.5961 115.389 69.5093 115.456 69.4626 115.543C69.4159 115.624 69.3926 115.731 69.3926 115.865V121.125C69.3926 121.259 69.4092 121.363 69.4426 121.437C69.476 121.511 69.5561 121.574 69.6829 121.628L69.8831 121.718V121.819H67.3904V121.718L67.6006 121.628C67.7274 121.574 67.8075 121.511 67.8408 121.437C67.8742 121.363 67.8909 121.259 67.8909 121.125V118.862L67.9109 115.986L65.8186 121.819H65.3181L63.1357 116.056L63.1657 118.56V121.095C63.1657 121.242 63.1857 121.363 63.2258 121.457C63.2725 121.544 63.3593 121.608 63.4861 121.648L63.7063 121.718V121.819H62.3849Z" fill="#E0B443"/>
<path d="M70.3237 121.819V121.718L70.554 121.628C70.6674 121.581 70.7442 121.521 70.7842 121.447C70.831 121.366 70.8543 121.259 70.8543 121.125V115.875C70.8543 115.741 70.8343 115.637 70.7943 115.563C70.7609 115.483 70.6808 115.419 70.554 115.372L70.3237 115.282V115.181H75.119L75.1791 116.73H75.079L74.6485 115.784C74.5884 115.664 74.525 115.567 74.4583 115.493C74.3915 115.419 74.2914 115.382 74.1579 115.382H72.356V118.289H73.4271C73.5606 118.289 73.6607 118.255 73.7275 118.188C73.8009 118.114 73.8643 118.017 73.9177 117.897L74.1179 117.494H74.218V119.305H74.1179L73.9177 118.882C73.8576 118.761 73.7942 118.668 73.7275 118.601C73.6607 118.527 73.5606 118.49 73.4271 118.49H72.356V121.618H74.3782C74.5117 121.618 74.6151 121.584 74.6885 121.517C74.7619 121.443 74.822 121.343 74.8687 121.216L75.2792 120.27H75.3793L75.3192 121.819H70.3237Z" fill="#E0B443"/>
<path d="M77.2182 121.819V121.718L77.6286 121.618C77.9023 121.557 78.0391 121.39 78.0391 121.115V115.382H77.1881C76.9412 115.382 76.7643 115.449 76.6576 115.583C76.5508 115.711 76.4373 115.888 76.3172 116.116L75.9568 116.82H75.8567L75.9067 115.181H81.6831L81.7231 116.82H81.623L81.2626 116.116C81.1492 115.888 81.039 115.711 80.9323 115.583C80.8255 115.449 80.6486 115.382 80.4017 115.382H79.5507V121.115C79.5507 121.39 79.6876 121.557 79.9612 121.618L80.3716 121.718V121.819H77.2182Z" fill="#E0B443"/>
<path d="M81.2504 121.819V121.718L81.5007 121.628C81.6342 121.574 81.7376 121.511 81.811 121.437C81.8844 121.356 81.9445 121.246 81.9912 121.105L84.0535 115.161H84.9044L86.9367 121.145C86.9901 121.293 87.0501 121.407 87.1169 121.487C87.1836 121.561 87.287 121.625 87.4272 121.678L87.5473 121.718V121.819H85.0045V121.718L85.1547 121.668C85.2949 121.614 85.3783 121.541 85.405 121.447C85.4383 121.346 85.435 121.229 85.395 121.095L84.9244 119.647H82.702L82.2215 121.065C82.1748 121.212 82.1581 121.33 82.1714 121.417C82.1914 121.504 82.2715 121.574 82.4117 121.628L82.6319 121.718V121.819H81.2504ZM82.7721 119.445H84.8644L83.8533 116.318L82.7721 119.445Z" fill="#E0B443"/>
<path d="M87.8625 121.819V121.718L88.0727 121.638C88.2129 121.584 88.2997 121.521 88.333 121.447C88.3731 121.366 88.3931 121.259 88.3931 121.125V115.875C88.3931 115.741 88.3731 115.634 88.333 115.553C88.293 115.473 88.2062 115.409 88.0727 115.362L87.8625 115.282V115.181H90.4153V115.282L90.2351 115.362C90.1083 115.409 90.0215 115.476 89.9748 115.563C89.9281 115.644 89.9048 115.751 89.9048 115.885V121.618H91.4464C91.6934 121.618 91.8736 121.557 91.987 121.437C92.1072 121.316 92.2206 121.142 92.3274 120.914L92.7178 120.069H92.818L92.7279 121.819H87.8625Z" fill="#E0B443"/>
<path d="M93.1808 121.819V121.718L93.3911 121.638C93.5312 121.584 93.618 121.521 93.6514 121.447C93.6914 121.366 93.7114 121.259 93.7114 121.125V115.875C93.7114 115.741 93.6914 115.634 93.6514 115.553C93.6113 115.473 93.5246 115.409 93.3911 115.362L93.1808 115.282V115.181H95.7337V115.282L95.5535 115.362C95.4267 115.409 95.3399 115.476 95.2932 115.563C95.2465 115.644 95.2231 115.751 95.2231 115.885V121.618H96.7648C97.0117 121.618 97.1919 121.557 97.3054 121.437C97.4255 121.316 97.539 121.142 97.6458 120.914L98.0362 120.069H98.1363L98.0462 121.819H93.1808Z" fill="#E0B443"/>
<path d="M98.4992 121.819V121.718L98.6994 121.638C98.8329 121.591 98.9197 121.527 98.9597 121.447C99.0064 121.366 99.0298 121.259 99.0298 121.125V115.875C99.0298 115.741 99.0098 115.634 98.9697 115.553C98.9297 115.473 98.8396 115.409 98.6994 115.362L98.4992 115.282V115.181H101.072V115.282L100.872 115.362C100.738 115.409 100.648 115.473 100.602 115.553C100.561 115.634 100.541 115.741 100.541 115.875V121.125C100.541 121.259 100.561 121.366 100.602 121.447C100.648 121.521 100.738 121.584 100.872 121.638L101.072 121.718V121.819H98.4992Z" fill="#E0B443"/>
<path d="M103.69 121.819V121.718L103.891 121.648C104.024 121.608 104.111 121.547 104.151 121.467C104.198 121.386 104.221 121.279 104.221 121.145V115.875C104.221 115.741 104.198 115.634 104.151 115.553C104.104 115.473 104.014 115.409 103.881 115.362L103.69 115.282V115.181H106.123C107.118 115.181 107.835 115.365 108.275 115.734C108.723 116.096 108.946 116.576 108.946 117.172C108.946 117.555 108.853 117.907 108.666 118.228C108.486 118.544 108.185 118.795 107.765 118.983C107.344 119.17 106.777 119.264 106.063 119.264H105.723V121.115C105.723 121.376 105.853 121.547 106.113 121.628L106.413 121.718V121.819H103.69ZM105.723 119.063H106.103C106.43 119.063 106.697 119.01 106.904 118.902C107.111 118.795 107.264 118.607 107.364 118.339C107.465 118.071 107.515 117.699 107.515 117.223C107.515 116.74 107.458 116.364 107.344 116.096C107.238 115.828 107.077 115.644 106.864 115.543C106.65 115.436 106.383 115.382 106.063 115.382H105.723V119.063Z" fill="#E0B443"/>
<path d="M109.253 121.819V121.718L109.463 121.648C109.597 121.601 109.684 121.541 109.724 121.467C109.764 121.386 109.784 121.276 109.784 121.135V115.875C109.784 115.741 109.764 115.637 109.724 115.563C109.69 115.483 109.61 115.419 109.483 115.372L109.253 115.282V115.181H112.116C112.904 115.181 113.508 115.332 113.928 115.634C114.349 115.929 114.559 116.341 114.559 116.871C114.559 117.166 114.449 117.461 114.229 117.756C114.008 118.051 113.661 118.279 113.187 118.44L114.579 121.216C114.639 121.33 114.706 121.423 114.779 121.497C114.859 121.564 114.963 121.625 115.09 121.678L115.22 121.728V121.819H113.428L111.946 118.651H111.265V121.135C111.265 121.262 111.285 121.366 111.325 121.447C111.366 121.527 111.449 121.588 111.576 121.628L111.816 121.718V121.819H109.253ZM111.265 118.45H111.746C112.226 118.45 112.573 118.322 112.787 118.068C113.001 117.806 113.107 117.42 113.107 116.911C113.107 116.395 113.007 116.012 112.807 115.764C112.607 115.51 112.27 115.382 111.796 115.382H111.265V118.45Z" fill="#E0B443"/>
<path d="M115.539 121.819V121.718L115.77 121.628C115.883 121.581 115.96 121.521 116 121.447C116.047 121.366 116.07 121.259 116.07 121.125V115.875C116.07 115.741 116.05 115.637 116.01 115.563C115.977 115.483 115.896 115.419 115.77 115.372L115.539 115.282V115.181H120.335L120.395 116.73H120.295L119.864 115.784C119.804 115.664 119.741 115.567 119.674 115.493C119.607 115.419 119.507 115.382 119.374 115.382H117.572V118.289H118.643C118.776 118.289 118.876 118.255 118.943 118.188C119.017 118.114 119.08 118.017 119.133 117.897L119.334 117.494H119.434V119.305H119.334L119.133 118.882C119.073 118.761 119.01 118.668 118.943 118.601C118.876 118.527 118.776 118.49 118.643 118.49H117.572V121.618H119.594C119.727 121.618 119.831 121.584 119.904 121.517C119.978 121.443 120.038 121.343 120.084 121.216L120.495 120.27H120.595L120.535 121.819H115.539Z" fill="#E0B443"/>
<path d="M121.072 121.819V121.698L124.546 115.382H122.644C122.424 115.382 122.244 115.432 122.103 115.533C121.97 115.634 121.85 115.781 121.743 115.976L121.283 116.79H121.182L121.253 115.181H126.148V115.302L122.674 121.618H124.856C125.077 121.618 125.25 121.568 125.377 121.467C125.511 121.36 125.631 121.209 125.737 121.014L126.168 120.21H126.268L126.198 121.819H121.072Z" fill="#E0B443"/>
<path d="M126.694 121.819V121.718L126.894 121.638C127.028 121.591 127.115 121.527 127.155 121.447C127.201 121.366 127.225 121.259 127.225 121.125V115.875C127.225 115.741 127.205 115.634 127.165 115.553C127.125 115.473 127.035 115.409 126.894 115.362L126.694 115.282V115.181H129.267V115.282L129.067 115.362C128.933 115.409 128.843 115.473 128.797 115.553C128.756 115.634 128.736 115.741 128.736 115.875V121.125C128.736 121.259 128.756 121.366 128.797 121.447C128.843 121.521 128.933 121.584 129.067 121.638L129.267 121.718V121.819H126.694Z" fill="#E0B443"/>
<path d="M132.673 122C132.265 122 131.872 121.926 131.491 121.779C131.118 121.631 130.78 121.413 130.48 121.125C130.186 120.83 129.953 120.465 129.779 120.029C129.606 119.593 129.519 119.083 129.519 118.5C129.519 117.923 129.606 117.417 129.779 116.981C129.953 116.545 130.19 116.183 130.49 115.895C130.79 115.6 131.128 115.379 131.501 115.231C131.882 115.077 132.272 115 132.673 115C133.08 115 133.47 115.074 133.844 115.221C134.224 115.362 134.561 115.58 134.855 115.875C135.155 116.163 135.392 116.529 135.566 116.971C135.739 117.407 135.826 117.917 135.826 118.5C135.826 119.07 135.739 119.576 135.566 120.019C135.392 120.455 135.155 120.82 134.855 121.115C134.561 121.403 134.224 121.625 133.844 121.779C133.47 121.926 133.08 122 132.673 122ZM132.673 121.789C133.04 121.789 133.337 121.692 133.564 121.497C133.79 121.296 133.954 120.957 134.054 120.481C134.161 119.999 134.214 119.338 134.214 118.5C134.214 117.655 134.161 116.995 134.054 116.519C133.954 116.036 133.79 115.697 133.564 115.503C133.337 115.302 133.04 115.201 132.673 115.201C132.312 115.201 132.019 115.302 131.792 115.503C131.565 115.697 131.398 116.036 131.291 116.519C131.191 116.995 131.141 117.655 131.141 118.5C131.141 119.338 131.191 119.999 131.291 120.481C131.398 120.957 131.565 121.296 131.792 121.497C132.019 121.692 132.312 121.789 132.673 121.789Z" fill="#E0B443"/>
<path d="M138.398 122C138.031 122 137.657 121.953 137.277 121.859C136.896 121.772 136.579 121.655 136.326 121.507L136.376 120.139H136.476L136.786 120.793C136.88 120.981 136.98 121.148 137.087 121.296C137.193 121.437 137.34 121.547 137.527 121.628C137.661 121.695 137.787 121.742 137.908 121.769C138.034 121.789 138.174 121.799 138.328 121.799C138.735 121.799 139.055 121.688 139.289 121.467C139.529 121.246 139.649 120.961 139.649 120.612C139.649 120.284 139.569 120.029 139.409 119.848C139.249 119.66 138.992 119.479 138.638 119.305L138.228 119.124C137.654 118.869 137.203 118.577 136.876 118.249C136.556 117.913 136.396 117.471 136.396 116.921C136.396 116.525 136.496 116.183 136.696 115.895C136.903 115.607 137.187 115.386 137.547 115.231C137.914 115.077 138.341 115 138.829 115C139.182 115 139.516 115.047 139.83 115.141C140.15 115.235 140.427 115.362 140.661 115.523L140.6 116.73H140.5L140.09 115.976C139.976 115.741 139.863 115.577 139.75 115.483C139.636 115.382 139.506 115.312 139.359 115.272C139.272 115.245 139.192 115.228 139.119 115.221C139.045 115.208 138.952 115.201 138.839 115.201C138.498 115.201 138.211 115.302 137.978 115.503C137.744 115.697 137.627 115.962 137.627 116.297C137.627 116.639 137.717 116.914 137.898 117.122C138.078 117.323 138.341 117.504 138.688 117.665L139.149 117.866C139.79 118.148 140.25 118.45 140.53 118.772C140.811 119.087 140.951 119.496 140.951 119.999C140.951 120.589 140.727 121.071 140.28 121.447C139.84 121.816 139.212 122 138.398 122Z" fill="#E0B443"/>
<path d="M141.427 121.819V121.718L141.627 121.638C141.761 121.591 141.848 121.527 141.888 121.447C141.934 121.366 141.958 121.259 141.958 121.125V115.875C141.958 115.741 141.938 115.634 141.898 115.553C141.858 115.473 141.768 115.409 141.627 115.362L141.427 115.282V115.181H144V115.282L143.8 115.362C143.666 115.409 143.576 115.473 143.529 115.553C143.489 115.634 143.469 115.741 143.469 115.875V121.125C143.469 121.259 143.489 121.366 143.529 121.447C143.576 121.521 143.666 121.584 143.8 121.638L144 121.718V121.819H141.427Z" fill="#E0B443"/>
</svg>
