<svg xmlns="http://www.w3.org/2000/svg" width="130" height="70" fill="none"><path fill="#CC950C" d="M16.581 34.538c1.814 1.251 2.113 2.64 2.153 3.011.279.176.558.313.797.45-.379-.645-.757-1.29-1.076-1.956A31 31 0 0 1 17 32.563a3 3 0 0 0-.14-.392 9.9 9.9 0 0 0-1.375-2.738l-.12-.176c-5.062-2.777-2.73-8.429-2.73-8.429-.08 1.252 1.136 2.21 2.372 4.479 1.056 1.936.697 3.285.578 3.657.259.391.498.743.717 1.036-.08-.371-.16-.723-.239-1.095a26 26 0 0 1-.438-3.735l-.02-.47c0-.156-.02-.312-.02-.469v-.939c0-.313.02-.626.04-.938 0-.157.02-.313.02-.47l.04-.47c.02-.312.02-.625-.06-.918l-.36-1.78c-3.687-4.44.579-8.84.579-8.84-.538 1.135.239 2.465.558 5.026.279 2.19-.558 3.325-.817 3.618.1.529.219.978.318 1.35l.04-.294c.04-.312.12-.606.16-.919l.08-.469c.02-.156.06-.313.1-.45.159-.606.298-1.212.478-1.8l.14-.449.059-.215.08-.215.319-.88c.199-.509.418-1.017.637-1.526.419-.919.678-1.897.718-2.874.02-.235.04-.45.06-.665C16.78 3.696 22.282.958 22.282.958c-.877.88-.598 2.406-1.176 4.929-.479 2.151-1.655 2.933-1.994 3.129-.1.743-.159 1.35-.199 1.78 0-.02.02-.04.02-.04l.22-.41.239-.411.478-.802.518-.782c.08-.137.18-.254.26-.391l.278-.372c.28-.391.598-.782.917-1.154.439-.547 1.037-1.35 1.575-1.936.239-.274.458-.567.618-.9 2.312-4.77 7.892-3.421 7.892-3.421-1.255.078-2.053 1.389-4.165 2.895-1.675 1.192-3.01 1.114-3.488 1.036l-.18.059-.637.684c-.838.92-1.635 1.858-2.332 2.875l-.26.372c-.08.137-.159.254-.259.39l-.498.783-.22.372a15 15 0 0 1 1.675-1.232c3.01-4.929 8.59-2.367 8.59-2.367-1.255-.137-2.272 1.037-4.604 2.171-1.993.958-3.348.548-3.707.41-.797.47-1.455.92-1.854 1.194-.239.176-.438.39-.578.665l-.219.41c-.578 1.095-1.036 2.23-1.455 3.384l-.299.88-.08.215-.06.215-.099.45c-.18.586-.299 1.193-.438 1.799a4 4 0 0 0-.08.45c.378-.567.777-1.095 1.176-1.584 1.415-5.574 7.514-4.733 7.514-4.733-1.236.235-1.854 1.643-3.767 3.403-1.614 1.506-3.03 1.506-3.428 1.467-.439.469-.798.9-1.057 1.212-.358.45-.618.998-.657 1.584l-.1.92-.04.469-.08.9c-.02.156 0 .312-.02.45 0 .312-.02.605-.02.918l.02.92c0 .156.02.312.02.45l.04.45c.04.664.12 1.31.22 1.974.139-.547.279-1.075.458-1.564-.678-5.73 5.322-7.119 5.322-7.119-1.077.665-1.156 2.19-2.293 4.518-.976 1.975-2.292 2.483-2.67 2.581-.14.352-.26.685-.38.978a4.05 4.05 0 0 0-.139 2.23v.02c.26 1.192.578 2.366 1.017 3.52a31 31 0 0 0 1.475 3.344c.16.313.339.625.518.919-.1-.646-.16-1.271-.18-1.858-2.73-5.085 2.333-8.547 2.333-8.547-.758.998-.26 2.465-.479 5.046-.18 2.19-1.216 3.149-1.534 3.384v.254a6.78 6.78 0 0 0 1.255 3.911s0 .02.02.02c.698.997 1.495 1.916 2.332 2.796.22.215.419.45.638.646l.658.626c.02 0 0 0 .02-.02q-.3-.528-.539-1.056c-4.504-3.638-1.195-8.781-1.195-8.781-.3 1.212.717 2.366 1.534 4.83.698 2.093.1 3.364-.1 3.697.14.313.26.606.38.86.298.626.717 1.193 1.275 1.623.957.763 1.933 1.467 2.99 2.073.618.352 1.235.685 1.873.998a13.643 13.643 0 0 1-.737-.822c-4.285-1.936-2.69-6.688-2.69-6.688 0 1.017 1.055 1.74 2.192 3.52.976 1.526.757 2.66.677 2.953.14.176.28.352.399.509.418.508.937.919 1.555 1.173 1.116.47 2.272.86 3.428 1.174h.02c.319.097.558.371.558.704a.757.757 0 0 1-.997.762 33 33 0 0 1-3.588-1.33 28 28 0 0 1-3.368-1.818 25.086 25.086 0 0 1-1.893-1.31 5.7 5.7 0 0 0-2.87-1.096c-5.422 2.073-8.252-3.364-8.252-3.364.917.86 2.431.568 4.983 1.096 2.172.45 2.99 1.603 3.169 1.936.518.058.976.117 1.355.137-.339-.294-.677-.607-1.016-.92l-.678-.664c-.22-.216-.439-.47-.658-.704a31 31 0 0 1-2.352-2.973c-.02-.02-.02-.04-.04-.059a3.7 3.7 0 0 0-1.375-1.212c-.1-.04-.18-.098-.259-.137-5.76-.196-6.199-6.298-6.199-6.298.479 1.154 1.993 1.467 4.126 2.954m98.128-.001c-1.814 1.251-2.113 2.64-2.153 3.011-.279.176-.558.313-.797.45.378-.645.757-1.29 1.076-1.956a32 32 0 0 0 1.455-3.48c.04-.138.08-.255.14-.392a9.8 9.8 0 0 1 1.375-2.738l.119-.176c5.063-2.777 2.731-8.429 2.731-8.429.08 1.252-1.136 2.21-2.372 4.479-1.056 1.936-.697 3.285-.578 3.657a23 23 0 0 1-.717 1.036c.079-.371.159-.723.239-1.095.239-1.232.378-2.484.438-3.735l.02-.47c0-.156.02-.312.02-.469v-.939c0-.313-.02-.626-.04-.938 0-.157-.02-.313-.02-.47l-.039-.47c-.02-.312-.02-.625.059-.918l.359-1.78c3.687-4.44-.578-8.84-.578-8.84.538 1.135-.239 2.465-.558 5.026-.279 2.19.558 3.325.817 3.618-.099.529-.219.978-.319 1.35l-.04-.294c-.039-.312-.119-.606-.159-.919l-.08-.469a3 3 0 0 0-.099-.45c-.16-.606-.299-1.212-.479-1.8l-.139-.449-.06-.215-.08-.215-.319-.88a47 47 0 0 0-.638-1.526c-.418-.919-.677-1.897-.717-2.874-.02-.235-.04-.45-.06-.665 1.993-5.418-3.508-8.156-3.508-8.156.877.88.598 2.406 1.176 4.929.478 2.151 1.654 2.933 1.993 3.129.1.743.16 1.35.2 1.78 0-.02-.02-.04-.02-.04l-.22-.41-.239-.411-.478-.802-.518-.782c-.08-.137-.18-.254-.259-.391l-.279-.372c-.28-.391-.598-.782-.917-1.154-.439-.547-1.037-1.35-1.575-1.936a4 4 0 0 1-.618-.9c-2.312-4.77-7.893-3.421-7.893-3.421 1.256.078 2.053 1.389 4.166 2.895 1.674 1.192 3.01 1.114 3.488 1.036l.179.059.638.684c.837.92 1.635 1.858 2.332 2.875l.259.372c.08.137.16.254.259.39l.499.783.219.372q-.837-.705-1.674-1.232c-3.01-4.929-8.591-2.367-8.591-2.367 1.256-.137 2.272 1.037 4.604 2.171 1.994.958 3.349.548 3.708.41.797.47 1.455.92 1.853 1.194.239.176.439.39.578.665l.22.41c.578 1.095 1.036 2.23 1.455 3.384l.299.88.079.215.06.215.1.45c.179.586.299 1.193.438 1.799.04.156.06.293.08.45a21 21 0 0 0-1.176-1.584c-1.415-5.574-7.514-4.733-7.514-4.733 1.236.235 1.853 1.643 3.767 3.403 1.614 1.506 3.029 1.506 3.428 1.467.439.469.797.9 1.056 1.212.359.45.618.998.658 1.584l.1.92.04.469.079.9c.02.156 0 .312.02.45 0 .312.02.605.02.918l-.02.92c0 .156-.02.312-.02.45l-.039.45c-.04.664-.12 1.31-.22 1.974a16 16 0 0 0-.458-1.564c.678-5.73-5.322-7.119-5.322-7.119 1.076.665 1.156 2.19 2.292 4.518.977 1.975 2.292 2.483 2.671 2.581.14.352.259.685.379.978.259.724.299 1.486.139 2.23v.02c-.259 1.192-.578 2.366-1.016 3.52a31 31 0 0 1-1.475 3.344c-.16.313-.339.625-.518.919.099-.646.159-1.271.179-1.858 2.731-5.085-2.332-8.547-2.332-8.547.757.998.259 2.465.478 5.046.18 2.19 1.216 3.149 1.535 3.384v.254a6.77 6.77 0 0 1-1.256 3.911s0 .02-.019.02c-.698.997-1.495 1.916-2.332 2.796-.22.215-.419.45-.638.646l-.658.626c-.02 0 0 0-.02-.02q.299-.528.538-1.056c4.505-3.638 1.196-8.781 1.196-8.781.299 1.212-.717 2.366-1.535 4.83-.697 2.093-.099 3.364.1 3.697-.139.313-.259.606-.379.86-.299.626-.717 1.193-1.275 1.623-.957.763-1.934 1.467-2.99 2.073-.618.352-1.236.685-1.874.998.26-.274.519-.548.738-.822 4.285-1.936 2.691-6.688 2.691-6.688 0 1.017-1.057 1.74-2.193 3.52-.976 1.526-.757 2.66-.677 2.953-.14.176-.28.352-.399.509a3.98 3.98 0 0 1-1.555 1.173 27.29 27.29 0 0 1-3.428 1.174h-.02c-.319.097-.558.371-.558.704a.756.756 0 0 0 .997.762 33 33 0 0 0 3.587-1.33 28 28 0 0 0 5.262-3.129 5.7 5.7 0 0 1 2.87-1.095c5.422 2.073 8.252-3.364 8.252-3.364-.917.86-2.432.568-4.983 1.096-2.172.45-2.99 1.603-3.169 1.936-.518.058-.977.117-1.355.137.338-.294.677-.607 1.016-.92l.678-.664c.219-.216.438-.47.658-.704a31 31 0 0 0 2.351-2.973c.02-.02.02-.04.04-.059a3.7 3.7 0 0 1 1.376-1.212c.099-.04.179-.098.259-.137 5.76-.196 6.198-6.298 6.198-6.298-.478 1.154-1.993 1.467-4.125 2.954M90.11 17.72c.05-.092.05-.183.05-.32v-.091c0-.092 0-.137-.05-.229 0-.045-.05-.045-.05-.09-.048-.046-.048-.092-.097-.138v-.045L79.544 5.81c-.049-.045-.098-.091-.147-.091-.05-.046-.099-.046-.197-.046H52.516c-.05 0-.099 0-.197.046-.049.046-.098.046-.147.091L41.754 16.807v.045c-.05.046-.05.092-.099.137 0 .046-.049.046-.049.091 0 .046-.049.137-.049.229v.09c0 .092 0 .183.05.275.048.09.048.182.097.228l15.972 19.666 7.764 9.582h.05l.098.091c.049.046.098.046.196.046.05 0 .099 0 .197-.046.049-.045.098-.045.098-.091h.05l23.784-29.248c.148 0 .197-.091.197-.183M67.16 44.092l1.671-6.069L79.3 22.921 73.254 36.61zm-8.649-7.483L52.467 22.92l10.467 15.103 1.67 6.069zM52.565 7.27l5.21 3.56-7.765 5.338.245-6.434zM81.51 9.734l.246 6.434-7.814-5.339 5.21-3.559zm-6.389 6.936-1.326-4.244 6.192 4.244zm-8.6 1.506h7.421l-5.357 16.837zM63.18 35.013l-5.357-16.837h7.42zm9.288-23.043 1.474 4.7h-6.34zm-6.585 4.517-5.75-5.52 5.75-3.697 5.75 3.696zm-1.72.183h-6.34l1.474-4.7zm-7.568 0H51.73l6.192-4.244zm.049 1.506 5.062 15.833-10.96-15.833zm9.239 3.741 1.916 15.605-1.916 7.027-1.917-7.027zm9.238-3.741h5.947l-10.96 15.833zm-2.408-8.168L68.34 7.179h8.55zm-13.661 0-4.177-2.829h8.55zM48.928 16.67H43.72l5.406-5.704zm.197 1.506 6.634 15.057-12.236-15.057zm33.515 0h5.603L76.006 33.233zm.197-1.506-.197-5.704 5.406 5.704zM8.847 57.665q-.07.65-.104 1.264a34 34 0 0 0-.018.923q0 .324.018.615.017.29.034.478H8.38Q8.258 59.852 8 59.22q-.243-.633-.745-.889-.485-.273-1.368-.273H4.692q-.554 0-.849.103a.57.57 0 0 0-.38.375q-.104.274-.104.872v8.61q0 .582.103.871.105.29.381.394.296.084.849.085h1.125q.987 0 1.558-.308.59-.307.883-1.008.312-.7.467-1.913h.399q-.052.495-.052 1.298 0 .342.017.991.035.65.104 1.333a52 52 0 0 0-1.991-.034q-1.109-.017-1.974-.017H4.207q-.624 0-1.35.017-.71 0-1.455.017-.726 0-1.402.017v-.342q.589-.034.883-.136a.57.57 0 0 0 .38-.41q.105-.309.105-.923v-8.474q0-.632-.104-.922a.57.57 0 0 0-.398-.41q-.295-.12-.866-.137v-.342l1.402.034q.745 0 1.455.017h4.171a70 70 0 0 0 1.819-.05m-2.874 5.843v.342H2.839v-.342zm.502-2.255q-.07.974-.07 1.486.018.513.018.94t.017.94q.017.512.087 1.486h-.398a10 10 0 0 0-.225-1.077 1.7 1.7 0 0 0-.503-.854q-.346-.324-1.09-.324v-.342q.555 0 .865-.222.33-.222.502-.581a3 3 0 0 0 .243-.735q.087-.392.156-.717zm12.088-4.887v11.532q0 .769.26 1.144.276.36.986.36v.358a11 11 0 0 0-1.073-.051q-.59 0-1.108.05a4.7 4.7 0 0 0-.935.189V58.417q0-.77-.277-1.128-.26-.375-.97-.376v-.358a11.7 11.7 0 0 0 2.164 0q.52-.069.953-.188m-3.896 4.34q.762 0 1.385.324.64.324.9 1.093l-.207.188q-.242-.615-.71-.888a1.96 1.96 0 0 0-1.056-.29q-.987 0-1.61 1.041-.624 1.026-.606 3.178 0 1.418.242 2.324.243.888.71 1.315.485.427 1.16.427t1.212-.564q.555-.563.658-1.623l.156.36q-.174 1.161-.831 1.793-.659.615-1.766.615-1.057 0-1.87-.495-.795-.513-1.23-1.538-.432-1.042-.432-2.614 0-1.554.52-2.58.535-1.042 1.419-1.554a3.8 3.8 0 0 1 1.956-.513m8.967-4.339v11.805q0 .717.277.974.294.256.97.256v.359a33 33 0 0 0-.918-.034 23 23 0 0 0-2.51 0 37 37 0 0 0-.936.034v-.359q.675 0 .953-.256.294-.257.294-.974v-9.755q0-.77-.26-1.128-.26-.375-.987-.376v-.358a11.7 11.7 0 0 0 2.165 0q.519-.069.952-.188m6.201 4.339q1.523 0 2.389.906.865.905.865 2.87h-5.972l-.035-.325h4.172a6.5 6.5 0 0 0-.138-1.537q-.156-.718-.485-1.145a1.04 1.04 0 0 0-.866-.427q-.744 0-1.298.786-.537.768-.658 2.477l.052.085q-.018.24-.035.53a9 9 0 0 0-.017.547q0 1.178.364 1.981t.952 1.213q.588.393 1.194.393.468 0 .9-.136.45-.154.849-.496.398-.358.71-.974l.346.137a4.2 4.2 0 0 1-.64 1.145 3.4 3.4 0 0 1-1.109.922Q30.7 70 29.8 70q-1.212 0-2.112-.53a3.6 3.6 0 0 1-1.385-1.554q-.485-1.008-.485-2.392 0-1.521.502-2.597t1.402-1.64q.918-.58 2.113-.58m13.432-3.11 4.224 10.729q.243.632.554.854.33.222.606.24v.34a12 12 0 0 0-.986-.033q-.555-.017-1.126-.017-.728 0-1.35.017-.623 0-1.004.034v-.342q.883-.035 1.108-.29.242-.274-.104-1.145l-3.116-8.303.277-.307-2.874 7.414q-.312.77-.381 1.282-.052.512.087.802.154.29.519.41.363.12.9.137v.342a16 16 0 0 0-1.056-.034 30 30 0 0 0-.987-.017q-.415 0-.744.017-.311 0-.572.034v-.342q.364-.086.728-.427.363-.342.692-1.162l4.017-10.233h.588m1.818 7.244v.341h-5.16l.174-.341zm8.303-4.135q.59 0 1.126.154.536.136.934.393.415.256.624.615.225.36.225.786 0 .513-.295.803-.294.29-.761.29-.468 0-.78-.256-.31-.257-.311-.735 0-.444.26-.717.26-.292.606-.376-.156-.256-.554-.427a1.85 1.85 0 0 0-.832-.188q-.466 0-.9.239-.416.24-.744.735-.33.495-.537 1.281-.19.786-.19 1.896 0 1.435.329 2.29.345.837.9 1.195.554.36 1.194.36.416 0 .849-.154.45-.154.848-.513.416-.36.727-.974l.33.12a4.4 4.4 0 0 1-.607 1.144 3.15 3.15 0 0 1-1.056.957q-.657.376-1.61.376a3.76 3.76 0 0 1-1.973-.53q-.885-.53-1.403-1.537-.52-1.025-.52-2.495 0-1.435.52-2.494.537-1.076 1.472-1.657.934-.58 2.13-.58m8.469-.001q.59 0 1.126.154.537.136.935.393.415.256.623.615.225.36.225.786 0 .513-.294.803-.295.29-.762.29-.468 0-.78-.256-.31-.257-.31-.735 0-.444.259-.717.26-.292.606-.376-.156-.256-.554-.427a1.85 1.85 0 0 0-.831-.188q-.468 0-.9.239-.417.24-.745.735-.33.495-.537 1.281-.19.786-.19 1.896 0 1.435.329 2.29.345.837.9 1.195.555.36 1.195.36.416 0 .848-.154.45-.154.848-.513.416-.36.727-.974l.33.12a4.4 4.4 0 0 1-.607 1.144 3.15 3.15 0 0 1-1.056.957q-.657.376-1.61.376a3.76 3.76 0 0 1-1.973-.53q-.883-.53-1.403-1.537-.519-1.025-.519-2.495 0-1.435.52-2.494.536-1.076 1.471-1.657.934-.58 2.13-.58m8.366-.001q1.523 0 2.389.906.865.905.865 2.87h-5.972l-.035-.325h4.172a6.5 6.5 0 0 0-.138-1.537q-.156-.718-.485-1.145a1.04 1.04 0 0 0-.865-.427q-.746 0-1.299.786-.537.768-.658 2.477l.052.085-.035.53a9 9 0 0 0-.017.547q0 1.178.364 1.981t.952 1.213q.588.393 1.195.393.467 0 .9-.136.45-.154.848-.496.398-.358.71-.974l.346.137a4.2 4.2 0 0 1-.64 1.145 3.4 3.4 0 0 1-1.108.922Q71.09 70 70.19 70q-1.212 0-2.112-.53a3.6 3.6 0 0 1-1.385-1.554q-.485-1.008-.485-2.392 0-1.521.502-2.597.503-1.076 1.403-1.64.916-.58 2.112-.58m7.667-.001q.693 0 1.195.222.519.205.744.376.572.444.71-.58h.38q-.034.477-.051 1.161a72 72 0 0 0-.017 1.777h-.381a5.2 5.2 0 0 0-.364-1.23 2.4 2.4 0 0 0-.727-.991q-.467-.393-1.23-.393-.57 0-.951.324-.381.308-.381.923 0 .513.311.888.312.376.797.7.501.325 1.073.701.64.427 1.143.855.519.41.814.922.31.512.311 1.196 0 .786-.433 1.332a2.64 2.64 0 0 1-1.108.838q-.692.273-1.523.273-.416 0-.78-.085a4 4 0 0 1-.674-.188l-.381-.205a6 6 0 0 0-.347-.223q-.173-.12-.311.035-.14.153-.208.546h-.38q.034-.546.051-1.332t.017-2.084h.381q.121.939.364 1.657.242.717.71 1.127.484.393 1.315.393.33 0 .658-.136.33-.154.537-.479.225-.325.225-.871 0-.751-.537-1.23a9.7 9.7 0 0 0-1.35-1.042 59 59 0 0 1-1.125-.803 3.9 3.9 0 0 1-.849-.906q-.329-.512-.329-1.213 0-.768.364-1.264.381-.495 1.004-.735.624-.255 1.333-.256m7.828 0q.693 0 1.195.222.519.205.744.376.57.444.71-.58h.38q-.034.477-.051 1.161a72 72 0 0 0-.018 1.777h-.38a5.2 5.2 0 0 0-.364-1.23 2.4 2.4 0 0 0-.727-.991q-.468-.393-1.23-.393-.57 0-.951.324-.381.308-.381.923 0 .513.311.888.311.376.797.7.501.325 1.073.701.64.427 1.143.855.519.41.813.922.312.512.312 1.196 0 .786-.433 1.332a2.64 2.64 0 0 1-1.108.838q-.693.273-1.523.273-.416 0-.78-.085a4 4 0 0 1-.675-.188l-.38-.205a6 6 0 0 0-.347-.223q-.173-.12-.311.035-.14.153-.208.546h-.381q.034-.546.052-1.332t.017-2.084h.381q.12.939.364 1.657.242.717.71 1.127.484.393 1.315.393.33 0 .658-.136.33-.154.537-.479.225-.325.225-.871 0-.751-.537-1.23a9.7 9.7 0 0 0-1.35-1.042 59 59 0 0 1-1.126-.803 3.9 3.9 0 0 1-.848-.906q-.33-.512-.329-1.213 0-.768.364-1.264.38-.495 1.004-.735.623-.255 1.333-.256m8.936 0q1.16 0 2.06.478.9.479 1.437 1.504t.537 2.682-.537 2.682q-.537 1.008-1.437 1.487-.9.46-2.06.461-1.143 0-2.06-.461-.918-.48-1.455-1.487-.519-1.024-.519-2.682t.52-2.682q.536-1.025 1.454-1.504.917-.478 2.06-.478m0 .342q-.9 0-1.472 1.025-.57 1.008-.571 3.297 0 2.289.571 3.297.572.991 1.472.991.882 0 1.454-.99.588-1.01.589-3.298 0-2.289-.589-3.297-.571-1.026-1.454-1.025m10.832-.342q.502 0 .849.205.363.205.536.53.19.307.191.7 0 .495-.312.854-.294.342-.796.342-.433 0-.745-.256-.294-.257-.294-.7 0-.377.191-.633.207-.273.467-.427a.58.58 0 0 0-.416-.12q-.467.017-.865.308a2.4 2.4 0 0 0-.675.718 3.8 3.8 0 0 0-.433.922q-.156.495-.156.923v3.93q0 .836.467 1.127.468.273 1.299.273v.359a61 61 0 0 0-1.143-.034 33 33 0 0 0-1.541-.035q-.623 0-1.246.035a41 41 0 0 0-.952.034v-.359q.675 0 .952-.256.294-.257.294-.974v-5.364q0-.77-.259-1.128-.26-.376-.987-.376v-.359a11.6 11.6 0 0 0 2.164 0q.519-.068.952-.188v1.965q.208-.496.554-.957a2.9 2.9 0 0 1 .831-.751 1.96 1.96 0 0 1 1.073-.308m4.331-4.066q.537 0 .9.342.364.325.364.82 0 .496-.364.837a1.3 1.3 0 0 1-.9.325 1.3 1.3 0 0 1-.9-.325 1.1 1.1 0 0 1-.364-.837q0-.495.364-.82.363-.342.9-.342m1.039 4.117v7.415q0 .717.277.974.294.256.969.256v.359a33 33 0 0 0-.917-.034 22 22 0 0 0-2.493 0q-.641.016-.952.034v-.359q.675 0 .952-.256.294-.257.294-.974v-5.364q0-.77-.26-1.128-.26-.376-.986-.376v-.359a11.6 11.6 0 0 0 2.164 0q.519-.068.952-.188m6.367-.051q1.524 0 2.39.906.865.905.865 2.87h-5.973l-.034-.325h4.172a6.5 6.5 0 0 0-.138-1.537q-.156-.718-.485-1.145a1.04 1.04 0 0 0-.866-.427q-.744 0-1.298.786-.537.768-.658 2.477l.052.085q-.017.24-.035.53a9 9 0 0 0-.017.547q0 1.178.363 1.981.364.804.953 1.213.588.393 1.194.393.468 0 .9-.136.45-.154.849-.496.398-.358.71-.974l.346.137a4.2 4.2 0 0 1-.641 1.145 3.4 3.4 0 0 1-1.108.922q-.675.342-1.575.342-1.212 0-2.112-.53a3.6 3.6 0 0 1-1.385-1.554q-.485-1.008-.485-2.392 0-1.521.502-2.597t1.402-1.64q.918-.58 2.112-.58m8.568-3.247q.918 0 1.402.205.485.206.849.444.207.12.329.188a.8.8 0 0 0 .259.052q.174 0 .243-.188.086-.189.138-.564h.398q-.016.308-.052.734-.017.41-.034 1.094v1.794h-.398a5 5 0 0 0-.381-1.623 3.03 3.03 0 0 0-.935-1.282q-.606-.495-1.558-.495-.883 0-1.472.53-.571.512-.571 1.366 0 .752.381 1.264.38.495 1.039.94.674.427 1.523.957.865.546 1.558 1.093.692.53 1.091 1.18.398.648.398 1.57 0 1.111-.537 1.846a3.15 3.15 0 0 1-1.402 1.076 5.1 5.1 0 0 1-1.939.359q-.97 0-1.541-.205a6.5 6.5 0 0 1-.969-.427q-.38-.24-.589-.24-.173 0-.26.189a3 3 0 0 0-.121.563h-.398q.035-.375.035-.87.017-.514.017-1.334.018-.819.017-2.067h.398q.07 1.06.381 1.982.33.922.987 1.486.675.547 1.783.547.589 0 1.091-.222a1.85 1.85 0 0 0 .814-.7q.31-.48.311-1.23 0-.7-.346-1.23-.329-.53-.935-.974-.588-.462-1.385-.94a29 29 0 0 1-1.523-1.025 4.3 4.3 0 0 1-1.143-1.196q-.415-.683-.415-1.623 0-1.042.484-1.708a3.04 3.04 0 0 1 1.281-.991 4.5 4.5 0 0 1 1.697-.325"/></svg>