<svg xmlns="http://www.w3.org/2000/svg" width="250" height="179" fill="none"><path fill="url(#a)" fill-rule="evenodd" d="M162.925 81.366c.451-.444 1.936-.84 4.267 1.126s8.186 5.803 10.822 7.476c1.873 1.058 6.098 3.686 8.013 5.734s7.666 5.837 10.302 7.476c2.602 1.57 8.429 5.591 10.927 9.114s4.787 4.881 5.619 5.12c-1.457-.034-5.328-.655-9.157-2.867 2.428 2.526 7.43 8.233 8.013 10.855-.764-.137-2.81-.881-4.891-2.765-2.602-2.356-4.683-.922-7.181-4.506-2.497-3.584-7.7-10.036-14.36-10.753 2.185 1.502 7.451 5.489 11.03 9.422 3.58 3.932 9.123 9.694 11.447 12.083-3.191-.648-10.469-2.601-14.048-5.222l2.185 4.403-7.284-3.789c-.486-.409-2.227-1.167-5.308-.922-3.08.246-7.18-.238-8.845-.512.59-.989 2.914-3.092 7.493-3.584-1.665-1.092-6.14-2.806-10.719-.921-4.579 1.884-8.151.785-9.365 0-.833-.478-3.039-.84-5.204 1.536s-4.995 4.54-6.139 5.325c.763-1.195 2.518-4.117 3.434-6.247 1.144-2.662 5.203-6.759 7.909-8.295-.451 1.571-.999 4.875.416 5.53 1.769.819 3.33 1.639 7.492 0 4.163-1.638 10.823-3.379 14.777-.307 3.164 2.458 5.134 3.072 5.724 3.072-2.22-2.56-8.159-7.557-14.153-7.066s-9.574.478-10.614.41c1.422-.273 4.558-1.209 5.723-2.765s1.526-2.287 1.561-2.458c-1.353.615-4.516 1.782-6.348 1.536-2.289-.307 2.29-8.602 4.787-9.011-1.214-.546-3.392-2.007-2.393-3.482s7.145 1.365 10.094 2.97c-1.075-1.502-4.017-5.018-7.18-7.066-3.164-2.048-7.215-7.954-8.846-10.65m16.13 12.288c1.179 1.673 4.225 5.407 6.972 6.964 2.747 1.556 5.654 3.993 6.764 5.018-1.769-2.117-6.993-7.476-13.736-11.982" clip-rule="evenodd"/><path fill="url(#b)" fill-rule="evenodd" d="M162.925 81.366c.451-.444 1.936-.84 4.267 1.126s8.186 5.803 10.822 7.476c1.873 1.058 6.098 3.686 8.013 5.734s7.666 5.837 10.302 7.476c2.602 1.57 8.429 5.591 10.927 9.114s4.787 4.881 5.619 5.12c-1.457-.034-5.328-.655-9.157-2.867 2.428 2.526 7.43 8.233 8.013 10.855-.764-.137-2.81-.881-4.891-2.765-2.602-2.356-4.683-.922-7.181-4.506-2.497-3.584-7.7-10.036-14.36-10.753 2.185 1.502 7.451 5.489 11.03 9.422 3.58 3.932 9.123 9.694 11.447 12.083-3.191-.648-10.469-2.601-14.048-5.222l2.185 4.403-7.284-3.789c-.486-.409-2.227-1.167-5.308-.922-3.08.246-7.18-.238-8.845-.512.59-.989 2.914-3.092 7.493-3.584-1.665-1.092-6.14-2.806-10.719-.921-4.579 1.884-8.151.785-9.365 0-.833-.478-3.039-.84-5.204 1.536s-4.995 4.54-6.139 5.325c.763-1.195 2.518-4.117 3.434-6.247 1.144-2.662 5.203-6.759 7.909-8.295-.451 1.571-.999 4.875.416 5.53 1.769.819 3.33 1.639 7.492 0 4.163-1.638 10.823-3.379 14.777-.307 3.164 2.458 5.134 3.072 5.724 3.072-2.22-2.56-8.159-7.557-14.153-7.066s-9.574.478-10.614.41c1.422-.273 4.558-1.209 5.723-2.765s1.526-2.287 1.561-2.458c-1.353.615-4.516 1.782-6.348 1.536-2.289-.307 2.29-8.602 4.787-9.011-1.214-.546-3.392-2.007-2.393-3.482s7.145 1.365 10.094 2.97c-1.075-1.502-4.017-5.018-7.18-7.066-3.164-2.048-7.215-7.954-8.846-10.65m16.13 12.288c1.179 1.673 4.225 5.407 6.972 6.964 2.747 1.556 5.654 3.993 6.764 5.018-1.769-2.117-6.993-7.476-13.736-11.982" clip-rule="evenodd"/><path fill="url(#c)" d="M158.138 101.744c-.499 2.622-1.318 4.369-1.665 4.916 3.663-.738 5.758-7.75 6.348-11.163-1.353.99-4.183 3.626-4.683 6.247"/><path fill="url(#d)" d="M158.138 101.744c-.499 2.622-1.318 4.369-1.665 4.916 3.663-.738 5.758-7.75 6.348-11.163-1.353.99-4.183 3.626-4.683 6.247"/><path fill="url(#e)" d="m141.696 97.853-1.04 10.343c.624-.308 2.809-5.428 3.33-7.578.416-1.72 2.116.443 2.914 1.741.208-2.868-2.186-4.813-3.643-5.735-1.165-.737-1.526.512-1.561 1.229"/><path fill="url(#f)" d="m141.696 97.853-1.04 10.343c.624-.308 2.809-5.428 3.33-7.578.416-1.72 2.116.443 2.914 1.741.208-2.868-2.186-4.813-3.643-5.735-1.165-.737-1.526.512-1.561 1.229"/><path fill="url(#g)" d="m48.248 110.346-9.157 9.626c.797 0 2.913-.573 4.995-2.867 2.08-2.294 3.226-2.936 3.538-2.97-.59.649-1.707 2.314-1.457 3.789s-3.99 7.715-6.14 10.65c2.532-2.799 7.992-8.622 9.574-9.524s2.74-1.877 3.122-2.252c.312-.342 1.082-.922 1.665-.512.728.512 1.145 1.331 1.145 2.048 0 .716.104 3.072 1.352 2.15 1.25-.921 2.082-4.506 4.059-5.325s.624-1.331 0-2.15c-1.77-2.253-3.226-.615-5.411-.615-2.186 0-2.498-1.843-3.643-3.174-.915-1.065-2.81.307-3.642 1.126"/><path fill="url(#h)" d="m48.248 110.346-9.157 9.626c.797 0 2.913-.573 4.995-2.867 2.08-2.294 3.226-2.936 3.538-2.97-.59.649-1.707 2.314-1.457 3.789s-3.99 7.715-6.14 10.65c2.532-2.799 7.992-8.622 9.574-9.524s2.74-1.877 3.122-2.252c.312-.342 1.082-.922 1.665-.512.728.512 1.145 1.331 1.145 2.048 0 .716.104 3.072 1.352 2.15 1.25-.921 2.082-4.506 4.059-5.325s.624-1.331 0-2.15c-1.77-2.253-3.226-.615-5.411-.615-2.186 0-2.498-1.843-3.643-3.174-.915-1.065-2.81.307-3.642 1.126"/><path fill="url(#i)" d="M79.363 126.695c.832-.307 5.203-4.505 6.348-5.529.915-.82 2.601-.205 3.33.204-2.581 1.393-5.03 6.657-5.932 9.114 1.977-.921 7.285-7.475 8.533-8.806 1.25-1.332 3.018-2.56 4.683-3.175 1.332-.491 4.439-3.344 5.828-4.711.416-.17 1.498-.409 2.497 0 .999.41 2.15.17 2.602 0 .312-.067 1.02-.102 1.353.308.416.512-.105 1.741-2.81 2.56-2.165.655-4.163 2.595-4.891 3.482.243.034.895.061 1.561-.103s1.388.273 1.665.512c.556.307 1.769.512 2.185-1.126.52-2.048 8.95-10.548 10.406-11.674 1.457-1.127 3.955.614 4.683 2.048.583 1.147 6.071 4.028 8.741 5.325.833.614 2.477 2.068 2.394 2.969-.104 1.127-4.163-.921-5.932-1.331-1.415-.327-3.157-1.706-3.85-2.355l-4.475-4.608c0-.103-.208.286-1.04 2.662-1.041 2.97-2.81 2.356-4.059 7.271-.999 3.932-4.787 7.305-6.556 8.5 7.493-1.475 10.198-8.125 10.615-11.265.139.102.687.635 1.769 1.946.583 1.147.381 4.233.208 5.632.583 1.229.452 3.174.312 3.994 2.81-3.482 8.533-5.51 10.614-7.476s7.805-5.188 10.407-6.554c-3.503-1.571-10.719-5.181-11.551-7.066s-2.429-2.902-3.122-3.174c-.348-.137-1.228-.656-1.977-1.639-.937-1.228-1.665-1.433-5.203-3.686s-3.122-10.343-2.81-10.445 5.619-5.735 8.013-8.705c1.914-2.376 3.642-3.994 4.266-4.506 0 1.393-3.954 10.138-5.931 14.337 7.076-6.554 6.868-15.258 8.325-15.156 1.165.082-.208 5.018-1.041 7.476 4.579-5.53 3.85-10.138 3.746-11.674-.083-1.23.313-1.604.521-1.639l4.682-2.663c.5 4.097-1.456 10.104-2.497 12.596 1.249-.983 5.03-5.94 6.764-8.294.452.374 2.31 1.925 6.14 5.12s4.995 5.564 5.099 6.349c-.333-.82-6.175-5.053-9.054-7.066-.172 1.501.063 4.833 2.394 6.144 4.412 2.458 7.041 6.691 7.804 8.5-.666-1.23-7.423-5.428-10.718-7.373-.499.819-3.469 2.39-4.891 3.072-1.041.444-3.434 1.884-4.683 4.096s-4.614 7.27-6.139 9.524c2.601-1.332 5.307-5.53 7.284-8.5s3.434-2.56 5.515-4.096c3.33-2.376 9.782 4.403 12.592 8.09-3.85-3.482-10.51-8.91-12.28-4.506-1.415 3.523-5.03 6.314-6.66 7.27.937 0 4.891-2.047 6.348-3.174 1.166-.901 2.429-.24 2.914.205 1.804 1.501 5.765 4.813 7.18 6.042s.868 2.832.417 3.482c-.798.819-2.56 2.908-3.226 4.71-.833 2.253-4.579 6.759-9.054 9.114-3.58 1.884-7.528 8.842-9.053 12.084.936-.41 5.099-5.12 6.035-6.349.937-1.229 3.643-4.404 7.493-6.554 3.08-1.72 5.447-4.881 6.244-6.247 1.977-3.789 5.994-12.043 6.243-14.746s2.394-3.584 3.434-3.687l5.932-.716a503 503 0 0 1-5.515-7.783c-2.914-4.178-4.752-6.247-5.307-6.759-1.597-1.468-5.162-4.71-6.66-5.94-1.499-1.228-.729-1.807-1.874-2.764-.832-.58-1.019-.287-3.434-1.844-2.414-1.556-5.03-1.263-6.035-.921-.589.307-2.102 1.085-3.434 1.74-1.332.656-1.665 1.64-1.665 2.049v2.56c-1.457.17-4.87 1.188-6.868 3.891s-8.742 9.32-11.864 12.289c-1.456 1.331-2.289.82-5.515.41s-4.891.921-6.66 1.945-3.538.82-5.203.205c-1.665-.614-4.163.307-6.66.41-2.498.102-6.348-1.434-7.805-2.663s-7.805-4.198-9.573-5.12c-1.77-.922-3.539-.615-5.828 3.38-1.832 3.194-3.746 4.403-4.475 4.607-.276.138-1.27.103-3.018-1.126s-3.157.512-3.642 1.536c-4.995.102-4.89 4.813-5.827 7.783s-2.29 3.789-3.226 4.198c-.75.328-1.909 1.366-2.394 1.844l-7.284 7.578c-.38.409-1.686 1.085-3.85.512-2.165-.574-4.44.921-5.307 1.741-.59.682-2.56 2.498-5.724 4.301-3.163 1.802-8.185 6.007-10.302 7.885 2.33 0 7.84-3.415 10.302-5.121.348-.239 1.186-.532 1.77.205.727.922 2.497.41 2.913-1.433.333-1.475 1.04-2.663 1.353-3.073.347-.204 1.061-.307 1.144.922.167 2.376 2.914.102 4.267-1.331 0 2.376 1.804.989 2.706 0 3.121-3.687 9.677-11.162 10.926-11.572s.52 1.469 0 2.458c5.307-6.042 4.059-11.47 6.14-13.825 1.665-1.884 2.29.307 2.393 1.639 1.561-2.15.729-5.12 2.706-4.199 1.582.737.66 6.656 0 9.524 3.226-3.994 1.353-5.53 3.642-7.578 1.832-1.639 1.804 1.775 1.561 3.686.693-2.115 2.248-6.492 2.914-7.066s1.596-2.287 1.977-3.072c.173-.58.812-1.823 1.977-2.15 1.166-.328 6.8 6.69 9.47 10.24-.59-.989-1.728-3.133-1.561-3.789.208-.819 3.642 1.741 5.62 3.79 1.581 1.638 4.405 4.3 5.619 5.427.083-1.065-1.076-4.199-1.665-5.633 4.329 3.605 9.434 10.241 11.447 13.108l-5.204-4.096-.208 1.024c-.333 1.802-7.284-4.096-10.718-7.27 0 .067-.021.45-.104 1.433-.084.983-1.353-.137-1.977-.82-1.214-1.193-4.017-3.87-5.516-5.017s-3.122-3.55-3.746-4.608c.583 4.588-1.7 4.573-2.914 3.993 2.581 1.311 7.041 6.417 8.95 8.807-.452-1.091-1.311-3.4-1.145-3.891.208-.615 4.162 2.97 4.787 5.325.5 1.884 2.774 3.994 3.85 4.813l-1.457-3.379c-.104-.682.125-1.454 1.873.921 2.186 2.97 6.973 5.428 8.534 8.09 1.56 2.663-.209 4.301-2.706 3.482-2.498-.819-2.498-.41-4.37-.41-1.874 0-3.539-1.024-6.14-3.379-2.602-2.355-4.059-1.024-5.412 0-1.082.819-10.441 8.534-14.985 12.289 3.58-.984 12.384-7.646 16.338-10.855-.166 2.867-2.29 4.745-3.33 5.325 3.642 0 4.787-2.356 5.203-3.38.333-.819 1.249-.342 1.665 0l3.33 2.97c-1.748 1.475-3.434 5.462-4.058 7.271"/><path fill="url(#j)" d="M79.363 126.695c.832-.307 5.203-4.505 6.348-5.529.915-.82 2.601-.205 3.33.204-2.581 1.393-5.03 6.657-5.932 9.114 1.977-.921 7.285-7.475 8.533-8.806 1.25-1.332 3.018-2.56 4.683-3.175 1.332-.491 4.439-3.344 5.828-4.711.416-.17 1.498-.409 2.497 0 .999.41 2.15.17 2.602 0 .312-.067 1.02-.102 1.353.308.416.512-.105 1.741-2.81 2.56-2.165.655-4.163 2.595-4.891 3.482.243.034.895.061 1.561-.103s1.388.273 1.665.512c.556.307 1.769.512 2.185-1.126.52-2.048 8.95-10.548 10.406-11.674 1.457-1.127 3.955.614 4.683 2.048.583 1.147 6.071 4.028 8.741 5.325.833.614 2.477 2.068 2.394 2.969-.104 1.127-4.163-.921-5.932-1.331-1.415-.327-3.157-1.706-3.85-2.355l-4.475-4.608c0-.103-.208.286-1.04 2.662-1.041 2.97-2.81 2.356-4.059 7.271-.999 3.932-4.787 7.305-6.556 8.5 7.493-1.475 10.198-8.125 10.615-11.265.139.102.687.635 1.769 1.946.583 1.147.381 4.233.208 5.632.583 1.229.452 3.174.312 3.994 2.81-3.482 8.533-5.51 10.614-7.476s7.805-5.188 10.407-6.554c-3.503-1.571-10.719-5.181-11.551-7.066s-2.429-2.902-3.122-3.174c-.348-.137-1.228-.656-1.977-1.639-.937-1.228-1.665-1.433-5.203-3.686s-3.122-10.343-2.81-10.445 5.619-5.735 8.013-8.705c1.914-2.376 3.642-3.994 4.266-4.506 0 1.393-3.954 10.138-5.931 14.337 7.076-6.554 6.868-15.258 8.325-15.156 1.165.082-.208 5.018-1.041 7.476 4.579-5.53 3.85-10.138 3.746-11.674-.083-1.23.313-1.604.521-1.639l4.682-2.663c.5 4.097-1.456 10.104-2.497 12.596 1.249-.983 5.03-5.94 6.764-8.294.452.374 2.31 1.925 6.14 5.12s4.995 5.564 5.099 6.349c-.333-.82-6.175-5.053-9.054-7.066-.172 1.501.063 4.833 2.394 6.144 4.412 2.458 7.041 6.691 7.804 8.5-.666-1.23-7.423-5.428-10.718-7.373-.499.819-3.469 2.39-4.891 3.072-1.041.444-3.434 1.884-4.683 4.096s-4.614 7.27-6.139 9.524c2.601-1.332 5.307-5.53 7.284-8.5s3.434-2.56 5.515-4.096c3.33-2.376 9.782 4.403 12.592 8.09-3.85-3.482-10.51-8.91-12.28-4.506-1.415 3.523-5.03 6.314-6.66 7.27.937 0 4.891-2.047 6.348-3.174 1.166-.901 2.429-.24 2.914.205 1.804 1.501 5.765 4.813 7.18 6.042s.868 2.832.417 3.482c-.798.819-2.56 2.908-3.226 4.71-.833 2.253-4.579 6.759-9.054 9.114-3.58 1.884-7.528 8.842-9.053 12.084.936-.41 5.099-5.12 6.035-6.349.937-1.229 3.643-4.404 7.493-6.554 3.08-1.72 5.447-4.881 6.244-6.247 1.977-3.789 5.994-12.043 6.243-14.746s2.394-3.584 3.434-3.687l5.932-.716a503 503 0 0 1-5.515-7.783c-2.914-4.178-4.752-6.247-5.307-6.759-1.597-1.468-5.162-4.71-6.66-5.94-1.499-1.228-.729-1.807-1.874-2.764-.832-.58-1.019-.287-3.434-1.844-2.414-1.556-5.03-1.263-6.035-.921-.589.307-2.102 1.085-3.434 1.74-1.332.656-1.665 1.64-1.665 2.049v2.56c-1.457.17-4.87 1.188-6.868 3.891s-8.742 9.32-11.864 12.289c-1.456 1.331-2.289.82-5.515.41s-4.891.921-6.66 1.945-3.538.82-5.203.205c-1.665-.614-4.163.307-6.66.41-2.498.102-6.348-1.434-7.805-2.663s-7.805-4.198-9.573-5.12c-1.77-.922-3.539-.615-5.828 3.38-1.832 3.194-3.746 4.403-4.475 4.607-.276.138-1.27.103-3.018-1.126s-3.157.512-3.642 1.536c-4.995.102-4.89 4.813-5.827 7.783s-2.29 3.789-3.226 4.198c-.75.328-1.909 1.366-2.394 1.844l-7.284 7.578c-.38.409-1.686 1.085-3.85.512-2.165-.574-4.44.921-5.307 1.741-.59.682-2.56 2.498-5.724 4.301-3.163 1.802-8.185 6.007-10.302 7.885 2.33 0 7.84-3.415 10.302-5.121.348-.239 1.186-.532 1.77.205.727.922 2.497.41 2.913-1.433.333-1.475 1.04-2.663 1.353-3.073.347-.204 1.061-.307 1.144.922.167 2.376 2.914.102 4.267-1.331 0 2.376 1.804.989 2.706 0 3.121-3.687 9.677-11.162 10.926-11.572s.52 1.469 0 2.458c5.307-6.042 4.059-11.47 6.14-13.825 1.665-1.884 2.29.307 2.393 1.639 1.561-2.15.729-5.12 2.706-4.199 1.582.737.66 6.656 0 9.524 3.226-3.994 1.353-5.53 3.642-7.578 1.832-1.639 1.804 1.775 1.561 3.686.693-2.115 2.248-6.492 2.914-7.066s1.596-2.287 1.977-3.072c.173-.58.812-1.823 1.977-2.15 1.166-.328 6.8 6.69 9.47 10.24-.59-.989-1.728-3.133-1.561-3.789.208-.819 3.642 1.741 5.62 3.79 1.581 1.638 4.405 4.3 5.619 5.427.083-1.065-1.076-4.199-1.665-5.633 4.329 3.605 9.434 10.241 11.447 13.108l-5.204-4.096-.208 1.024c-.333 1.802-7.284-4.096-10.718-7.27 0 .067-.021.45-.104 1.433-.084.983-1.353-.137-1.977-.82-1.214-1.193-4.017-3.87-5.516-5.017s-3.122-3.55-3.746-4.608c.583 4.588-1.7 4.573-2.914 3.993 2.581 1.311 7.041 6.417 8.95 8.807-.452-1.091-1.311-3.4-1.145-3.891.208-.615 4.162 2.97 4.787 5.325.5 1.884 2.774 3.994 3.85 4.813l-1.457-3.379c-.104-.682.125-1.454 1.873.921 2.186 2.97 6.973 5.428 8.534 8.09 1.56 2.663-.209 4.301-2.706 3.482-2.498-.819-2.498-.41-4.37-.41-1.874 0-3.539-1.024-6.14-3.379-2.602-2.355-4.059-1.024-5.412 0-1.082.819-10.441 8.534-14.985 12.289 3.58-.984 12.384-7.646 16.338-10.855-.166 2.867-2.29 4.745-3.33 5.325 3.642 0 4.787-2.356 5.203-3.38.333-.819 1.249-.342 1.665 0l3.33 2.97c-1.748 1.475-3.434 5.462-4.058 7.271"/><path fill="url(#k)" d="M138.236 61.143c.004.11.096.198.208.198h.755c.212 0 .637.157.637.782 0 .459-.228.665-.434.742-.107.04-.203.131-.203.244v.216c0 .113.093.205.208.205h4.683c.115 0 .208.092.208.205v2.879l-.001.002v.002l-.002.001h-.003l-.002-.001a50 50 0 0 1-1.033-.648c-2.402-1.55-5.005-1.267-6.021-.927l-.028.012c-.547.285-1.845.953-3.073 1.562l-.011.002a.024.024 0 0 1-.024-.024v-2.548c0-.113.093-.204.208-.204h1.815a.206.206 0 0 0 .208-.205v-.529c0-.113-.096-.203-.203-.244-.206-.077-.435-.283-.435-.742 0-.625.425-.782.638-.782h.75c.114 0 .207-.09.208-.202l.155-14.023a.16.16 0 0 1 .163-.158c.088 0 .16.068.163.155z"/><path fill="url(#l)" d="M138.236 61.143c.004.11.096.198.208.198h.755c.212 0 .637.157.637.782 0 .459-.228.665-.434.742-.107.04-.203.131-.203.244v.216c0 .113.093.205.208.205h4.683c.115 0 .208.092.208.205v2.879l-.001.002v.002l-.002.001h-.003l-.002-.001a50 50 0 0 1-1.033-.648c-2.402-1.55-5.005-1.267-6.021-.927l-.028.012c-.547.285-1.845.953-3.073 1.562l-.011.002a.024.024 0 0 1-.024-.024v-2.548c0-.113.093-.204.208-.204h1.815a.206.206 0 0 0 .208-.205v-.529c0-.113-.096-.203-.203-.244-.206-.077-.435-.283-.435-.742 0-.625.425-.782.638-.782h.75c.114 0 .207-.09.208-.202l.155-14.023a.16.16 0 0 1 .163-.158c.088 0 .16.068.163.155z"/><path fill="url(#m)" d="M66.771 113.828c-.416.082-.173-.444 0-.717 2.248-2.212 4.891-7.339 5.932-9.626.208-.239.645-.43.728.717.313 5.018-6.14 9.523-6.66 9.626"/><path fill="url(#n)" d="M66.771 113.828c-.416.082-.173-.444 0-.717 2.248-2.212 4.891-7.339 5.932-9.626.208-.239.645-.43.728.717.313 5.018-6.14 9.523-6.66 9.626"/><path fill="url(#o)" d="M68.436 127.652c-.416.082-.381-.307-.312-.512 2.29-2.867 7.076-5.632 5.724-3.276-1.353 2.355-4.891 3.686-5.412 3.788"/><path fill="url(#p)" d="M68.436 127.652c-.416.082-.381-.307-.312-.512 2.29-2.867 7.076-5.632 5.724-3.276-1.353 2.355-4.891 3.686-5.412 3.788"/><path fill="url(#q)" d="M76.171 139.535C36.824 135.955 8.996 142.85 0 146.993c10.93-7.126 46.409-20.086 100.889-12.927 68.1 8.949 94.583 20.633 123.084-1.492-28.753 36.046-98.619 11.436-147.802 6.961"/><path fill="#D3281B" d="M37.226 177.064H3.665a.712.712 0 0 1-.654-1.003l7.243-16.005a.72.72 0 0 1 .654-.42H44.47c.52 0 .867.532.654 1.003l-7.244 16.005a.72.72 0 0 1-.654.42"/><path fill="#fff" d="M22.275 162.837c0-.196.16-.356.358-.356h3.585c.198 0 .359.16.359.356v11.026c0 .196-.16.355-.359.355h-3.585a.357.357 0 0 1-.358-.355z"/><path fill="#fff" d="M29.983 166.216c.198 0 .358.159.358.356v3.556c0 .197-.16.356-.358.356H18.869a.357.357 0 0 1-.359-.356v-3.556c0-.197.16-.356.359-.356z"/><path fill="#312D27" d="M61.406 179q-1.7 0-3.46-.424-1.76-.393-2.935-1.059l.154-4.114h.31l.957 1.966q.432.847.927 1.513.494.635 1.36.999.617.302 1.173.423a8.5 8.5 0 0 0 1.298.091q1.884 0 2.966-.999 1.112-.997 1.112-2.571 0-1.483-.742-2.3-.741-.847-2.379-1.634l-1.266-.544q-2.658-1.15-4.17-2.633-1.485-1.512-1.484-3.993 0-1.785.927-3.087.958-1.3 2.626-1.996 1.699-.696 3.954-.696 1.638 0 3.09.423 1.482.424 2.564 1.15l-.185 3.631h-.31l-1.266-2.269q-.525-1.06-1.05-1.483a3 3 0 0 0-1.205-.635 3.7 3.7 0 0 0-.742-.152 5 5 0 0 0-.865-.06q-1.575 0-2.657.907-1.08.877-1.08 2.391 0 1.542.833 2.481.834.907 2.44 1.634l1.422.605q2.966 1.27 4.263 2.723 1.298 1.422 1.298 3.691 0 2.662-2.07 4.357Q65.174 179 61.406 179m13.917-.091q-1.791 0-3.027-.998-1.206-.999-1.205-2.875 0-1.422 1.483-2.602 1.482-1.21 4.665-1.815.495-.09 1.112-.181.618-.121 1.297-.243v-2.39q0-2.057-.525-2.874-.495-.847-1.575-.847-.742 0-1.174.484-.433.453-.556 1.603l-.062.333q-.062 1.302-.649 1.906a1.94 1.94 0 0 1-1.452.605q-.803 0-1.329-.484-.525-.483-.525-1.301 0-1.24.865-2.087.897-.848 2.348-1.271 1.453-.423 3.151-.424 2.75 0 4.233 1.332 1.514 1.3 1.514 4.266v6.686q0 1.362 1.297 1.362h.68l.278.242a4.45 4.45 0 0 1-1.297 1.119q-.68.394-1.947.394-1.36 0-2.162-.605-.772-.636-1.02-1.665a13 13 0 0 1-1.915 1.665q-.958.665-2.503.665m1.885-1.845a2.44 2.44 0 0 0 1.143-.273q.556-.302 1.297-.907v-5.083l-.617.121q-.309.06-.711.121-1.421.363-2.286 1.24-.834.847-.834 2.3 0 1.24.587 1.875.587.606 1.42.606m4.448-16.157a2.53 2.53 0 0 1-1.575-.545q-.68-.574-.68-1.543 0-.968.68-1.513.711-.575 1.575-.575.928 0 1.576.575.68.545.68 1.513 0 .969-.68 1.543-.648.545-1.576.545m-7.167 0a2.45 2.45 0 0 1-1.576-.545q-.68-.574-.68-1.543 0-.968.68-1.513a2.37 2.37 0 0 1 1.576-.575q.896 0 1.576.575.68.545.68 1.513 0 .969-.68 1.543a2.45 2.45 0 0 1-1.576.545m12.254 17.548v-.302l.433-.121q1.08-.303 1.081-1.483v-9.47q0-.665-.216-.968-.216-.333-.834-.454l-.464-.121v-.303l5.283-1.754.31.302.246 1.815a9.8 9.8 0 0 1 2.441-1.543q1.359-.605 2.688-.605 2.04 0 3.12 1.09 1.112 1.089 1.112 3.328v8.713q0 1.18 1.174 1.483l.278.091v.302h-7.29v-.302l.4-.121q1.082-.333 1.082-1.483v-9.651q0-1.937-1.977-1.937-1.36 0-2.966 1.331v10.287q0 1.18 1.082 1.483l.278.091v.302zm23.58.454q-1.977 0-3.089-.968-1.082-.968-1.082-3.086v-10.348h-2.131v-.302l.741-.121q.958-.212 1.637-.605a6.6 6.6 0 0 0 1.391-1.059l2.533-2.754h.309l-.093 4.236h3.46v.605h-3.491V175.4q0 1.058.464 1.603.493.545 1.236.545.648 0 1.143-.303.494-.333.988-.877l.309.302a4.5 4.5 0 0 1-1.699 1.634q-1.081.606-2.626.605m9-17.034q-1.05 0-1.792-.635-.71-.666-.71-1.664 0-1.029.71-1.665.742-.635 1.792-.635t1.761.635q.711.636.711 1.665 0 .998-.711 1.664-.71.635-1.761.635m-3.645 16.58v-.302l.432-.121q.618-.182.835-.545.246-.363.247-.968v-9.47q0-.635-.247-.938-.217-.333-.835-.454l-.432-.091v-.302l5.653-1.785.309.302-.092 4.297v8.471q0 .606.216.968.248.363.834.545l.309.091v.302zm8.597 0v-.302l.432-.121q1.082-.303 1.082-1.483v-9.47q0-.665-.217-.968-.216-.333-.834-.454l-.463-.121v-.303l5.283-1.754.309.302.247 1.815a9.8 9.8 0 0 1 2.44-1.543q1.36-.605 2.688-.605 2.04 0 3.12 1.09 1.113 1.089 1.113 3.328v8.713q0 1.18 1.174 1.483l.278.091v.302h-7.291v-.302l.401-.121q1.082-.333 1.082-1.483v-9.651q0-1.937-1.978-1.937-1.359 0-2.965 1.331v10.287q0 1.18 1.081 1.483l.278.091v.302zm25.677.454q-2.349 0-4.078-.938a6.77 6.77 0 0 1-2.688-2.723q-.927-1.754-.927-4.115 0-2.36.989-4.084a7.05 7.05 0 0 1 2.749-2.663q1.76-.938 3.955-.938 2.193 0 3.923.938a6.63 6.63 0 0 1 2.719 2.633q1.02 1.724 1.019 4.114 0 2.391-.957 4.145a6.62 6.62 0 0 1-2.657 2.693q-1.7.939-4.047.938m0-.605q1.08 0 1.73-.605.648-.605.927-2.148.308-1.543.308-4.357 0-2.844-.308-4.387-.279-1.544-.927-2.148-.65-.606-1.73-.606-1.082 0-1.761.606-.65.604-.958 2.148-.278 1.543-.278 4.387 0 2.814.278 4.357.309 1.543.958 2.148.68.605 1.761.605m8.199.151v-.302l.803-.182q.711-.151 1.143-.454.463-.332.865-.907l3.337-4.69-4.202-6.535a4.6 4.6 0 0 0-.556-.696q-.247-.243-.772-.363l-.433-.121v-.303h7.847v.303l-.525.121q-1.081.333-.433 1.331l2.534 3.843 2.749-3.722q.34-.514.309-.847 0-.363-.587-.514l-.772-.212v-.303h4.51v.303l-.741.181q-.68.182-1.051.484-.37.272-.803.878l-3.244 4.296 4.233 6.445q.772 1.18 2.07 1.513l.494.151v.302h-8.527v-.302l.525-.121q.526-.121.649-.484.155-.394-.154-.878l-2.719-4.145-2.935 4.176q-.37.483-.247.847.154.333.649.454l.618.151v.302zm24.132 0v-.302l.772-.272q.618-.243.958-.575.34-.363.556-.999l6.364-17.881h2.626l6.272 18.002q.247.666.556 1.029.309.333.958.575l.37.121v.302h-7.847v-.302l.464-.151q.649-.243.772-.666.155-.455-.031-1.059l-1.452-4.357h-6.858l-1.483 4.266q-.217.666-.155 1.059.093.393.742.636l.679.272v.302zm4.696-7.14h6.457l-3.121-9.41zm25.49 7.685q-3.151 0-5.561-1.271a9.5 9.5 0 0 1-3.738-3.661q-1.328-2.39-1.328-5.627 0-3.147 1.328-5.507t3.831-3.661q2.534-1.332 6.117-1.331 1.638 0 3.028.363 1.42.363 2.687 1.059l.124 4.236h-.309l-1.73-3.147q-.402-.756-.741-1.089a2.3 2.3 0 0 0-.865-.515q-.495-.15-.927-.211-.401-.091-1.082-.091-1.915 0-3.398.998-1.452.999-2.255 3.177-.804 2.179-.803 5.719 0 3.51.741 5.718.772 2.209 2.163 3.237 1.389.999 3.213.999.278 0 .525-.03.278-.061.525-.121.587-.091.772-.485.186-.393.186-.937v-5.991q0-1.18-1.236-1.452l-1.421-.364v-.302h8.712v.302l-.433.121q-1.173.364-1.174 1.513v6.566a15 15 0 0 1-3.274 1.331q-1.638.454-3.677.454"/><path fill="#CC861C" d="M202.756 35.44 203.339 0l.584 35.44zm.583 56.539-.583-35.442h1.167zm10.703-46.565L250 45.99l-35.958.575zm-57.363.576 35.958-.576v1.15zm38.681-7.053L170.346 13.47l25.839 24.654zm40.973 39.572-25.838-24.654.824-.813zm-25.838-40.385 25.838-24.654-25.014 25.467zm-40.149 40.385 25.014-25.467.825.813zm21.155-60.691 8.339 17.839-1.437.586zm16.776 37.918 6.902 18.425-8.339-17.839zM174.756 34.32l18.695 6.803-.595 1.416zm39.067 15.12 18.1 8.219-18.695-6.803zm-39.067 8.219 18.1-8.22.595 1.417zm38.472-16.536 18.695-6.803-18.1 8.22zm-21.727 33.038 6.902-18.425 1.437.586zm15.339-38.504 8.339-17.84-6.902 18.426zm-20.501-15.144 11.186 16.24-.488.315zm23.302 34.397 10.699 16.556-11.186-16.24zm-36.6-15.087 19.56 3.687-.117.564zm41.155 8.083 19.442 4.25-19.56-3.687zm-36.705 14.839 16.477-11.024.32.48zm34.9-22.967 16.797-10.544-16.477 11.024zm-15.308 36.074 3.741-19.278.571.116zm8.202-40.563 4.312-19.162-3.742 19.278zm-9.04-18.979 4.85 19.036-.567.132zm9.907 40.19 4.283 19.17-4.851-19.037zM177.03 29.947l17.088 10.081-.308.488zm35.84 21.515 16.781 10.57-17.088-10.081zm-39.644 1.52 19.315-4.78.134.56zm40.779-9.764 19.449-4.221-19.316 4.78zM187.062 71.92l10.228-16.84.497.302zm21.831-35.323 10.724-16.539L209.389 36.9z"/><path fill="url(#r)" d="M214.641 45.99c0 6.149-5.058 11.134-11.297 11.134s-11.297-4.985-11.297-11.135 5.058-11.134 11.297-11.134 11.297 4.985 11.297 11.134"/><defs><linearGradient id="a" x1="166.686" x2="210.056" y1="109.45" y2="91.732" gradientUnits="userSpaceOnUse"><stop stop-color="#CC861C"/><stop offset="1" stop-color="#FCD94F"/></linearGradient><linearGradient id="b" x1="125" x2="185.024" y1="118.787" y2="68.986" gradientUnits="userSpaceOnUse"><stop stop-color="#CC861C"/><stop offset="1" stop-color="#FCD94F"/></linearGradient><linearGradient id="c" x1="166.686" x2="210.056" y1="109.45" y2="91.732" gradientUnits="userSpaceOnUse"><stop stop-color="#CC861C"/><stop offset="1" stop-color="#FCD94F"/></linearGradient><linearGradient id="d" x1="125" x2="185.024" y1="118.787" y2="68.986" gradientUnits="userSpaceOnUse"><stop stop-color="#CC861C"/><stop offset="1" stop-color="#FCD94F"/></linearGradient><linearGradient id="e" x1="166.686" x2="210.056" y1="109.45" y2="91.732" gradientUnits="userSpaceOnUse"><stop stop-color="#CC861C"/><stop offset="1" stop-color="#FCD94F"/></linearGradient><linearGradient id="f" x1="125" x2="185.024" y1="118.787" y2="68.986" gradientUnits="userSpaceOnUse"><stop stop-color="#CC861C"/><stop offset="1" stop-color="#FCD94F"/></linearGradient><linearGradient id="g" x1="166.686" x2="210.056" y1="109.45" y2="91.732" gradientUnits="userSpaceOnUse"><stop stop-color="#CC861C"/><stop offset="1" stop-color="#FCD94F"/></linearGradient><linearGradient id="h" x1="125" x2="185.024" y1="118.787" y2="68.986" gradientUnits="userSpaceOnUse"><stop stop-color="#CC861C"/><stop offset="1" stop-color="#FCD94F"/></linearGradient><linearGradient id="i" x1="166.686" x2="210.056" y1="109.45" y2="91.732" gradientUnits="userSpaceOnUse"><stop stop-color="#CC861C"/><stop offset="1" stop-color="#FCD94F"/></linearGradient><linearGradient id="j" x1="125" x2="185.024" y1="118.787" y2="68.986" gradientUnits="userSpaceOnUse"><stop stop-color="#CC861C"/><stop offset="1" stop-color="#FCD94F"/></linearGradient><linearGradient id="k" x1="166.686" x2="210.056" y1="109.45" y2="91.732" gradientUnits="userSpaceOnUse"><stop stop-color="#CC861C"/><stop offset="1" stop-color="#FCD94F"/></linearGradient><linearGradient id="l" x1="125" x2="185.024" y1="118.787" y2="68.986" gradientUnits="userSpaceOnUse"><stop stop-color="#CC861C"/><stop offset="1" stop-color="#FCD94F"/></linearGradient><linearGradient id="m" x1="166.686" x2="210.056" y1="109.45" y2="91.732" gradientUnits="userSpaceOnUse"><stop stop-color="#CC861C"/><stop offset="1" stop-color="#FCD94F"/></linearGradient><linearGradient id="n" x1="125" x2="185.024" y1="118.787" y2="68.986" gradientUnits="userSpaceOnUse"><stop stop-color="#CC861C"/><stop offset="1" stop-color="#FCD94F"/></linearGradient><linearGradient id="o" x1="166.686" x2="210.056" y1="109.45" y2="91.732" gradientUnits="userSpaceOnUse"><stop stop-color="#CC861C"/><stop offset="1" stop-color="#FCD94F"/></linearGradient><linearGradient id="p" x1="125" x2="185.024" y1="118.787" y2="68.986" gradientUnits="userSpaceOnUse"><stop stop-color="#CC861C"/><stop offset="1" stop-color="#FCD94F"/></linearGradient><linearGradient id="q" x1="0" x2="250" y1="89.5" y2="89.5" gradientUnits="userSpaceOnUse"><stop offset=".6" stop-color="#CC861C"/><stop offset=".8" stop-color="#FCD94F"/><stop offset="1" stop-color="#CC861C"/></linearGradient><radialGradient id="r" cx="0" cy="0" r="1" gradientTransform="matrix(0 11.1343 -11.2969 0 203.344 45.99)" gradientUnits="userSpaceOnUse"><stop stop-color="#FCD94F"/><stop offset="1" stop-color="#CC861C"/></radialGradient></defs></svg>