<svg xmlns="http://www.w3.org/2000/svg" width="108" height="83" fill="none"><g clip-path="url(#a)"><path fill="#E0B444" d="M23.978.023c.323-.014.645.03.953.13q.301.114.576.282.131.075.215.116.077.036.161.037c.117 0 .199-.16.234-.484h.255c0 .14-.017.301-.029.484a14 14 0 0 0-.02.73c-.003.303 0 .695 0 1.204h-.255a3.3 3.3 0 0 0-.248-1.077 2.25 2.25 0 0 0-.61-.852 1.5 1.5 0 0 0-1-.334c-.33-.01-.654.103-.904.318a1.1 1.1 0 0 0-.36.857c-.01.277.073.55.234.776.184.236.406.44.659.602q.425.292 1.013.665c.393.247.687.463.974.694.271.213.502.472.682.765.174.312.26.665.247 1.021a1.92 1.92 0 0 1-.352 1.186 2.1 2.1 0 0 1-.953.695 3.6 3.6 0 0 1-1.308.231 3.226 3.226 0 0 1-1.034-.132 5 5 0 0 1-.659-.273.8.8 0 0 0-.376-.155c-.119 0-.2.162-.233.484h-.255q.02-.253.028-.593c.005-.227 0-.523 0-.885v-1.39h.255c.025.447.11.889.25 1.314.117.377.335.717.63.982.319.26.723.393 1.135.373.357.01.706-.105.985-.324a1.18 1.18 0 0 0 .412-.982 1.5 1.5 0 0 0-.468-1.121 7 7 0 0 0-1.219-.91q-.51-.315-.964-.647a2.9 2.9 0 0 1-.726-.774 1.95 1.95 0 0 1-.271-1.049c-.018-.397.099-.79.331-1.114a1.97 1.97 0 0 1 .87-.641c.365-.14.754-.211 1.146-.209M31.542 0a2.93 2.93 0 0 1 1.2.213q.448.2.837.5.222.165.338.04c.107-.183.163-.39.161-.6h.255q-.023.42-.035 1.021c-.01.4 0 .926 0 1.594h-.255a9 9 0 0 0-.144-.83 2.2 2.2 0 0 0-.225-.576 2 2 0 0 0-.383-.464 1.8 1.8 0 0 0-.714-.488 2.4 2.4 0 0 0-.869-.16 1.7 1.7 0 0 0-1.002.303 2.35 2.35 0 0 0-.7.822 4.34 4.34 0 0 0-.42 1.214 7.4 7.4 0 0 0-.139 1.47q-.005.753.15 1.49c.084.42.233.823.441 1.198.177.319.428.592.731.796.302.193.655.292 1.014.285.288-.002.573-.054.843-.153.27-.093.51-.252.7-.463.238-.21.411-.482.5-.785q.154-.598.21-1.214h.255v1.663c0 .422.019.774.035 1.061h-.255a1.22 1.22 0 0 0-.149-.593q-.107-.12-.35.033-.413.286-.87.5a2.807 2.807 0 0 1-1.167.213 4.03 4.03 0 0 1-1.983-.463 3.25 3.25 0 0 1-1.319-1.378 4.5 4.5 0 0 1-.467-2.143 4.55 4.55 0 0 1 .467-2.151A3.6 3.6 0 0 1 29.571.516 3.7 3.7 0 0 1 31.542 0m3.853 7.93V7.7a2.2 2.2 0 0 0 .544-.084.39.39 0 0 0 .234-.264q.071-.293.06-.593v-5.44a2.2 2.2 0 0 0-.06-.598.4.4 0 0 0-.234-.264 1.7 1.7 0 0 0-.548-.084V.142c.184 0 .42.016.7.023a38 38 0 0 0 .934.011c.295 0 .587 0 .874-.011.287-.012.525-.014.7-.023v.231a1.7 1.7 0 0 0-.537.084.41.41 0 0 0-.25.264 2 2 0 0 0-.065.597v5.448q-.012.302.065.593a.4.4 0 0 0 .25.264q.263.078.537.088v.231a9 9 0 0 0-.7-.027c-.28-.003-.58 0-.874 0h-.934c-.292 0-.511 0-.696.016m1.761-3.788V3.91h4.374v.232zm2.912 3.8v-.231q.277-.013.542-.095a.38.38 0 0 0 .234-.264q.07-.293.06-.593V1.32a2.2 2.2 0 0 0-.06-.598.39.39 0 0 0-.234-.264 1.7 1.7 0 0 0-.549-.084V.142c.199 0 .447.016.743.023.297.007.589.011.885.011s.628 0 .913-.011c.285-.012.512-.014.682-.023v.231a1.7 1.7 0 0 0-.537.084.41.41 0 0 0-.25.264 2 2 0 0 0-.065.597v5.448q-.012.302.065.593a.4.4 0 0 0 .25.264q.263.078.537.088v.231a8 8 0 0 0-.682-.027c-.285-.003-.588 0-.913 0h-.885c-.294 0-.537 0-.736.016zM46.39.153v.232a.5.5 0 0 0-.353.143.4.4 0 0 0-.084.313q.029.238.105.463l1.696 4.985-.29.352 1.462-4.37.166.284L47.31 7.97h-.565l-2.436-6.893a1.1 1.1 0 0 0-.348-.549.8.8 0 0 0-.371-.155V.142c.191 0 .425.016.7.023.276.007.538.011.797.011.26 0 .523 0 .752-.011.229-.012.41-.003.551-.012m7.842 0v.232a1.4 1.4 0 0 0-.488.34 2 2 0 0 0-.444.846l-2.003 6.404h-.565L48.384 1a1 1 0 0 0-.282-.496.6.6 0 0 0-.327-.132v-.23c.177 0 .395.016.65.023q.381.01.756.011c.31 0 .602 0 .876-.011.273-.012.495-.014.663-.023v.231q-.271-.005-.535.063a.29.29 0 0 0-.217.252c-.005.205.03.409.105.6l1.595 4.864-.234.352 1.33-4.169c.142-.377.22-.774.233-1.177a.75.75 0 0 0-.243-.593 1.2 1.2 0 0 0-.7-.192V.142l.7.023c.217 0 .437.011.659.011.17 0 .322 0 .467-.011zm6.145 0A17 17 0 0 0 60.3 1.67c0 .146 0 .274.011.401.012.127.014.232.021.324h-.254a4 4 0 0 0-.288-1.193 1.26 1.26 0 0 0-.537-.613 1.86 1.86 0 0 0-.88-.183h-.61a1.8 1.8 0 0 0-.509.055.35.35 0 0 0-.233.232 1.8 1.8 0 0 0-.061.537v5.624a1.8 1.8 0 0 0 .06.533.35.35 0 0 0 .234.231q.25.065.51.056h.632c.325.01.646-.063.934-.211.275-.16.49-.404.615-.695a4.36 4.36 0 0 0 .343-1.313h.255a10 10 0 0 0-.033.88c0 .153 0 .378.016.67.016.291.03.597.06.912a34 34 0 0 0-1.272-.028h-3.482q-.67.002-1.259.028v-.232q.28-.008.55-.088a.38.38 0 0 0 .233-.264q.073-.291.063-.593V1.318a2 2 0 0 0-.063-.597.39.39 0 0 0-.234-.264 1.7 1.7 0 0 0-.549-.084V.142l1.259.023c.446 0 .869.011 1.268.011h2.118q.652 0 1.159-.023M58.592 3.91v.232h-1.97V3.91zm.32-1.45q-.043.626-.037.957c.005.22 0 .421 0 .604s0 .382.012.602c.011.22.025.54.056.957h-.257a3.8 3.8 0 0 0-.17-.709 1.16 1.16 0 0 0-.365-.537 1.1 1.1 0 0 0-.715-.204v-.22a.94.94 0 0 0 .701-.232c.16-.165.28-.365.348-.583a5 5 0 0 0 .166-.626zM64.73.153v.232a1.7 1.7 0 0 0-.538.083.41.41 0 0 0-.25.264 2 2 0 0 0-.065.598v5.447q-.012.302.066.593a.4.4 0 0 0 .254.246q.263.078.537.088v.232a9 9 0 0 0-.7-.028c-.28-.003-.58 0-.874 0h-.934q-.437 0-.7.028v-.232q.28-.01.548-.088a.38.38 0 0 0 .234-.264q.07-.293.06-.593v-5.44a2.2 2.2 0 0 0-.06-.598.39.39 0 0 0-.234-.264 1.7 1.7 0 0 0-.549-.084V.142c.185 0 .42.016.701.023s.6.011.934.011c.294 0 .586 0 .874-.011.287-.012.511-.003.695-.012m6.545 0v.232L67.287 7.69h1.483c.27.003.538-.039.794-.123.24-.08.46-.208.647-.377.204-.196.363-.433.467-.695.134-.345.213-.708.234-1.077h.254c-.02.232-.033.556-.033.945 0 .153 0 .378.017.67.016.291.032.597.06.912a39 39 0 0 0-1.377-.028h-2.83q-.765 0-1.44.028v-.232L69.572.408h-1.497a2.4 2.4 0 0 0-1.018.204c-.3.146-.546.383-.7.676a3.6 3.6 0 0 0-.367 1.307h-.255a3 3 0 0 0 .028-.385v-.463c0-.153 0-.378-.019-.67-.018-.291-.03-.597-.06-.912a36 36 0 0 0 1.3.028h2.798q.806-.016 1.492-.04m6.689 0a17 17 0 0 0-.077 1.517c0 .146 0 .274.011.401.012.127.014.232.021.324h-.254a4 4 0 0 0-.288-1.193A1.26 1.26 0 0 0 76.84.59a1.86 1.86 0 0 0-.88-.183h-.61a1.8 1.8 0 0 0-.509.055.35.35 0 0 0-.233.232 1.8 1.8 0 0 0-.061.537v5.624q-.01.271.06.533a.35.35 0 0 0 .234.231q.25.065.51.056h.63c.329.011.656-.061.948-.211.275-.16.49-.404.614-.695a4.43 4.43 0 0 0 .344-1.313h.254a10 10 0 0 0-.032.88c0 .153 0 .378.016.67.016.291.03.597.06.912a34 34 0 0 0-1.272-.028H73.44q-.668.002-1.256.028v-.232q.28-.008.548-.088a.38.38 0 0 0 .234-.264 2.1 2.1 0 0 0 .06-.593V1.318a2 2 0 0 0-.06-.597.39.39 0 0 0-.234-.264 1.7 1.7 0 0 0-.548-.084V.142l1.256.023c.449 0 .871.011 1.268.011h2.102q.647 0 1.154-.023M76.18 3.91v.232h-1.97V3.91zm.32-1.45q-.043.626-.038.957c.005.22 0 .421 0 .604v.602c0 .22.026.54.056.957h-.257a3.8 3.8 0 0 0-.17-.709 1.16 1.16 0 0 0-.367-.537 1.1 1.1 0 0 0-.712-.204v-.22a.96.96 0 0 0 .7-.232 1.5 1.5 0 0 0 .349-.583 5 5 0 0 0 .166-.626zM79.093.153c.184 0 .42.017.7.023.28.007.577.012.864.012.362 0 .701 0 1.03-.012h.687q1.485 0 2.21.517a1.63 1.63 0 0 1 .726 1.39 2.1 2.1 0 0 1-.145.74 1.8 1.8 0 0 1-.498.696 2.7 2.7 0 0 1-.969.523 5.1 5.1 0 0 1-1.567.202H81.07v-.218h.95c.373.023.745-.063 1.07-.248a1.2 1.2 0 0 0 .497-.66c.09-.3.134-.613.129-.926A2.27 2.27 0 0 0 83.37.848q-.343-.48-1.184-.48-.456 0-.593.188a1.4 1.4 0 0 0-.138.758V6.76q-.012.302.066.593a.4.4 0 0 0 .25.264q.262.08.537.088v.232a9 9 0 0 0-.701-.028c-.28-.002-.58 0-.873 0H79.8q-.436 0-.7.028v-.232q.28-.008.549-.088a.38.38 0 0 0 .233-.264q.071-.292.06-.593V1.318a2.2 2.2 0 0 0-.06-.597.39.39 0 0 0-.233-.264 1.7 1.7 0 0 0-.55-.084zm1.983 3.9q.518.021.868.05l.598.048q.248.023.448.056c.484.015.953.161 1.357.423.313.257.52.618.582 1.015l.254 1.133c.04.223.112.44.215.641a.35.35 0 0 0 .339.18.45.45 0 0 0 .266-.08q.126-.103.222-.232l.154.13a1.9 1.9 0 0 1-.586.5 1.71 1.71 0 0 1-.787.16c-.317.01-.63-.076-.897-.248a1.39 1.39 0 0 1-.497-.926l-.213-1.098a6.5 6.5 0 0 0-.203-.813 1.36 1.36 0 0 0-.315-.554.8.8 0 0 0-.589-.199h-1.195z"/><path fill="#DFB139" d="M8.062 76.223q-.039.39-.054.757-.015.368-.014.559v.347c0 .116.014.204.019.28h-.22a3.5 3.5 0 0 0-.25-1.033 1.1 1.1 0 0 0-.467-.535 1.6 1.6 0 0 0-.763-.155h-.519a1.5 1.5 0 0 0-.441.046.31.31 0 0 0-.208.202 1.5 1.5 0 0 0-.051.463v4.88q-.01.236.051.463a.3.3 0 0 0 .208.207q.218.055.441.046h.547c.285.01.568-.052.822-.18a1.3 1.3 0 0 0 .535-.605 3.82 3.82 0 0 0 .296-1.14h.222q-.03.296-.03.765c0 .132 0 .326.016.58.016.256.026.517.051.79-.327 0-.7-.02-1.104-.022-.404-.003-.776 0-1.096 0H4.127c-.388 0-.752.011-1.09.023v-.19a2 2 0 0 0 .466-.077.33.33 0 0 0 .21-.231q.063-.253.054-.514v-4.716a1.9 1.9 0 0 0-.054-.519.34.34 0 0 0-.21-.232 1.5 1.5 0 0 0-.467-.071v-.19l1.09.018h2.925c.376 0 .717-.004 1.01-.016m-1.548 3.259v.19h-1.71v-.19zm.28-1.258q-.04.543-.035.83.002.285 0 .523v.526c0 .192.02.463.046.829h-.22q-.045-.316-.149-.616a1 1 0 0 0-.317-.463.95.95 0 0 0-.619-.179v-.19a.83.83 0 0 0 .61-.208 1.26 1.26 0 0 0 .3-.505q.09-.267.146-.544zm5.104-2.001q1.844 0 2.732.852c.591.568.89 1.39.89 2.446a3.6 3.6 0 0 1-.437 1.814 3 3 0 0 1-1.263 1.207 4.33 4.33 0 0 1-2.009.428c-.142 0-.352 0-.635-.014-.282-.014-.532-.014-.75-.014h-.768c-.25 0-.467.012-.614.023v-.19q.238-.009.467-.076a.33.33 0 0 0 .213-.232q.064-.247.06-.502v-4.732q.01-.264-.051-.519a.34.34 0 0 0-.213-.232 1.5 1.5 0 0 0-.467-.071v-.19l.615.023c.25 0 .5.011.75 0l.777-.019zm-.087.171a.74.74 0 0 0-.576.162c-.114.2-.16.43-.136.658v4.765a1.07 1.07 0 0 0 .14.657.77.77 0 0 0 .582.163c.496.03.987-.103 1.401-.376.35-.28.598-.667.7-1.102a6.5 6.5 0 0 0 .206-1.763q0-1.602-.523-2.383c-.341-.519-.943-.769-1.794-.769zm9.456-.171q-.038.39-.054.757-.014.368-.014.559v.347c0 .116 0 .204.02.28h-.234a3.5 3.5 0 0 0-.25-1.033 1.1 1.1 0 0 0-.467-.535 1.6 1.6 0 0 0-.764-.155h-.507a1.6 1.6 0 0 0-.441.046.3.3 0 0 0-.206.202q-.062.227-.053.463v4.88q-.009.236.053.463a.3.3 0 0 0 .206.207q.218.055.441.046h.549c.285.01.568-.053.822-.18.238-.14.424-.353.532-.605a3.79 3.79 0 0 0 .3-1.14h.219a8 8 0 0 0-.028.765c0 .132 0 .326.014.58.014.256.028.517.054.79-.327 0-.701-.02-1.105-.022-.404-.003-.775 0-1.095 0h-1.934c-.385 0-.752.011-1.09.023v-.19q.238-.01.466-.077a.34.34 0 0 0 .213-.231q.06-.253.051-.514v-4.716q.01-.264-.051-.519a.35.35 0 0 0-.212-.232 1.5 1.5 0 0 0-.468-.071v-.19l1.091.018h2.931q.566.001 1.011-.016m-1.548 3.259v.19h-1.71v-.19zm.278-1.258q-.038.543-.033.83.002.285 0 .523v.526c0 .192.023.463.05.829h-.235a3.4 3.4 0 0 0-.149-.616 1 1 0 0 0-.315-.463.96.96 0 0 0-.621-.179v-.19a.83.83 0 0 0 .61-.208c.139-.143.243-.316.303-.505q.087-.268.144-.544zm5.084-2.001v.183a1.7 1.7 0 0 0-.496.072.37.37 0 0 0-.233.231q-.066.255-.056.52v4.803q-.01.235.051.463a.3.3 0 0 0 .199.206q.203.055.413.047h.547c.299.011.594-.07.845-.232a1.7 1.7 0 0 0 .558-.695c.153-.345.25-.711.287-1.086h.222a10 10 0 0 0-.028.82c0 .141 0 .34.014.6s.026.53.052.81c-.325 0-.701-.02-1.105-.023s-.775 0-1.095 0h-1.927c-.4 0-.75.012-1.09.023v-.19q.238-.009.466-.076a.33.33 0 0 0 .21-.232q.063-.253.054-.514v-4.72a1.9 1.9 0 0 0-.053-.519.35.35 0 0 0-.21-.232 1.5 1.5 0 0 0-.468-.071v-.19l.617.018h1.583zm10.993 0v.183q-.24 0-.468.072a.35.35 0 0 0-.217.232q-.063.256-.053.518v4.737q-.01.26.058.514a.34.34 0 0 0 .217.232q.229.067.467.076v.19c-.166 0-.378-.02-.633-.023h-1.59a8.19 8.19 0 0 0-.612.023v-.19q.253-.008.495-.076a.35.35 0 0 0 .234-.232q.067-.253.058-.514v-5.188h.065l-2.382 6.212h-.154l-2.536-6.166v4.727q-.01.36.058.711a.51.51 0 0 0 .255.362c.188.088.392.139.6.148v.19c-.121 0-.28-.021-.467-.023-.187-.003-.374 0-.546 0h-.468a3 3 0 0 0-.39.023v-.19a1.1 1.1 0 0 0 .468-.144.52.52 0 0 0 .212-.342q.06-.327.051-.658v-4.401a1.9 1.9 0 0 0-.05-.519.35.35 0 0 0-.213-.231 1.5 1.5 0 0 0-.468-.072v-.19l.39.018h1.168l.596-.018 2.067 5.116-.213.174 2.008-5.262h1.385zm5.729 0q-.04.39-.054.757-.014.368-.014.559v.347c0 .116.011.204.018.28h-.233a3.5 3.5 0 0 0-.25-1.033 1.1 1.1 0 0 0-.467-.535 1.6 1.6 0 0 0-.764-.155h-.53a1.6 1.6 0 0 0-.441.046.3.3 0 0 0-.206.202q-.062.227-.053.463v4.88q-.009.236.053.463a.3.3 0 0 0 .206.207q.217.055.441.046h.549c.285.01.568-.053.822-.18a1.3 1.3 0 0 0 .533-.596c.158-.362.259-.747.299-1.14h.219a8 8 0 0 0-.028.765c0 .132 0 .326.014.581s.028.517.054.79c-.327 0-.7-.02-1.105-.023-.404-.002-.775 0-1.095 0h-1.894c-.386 0-.752.011-1.09.023v-.19a2 2 0 0 0 .466-.076.34.34 0 0 0 .213-.232q.06-.253.051-.514v-4.725a1.9 1.9 0 0 0-.051-.519.35.35 0 0 0-.213-.232 1.5 1.5 0 0 0-.467-.071v-.19l1.09.018h2.932c.376 0 .698-.004.995-.016m-1.549 3.259v.19h-1.71v-.19zm.278-1.258q-.038.543-.033.83c.003.19 0 .365 0 .523v.526c0 .192.024.463.05.829h-.222q-.045-.316-.15-.616a1 1 0 0 0-.315-.463.96.96 0 0 0-.621-.179v-.19a.83.83 0 0 0 .61-.208c.139-.143.243-.316.303-.505q.087-.268.145-.544zm7.919-2.001q-.04.437-.054.852-.015.415-.014.635v.41c0 .127.014.231.019.333h-.22a5.4 5.4 0 0 0-.327-1.197 1.34 1.34 0 0 0-.495-.619 1.56 1.56 0 0 0-.822-.19h-.308v5.432a1.8 1.8 0 0 0 .072.581.41.41 0 0 0 .294.253q.316.074.642.071v.19c-.191 0-.44-.02-.75-.023H44.62c-.29 0-.528.012-.701.023v-.19q.32.001.633-.071a.43.43 0 0 0 .299-.253q.09-.284.077-.581v-5.436h-.318a1.57 1.57 0 0 0-.817.19c-.23.15-.408.368-.51.623-.154.385-.26.787-.317 1.197h-.22q.021-.166.024-.333v-.41c0-.146 0-.36-.014-.635-.014-.276-.028-.56-.054-.852l.934.018h3.893zm3.123-.028 2.335 5.973c.065.178.172.337.313.464a.6.6 0 0 0 .313.138v.19c-.168 0-.369-.02-.602-.023-.234-.002-.468 0-.715 0h-.79c-.245 0-.44.012-.595.023v-.19a.96.96 0 0 0 .626-.166q.134-.149-.058-.635l-1.691-4.526.172-.21-1.536 3.956a2.6 2.6 0 0 0-.234.965.52.52 0 0 0 .234.464c.193.1.408.15.626.143v.19c-.206 0-.404-.02-.596-.023H48.4q-.165.003-.332.023v-.19a.9.9 0 0 0 .418-.248c.18-.202.315-.439.4-.694l2.2-5.64h.25c.088 0 .16.02.238.016m.836 4.03v.19h-2.863l.095-.19zm5.055-4.002v.183a1.7 1.7 0 0 0-.495.072.36.36 0 0 0-.234.231q-.068.255-.058.52v4.803q-.009.235.053.463a.3.3 0 0 0 .197.206q.203.055.413.047h.551c.3.01.594-.07.846-.232.244-.178.436-.418.555-.695.155-.344.253-.71.29-1.086h.222q-.03.315-.03.82c0 .141 0 .34.014.6s.028.53.053.81c-.327 0-.7-.02-1.104-.023s-.776 0-1.096 0h-1.926c-.388 0-.752.012-1.091.023v-.19q.238-.009.467-.076a.33.33 0 0 0 .213-.232q.063-.253.053-.514v-4.72a1.9 1.9 0 0 0-.053-.519.34.34 0 0 0-.213-.232 1.5 1.5 0 0 0-.467-.071v-.19l.614.018h1.586zm5.798 0v.183a1.7 1.7 0 0 0-.495.072.37.37 0 0 0-.233.231 1.8 1.8 0 0 0-.059.52v4.803q-.008.235.054.463a.3.3 0 0 0 .196.206q.203.055.414.047h.548c.3.01.595-.07.846-.232a1.69 1.69 0 0 0 .558-.695c.153-.345.25-.711.287-1.086h.22q-.03.315-.03.82c0 .141 0 .34.016.6s.026.53.051.81c-.327 0-.7-.02-1.104-.023s-.776 0-1.096 0H61.51c-.387 0-.751.012-1.09.023v-.19q.238-.01.467-.076a.33.33 0 0 0 .21-.232q.067-.246.066-.502v-4.732a1.9 1.9 0 0 0-.054-.519.35.35 0 0 0-.21-.232 1.5 1.5 0 0 0-.467-.071v-.19l.614.018h1.586zm2.955 6.747v-.19q.238-.01.467-.076a.33.33 0 0 0 .21-.232q.063-.253.054-.514v-4.725a1.9 1.9 0 0 0-.054-.519.34.34 0 0 0-.21-.232 1.5 1.5 0 0 0-.467-.071v-.19l.614.018h1.567l.614-.018v.185a1.5 1.5 0 0 0-.467.072.36.36 0 0 0-.217.231 1.8 1.8 0 0 0-.056.52v4.736q-.01.26.056.514a.34.34 0 0 0 .217.232q.229.067.467.076v.19c-.159 0-.364-.02-.614-.023h-1.567q-.375-.001-.614.016m1.527-3.298v-.19h3.795v.19zm2.525 3.298v-.19q.238-.009.467-.076a.34.34 0 0 0 .212-.232q.061-.253.052-.514v-4.725a1.9 1.9 0 0 0-.052-.519.35.35 0 0 0-.212-.232 1.5 1.5 0 0 0-.467-.071v-.19l.644.018h1.563c.247 0 .443-.011.59-.018v.185a1.5 1.5 0 0 0-.467.072.36.36 0 0 0-.215.231 1.7 1.7 0 0 0-.058.52v4.736q-.01.261.058.514a.34.34 0 0 0 .215.232q.23.067.468.076v.19c-.148 0-.346-.02-.591-.023h-1.563q-.384-.001-.644.016m6.539-6.775 2.335 5.973c.065.178.172.337.313.464a.6.6 0 0 0 .313.138v.19c-.168 0-.367-.02-.6-.023-.234-.002-.468 0-.717 0h-.787c-.243 0-.444.012-.596.023v-.19a.95.95 0 0 0 .624-.166q.133-.149-.059-.635l-1.69-4.526.172-.21-1.536 3.956a2.6 2.6 0 0 0-.234.965.52.52 0 0 0 .234.464c.191.1.406.15.623.143v.19c-.205 0-.404-.02-.595-.023h-.977q-.166.003-.331.023v-.19a.9.9 0 0 0 .418-.248c.179-.202.314-.439.4-.694l2.2-5.64h.249c.089 0 .173.02.24.016m.836 4.03v.19h-2.857l.096-.19zm8.465-4.002v.183a1 1 0 0 0-.468.138.53.53 0 0 0-.217.343q-.06.329-.051.663v5.44h-.404l-4.124-5.558v4.115q-.009.359.058.712a.53.53 0 0 0 .254.36c.189.09.393.14.6.149v.19c-.12 0-.277-.02-.466-.023h-1.016c-.159 0-.288.011-.39.023v-.19a1.1 1.1 0 0 0 .467-.144.52.52 0 0 0 .21-.342 3.2 3.2 0 0 0 .054-.658v-4.4a1.9 1.9 0 0 0-.054-.52.34.34 0 0 0-.21-.231 1.5 1.5 0 0 0-.467-.072v-.19l.39.019h.899l.376-.02 3.603 4.756v-3.333q.01-.361-.058-.716a.54.54 0 0 0-.25-.361 1.4 1.4 0 0 0-.605-.144v-.19l.467.019h1.009zm3.498 0q1.845 0 2.734.852.891.853.888 2.446a3.6 3.6 0 0 1-.437 1.814c-.29.517-.73.938-1.263 1.207a4.33 4.33 0 0 1-2.009.428c-.14 0-.352 0-.635-.014-.282-.014-.53-.014-.75-.014h-.768c-.25 0-.453.012-.614.023v-.19q.238-.009.467-.076a.33.33 0 0 0 .21-.232q.063-.253.054-.514v-4.72a1.9 1.9 0 0 0-.054-.519.35.35 0 0 0-.21-.232 1.5 1.5 0 0 0-.467-.071v-.19l.614.023c.25 0 .5.011.75 0l.78-.019zm-.087.171a.75.75 0 0 0-.576.162c-.111.201-.158.43-.134.658v4.765c-.025.228.023.458.138.657a.76.76 0 0 0 .582.163c.495.029.987-.103 1.4-.376a2.01 2.01 0 0 0 .702-1.102c.15-.575.22-1.168.207-1.763q0-1.602-.523-2.383c-.343-.519-.943-.769-1.796-.769zm9.457-.171q-.04.39-.054.757-.014.368-.014.559v.347c0 .116.014.204.018.28h-.22a3.5 3.5 0 0 0-.249-1.033 1.1 1.1 0 0 0-.467-.535 1.6 1.6 0 0 0-.764-.155H96.7a1.6 1.6 0 0 0-.443.046.31.31 0 0 0-.206.202q-.062.227-.053.463v4.88q-.01.236.053.463a.3.3 0 0 0 .206.207q.218.055.444.046h.546c.285.01.568-.053.822-.18.237-.138.423-.346.532-.596.16-.362.26-.746.3-1.14h.221a8 8 0 0 0-.03.765c0 .132 0 .326.014.581s.028.517.054.79c-.327 0-.701-.02-1.105-.023s-.775 0-1.095 0h-1.927c-.4 0-.752.011-1.09.023v-.19q.238-.009.467-.076a.33.33 0 0 0 .212-.232q.063-.253.054-.514v-4.725a1.9 1.9 0 0 0-.054-.519.34.34 0 0 0-.212-.232 1.5 1.5 0 0 0-.468-.071v-.19l1.091.018h2.931c.376 0 .72-.004 1.014-.016m-1.549 3.259v.19h-1.702v-.19zm.28-1.258q-.038.543-.035.83c.003.19 0 .365 0 .523v.526c0 .192.024.463.05.829H97.5a3.4 3.4 0 0 0-.148-.616 1 1 0 0 0-.317-.463.96.96 0 0 0-.621-.179v-.19a.83.83 0 0 0 .611-.208 1.26 1.26 0 0 0 .302-.505q.09-.267.144-.544zm5.081-2.001v.183a1.7 1.7 0 0 0-.495.072.36.36 0 0 0-.234.231 1.7 1.7 0 0 0-.058.52v4.803a1.5 1.5 0 0 0 .054.463.296.296 0 0 0 .196.206q.203.055.413.047h.547c.299.01.595-.07.847-.232.245-.178.437-.418.556-.695.155-.344.252-.71.29-1.086h.219a10 10 0 0 0-.028.82c0 .141 0 .34.014.6s.028.53.054.81c-.327 0-.701-.02-1.105-.023s-.775 0-1.095 0h-1.917c-.386 0-.752.012-1.091.023v-.19q.238-.009.467-.076a.33.33 0 0 0 .213-.232q.06-.253.051-.514v-4.72q.01-.264-.051-.519a.35.35 0 0 0-.213-.232 1.5 1.5 0 0 0-.467-.071v-.19l.614.018h1.586z"/><path fill="#E0B443" d="M108 73.281c-15.04-3.81-33.74-6.064-54.003-6.064-20.265 0-38.96 2.254-53.997 6.064 13.695-5.647 32.826-9.151 53.997-9.151S94.3 67.634 108 73.28m-7.565-54.195a7.6 7.6 0 0 0-1.466-1.137 6 6 0 0 0-.6-.334 2 2 0 0 0-.234-.118 6 6 0 0 0-.252-.109 7 7 0 0 0-.425-.167 8 8 0 0 0-1.425-.361l-.294-.042c-.091 0-.182-.02-.276-.027-.093-.008-.212-.02-.32-.021-.107-.003-.233 0-.366 0h-.358l-.366.025a7.2 7.2 0 0 0-1.84.482c-.588.25-1.138.58-1.635.98a6.6 6.6 0 0 0-2.102 3.085 6.2 6.2 0 0 0-.3 1.839 5.375 5.375 0 0 0 2.707 4.818 5.1 5.1 0 0 0 1.78.62 5.3 5.3 0 0 0 1.401.028q.237-.027.467-.086a4.2 4.2 0 0 0 1.665-.818 4.1 4.1 0 0 0 1.138-1.456 3.83 3.83 0 0 0 .355-1.721 3.06 3.06 0 0 0-.505-1.65 2.9 2.9 0 0 0-1.25-1.062 2.7 2.7 0 0 0-1.522-.195 2.535 2.535 0 0 1 1.997 1.647c.125.38.143.788.054 1.179a2.5 2.5 0 0 1-.467 1.056 2.48 2.48 0 0 1-1.824 1.008 3.2 3.2 0 0 1-1.044-.137 3 3 0 0 1-.934-.48 2.8 2.8 0 0 1-.933-1.153 2.8 2.8 0 0 1-.214-1.464 3.39 3.39 0 0 1 .234-1.017q.067-.183.16-.354a3.62 3.62 0 0 1 1.047-1.302 3.65 3.65 0 0 1 2.225-.769 4.97 4.97 0 0 1 3.505 1.419 4.86 4.86 0 0 1 1.46 3.464c.015 3.405-3.208 6.504-7.64 6.504H58.084a2.75 2.75 0 0 0-1.933.792 2.7 2.7 0 0 0-.801 1.917v26.903q3.302.175 6.51.477V36.435a1.27 1.27 0 0 1 .379-.905 1.3 1.3 0 0 1 .913-.373h2.763c.342 0 .67.134.911.374.242.24.378.565.378.904v24.86q3.32.405 6.509.926v-26.04a1.02 1.02 0 0 1 .639-.947 1.03 1.03 0 0 1 .395-.077h3.27c.274 0 .536.108.73.3.193.191.302.452.302.723v26.715c2.237.463 4.412.957 6.511 1.494V39.58a3.52 3.52 0 0 0 4.87-.365 3.457 3.457 0 0 0-.23-4.838s6.178.748 9.79-2.835q.161-.157.313-.324a9.5 9.5 0 0 0 2.506-6.485 7.9 7.9 0 0 0-.619-3.059 8 8 0 0 0-1.756-2.588M87.715 38.54c-.327 0-.646-.092-.923-.264a1.71 1.71 0 0 1-.436-2.527 1.74 1.74 0 0 1 1.74-.61c.318.071.61.23.841.457.232.228.394.516.468.831a1.7 1.7 0 0 1-.325 1.47 1.73 1.73 0 0 1-1.366.654zM5.182 24.74A9.5 9.5 0 0 0 8 31.549c3.613 3.583 9.79 2.835 9.79 2.835a3.457 3.457 0 0 0-.176 4.79 3.523 3.523 0 0 0 4.816.404V64.39a133.45 133.45 0 0 1 6.513-1.494V36.181a1.01 1.01 0 0 1 .301-.723 1.03 1.03 0 0 1 .73-.3h3.269a1.04 1.04 0 0 1 .731.299 1.02 1.02 0 0 1 .303.724V62.23q3.186-.528 6.511-.926V36.436c0-.339.136-.663.377-.903.242-.24.569-.375.91-.375h2.763a1.3 1.3 0 0 1 .913.373 1.28 1.28 0 0 1 .379.905v24.915q3.204-.298 6.51-.477V33.962a2.7 2.7 0 0 0-.8-1.917 2.73 2.73 0 0 0-1.934-.792H15.96c-4.438 0-7.656-3.1-7.642-6.504a4.86 4.86 0 0 1 1.456-3.458 4.97 4.97 0 0 1 3.495-1.423q.186 0 .37.021c.088 0 .175.021.26.038q.103.015.202.041c.508.121.983.35 1.394.67a3.6 3.6 0 0 1 1.049 1.301q.09.172.158.355a3.4 3.4 0 0 1 .234 1.016 3.02 3.02 0 0 1-.054.976 2.97 2.97 0 0 1-1.093 1.628 2.98 2.98 0 0 1-.934.48 3.2 3.2 0 0 1-1.046.136 2.5 2.5 0 0 1-1.824-1.008 2.5 2.5 0 0 1-.467-1.056c-.089-.39-.07-.798.053-1.179a2.529 2.529 0 0 1 1.997-1.646 2.7 2.7 0 0 0-1.522.194 2.9 2.9 0 0 0-1.252 1.068 3.1 3.1 0 0 0-.505 1.649 3.8 3.8 0 0 0 .355 1.72 4.1 4.1 0 0 0 1.14 1.456 4.2 4.2 0 0 0 2.13.905q.232.03.467.032a5.3 5.3 0 0 0 .934-.06 5.1 5.1 0 0 0 1.798-.607 5.37 5.37 0 0 0 2.41-2.9 5.2 5.2 0 0 0 .302-1.917 6.3 6.3 0 0 0-.297-1.84 6.6 6.6 0 0 0-2.102-3.085 7 7 0 0 0-1.634-.98 7.2 7.2 0 0 0-1.843-.481l-.367-.026h-.724c-.133 0-.212 0-.32.021-.107.021-.184.017-.275.028l-.294.042a8 8 0 0 0-1.425.361c-.091.03-.397.15-.425.167a7 7 0 0 0-.252.109q-.12.053-.234.118-.309.15-.6.334l-.234.145q-.668.433-1.233.992a8 8 0 0 0-1.762 2.59c-.41.97-.62 2.012-.622 3.064m13.412 11.7c.074-.314.236-.602.468-.83a1.74 1.74 0 0 1 1.8-.4c.308.108.579.3.782.553a1.713 1.713 0 0 1-.439 2.528 1.75 1.75 0 0 1-.922.262 1.73 1.73 0 0 1-1.365-.647 1.7 1.7 0 0 1-.324-1.465m86.792-25.081H2.613a.67.67 0 0 0-.673.667v1.7a.67.67 0 0 0 .673.668h102.773a.67.67 0 0 0 .673-.668v-1.7a.67.67 0 0 0-.673-.667"/><path fill="#E0B443" d="M84.356 24.304H23.643a.67.67 0 0 0-.672.667v1.7a.67.67 0 0 0 .672.667h60.713a.67.67 0 0 0 .673-.667v-1.7a.67.67 0 0 0-.673-.667m0-5.184H23.643a.67.67 0 0 0-.672.667v1.7a.67.67 0 0 0 .672.667h60.713a.67.67 0 0 0 .673-.667v-1.7a.67.67 0 0 0-.673-.667"/></g><defs><clipPath id="a"><path fill="#fff" d="M0 0h108v83H0z"/></clipPath></defs></svg>